<?xml version="1.0" encoding="utf-8"?>
<!-- Generator: Adobe Illustrator 27.0.0, SVG Export Plug-In . SVG Version: 6.00 Build 0)  -->
<svg version="1.2" baseProfile="tiny" id="Layer_1" xmlns="http://www.w3.org/2000/svg" xmlns:xlink="http://www.w3.org/1999/xlink"
	 x="0px" y="0px" width="520.2px" height="213.5px" viewBox="0 0 520.2 213.5" overflow="visible" xml:space="preserve">
<path fill="none" stroke="#000000" stroke-width="1.5002" d="M86.1,69.4l5.8-3.7c5.8-3.7,17.4-11.1,28.2-14.8
	c10.8-3.7,20.7-3.7,25.7-3.7h5"/>
<polygon fill="#333333" points="142.6,42.6 151.6,47.1 142.6,51.6 "/>
<rect x="141.1" y="42.6" fill-rule="evenodd" fill="none" width="12" height="9"/>
<path fill="none" stroke="#000000" stroke-width="1.5002" d="M86.1,104.4l5.8,3.7c5.8,3.7,17.4,11.1,31.7,14.8
	c14.3,3.7,31.3,3.7,39.7,3.7h8.5"/>
<polygon fill="#333333" points="163.8,122.1 172.8,126.6 163.8,131.1 "/>
<rect x="162.3" y="122.1" fill-rule="evenodd" fill="none" width="12" height="9"/>
<path fill="none" stroke="#000000" stroke-width="1.5002" d="M266.5,107.7l8.7-3.5c8.7-3.5,26-10.4,39.7-13.9s24-3.5,29.2-3.5h5.1"
	/>
<polygon fill="#333333" points="341.1,82.4 350.1,86.9 341.1,91.4 "/>
<rect x="339.6" y="82.4" fill-rule="evenodd" fill="none" width="12" height="9"/>
<path fill="none" stroke="#000000" stroke-width="1.5002" d="M266.5,145.6l8.7,3.5c8.7,3.5,26,10.4,40.8,13.9s27.2,3.5,33.4,3.5h6.2
	"/>
<polygon fill="#333333" points="347.4,161.9 356.4,166.4 347.4,170.9 "/>
<rect x="345.9" y="161.9" fill-rule="evenodd" fill="none" width="12" height="9"/>
<path d="M111.4,48.9c0,0.4,0.1,0.6,0.3,0.8c0.3,0.3,0.7,0.5,1.4,0.5c0.4,0,0.7-0.1,1.1-0.3s0.5-0.4,0.5-0.8c0-0.3-0.1-0.5-0.4-0.6
	c-0.2-0.1-0.5-0.2-0.9-0.3l-0.9-0.2c-0.5-0.1-0.9-0.3-1.2-0.4c-0.5-0.3-0.7-0.7-0.7-1.2c0-0.6,0.2-1.1,0.7-1.4s1-0.6,1.7-0.6
	c1,0,1.6,0.3,2.1,0.8c0.3,0.4,0.4,0.7,0.4,1.1h-1c0-0.2-0.1-0.5-0.3-0.6c-0.2-0.3-0.7-0.4-1.3-0.4c-0.4,0-0.7,0.1-0.9,0.2
	s-0.3,0.4-0.3,0.6c0,0.3,0.1,0.5,0.4,0.7c0.2,0.1,0.4,0.2,0.7,0.3l0.7,0.2c0.8,0.2,1.3,0.4,1.6,0.5c0.4,0.3,0.6,0.7,0.6,1.3
	c0,0.6-0.2,1-0.6,1.4s-1.1,0.6-2,0.6c-0.9,0-1.6-0.2-2-0.6c-0.4-0.4-0.6-0.9-0.6-1.6H111.4z"/>
<path d="M117.8,44.6v4.2c0,0.3,0,0.6,0.1,0.8c0.2,0.4,0.5,0.6,1,0.6c0.7,0,1.2-0.3,1.5-1c0.1-0.4,0.2-0.8,0.2-1.4v-3.1h1.1v6.3h-1
	l0-0.9c-0.1,0.2-0.3,0.4-0.5,0.6c-0.4,0.3-0.9,0.5-1.4,0.5c-0.9,0-1.5-0.3-1.8-0.9c-0.2-0.3-0.3-0.7-0.3-1.3v-4.3H117.8z"/>
<path d="M123.3,42.2h1v3.1c0.2-0.3,0.5-0.5,0.8-0.7c0.3-0.2,0.7-0.2,1-0.2c0.8,0,1.4,0.3,1.9,0.8s0.7,1.3,0.7,2.4
	c0,1-0.2,1.8-0.7,2.5s-1.2,1-2,1c-0.5,0-0.9-0.1-1.2-0.3c-0.2-0.1-0.4-0.4-0.6-0.7v0.8h-1V42.2z M127.3,49.5
	c0.3-0.5,0.4-1.1,0.4-1.8c0-0.7-0.1-1.2-0.4-1.6s-0.7-0.7-1.3-0.7c-0.5,0-0.9,0.2-1.3,0.5s-0.5,0.9-0.5,1.8c0,0.6,0.1,1.1,0.2,1.4
	c0.3,0.7,0.8,1,1.6,1C126.6,50.1,127.1,49.9,127.3,49.5z"/>
<path d="M129.1,52.5c0.5,0,0.8-0.1,0.9-0.1s0.1-0.3,0.1-0.6v-7.1h1.1v7.2c0,0.5-0.1,0.8-0.2,1c-0.2,0.4-0.7,0.6-1.4,0.6
	c-0.1,0-0.1,0-0.2,0s-0.1,0-0.3,0V52.5z M131.1,43.5h-1.1v-1.2h1.1V43.5z"/>
<rect x="110" y="40.4" fill-rule="evenodd" fill="none" width="21.8" height="13.5"/>
<path d="M307.1,84.4h1v0.8c0.2-0.3,0.4-0.5,0.7-0.7c0.4-0.2,0.8-0.4,1.3-0.4c0.7,0,1.3,0.3,1.8,0.8c0.5,0.5,0.7,1.3,0.7,2.3
	c0,1.4-0.4,2.3-1.1,2.9c-0.5,0.4-1,0.6-1.6,0.6c-0.5,0-0.9-0.1-1.2-0.3c-0.2-0.1-0.4-0.3-0.6-0.6v3.2h-1.1V84.4z M311.1,89.3
	c0.3-0.4,0.5-1,0.5-1.8c0-0.5-0.1-0.9-0.2-1.3c-0.3-0.7-0.8-1-1.5-1c-0.7,0-1.2,0.4-1.5,1.1c-0.1,0.4-0.2,0.9-0.2,1.5
	c0,0.5,0.1,0.9,0.2,1.2c0.3,0.6,0.8,1,1.5,1C310.3,89.9,310.7,89.7,311.1,89.3z"/>
<path d="M313.9,84.3h1v1.1c0.1-0.2,0.3-0.5,0.6-0.8c0.3-0.3,0.7-0.5,1.1-0.5c0,0,0.1,0,0.1,0s0.1,0,0.2,0v1.1c-0.1,0-0.1,0-0.2,0
	s-0.1,0-0.2,0c-0.5,0-0.9,0.2-1.2,0.5c-0.3,0.3-0.4,0.7-0.4,1.2v3.6h-1.1V84.3z"/>
<path d="M321.7,84.5c0.4,0.2,0.7,0.5,0.9,0.8c0.2,0.3,0.3,0.7,0.4,1.1c0.1,0.3,0.1,0.8,0.1,1.4h-4.6c0,0.6,0.2,1.2,0.4,1.5
	s0.7,0.6,1.3,0.6c0.5,0,1-0.2,1.3-0.5c0.2-0.2,0.3-0.5,0.4-0.7h1c0,0.2-0.1,0.5-0.3,0.8s-0.3,0.5-0.5,0.7c-0.3,0.3-0.7,0.5-1.2,0.6
	c-0.3,0.1-0.5,0.1-0.9,0.1c-0.8,0-1.4-0.3-2-0.9c-0.5-0.6-0.8-1.4-0.8-2.4c0-1,0.3-1.8,0.8-2.5c0.5-0.6,1.3-0.9,2.1-0.9
	C320.9,84.2,321.3,84.3,321.7,84.5z M322.1,87c0-0.5-0.1-0.8-0.3-1.1c-0.3-0.5-0.8-0.8-1.4-0.8c-0.5,0-0.9,0.2-1.2,0.5
	c-0.3,0.3-0.5,0.8-0.5,1.3H322.1z"/>
<path d="M328,84.5c0.2,0.1,0.4,0.3,0.6,0.6V82h1v8.6h-0.9v-0.9c-0.2,0.4-0.5,0.7-0.9,0.8c-0.3,0.2-0.7,0.3-1.2,0.3
	c-0.7,0-1.3-0.3-1.8-0.9c-0.5-0.6-0.8-1.4-0.8-2.3c0-0.9,0.2-1.7,0.7-2.4s1.1-1,2-1C327.3,84.2,327.7,84.3,328,84.5z M325.6,89.2
	c0.3,0.5,0.7,0.7,1.4,0.7c0.5,0,0.9-0.2,1.2-0.6c0.3-0.4,0.5-1,0.5-1.8c0-0.8-0.2-1.4-0.5-1.8s-0.7-0.6-1.2-0.6
	c-0.5,0-1,0.2-1.3,0.6s-0.5,1-0.5,1.8C325.2,88.2,325.3,88.8,325.6,89.2z"/>
<rect x="306.4" y="80.1" fill-rule="evenodd" fill="none" width="24" height="13.5"/>
<path d="M315.7,164.5c0.6,0.5,0.8,1.3,0.8,2.4c0,1-0.2,1.8-0.7,2.5s-1.2,1-2.3,1c-0.9,0-1.5-0.3-2-0.9c-0.5-0.6-0.8-1.4-0.8-2.4
	c0-1.1,0.3-1.9,0.8-2.5c0.5-0.6,1.2-0.9,2.1-0.9C314.5,163.7,315.2,163.9,315.7,164.5z M315.1,168.6c0.3-0.5,0.4-1.1,0.4-1.8
	c0-0.6-0.1-1.1-0.3-1.4c-0.3-0.6-0.8-0.9-1.5-0.9c-0.6,0-1.1,0.2-1.4,0.7c-0.3,0.5-0.4,1.1-0.4,1.8c0,0.7,0.1,1.2,0.4,1.7
	c0.3,0.4,0.7,0.7,1.4,0.7C314.3,169.4,314.8,169.2,315.1,168.6z"/>
<path d="M317.8,161.5h1v3.1c0.2-0.3,0.5-0.5,0.8-0.7c0.3-0.2,0.7-0.2,1-0.2c0.8,0,1.4,0.3,1.9,0.8s0.7,1.3,0.7,2.4
	c0,1-0.2,1.8-0.7,2.5s-1.2,1-2,1c-0.5,0-0.9-0.1-1.2-0.3c-0.2-0.1-0.4-0.4-0.6-0.7v0.8h-1V161.5z M321.8,168.7
	c0.3-0.5,0.4-1.1,0.4-1.8c0-0.7-0.1-1.2-0.4-1.6s-0.7-0.7-1.3-0.7c-0.5,0-0.9,0.2-1.3,0.5s-0.5,0.9-0.5,1.8c0,0.6,0.1,1.1,0.2,1.4
	c0.3,0.7,0.8,1,1.6,1C321.1,169.4,321.5,169.2,321.8,168.7z"/>
<path d="M323.5,171.7c0.5,0,0.8-0.1,0.9-0.1s0.1-0.3,0.1-0.6v-7.1h1.1v7.2c0,0.5-0.1,0.8-0.2,1c-0.2,0.4-0.7,0.6-1.4,0.6
	c-0.1,0-0.1,0-0.2,0s-0.1,0-0.3,0V171.7z M325.6,162.7h-1.1v-1.2h1.1V162.7z"/>
<rect x="310.4" y="159.6" fill-rule="evenodd" fill="none" width="15.8" height="13.5"/>
<path fill="none" stroke="#000000" stroke-width="2.2504" d="M91.2,86.9c0,1.1-0.1,2.1-0.2,3.2s-0.3,2.1-0.5,3.2
	c-0.2,1-0.5,2.1-0.8,3.1c-0.3,1-0.7,2-1.1,3c-0.4,1-0.9,1.9-1.4,2.9c-0.5,0.9-1,1.9-1.6,2.7c-0.6,0.9-1.2,1.7-1.9,2.6
	c-0.7,0.8-1.4,1.6-2.1,2.4c-0.8,0.8-1.5,1.5-2.4,2.1c-0.8,0.7-1.7,1.3-2.6,1.9c-0.9,0.6-1.8,1.1-2.7,1.6c-0.9,0.5-1.9,1-2.9,1.4
	c-1,0.4-2,0.8-3,1.1c-1,0.3-2.1,0.6-3.1,0.8s-2.1,0.4-3.2,0.5c-1.1,0.1-2.1,0.2-3.2,0.2s-2.1-0.1-3.2-0.2c-1.1-0.1-2.1-0.3-3.2-0.5
	s-2.1-0.5-3.1-0.8c-1-0.3-2-0.7-3-1.1c-1-0.4-1.9-0.9-2.9-1.4c-0.9-0.5-1.9-1-2.7-1.6c-0.9-0.6-1.7-1.2-2.6-1.9
	c-0.8-0.7-1.6-1.4-2.4-2.1c-0.8-0.8-1.5-1.5-2.1-2.4c-0.7-0.8-1.3-1.7-1.9-2.6c-0.6-0.9-1.1-1.8-1.6-2.7c-0.5-0.9-1-1.9-1.4-2.9
	c-0.4-1-0.8-2-1.1-3c-0.3-1-0.6-2.1-0.8-3.1c-0.2-1-0.4-2.1-0.5-3.2s-0.2-2.1-0.2-3.2c0-1.1,0.1-2.1,0.2-3.2s0.3-2.1,0.5-3.2
	c0.2-1,0.5-2.1,0.8-3.1c0.3-1,0.7-2,1.1-3c0.4-1,0.9-1.9,1.4-2.9c0.5-0.9,1-1.9,1.6-2.7c0.6-0.9,1.2-1.7,1.9-2.6
	c0.7-0.8,1.4-1.6,2.1-2.4c0.8-0.8,1.5-1.5,2.4-2.1c0.8-0.7,1.7-1.3,2.6-1.9c0.9-0.6,1.8-1.1,2.7-1.6c0.9-0.5,1.9-1,2.9-1.4
	c1-0.4,2-0.8,3-1.1c1-0.3,2.1-0.6,3.1-0.8s2.1-0.4,3.2-0.5c1.1-0.1,2.1-0.2,3.2-0.2s2.1,0.1,3.2,0.2c1.1,0.1,2.1,0.3,3.2,0.5
	s2.1,0.5,3.1,0.8c1,0.3,2,0.7,3,1.1c1,0.4,1.9,0.9,2.9,1.4c0.9,0.5,1.9,1,2.7,1.6c0.9,0.6,1.7,1.2,2.6,1.9c0.8,0.7,1.6,1.4,2.4,2.1
	c0.8,0.8,1.5,1.5,2.1,2.4c0.7,0.8,1.3,1.7,1.9,2.6c0.6,0.9,1.1,1.8,1.6,2.7c0.5,0.9,1,1.9,1.4,2.9c0.4,1,0.8,2,1.1,3
	c0.3,1,0.6,2.1,0.8,3.1c0.2,1,0.4,2.1,0.5,3.2S91.2,85.8,91.2,86.9z"/>
<path d="M38.3,77.8c0.4,0.2,0.7,0.5,0.9,0.8c0.2,0.3,0.3,0.7,0.4,1.1c0.1,0.3,0.1,0.8,0.1,1.4h-4.6c0,0.6,0.2,1.2,0.4,1.5
	s0.7,0.6,1.3,0.6c0.5,0,1-0.2,1.3-0.5c0.2-0.2,0.3-0.5,0.4-0.7h1c0,0.2-0.1,0.5-0.3,0.8s-0.3,0.5-0.5,0.7c-0.3,0.3-0.7,0.5-1.2,0.6
	c-0.3,0.1-0.5,0.1-0.9,0.1c-0.8,0-1.4-0.3-2-0.9c-0.5-0.6-0.8-1.4-0.8-2.4c0-1,0.3-1.8,0.8-2.5c0.5-0.6,1.3-0.9,2.1-0.9
	C37.4,77.5,37.9,77.6,38.3,77.8z M38.7,80.2c0-0.5-0.1-0.8-0.3-1.1c-0.3-0.5-0.8-0.8-1.4-0.8c-0.5,0-0.9,0.2-1.2,0.5
	c-0.3,0.3-0.5,0.8-0.5,1.3H38.7z"/>
<path d="M41.8,81.7c0.1,0.6,0.3,1,0.8,1.2c0.2,0.1,0.5,0.2,0.9,0.2c0.6,0,1.1-0.2,1.4-0.6s0.5-0.8,0.5-1.3c0-0.6-0.2-1-0.5-1.4
	s-0.8-0.5-1.3-0.5c-0.4,0-0.7,0.1-0.9,0.2c-0.3,0.1-0.5,0.3-0.7,0.6L41,80.1l0.6-4.5H46v1h-3.6L42.1,79c0.2-0.1,0.4-0.3,0.6-0.3
	c0.3-0.1,0.7-0.2,1.1-0.2c0.8,0,1.4,0.2,2,0.7c0.5,0.5,0.8,1.1,0.8,1.9c0,0.8-0.2,1.5-0.7,2.1c-0.5,0.6-1.3,0.9-2.3,0.9
	c-0.7,0-1.3-0.2-1.8-0.6c-0.5-0.4-0.8-1-0.9-1.8H41.8z"/>
<path d="M51,83.9v-2.1h-3.7v-1l3.8-5.3H52v5.4h1.2v0.9H52v2.1H51z M50.9,80.9v-3.8l-2.7,3.8H50.9z"/>
<path d="M57.9,77.8c0.2,0.1,0.4,0.3,0.6,0.6v-3.2h1v8.6h-0.9V83c-0.2,0.4-0.5,0.7-0.9,0.8c-0.3,0.2-0.7,0.3-1.1,0.3
	c-0.7,0-1.3-0.3-1.8-0.9c-0.5-0.6-0.8-1.4-0.8-2.3c0-0.9,0.2-1.7,0.7-2.4s1.1-1,2-1C57.2,77.5,57.6,77.6,57.9,77.8z M55.5,82.5
	c0.3,0.5,0.7,0.7,1.4,0.7c0.5,0,0.9-0.2,1.2-0.6s0.5-1,0.5-1.8c0-0.8-0.2-1.4-0.5-1.8s-0.7-0.6-1.2-0.6c-0.5,0-1,0.2-1.3,0.6
	s-0.5,1-0.5,1.8C55.1,81.5,55.2,82,55.5,82.5z"/>
<path d="M65.8,76.2c0.4,0.5,0.6,1,0.6,1.5h-1c-0.1-0.3-0.2-0.6-0.3-0.8c-0.3-0.4-0.6-0.5-1.2-0.5c-0.6,0-1.1,0.3-1.4,0.8
	c-0.3,0.5-0.5,1.3-0.6,2.3c0.2-0.4,0.5-0.6,0.9-0.8c0.3-0.2,0.7-0.2,1.1-0.2c0.7,0,1.3,0.2,1.8,0.7c0.5,0.4,0.8,1.1,0.8,2
	c0,0.8-0.2,1.4-0.7,2c-0.5,0.6-1.2,0.9-2.1,0.9c-0.8,0-1.5-0.3-2-0.9c-0.6-0.6-0.9-1.6-0.9-3c0-1,0.1-1.9,0.4-2.7
	c0.5-1.4,1.4-2.1,2.7-2.1C64.8,75.4,65.4,75.7,65.8,76.2z M65,82.6c0.3-0.4,0.4-0.8,0.4-1.3c0-0.4-0.1-0.8-0.4-1.2s-0.7-0.6-1.3-0.6
	c-0.5,0-0.9,0.2-1.2,0.5c-0.3,0.3-0.5,0.8-0.5,1.4c0,0.5,0.2,1,0.5,1.3c0.3,0.4,0.7,0.5,1.3,0.5C64.3,83.2,64.7,83,65,82.6z"/>
<path d="M68.3,75.7c0.2-0.4,0.7-0.5,1.4-0.5c0.1,0,0.1,0,0.2,0s0.2,0,0.2,0v1c-0.1,0-0.2,0-0.2,0c0,0-0.1,0-0.1,0
	c-0.3,0-0.5,0.1-0.6,0.2c-0.1,0.2-0.1,0.6-0.1,1.3h1.1v0.8h-1.1v5.4h-1v-5.4h-0.9v-0.8H68v-1C68.1,76.2,68.1,75.9,68.3,75.7z"/>
<path d="M74.6,77.8c0.2,0.1,0.4,0.3,0.6,0.6v-3.2h1v8.6h-0.9V83c-0.2,0.4-0.5,0.7-0.9,0.8c-0.3,0.2-0.7,0.3-1.1,0.3
	c-0.7,0-1.3-0.3-1.8-0.9c-0.5-0.6-0.8-1.4-0.8-2.3c0-0.9,0.2-1.7,0.7-2.4s1.1-1,2-1C73.8,77.5,74.2,77.6,74.6,77.8z M72.2,82.5
	c0.3,0.5,0.7,0.7,1.4,0.7c0.5,0,0.9-0.2,1.2-0.6s0.5-1,0.5-1.8c0-0.8-0.2-1.4-0.5-1.8s-0.7-0.6-1.2-0.6c-0.5,0-1,0.2-1.3,0.6
	s-0.5,1-0.5,1.8C71.8,81.5,71.9,82,72.2,82.5z"/>
<path d="M78,83.3c-0.4-0.5-0.7-1.2-0.7-2h1.1c0,0.5,0.1,0.9,0.3,1.2c0.3,0.4,0.8,0.7,1.5,0.7c0.6,0,1-0.1,1.3-0.4S82,82,82,81.5
	c0-0.6-0.2-1-0.5-1.2S80.7,80,80,80c-0.1,0-0.1,0-0.2,0s-0.1,0-0.2,0v-0.9c0.1,0,0.2,0,0.3,0s0.2,0,0.2,0c0.4,0,0.7-0.1,1-0.2
	c0.4-0.2,0.7-0.6,0.7-1.2c0-0.4-0.1-0.7-0.4-1s-0.6-0.3-1-0.3c-0.7,0-1.2,0.2-1.5,0.7c-0.1,0.3-0.2,0.6-0.3,1.1h-1
	c0-0.6,0.1-1.2,0.4-1.6c0.4-0.8,1.2-1.2,2.3-1.2c0.9,0,1.5,0.2,2,0.6c0.5,0.4,0.7,0.9,0.7,1.7c0,0.5-0.1,0.9-0.4,1.3
	c-0.2,0.2-0.4,0.4-0.7,0.5c0.4,0.1,0.8,0.4,1,0.7c0.2,0.3,0.4,0.8,0.4,1.3c0,0.8-0.3,1.5-0.8,2c-0.5,0.5-1.3,0.8-2.2,0.8
	C79.1,84.1,78.4,83.8,78,83.3z"/>
<path d="M42.2,88.8h1.4l4.3,7v-7H49v8.6h-1.3l-4.4-6.9v6.9h-1.1V88.8z"/>
<path d="M58,90c0.6,0.8,0.9,1.7,0.9,2.9c0,1.3-0.3,2.4-1,3.2c-0.8,1-1.9,1.5-3.3,1.5c-1.3,0-2.4-0.4-3.1-1.3c-0.7-0.8-1-1.9-1-3.2
	c0-1.2,0.3-2.2,0.9-3c0.7-1.1,1.8-1.6,3.3-1.6C56.1,88.5,57.3,89,58,90z M57,95.5c0.5-0.7,0.7-1.6,0.7-2.5c0-1-0.3-1.8-0.8-2.4
	c-0.5-0.6-1.3-0.9-2.2-0.9c-0.9,0-1.6,0.3-2.2,0.9c-0.6,0.6-0.8,1.5-0.8,2.7c0,1,0.2,1.8,0.7,2.4c0.5,0.7,1.3,1,2.3,1
	C55.8,96.6,56.5,96.2,57,95.5z"/>
<path d="M60.3,88.8h3.4c1.2,0,2.1,0.4,2.7,1.3c0.6,0.8,0.9,1.7,0.9,2.9c0,0.9-0.2,1.7-0.5,2.5c-0.6,1.3-1.6,2-3.1,2h-3.4V88.8z
	 M63.5,96.4c0.4,0,0.7,0,1-0.1c0.4-0.2,0.8-0.4,1.1-0.9c0.2-0.3,0.4-0.8,0.5-1.3c0.1-0.3,0.1-0.6,0.1-0.9c0-1.1-0.2-1.9-0.6-2.5
	s-1.1-0.9-2-0.9h-2v6.6H63.5z"/>
<path d="M69,88.8h6.2v1.1h-5.1v2.6h4.7v1h-4.7v2.9h5.2v1H69V88.8z"/>
<rect x="33.6" y="73.4" fill-rule="evenodd" fill="none" width="50.3" height="27"/>
<rect x="150.7" y="26.1" fill="none" stroke="#000000" stroke-width="2.2504" width="136.9" height="42"/>
<path d="M193.3,42.2c0.3-0.5,0.8-1,1.5-1.5l1.1-0.7c0.5-0.3,0.9-0.5,1.1-0.8c0.3-0.3,0.5-0.7,0.5-1.1c0-0.5-0.1-0.9-0.4-1.2
	s-0.7-0.4-1.2-0.4c-0.7,0-1.2,0.3-1.5,0.8c-0.1,0.3-0.2,0.7-0.2,1.2h-1.1c0-0.7,0.1-1.3,0.4-1.8c0.5-0.8,1.3-1.2,2.4-1.2
	c1,0,1.7,0.3,2.1,0.8c0.4,0.5,0.7,1.1,0.7,1.7c0,0.7-0.2,1.2-0.7,1.7c-0.3,0.3-0.8,0.6-1.5,1l-0.8,0.4c-0.4,0.2-0.7,0.4-0.9,0.6
	c-0.4,0.3-0.6,0.7-0.7,1.1h4.6v1h-5.8C192.9,43.4,193.1,42.8,193.3,42.2z"/>
<path d="M205.4,35.9v0.9c-0.3,0.3-0.6,0.7-1.1,1.4c-0.4,0.6-0.8,1.3-1.2,2.1c-0.3,0.7-0.6,1.4-0.8,2c-0.1,0.4-0.3,1-0.4,1.9h-1.2
	c0.3-1.6,0.9-3.2,1.8-4.8c0.5-0.9,1.1-1.7,1.7-2.4h-4.6v-1.1H205.4z"/>
<path d="M207,39.2c-0.3-0.3-0.5-0.7-0.5-1.2c0-0.6,0.2-1.2,0.7-1.6s1.1-0.7,1.9-0.7c0.8,0,1.4,0.2,1.9,0.6s0.7,0.9,0.7,1.5
	c0,0.5-0.1,0.9-0.4,1.3c-0.1,0.2-0.4,0.4-0.7,0.5c0.3,0.2,0.6,0.3,0.8,0.6c0.4,0.4,0.6,0.9,0.6,1.5c0,0.7-0.2,1.4-0.7,1.9
	c-0.5,0.5-1.2,0.8-2.1,0.8c-0.8,0-1.5-0.2-2.1-0.7c-0.6-0.4-0.8-1.1-0.8-1.9c0-0.5,0.1-0.9,0.4-1.3s0.6-0.6,1.1-0.8
	C207.4,39.5,207.1,39.4,207,39.2z M210.4,43c0.3-0.3,0.5-0.7,0.5-1.2c0-0.5-0.2-1-0.5-1.2s-0.8-0.4-1.3-0.4c-0.5,0-0.9,0.1-1.2,0.4
	s-0.5,0.7-0.5,1.2c0,0.4,0.1,0.8,0.4,1.1s0.7,0.5,1.4,0.5C209.7,43.4,210.1,43.3,210.4,43z M210.2,38.9c0.3-0.3,0.4-0.6,0.4-0.9
	c0-0.3-0.1-0.6-0.4-0.9s-0.6-0.4-1.1-0.4c-0.5,0-0.9,0.1-1.1,0.4s-0.3,0.6-0.3,0.9c0,0.4,0.1,0.7,0.4,0.9c0.3,0.2,0.6,0.3,1,0.3
	C209.6,39.3,209.9,39.1,210.2,38.9z"/>
<path d="M216.5,44.1v-2.1h-3.7v-1l3.8-5.3h0.9v5.4h1.2v0.9h-1.2v2.1H216.5z M216.5,41.2v-3.8l-2.7,3.8H216.5z"/>
<path d="M224.8,37.1c0.4,0.7,0.6,1.6,0.6,2.8c0,1.1-0.2,2.1-0.5,2.8c-0.5,1.1-1.3,1.6-2.4,1.6c-1,0-1.8-0.4-2.3-1.3
	c-0.4-0.7-0.6-1.7-0.6-2.9c0-1,0.1-1.8,0.4-2.5c0.5-1.3,1.3-1.9,2.5-1.9C223.5,35.7,224.3,36.2,224.8,37.1z M223.7,42.7
	c0.3-0.5,0.5-1.4,0.5-2.7c0-1-0.1-1.7-0.4-2.4s-0.7-0.9-1.4-0.9c-0.6,0-1.1,0.3-1.4,0.9c-0.3,0.6-0.4,1.4-0.4,2.6
	c0,0.9,0.1,1.5,0.3,2.1c0.3,0.8,0.8,1.2,1.4,1.2C223,43.4,223.4,43.2,223.7,42.7z"/>
<path d="M226.8,43.5c-0.4-0.5-0.7-1.2-0.7-2h1.1c0,0.5,0.1,0.9,0.3,1.2c0.3,0.4,0.8,0.7,1.5,0.7c0.6,0,1-0.1,1.3-0.4
	s0.5-0.7,0.5-1.1c0-0.6-0.2-1-0.5-1.2s-0.8-0.3-1.5-0.3c-0.1,0-0.1,0-0.2,0s-0.1,0-0.2,0v-0.9c0.1,0,0.2,0,0.3,0s0.2,0,0.2,0
	c0.4,0,0.7-0.1,1-0.2c0.4-0.2,0.7-0.6,0.7-1.2c0-0.4-0.1-0.7-0.4-1s-0.6-0.3-1-0.3c-0.7,0-1.2,0.2-1.5,0.7c-0.1,0.3-0.2,0.6-0.3,1.1
	h-1c0-0.6,0.1-1.2,0.4-1.6c0.4-0.8,1.2-1.2,2.3-1.2c0.9,0,1.5,0.2,2,0.6c0.5,0.4,0.7,0.9,0.7,1.7c0,0.5-0.1,0.9-0.4,1.3
	c-0.2,0.2-0.4,0.4-0.7,0.5c0.4,0.1,0.8,0.4,1,0.7c0.2,0.3,0.4,0.8,0.4,1.3c0,0.8-0.3,1.5-0.8,2c-0.5,0.5-1.3,0.8-2.2,0.8
	C228,44.4,227.3,44.1,226.8,43.5z"/>
<path d="M234,42c0.1,0.6,0.3,1,0.8,1.2c0.2,0.1,0.5,0.2,0.9,0.2c0.6,0,1.1-0.2,1.4-0.6s0.5-0.8,0.5-1.3c0-0.6-0.2-1-0.5-1.4
	s-0.8-0.5-1.3-0.5c-0.4,0-0.7,0.1-0.9,0.2c-0.3,0.1-0.5,0.3-0.7,0.6l-0.9-0.1l0.6-4.5h4.4v1h-3.6l-0.4,2.3c0.2-0.1,0.4-0.3,0.6-0.3
	c0.3-0.1,0.7-0.2,1.1-0.2c0.8,0,1.4,0.2,2,0.7c0.5,0.5,0.8,1.1,0.8,1.9c0,0.8-0.2,1.5-0.7,2.1c-0.5,0.6-1.3,0.9-2.3,0.9
	c-0.7,0-1.3-0.2-1.8-0.6c-0.5-0.4-0.8-1-0.9-1.8H234z"/>
<path d="M244.8,37.1c0.4,0.7,0.6,1.6,0.6,2.8c0,1.1-0.2,2.1-0.5,2.8c-0.5,1.1-1.3,1.6-2.4,1.6c-1,0-1.8-0.4-2.3-1.3
	c-0.4-0.7-0.6-1.7-0.6-2.9c0-1,0.1-1.8,0.4-2.5c0.5-1.3,1.3-1.9,2.5-1.9C243.6,35.7,244.3,36.2,244.8,37.1z M243.8,42.7
	c0.3-0.5,0.5-1.4,0.5-2.7c0-1-0.1-1.7-0.4-2.4s-0.7-0.9-1.4-0.9c-0.6,0-1.1,0.3-1.4,0.9c-0.3,0.6-0.4,1.4-0.4,2.6
	c0,0.9,0.1,1.5,0.3,2.1c0.3,0.8,0.8,1.2,1.4,1.2C243,43.4,243.4,43.2,243.8,42.7z"/>
<path d="M203.5,49l-0.2,3.4h-0.7l-0.2-3.4H203.5z M205.5,49l-0.2,3.4h-0.7l-0.2-3.4H205.5z"/>
<path d="M209.6,49h1.3l3.1,8.6h-1.3l-0.9-2.6h-3.4l-0.9,2.6h-1.2L209.6,49z M211.5,54.1l-1.3-3.8l-1.4,3.8H211.5z"/>
<path d="M215,49h1.1v8.6H215V49z"/>
<path d="M217.6,49h1.1v1.2h-1.1V49z M217.6,51.4h1.1v6.2h-1.1V51.4z"/>
<path d="M224.4,51.7c0.4,0.3,0.7,0.9,0.8,1.8h-1c-0.1-0.4-0.2-0.7-0.4-1s-0.6-0.4-1.1-0.4c-0.7,0-1.2,0.3-1.4,1
	c-0.2,0.4-0.3,0.9-0.3,1.6c0,0.6,0.1,1.2,0.4,1.6s0.7,0.6,1.3,0.6c0.4,0,0.8-0.1,1-0.4c0.3-0.3,0.4-0.6,0.5-1.1h1
	c-0.1,0.8-0.4,1.4-0.9,1.8s-1.1,0.6-1.8,0.6c-0.8,0-1.5-0.3-2-0.9c-0.5-0.6-0.7-1.3-0.7-2.2c0-1.1,0.3-2,0.8-2.6
	c0.5-0.6,1.2-0.9,2-0.9C223.4,51.2,224,51.3,224.4,51.7z"/>
<path d="M230.2,51.5c0.4,0.2,0.7,0.5,0.9,0.8c0.2,0.3,0.3,0.7,0.4,1.1c0.1,0.3,0.1,0.8,0.1,1.4h-4.6c0,0.6,0.2,1.2,0.4,1.5
	s0.7,0.6,1.3,0.6c0.5,0,1-0.2,1.3-0.5c0.2-0.2,0.3-0.5,0.4-0.7h1c0,0.2-0.1,0.5-0.3,0.8s-0.3,0.5-0.5,0.7c-0.3,0.3-0.7,0.5-1.2,0.6
	c-0.3,0.1-0.5,0.1-0.9,0.1c-0.8,0-1.4-0.3-2-0.9c-0.5-0.6-0.8-1.4-0.8-2.4c0-1,0.3-1.8,0.8-2.5c0.5-0.6,1.3-0.9,2.1-0.9
	C229.3,51.2,229.8,51.3,230.2,51.5z M230.6,54c0-0.5-0.1-0.8-0.3-1.1c-0.3-0.5-0.8-0.8-1.4-0.8c-0.5,0-0.9,0.2-1.2,0.5
	c-0.3,0.3-0.5,0.8-0.5,1.3H230.6z"/>
<path d="M233.7,49l-0.2,3.4h-0.7l-0.2-3.4H233.7z M235.8,49l-0.2,3.4h-0.7l-0.2-3.4H235.8z"/>
<rect x="158.2" y="33.6" fill-rule="evenodd" fill="none" width="122.3" height="27"/>
<path fill="none" stroke="#000000" stroke-width="2.2504" d="M192.9,105.6h52.6c0.7,0,1.4,0,2.1,0.1s1.4,0.2,2,0.3
	c0.7,0.1,1.3,0.3,2,0.5c0.7,0.2,1.3,0.4,1.9,0.7c0.6,0.3,1.3,0.6,1.9,0.9c0.6,0.3,1.2,0.7,1.8,1.1c0.6,0.4,1.1,0.8,1.7,1.2
	c0.5,0.4,1,0.9,1.5,1.4s0.9,1,1.4,1.5c0.4,0.5,0.8,1.1,1.2,1.7c0.4,0.6,0.7,1.2,1.1,1.8c0.3,0.6,0.6,1.2,0.9,1.9
	c0.3,0.6,0.5,1.3,0.7,1.9c0.2,0.7,0.4,1.3,0.5,2s0.2,1.4,0.3,2c0.1,0.7,0.1,1.4,0.1,2.1s0,1.4-0.1,2.1c-0.1,0.7-0.2,1.4-0.3,2
	s-0.3,1.3-0.5,2c-0.2,0.7-0.4,1.3-0.7,1.9c-0.3,0.6-0.6,1.3-0.9,1.9c-0.3,0.6-0.7,1.2-1.1,1.8c-0.4,0.6-0.8,1.1-1.2,1.7
	c-0.4,0.5-0.9,1-1.4,1.5s-1,0.9-1.5,1.4c-0.5,0.4-1.1,0.8-1.7,1.2c-0.6,0.4-1.2,0.7-1.8,1.1c-0.6,0.3-1.2,0.6-1.9,0.9
	c-0.6,0.3-1.3,0.5-1.9,0.7c-0.7,0.2-1.3,0.4-2,0.5c-0.7,0.1-1.4,0.2-2,0.3s-1.4,0.1-2.1,0.1h-52.6c-0.7,0-1.4,0-2.1-0.1
	s-1.4-0.2-2-0.3c-0.7-0.1-1.3-0.3-2-0.5c-0.7-0.2-1.3-0.4-1.9-0.7c-0.6-0.3-1.3-0.6-1.9-0.9c-0.6-0.3-1.2-0.7-1.8-1.1
	c-0.6-0.4-1.1-0.8-1.7-1.2c-0.5-0.4-1-0.9-1.5-1.4s-0.9-1-1.4-1.5c-0.4-0.5-0.8-1.1-1.2-1.7c-0.4-0.6-0.7-1.2-1.1-1.8
	c-0.3-0.6-0.6-1.2-0.9-1.9c-0.3-0.6-0.5-1.3-0.7-1.9s-0.4-1.3-0.5-2s-0.2-1.4-0.3-2c-0.1-0.7-0.1-1.4-0.1-2.1s0-1.4,0.1-2.1
	c0.1-0.7,0.2-1.4,0.3-2s0.3-1.3,0.5-2s0.4-1.3,0.7-1.9c0.3-0.6,0.6-1.3,0.9-1.9c0.3-0.6,0.7-1.2,1.1-1.8c0.4-0.6,0.8-1.1,1.2-1.7
	c0.4-0.5,0.9-1,1.4-1.5s1-0.9,1.5-1.4c0.5-0.4,1.1-0.8,1.7-1.2c0.6-0.4,1.2-0.7,1.8-1.1c0.6-0.3,1.2-0.6,1.9-0.9
	c0.6-0.3,1.3-0.5,1.9-0.7c0.7-0.2,1.3-0.4,2-0.5c0.7-0.1,1.4-0.2,2-0.3S192.2,105.6,192.9,105.6z"/>
<path d="M195.6,121.5c0.1,0.6,0.3,1,0.8,1.2c0.2,0.1,0.5,0.2,0.9,0.2c0.6,0,1.1-0.2,1.4-0.6s0.5-0.8,0.5-1.3c0-0.6-0.2-1-0.5-1.4
	s-0.8-0.5-1.3-0.5c-0.4,0-0.7,0.1-0.9,0.2c-0.3,0.1-0.5,0.3-0.7,0.6l-0.9-0.1l0.6-4.5h4.4v1h-3.6l-0.4,2.3c0.2-0.1,0.4-0.3,0.6-0.3
	c0.3-0.1,0.7-0.2,1.1-0.2c0.8,0,1.4,0.2,2,0.7c0.5,0.5,0.8,1.1,0.8,1.9c0,0.8-0.2,1.5-0.7,2.1c-0.5,0.6-1.3,0.9-2.3,0.9
	c-0.7,0-1.3-0.2-1.8-0.6c-0.5-0.4-0.8-1-0.9-1.8H195.6z"/>
<path d="M202.3,121.5c0.1,0.6,0.3,1,0.8,1.2c0.2,0.1,0.5,0.2,0.9,0.2c0.6,0,1.1-0.2,1.4-0.6s0.5-0.8,0.5-1.3c0-0.6-0.2-1-0.5-1.4
	s-0.8-0.5-1.3-0.5c-0.4,0-0.7,0.1-0.9,0.2c-0.3,0.1-0.5,0.3-0.7,0.6l-0.9-0.1l0.6-4.5h4.4v1H203l-0.4,2.3c0.2-0.1,0.4-0.3,0.6-0.3
	c0.3-0.1,0.7-0.2,1.1-0.2c0.8,0,1.4,0.2,2,0.7c0.5,0.5,0.8,1.1,0.8,1.9c0,0.8-0.2,1.5-0.7,2.1c-0.5,0.6-1.3,0.9-2.3,0.9
	c-0.7,0-1.3-0.2-1.8-0.6c-0.5-0.4-0.8-1-0.9-1.8H202.3z"/>
<path d="M209,121.5c0.1,0.6,0.3,1,0.8,1.2c0.2,0.1,0.5,0.2,0.9,0.2c0.6,0,1.1-0.2,1.4-0.6s0.5-0.8,0.5-1.3c0-0.6-0.2-1-0.5-1.4
	s-0.8-0.5-1.3-0.5c-0.4,0-0.7,0.1-0.9,0.2c-0.3,0.1-0.5,0.3-0.7,0.6l-0.9-0.1l0.6-4.5h4.4v1h-3.6l-0.4,2.3c0.2-0.1,0.4-0.3,0.6-0.3
	c0.3-0.1,0.7-0.2,1.1-0.2c0.8,0,1.4,0.2,2,0.7c0.5,0.5,0.8,1.1,0.8,1.9c0,0.8-0.2,1.5-0.7,2.1c-0.5,0.6-1.3,0.9-2.3,0.9
	c-0.7,0-1.3-0.2-1.8-0.6c-0.5-0.4-0.8-1-0.9-1.8H209z"/>
<path d="M219.7,115.9c0.4,0.5,0.6,1,0.6,1.5h-1c-0.1-0.3-0.2-0.6-0.3-0.8c-0.3-0.4-0.6-0.5-1.2-0.5c-0.6,0-1.1,0.3-1.4,0.8
	c-0.3,0.5-0.5,1.3-0.6,2.3c0.2-0.4,0.5-0.6,0.9-0.8c0.3-0.2,0.7-0.2,1.1-0.2c0.7,0,1.3,0.2,1.8,0.7c0.5,0.4,0.8,1.1,0.8,2
	c0,0.8-0.2,1.4-0.7,2c-0.5,0.6-1.2,0.9-2.1,0.9c-0.8,0-1.5-0.3-2-0.9c-0.6-0.6-0.9-1.6-0.9-3c0-1,0.1-1.9,0.4-2.7
	c0.5-1.4,1.4-2.1,2.7-2.1C218.6,115.2,219.3,115.4,219.7,115.9z M218.9,122.3c0.3-0.4,0.4-0.8,0.4-1.3c0-0.4-0.1-0.8-0.4-1.2
	s-0.7-0.6-1.3-0.6c-0.5,0-0.9,0.2-1.2,0.5c-0.3,0.3-0.5,0.8-0.5,1.4c0,0.5,0.2,1,0.5,1.3c0.3,0.4,0.7,0.5,1.3,0.5
	C218.2,122.9,218.6,122.7,218.9,122.3z"/>
<path d="M226.5,116.6c0.4,0.7,0.6,1.6,0.6,2.8c0,1.1-0.2,2.1-0.5,2.8c-0.5,1.1-1.3,1.6-2.4,1.6c-1,0-1.8-0.4-2.3-1.3
	c-0.4-0.7-0.6-1.7-0.6-2.9c0-1,0.1-1.8,0.4-2.5c0.5-1.3,1.3-1.9,2.5-1.9C225.2,115.2,226,115.7,226.5,116.6z M225.4,122.2
	c0.3-0.5,0.5-1.4,0.5-2.7c0-1-0.1-1.7-0.4-2.4s-0.7-0.9-1.4-0.9c-0.6,0-1.1,0.3-1.4,0.9c-0.3,0.6-0.4,1.4-0.4,2.6
	c0,0.9,0.1,1.5,0.3,2.1c0.3,0.8,0.8,1.2,1.4,1.2C224.6,122.9,225.1,122.7,225.4,122.2z"/>
<path d="M228.2,115h1v3.1c0.2-0.3,0.5-0.5,0.8-0.7c0.3-0.2,0.7-0.2,1-0.2c0.8,0,1.4,0.3,1.9,0.8s0.7,1.3,0.7,2.4
	c0,1-0.2,1.8-0.7,2.5s-1.2,1-2,1c-0.5,0-0.9-0.1-1.2-0.3c-0.2-0.1-0.4-0.4-0.6-0.7v0.8h-1V115z M232.3,122.2
	c0.3-0.5,0.4-1.1,0.4-1.8c0-0.7-0.1-1.2-0.4-1.6s-0.7-0.7-1.3-0.7c-0.5,0-0.9,0.2-1.3,0.5s-0.5,0.9-0.5,1.8c0,0.6,0.1,1.1,0.2,1.4
	c0.3,0.7,0.8,1,1.6,1C231.5,122.9,232,122.7,232.3,122.2z"/>
<path d="M238.4,117.5c0.2,0.1,0.4,0.3,0.6,0.6V115h1v8.6h-0.9v-0.9c-0.2,0.4-0.5,0.7-0.9,0.8c-0.3,0.2-0.7,0.3-1.1,0.3
	c-0.7,0-1.3-0.3-1.8-0.9c-0.5-0.6-0.8-1.4-0.8-2.3c0-0.9,0.2-1.7,0.7-2.4s1.1-1,2-1C237.7,117.2,238.1,117.3,238.4,117.5z
	 M236.1,122.2c0.3,0.5,0.7,0.7,1.4,0.7c0.5,0,0.9-0.2,1.2-0.6s0.5-1,0.5-1.8c0-0.8-0.2-1.4-0.5-1.8s-0.7-0.6-1.2-0.6
	c-0.5,0-1,0.2-1.3,0.6s-0.5,1-0.5,1.8C235.7,121.2,235.8,121.8,236.1,122.2z"/>
<path d="M242.2,115.4c0.2-0.4,0.7-0.5,1.4-0.5c0.1,0,0.1,0,0.2,0s0.2,0,0.2,0v1c-0.1,0-0.2,0-0.2,0c0,0-0.1,0-0.1,0
	c-0.3,0-0.5,0.1-0.6,0.2c-0.1,0.2-0.1,0.6-0.1,1.3h1.1v0.8H243v5.4h-1v-5.4h-0.9v-0.8h0.9v-1C241.9,116,242,115.6,242.2,115.4z"/>
<path d="M188,128.5h1.3l3.1,8.6h-1.3l-0.9-2.6h-3.4l-0.9,2.6h-1.2L188,128.5z M190,133.6l-1.3-3.8l-1.4,3.8H190z"/>
<path d="M194.3,134.3c0,0.5,0.1,0.9,0.3,1.2c0.4,0.6,1,0.9,2,0.9c0.4,0,0.8-0.1,1.2-0.2c0.7-0.2,1-0.7,1-1.3c0-0.5-0.1-0.8-0.4-1
	c-0.3-0.2-0.7-0.4-1.4-0.5l-1.1-0.3c-0.7-0.2-1.3-0.4-1.6-0.6c-0.5-0.4-0.8-0.9-0.8-1.6c0-0.8,0.3-1.4,0.8-1.9s1.3-0.7,2.2-0.7
	c0.9,0,1.6,0.2,2.2,0.7s0.9,1.1,0.9,2.1h-1.1c-0.1-0.5-0.2-0.8-0.4-1.1c-0.3-0.4-0.9-0.7-1.7-0.7c-0.7,0-1.1,0.1-1.4,0.4
	c-0.3,0.3-0.4,0.6-0.4,1c0,0.4,0.2,0.7,0.5,0.9c0.2,0.1,0.7,0.3,1.5,0.5l1.2,0.3c0.6,0.1,1,0.3,1.3,0.5c0.5,0.4,0.8,1,0.8,1.8
	c0,1-0.3,1.6-1,2c-0.7,0.4-1.5,0.6-2.4,0.6c-1,0-1.9-0.3-2.5-0.8c-0.6-0.5-0.9-1.3-0.9-2.2H194.3z"/>
<path d="M202.3,134.3c0,0.5,0.1,0.9,0.3,1.2c0.4,0.6,1,0.9,2,0.9c0.4,0,0.8-0.1,1.2-0.2c0.7-0.2,1-0.7,1-1.3c0-0.5-0.1-0.8-0.4-1
	c-0.3-0.2-0.7-0.4-1.4-0.5l-1.1-0.3c-0.7-0.2-1.3-0.4-1.6-0.6c-0.5-0.4-0.8-0.9-0.8-1.6c0-0.8,0.3-1.4,0.8-1.9s1.3-0.7,2.2-0.7
	c0.9,0,1.6,0.2,2.2,0.7s0.9,1.1,0.9,2.1h-1.1c-0.1-0.5-0.2-0.8-0.4-1.1c-0.3-0.4-0.9-0.7-1.7-0.7c-0.7,0-1.1,0.1-1.4,0.4
	c-0.3,0.3-0.4,0.6-0.4,1c0,0.4,0.2,0.7,0.5,0.9c0.2,0.1,0.7,0.3,1.5,0.5l1.2,0.3c0.6,0.1,1,0.3,1.3,0.5c0.5,0.4,0.8,1,0.8,1.8
	c0,1-0.3,1.6-1,2c-0.7,0.4-1.5,0.6-2.4,0.6c-1,0-1.9-0.3-2.5-0.8c-0.6-0.5-0.9-1.3-0.9-2.2H202.3z"/>
<path d="M209.7,128.5h6.2v1.1h-5.1v2.6h4.7v1h-4.7v2.9h5.2v1h-6.3V128.5z"/>
<path d="M217.7,128.5h3.9c0.6,0,1.2,0.1,1.6,0.3c0.8,0.4,1.2,1,1.2,2c0,0.5-0.1,0.9-0.3,1.3s-0.5,0.6-0.9,0.8
	c0.3,0.1,0.6,0.3,0.8,0.5s0.3,0.6,0.3,1.1l0,1.2c0,0.3,0,0.6,0.1,0.7c0.1,0.3,0.2,0.4,0.4,0.5v0.2h-1.4c0-0.1-0.1-0.2-0.1-0.3
	s0-0.3-0.1-0.7l-0.1-1.4c0-0.6-0.2-0.9-0.6-1.1c-0.2-0.1-0.6-0.2-1-0.2h-2.6v3.7h-1.2V128.5z M221.5,132.5c0.5,0,1-0.1,1.3-0.3
	c0.3-0.2,0.5-0.6,0.5-1.2c0-0.6-0.2-1-0.6-1.3c-0.2-0.1-0.5-0.2-0.9-0.2h-2.8v2.9H221.5z"/>
<path d="M232.3,128.5v1h-2.9v7.6h-1.2v-7.6h-2.9v-1H232.3z"/>
<path d="M233.6,128.5h1.2v8.6h-1.2V128.5z"/>
<path d="M243.8,129.7c0.6,0.8,0.9,1.7,0.9,2.9c0,1.3-0.3,2.4-1,3.2c-0.8,1-1.9,1.5-3.3,1.5c-1.3,0-2.4-0.4-3.1-1.3
	c-0.7-0.8-1-1.9-1-3.2c0-1.2,0.3-2.2,0.9-3c0.7-1.1,1.8-1.6,3.3-1.6C241.9,128.3,243,128.8,243.8,129.7z M242.7,135.2
	c0.5-0.7,0.7-1.6,0.7-2.5c0-1-0.3-1.8-0.8-2.4c-0.5-0.6-1.3-0.9-2.2-0.9c-0.9,0-1.6,0.3-2.2,0.9c-0.6,0.6-0.8,1.5-0.8,2.7
	c0,1,0.2,1.8,0.7,2.4c0.5,0.7,1.3,1,2.3,1C241.5,136.3,242.3,136,242.7,135.2z"/>
<path d="M246,128.5h1.4l4.3,7v-7h1.1v8.6h-1.3l-4.4-6.9v6.9H246V128.5z"/>
<rect x="184.6" y="113.1" fill-rule="evenodd" fill="none" width="69" height="27"/>
<rect x="349.2" y="65.9" fill="none" stroke="#000000" stroke-width="2.2504" width="144.9" height="42"/>
<path d="M401.2,75.6v0.9c-0.3,0.3-0.6,0.7-1.1,1.4c-0.4,0.6-0.8,1.3-1.2,2.1c-0.3,0.7-0.6,1.4-0.8,2c-0.1,0.4-0.3,1-0.4,1.9h-1.2
	c0.3-1.6,0.9-3.2,1.8-4.8c0.5-0.9,1.1-1.7,1.7-2.4h-4.6v-1.1H401.2z"/>
<path d="M407.2,76.8c0.4,0.7,0.6,1.6,0.6,2.8c0,1.1-0.2,2.1-0.5,2.8c-0.5,1.1-1.3,1.6-2.4,1.6c-1,0-1.8-0.4-2.3-1.3
	c-0.4-0.7-0.6-1.7-0.6-2.9c0-1,0.1-1.8,0.4-2.5c0.5-1.3,1.3-1.9,2.5-1.9C406,75.5,406.7,75.9,407.2,76.8z M406.2,82.4
	c0.3-0.5,0.5-1.4,0.5-2.7c0-1-0.1-1.7-0.4-2.4c-0.2-0.6-0.7-0.9-1.4-0.9c-0.6,0-1.1,0.3-1.4,0.9c-0.3,0.6-0.4,1.4-0.4,2.6
	c0,0.9,0.1,1.5,0.3,2.1c0.3,0.8,0.8,1.2,1.4,1.2C405.4,83.1,405.8,82.9,406.2,82.4z"/>
<path d="M409.9,81.8c0,0.6,0.3,1,0.7,1.2c0.2,0.1,0.5,0.2,0.7,0.2c0.5,0,0.9-0.2,1.3-0.6s0.6-1.3,0.8-2.6c-0.2,0.4-0.5,0.6-0.9,0.8
	s-0.7,0.2-1.1,0.2c-0.8,0-1.4-0.3-1.9-0.8s-0.7-1.2-0.7-1.9c0-0.8,0.2-1.4,0.7-2s1.2-0.9,2.1-0.9c1.2,0,2.1,0.6,2.5,1.7
	c0.3,0.6,0.4,1.4,0.4,2.3c0,1-0.2,1.9-0.5,2.7c-0.5,1.3-1.4,2-2.6,2c-0.8,0-1.4-0.2-1.9-0.6s-0.6-1-0.6-1.6H409.9z M412.6,79.7
	c0.3-0.3,0.5-0.8,0.5-1.4c0-0.6-0.2-1.1-0.5-1.4c-0.3-0.3-0.7-0.5-1.2-0.5c-0.5,0-0.9,0.2-1.2,0.5s-0.5,0.8-0.5,1.4
	c0,0.5,0.1,1,0.4,1.3c0.3,0.3,0.7,0.5,1.3,0.5C411.9,80.1,412.3,80,412.6,79.7z"/>
<path d="M415.8,82c0.3-0.5,0.8-1,1.5-1.5l1.1-0.7c0.5-0.3,0.9-0.5,1.1-0.8c0.3-0.3,0.5-0.7,0.5-1.1c0-0.5-0.1-0.9-0.4-1.2
	c-0.3-0.3-0.7-0.4-1.2-0.4c-0.7,0-1.2,0.3-1.5,0.8c-0.1,0.3-0.2,0.7-0.2,1.2h-1.1c0-0.7,0.1-1.3,0.4-1.8c0.5-0.8,1.3-1.2,2.4-1.2
	c1,0,1.7,0.3,2.1,0.8s0.7,1.1,0.7,1.7c0,0.7-0.2,1.2-0.7,1.7c-0.3,0.3-0.8,0.6-1.5,1l-0.8,0.4c-0.4,0.2-0.7,0.4-0.9,0.6
	c-0.4,0.3-0.6,0.7-0.7,1.1h4.6v1h-5.8C415.4,83.2,415.5,82.5,415.8,82z"/>
<path d="M425.9,77.8c0.2,0.1,0.4,0.3,0.6,0.6v-3.2h1v8.6h-0.9V83c-0.2,0.4-0.5,0.7-0.9,0.8c-0.3,0.2-0.7,0.3-1.2,0.3
	c-0.7,0-1.3-0.3-1.8-0.9c-0.5-0.6-0.8-1.4-0.8-2.3c0-0.9,0.2-1.7,0.7-2.4c0.5-0.7,1.1-1,2-1C425.2,77.5,425.6,77.6,425.9,77.8z
	 M423.5,82.5c0.3,0.5,0.7,0.7,1.4,0.7c0.5,0,0.9-0.2,1.2-0.6c0.3-0.4,0.5-1,0.5-1.8c0-0.8-0.2-1.4-0.5-1.8c-0.3-0.4-0.7-0.6-1.2-0.6
	c-0.5,0-1,0.2-1.3,0.6s-0.5,1-0.5,1.8C423.1,81.5,423.2,82,423.5,82.5z"/>
<path d="M433.8,76.2c0.4,0.5,0.6,1,0.6,1.5h-1c-0.1-0.3-0.2-0.6-0.3-0.8c-0.3-0.4-0.6-0.5-1.2-0.5c-0.6,0-1.1,0.3-1.4,0.8
	s-0.5,1.3-0.6,2.3c0.2-0.4,0.5-0.6,0.9-0.8c0.3-0.2,0.7-0.2,1.1-0.2c0.7,0,1.3,0.2,1.8,0.7s0.8,1.1,0.8,2c0,0.8-0.2,1.4-0.7,2
	s-1.2,0.9-2.1,0.9c-0.8,0-1.5-0.3-2-0.9c-0.6-0.6-0.9-1.6-0.9-3c0-1,0.1-1.9,0.4-2.7c0.5-1.4,1.4-2.1,2.7-2.1
	C432.8,75.4,433.4,75.7,433.8,76.2z M433,82.6c0.3-0.4,0.4-0.8,0.4-1.3c0-0.4-0.1-0.8-0.4-1.2c-0.2-0.4-0.7-0.6-1.3-0.6
	c-0.5,0-0.9,0.2-1.2,0.5s-0.5,0.8-0.5,1.4c0,0.5,0.2,1,0.5,1.3s0.7,0.5,1.3,0.5C432.3,83.2,432.7,83,433,82.6z"/>
<path d="M435.8,82c0.3-0.5,0.8-1,1.5-1.5l1.1-0.7c0.5-0.3,0.9-0.5,1.1-0.8c0.3-0.3,0.5-0.7,0.5-1.1c0-0.5-0.1-0.9-0.4-1.2
	c-0.3-0.3-0.7-0.4-1.2-0.4c-0.7,0-1.2,0.3-1.5,0.8c-0.1,0.3-0.2,0.7-0.2,1.2h-1.1c0-0.7,0.1-1.3,0.4-1.8c0.5-0.8,1.3-1.2,2.4-1.2
	c1,0,1.7,0.3,2.1,0.8s0.7,1.1,0.7,1.7c0,0.7-0.2,1.2-0.7,1.7c-0.3,0.3-0.8,0.6-1.5,1l-0.8,0.4c-0.4,0.2-0.7,0.4-0.9,0.6
	c-0.4,0.3-0.6,0.7-0.7,1.1h4.6v1h-5.8C435.4,83.2,435.6,82.5,435.8,82z"/>
<path d="M447.3,76.8c0.4,0.7,0.6,1.6,0.6,2.8c0,1.1-0.2,2.1-0.5,2.8c-0.5,1.1-1.3,1.6-2.4,1.6c-1,0-1.8-0.4-2.3-1.3
	c-0.4-0.7-0.6-1.7-0.6-2.9c0-1,0.1-1.8,0.4-2.5c0.5-1.3,1.3-1.9,2.5-1.9C446,75.5,446.8,75.9,447.3,76.8z M446.2,82.4
	c0.3-0.5,0.5-1.4,0.5-2.7c0-1-0.1-1.7-0.4-2.4c-0.2-0.6-0.7-0.9-1.4-0.9c-0.6,0-1.1,0.3-1.4,0.9c-0.3,0.6-0.4,1.4-0.4,2.6
	c0,0.9,0.1,1.5,0.3,2.1c0.3,0.8,0.8,1.2,1.4,1.2C445.5,83.1,445.9,82.9,446.2,82.4z"/>
<path d="M401.9,88.8l-0.2,3.4H401l-0.2-3.4H401.9z M403.9,88.8l-0.2,3.4H403l-0.2-3.4H403.9z"/>
<path d="M405.4,88.8h1v5l2.7-2.7h1.3l-2.4,2.3l2.5,3.9h-1.3l-2-3.2l-0.9,0.8v2.4h-1V88.8z"/>
<path d="M411.4,91.1h1V92c0.3-0.4,0.6-0.6,0.9-0.8s0.7-0.2,1.1-0.2c0.9,0,1.5,0.3,1.8,0.9c0.2,0.3,0.3,0.8,0.3,1.5v4h-1.1v-4
	c0-0.4-0.1-0.7-0.2-0.9c-0.2-0.4-0.5-0.6-1-0.6c-0.2,0-0.5,0-0.6,0.1c-0.3,0.1-0.5,0.3-0.8,0.5c-0.2,0.2-0.3,0.4-0.3,0.6
	s-0.1,0.5-0.1,0.9v3.3h-1.1V91.1z"/>
<path d="M422.6,91.7c0.6,0.5,0.8,1.3,0.8,2.4c0,1-0.2,1.8-0.7,2.5s-1.2,1-2.3,1c-0.9,0-1.5-0.3-2-0.9c-0.5-0.6-0.8-1.4-0.8-2.4
	c0-1.1,0.3-1.9,0.8-2.5c0.5-0.6,1.2-0.9,2.1-0.9C421.4,90.9,422.1,91.2,422.6,91.7z M422,95.9c0.3-0.5,0.4-1.1,0.4-1.8
	c0-0.6-0.1-1.1-0.3-1.4c-0.3-0.6-0.8-0.9-1.5-0.9c-0.6,0-1.1,0.2-1.4,0.7c-0.3,0.5-0.4,1.1-0.4,1.8c0,0.7,0.1,1.2,0.4,1.7
	c0.3,0.4,0.7,0.7,1.4,0.7C421.3,96.7,421.7,96.4,422,95.9z"/>
<path d="M425.3,91.1l1.2,4.9l1.2-4.9h1.2l1.2,4.9l1.3-4.9h1.1l-1.8,6.3h-1.1l-1.3-4.9l-1.2,4.9h-1.1l-1.8-6.3H425.3z"/>
<path d="M434.1,95.4c0,0.4,0.1,0.6,0.3,0.8c0.3,0.3,0.7,0.5,1.4,0.5c0.4,0,0.7-0.1,1.1-0.3c0.3-0.2,0.5-0.4,0.5-0.8
	c0-0.3-0.1-0.5-0.4-0.6c-0.2-0.1-0.5-0.2-0.9-0.3l-0.9-0.2c-0.5-0.1-0.9-0.3-1.2-0.4c-0.5-0.3-0.7-0.7-0.7-1.2
	c0-0.6,0.2-1.1,0.7-1.4s1-0.6,1.7-0.6c1,0,1.6,0.3,2.1,0.8c0.3,0.4,0.4,0.7,0.4,1.1h-1c0-0.2-0.1-0.5-0.3-0.6
	c-0.2-0.3-0.7-0.4-1.3-0.4c-0.4,0-0.7,0.1-0.9,0.2s-0.3,0.4-0.3,0.6c0,0.3,0.1,0.5,0.4,0.7c0.2,0.1,0.4,0.2,0.7,0.3l0.7,0.2
	c0.8,0.2,1.3,0.4,1.6,0.5c0.4,0.3,0.6,0.7,0.6,1.3c0,0.6-0.2,1-0.6,1.4c-0.4,0.4-1.1,0.6-2,0.6c-0.9,0-1.6-0.2-2-0.6
	s-0.6-0.9-0.6-1.6H434.1z"/>
<path d="M440.2,88.8l-0.2,3.4h-0.7l-0.2-3.4H440.2z M442.2,88.8l-0.2,3.4h-0.7l-0.2-3.4H442.2z"/>
<rect x="356.7" y="73.4" fill-rule="evenodd" fill="none" width="129.8" height="27"/>
<rect x="355.5" y="145.4" fill="none" stroke="#000000" stroke-width="2.2504" width="132.3" height="42"/>
<path d="M396.6,161.3c0,0.6,0.3,1,0.7,1.2c0.2,0.1,0.5,0.2,0.7,0.2c0.5,0,0.9-0.2,1.3-0.6s0.6-1.3,0.8-2.6c-0.2,0.4-0.5,0.6-0.9,0.8
	s-0.7,0.2-1.1,0.2c-0.8,0-1.4-0.3-1.9-0.8c-0.5-0.5-0.7-1.2-0.7-1.9c0-0.8,0.2-1.4,0.7-2s1.2-0.9,2.1-0.9c1.2,0,2.1,0.6,2.5,1.7
	c0.3,0.6,0.4,1.4,0.4,2.3c0,1-0.2,1.9-0.5,2.7c-0.5,1.3-1.4,2-2.6,2c-0.8,0-1.4-0.2-1.9-0.6s-0.6-1-0.6-1.6H396.6z M399.3,159.2
	c0.3-0.3,0.5-0.8,0.5-1.4c0-0.6-0.2-1.1-0.5-1.4c-0.3-0.3-0.7-0.5-1.2-0.5c-0.5,0-0.9,0.2-1.2,0.5c-0.3,0.3-0.5,0.8-0.5,1.4
	c0,0.5,0.1,1,0.4,1.3c0.3,0.3,0.7,0.5,1.3,0.5C398.6,159.6,398.9,159.5,399.3,159.2z"/>
<path d="M405.8,159.6c0.2,0,0.4-0.1,0.5-0.3c0-0.1,0.1-0.2,0.1-0.4c0-0.4-0.1-0.6-0.4-0.8c-0.3-0.2-0.6-0.2-1.1-0.2
	c-0.5,0-0.9,0.1-1.2,0.4c-0.1,0.2-0.2,0.4-0.3,0.7h-1c0-0.8,0.3-1.3,0.8-1.6c0.5-0.3,1-0.5,1.7-0.5c0.7,0,1.3,0.1,1.8,0.4
	c0.5,0.3,0.7,0.7,0.7,1.3v3.6c0,0.1,0,0.2,0.1,0.3s0.1,0.1,0.3,0.1c0,0,0.1,0,0.2,0s0.1,0,0.2,0v0.8c-0.2,0-0.3,0.1-0.4,0.1
	s-0.2,0-0.4,0c-0.4,0-0.6-0.1-0.8-0.4c-0.1-0.1-0.1-0.3-0.2-0.6c-0.2,0.3-0.5,0.5-0.9,0.7s-0.8,0.3-1.3,0.3c-0.6,0-1.1-0.2-1.4-0.5
	c-0.4-0.4-0.6-0.8-0.6-1.3c0-0.6,0.2-1,0.5-1.4c0.4-0.3,0.8-0.5,1.4-0.6L405.8,159.6z M403.5,162.4c0.2,0.2,0.5,0.3,0.8,0.3
	c0.4,0,0.7-0.1,1.1-0.3c0.6-0.3,0.9-0.8,0.9-1.4v-0.8c-0.1,0.1-0.3,0.2-0.5,0.2c-0.2,0.1-0.4,0.1-0.6,0.1l-0.6,0.1
	c-0.4,0.1-0.7,0.1-0.9,0.2c-0.3,0.2-0.5,0.5-0.5,0.9C403.2,162,403.3,162.3,403.5,162.4z"/>
<path d="M414.6,155.1v0.9c-0.3,0.3-0.6,0.7-1.1,1.4c-0.4,0.6-0.8,1.3-1.2,2.1c-0.3,0.7-0.6,1.4-0.8,2c-0.1,0.4-0.3,1-0.4,1.9h-1.2
	c0.3-1.6,0.9-3.2,1.8-4.8c0.5-0.9,1.1-1.7,1.7-2.4h-4.6v-1.1H414.6z"/>
<path d="M421.3,155.1v0.9c-0.3,0.3-0.6,0.7-1.1,1.4c-0.4,0.6-0.8,1.3-1.2,2.1c-0.3,0.7-0.6,1.4-0.8,2c-0.1,0.4-0.3,1-0.4,1.9h-1.2
	c0.3-1.6,0.9-3.2,1.8-4.8c0.5-0.9,1.1-1.7,1.7-2.4h-4.6v-1.1H421.3z"/>
<path d="M422.8,157.4v-0.8c0.8-0.1,1.3-0.2,1.6-0.4s0.5-0.6,0.7-1.2h0.8v8.4h-1.1v-5.9H422.8z"/>
<path d="M434.6,155.1v0.9c-0.3,0.3-0.6,0.7-1.1,1.4c-0.4,0.6-0.8,1.3-1.2,2.1c-0.3,0.7-0.6,1.4-0.8,2c-0.1,0.4-0.3,1-0.4,1.9H430
	c0.3-1.6,0.9-3.2,1.8-4.8c0.5-0.9,1.1-1.7,1.7-2.4h-4.6v-1.1H434.6z"/>
<path d="M436.2,157.4v-0.8c0.8-0.1,1.3-0.2,1.6-0.4s0.5-0.6,0.7-1.2h0.8v8.4h-1.1v-5.9H436.2z"/>
<path d="M443.2,161.2c0.1,0.6,0.4,1,0.8,1.2c0.2,0.1,0.5,0.2,0.9,0.2c0.6,0,1.1-0.2,1.4-0.6c0.3-0.4,0.5-0.8,0.5-1.3
	c0-0.6-0.2-1-0.5-1.4c-0.4-0.3-0.8-0.5-1.3-0.5c-0.4,0-0.7,0.1-0.9,0.2s-0.5,0.3-0.7,0.6l-0.9-0.1l0.6-4.5h4.4v1h-3.6l-0.4,2.3
	c0.2-0.1,0.4-0.3,0.6-0.3c0.3-0.1,0.7-0.2,1.1-0.2c0.8,0,1.4,0.2,2,0.7s0.8,1.1,0.8,1.9c0,0.8-0.2,1.5-0.7,2.1s-1.3,0.9-2.3,0.9
	c-0.7,0-1.3-0.2-1.8-0.6c-0.5-0.4-0.8-1-0.9-1.8H443.2z"/>
<path d="M408.2,168.3l-0.2,3.4h-0.7l-0.2-3.4H408.2z M410.3,168.3l-0.2,3.4h-0.7l-0.2-3.4H410.3z"/>
<path d="M411.9,168.3h3.7c1,0,1.7,0.3,2.2,0.9c0.3,0.4,0.4,0.8,0.4,1.2c0,0.5-0.2,1-0.5,1.3c-0.2,0.2-0.4,0.4-0.7,0.5
	c0.4,0.2,0.8,0.4,1,0.6c0.4,0.4,0.6,0.9,0.6,1.6c0,0.6-0.2,1.1-0.5,1.5c-0.5,0.7-1.4,1-2.5,1h-3.7V168.3z M415.1,171.9
	c0.5,0,0.9-0.1,1.2-0.2c0.4-0.2,0.7-0.6,0.7-1.2c0-0.6-0.2-0.9-0.7-1.1c-0.3-0.1-0.6-0.2-1.2-0.2H413v2.7H415.1z M415.5,175.9
	c0.7,0,1.2-0.2,1.5-0.6c0.2-0.3,0.3-0.6,0.3-0.9c0-0.6-0.3-1.1-0.8-1.3c-0.3-0.1-0.7-0.2-1.2-0.2H413v3H415.5z"/>
<path d="M424.3,171.2c0.6,0.5,0.8,1.3,0.8,2.4c0,1-0.2,1.8-0.7,2.5s-1.2,1-2.3,1c-0.9,0-1.5-0.3-2-0.9c-0.5-0.6-0.8-1.4-0.8-2.4
	c0-1.1,0.3-1.9,0.8-2.5c0.5-0.6,1.2-0.9,2.1-0.9C423.1,170.4,423.7,170.7,424.3,171.2z M423.6,175.4c0.3-0.5,0.4-1.1,0.4-1.8
	c0-0.6-0.1-1.1-0.3-1.4c-0.3-0.6-0.8-0.9-1.5-0.9c-0.6,0-1.1,0.2-1.4,0.7c-0.3,0.5-0.4,1.1-0.4,1.8c0,0.7,0.1,1.2,0.4,1.7
	c0.3,0.4,0.7,0.7,1.4,0.7C422.9,176.2,423.4,175.9,423.6,175.4z"/>
<path d="M426.3,168.2h1v3.1c0.2-0.3,0.5-0.5,0.8-0.7s0.7-0.2,1-0.2c0.8,0,1.4,0.3,1.9,0.8s0.7,1.3,0.7,2.4c0,1-0.2,1.8-0.7,2.5
	s-1.2,1-2,1c-0.5,0-0.9-0.1-1.2-0.3c-0.2-0.1-0.4-0.4-0.6-0.7v0.8h-1V168.2z M430.4,175.5c0.3-0.5,0.4-1.1,0.4-1.8
	c0-0.7-0.1-1.2-0.4-1.6s-0.7-0.7-1.3-0.7c-0.5,0-0.9,0.2-1.3,0.5c-0.4,0.4-0.5,0.9-0.5,1.8c0,0.6,0.1,1.1,0.2,1.4
	c0.3,0.7,0.8,1,1.6,1C429.7,176.1,430.1,175.9,430.4,175.5z"/>
<path d="M433.9,168.3l-0.2,3.4H433l-0.2-3.4H433.9z M435.9,168.3l-0.2,3.4H435l-0.2-3.4H435.9z"/>
<rect x="363" y="152.9" fill-rule="evenodd" fill="none" width="117" height="27"/>
</svg>
