<?xml version='1.0' encoding='utf-8'?>
<svg xmlns="http://www.w3.org/2000/svg" xmlns:xlink="http://www.w3.org/1999/xlink" version="1.2" baseProfile="tiny" width="353px" height="173.7px" viewBox="0 0 353 173.7" xml:space="preserve">
<path fill="none" stroke="#000000" stroke-width="1.4993" d="M114.6,65.9l6.1-3.1c6.1-3.1,18.4-9.4,29.7-12.5  c11.3-3.1,21.5-3.1,26.6-3.1h5.1"/>
<polygon fill="black" points="174,42.6 183,47.1 174,51.6 "/>
<rect x="172.5" y="42.6" fill-rule="evenodd" fill="none" width="12" height="9"/>
<path fill="none" stroke="#000000" stroke-width="1.4993" d="M114.6,107.9l6.1,3.1c6.1,3.1,18.4,9.4,30.7,12.5  c12.3,3.1,24.7,3.1,30.8,3.1h6.2"/>
<polygon fill="black" points="180.4,122.1 189.4,126.6 180.4,131.1 "/>
<rect x="178.9" y="122.1" fill-rule="evenodd" fill="none" width="12" height="9"/>
<path d="M140.2,53.3v-8.6h1v0.8c0.2-0.3,0.5-0.6,0.8-0.7c0.3-0.2,0.6-0.2,1-0.2c0.5,0,1,0.1,1.4,0.4c0.4,0.3,0.7,0.7,0.9,1.2  s0.3,1,0.3,1.6c0,0.6-0.1,1.2-0.3,1.7c-0.2,0.5-0.6,0.9-1,1.2s-0.9,0.4-1.4,0.4c-0.4,0-0.7-0.1-0.9-0.2c-0.3-0.1-0.5-0.3-0.7-0.6v3  H140.2z M141.1,47.8c0,0.8,0.2,1.4,0.5,1.8c0.3,0.4,0.7,0.6,1.2,0.6c0.5,0,0.9-0.2,1.2-0.6c0.3-0.4,0.5-1,0.5-1.8  c0-0.8-0.2-1.4-0.5-1.8c-0.3-0.4-0.7-0.6-1.2-0.6c-0.4,0-0.8,0.2-1.2,0.6C141.3,46.4,141.1,47,141.1,47.8z"/>
<path d="M146.8,50.9v-6.2h0.9v0.9c0.2-0.4,0.5-0.7,0.7-0.9c0.2-0.1,0.4-0.2,0.7-0.2c0.4,0,0.7,0.1,1.1,0.3l-0.4,1  c-0.3-0.2-0.5-0.2-0.8-0.2c-0.2,0-0.4,0.1-0.6,0.2c-0.2,0.1-0.3,0.3-0.4,0.6c-0.1,0.4-0.2,0.8-0.2,1.2v3.3H146.8z"/>
<path d="M155.1,48.9l1.1,0.1c-0.2,0.6-0.5,1.1-1,1.5c-0.5,0.4-1.1,0.5-1.8,0.5c-0.9,0-1.6-0.3-2.2-0.8s-0.8-1.3-0.8-2.4  c0-1,0.3-1.9,0.8-2.4s1.2-0.9,2.1-0.9c0.8,0,1.5,0.3,2,0.8s0.8,1.4,0.8,2.4c0,0.1,0,0.2,0,0.3h-4.6c0,0.7,0.2,1.2,0.6,1.6  s0.8,0.5,1.3,0.5c0.4,0,0.7-0.1,1-0.3C154.7,49.6,154.9,49.3,155.1,48.9z M151.6,47.2h3.5c0-0.5-0.2-0.9-0.4-1.2  c-0.3-0.4-0.8-0.6-1.3-0.6c-0.5,0-0.9,0.2-1.2,0.5S151.7,46.6,151.6,47.2z"/>
<path d="M161.6,50.9v-0.8c-0.4,0.6-1,0.9-1.7,0.9c-0.5,0-1-0.1-1.4-0.4s-0.7-0.7-1-1.1c-0.2-0.5-0.3-1.1-0.3-1.7  c0-0.6,0.1-1.2,0.3-1.7c0.2-0.5,0.5-0.9,0.9-1.2s0.9-0.4,1.4-0.4c0.4,0,0.7,0.1,1,0.2c0.3,0.2,0.5,0.4,0.7,0.6v-3.1h1v8.6H161.6z   M158.2,47.8c0,0.8,0.2,1.4,0.5,1.8c0.3,0.4,0.7,0.6,1.2,0.6c0.5,0,0.9-0.2,1.2-0.6s0.5-1,0.5-1.7c0-0.9-0.2-1.5-0.5-1.9  s-0.7-0.6-1.2-0.6c-0.5,0-0.9,0.2-1.2,0.6C158.4,46.3,158.2,46.9,158.2,47.8z"/>
<rect x="139.4" y="40.4" fill-rule="evenodd" fill="none" width="24" height="13.5"/>
<path d="M143.8,127.3c0-1.2,0.3-2,1-2.6c0.5-0.5,1.2-0.7,2-0.7c0.9,0,1.6,0.3,2.1,0.8s0.8,1.3,0.8,2.3c0,0.8-0.1,1.4-0.4,1.9  c-0.2,0.5-0.6,0.8-1,1.1s-1,0.4-1.5,0.4c-0.9,0-1.6-0.3-2.1-0.8S143.8,128.3,143.8,127.3z M144.9,127.3c0,0.8,0.2,1.4,0.5,1.8  c0.3,0.4,0.8,0.6,1.3,0.6c0.5,0,1-0.2,1.3-0.6c0.3-0.4,0.5-1,0.5-1.8c0-0.8-0.2-1.4-0.5-1.7c-0.3-0.4-0.8-0.6-1.3-0.6  c-0.5,0-1,0.2-1.3,0.6C145.1,125.9,144.9,126.5,144.9,127.3z"/>
<path d="M151.8,130.4h-1v-8.6h1.1v3.1c0.4-0.6,1-0.8,1.7-0.8c0.4,0,0.7,0.1,1.1,0.2c0.3,0.2,0.6,0.4,0.8,0.7c0.2,0.3,0.4,0.6,0.5,1  s0.2,0.8,0.2,1.3c0,1.1-0.3,1.9-0.8,2.5s-1.2,0.9-1.9,0.9c-0.7,0-1.3-0.3-1.7-0.9V130.4z M151.8,127.2c0,0.7,0.1,1.3,0.3,1.6  c0.3,0.5,0.8,0.8,1.3,0.8c0.5,0,0.9-0.2,1.2-0.6c0.3-0.4,0.5-1,0.5-1.8c0-0.8-0.2-1.4-0.5-1.8c-0.3-0.4-0.7-0.6-1.2-0.6  c-0.5,0-0.9,0.2-1.2,0.6C152,125.9,151.8,126.5,151.8,127.2z"/>
<path d="M156.2,132.8l0.2-0.9c0.2,0.1,0.4,0.1,0.5,0.1c0.2,0,0.4-0.1,0.5-0.2s0.2-0.5,0.2-1.1v-6.5h1.1v6.6c0,0.8-0.1,1.3-0.3,1.6  c-0.3,0.4-0.7,0.6-1.3,0.6C156.7,132.9,156.5,132.9,156.2,132.8z M157.5,123v-1.2h1.1v1.2H157.5z"/>
<rect x="143.4" y="119.9" fill-rule="evenodd" fill="none" width="15.7" height="13.5"/>
<path fill="none" stroke="#000000" stroke-width="2.249" d="M47.1,65.9h52.6c0.7,0,1.4,0,2.1,0.1c0.7,0.1,1.4,0.2,2,0.3  c0.7,0.1,1.3,0.3,2,0.5s1.3,0.4,1.9,0.7c0.6,0.3,1.3,0.6,1.9,0.9c0.6,0.3,1.2,0.7,1.8,1.1c0.6,0.4,1.1,0.8,1.7,1.2  c0.5,0.4,1,0.9,1.5,1.4s0.9,1,1.4,1.5s0.8,1.1,1.2,1.7c0.4,0.6,0.7,1.2,1.1,1.8c0.3,0.6,0.6,1.2,0.9,1.9c0.3,0.6,0.5,1.3,0.7,1.9  c0.2,0.7,0.4,1.3,0.5,2s0.2,1.4,0.3,2c0.1,0.7,0.1,1.4,0.1,2.1s0,1.4-0.1,2.1c-0.1,0.7-0.2,1.4-0.3,2s-0.3,1.3-0.5,2  c-0.2,0.7-0.4,1.3-0.7,1.9c-0.3,0.6-0.6,1.3-0.9,1.9c-0.3,0.6-0.7,1.2-1.1,1.8c-0.4,0.6-0.8,1.1-1.2,1.7s-0.9,1-1.4,1.5  s-1,0.9-1.5,1.4c-0.5,0.4-1.1,0.8-1.7,1.2c-0.6,0.4-1.2,0.7-1.8,1.1c-0.6,0.3-1.2,0.6-1.9,0.9c-0.6,0.3-1.3,0.5-1.9,0.7  s-1.3,0.4-2,0.5c-0.7,0.1-1.4,0.2-2,0.3c-0.7,0.1-1.4,0.1-2.1,0.1H47.1c-0.7,0-1.4,0-2.1-0.1c-0.7-0.1-1.4-0.2-2-0.3  c-0.7-0.1-1.3-0.3-2-0.5s-1.3-0.4-1.9-0.7c-0.6-0.3-1.3-0.6-1.9-0.9c-0.6-0.3-1.2-0.7-1.8-1.1c-0.6-0.4-1.1-0.8-1.7-1.2  c-0.5-0.4-1-0.9-1.5-1.4c-0.5-0.5-0.9-1-1.4-1.5s-0.8-1.1-1.2-1.7c-0.4-0.6-0.7-1.2-1.1-1.8c-0.3-0.6-0.6-1.2-0.9-1.9  c-0.3-0.6-0.5-1.3-0.7-1.9c-0.2-0.7-0.4-1.3-0.5-2c-0.1-0.7-0.2-1.4-0.3-2c-0.1-0.7-0.1-1.4-0.1-2.1s0-1.4,0.1-2.1s0.2-1.4,0.3-2  c0.1-0.7,0.3-1.3,0.5-2c0.2-0.7,0.4-1.3,0.7-1.9c0.3-0.6,0.6-1.3,0.9-1.9c0.3-0.6,0.7-1.2,1.1-1.8c0.4-0.6,0.8-1.1,1.2-1.7  s0.9-1,1.4-1.5c0.5-0.5,1-0.9,1.5-1.4c0.5-0.4,1.1-0.8,1.7-1.2c0.6-0.4,1.2-0.7,1.8-1.1c0.6-0.3,1.2-0.6,1.9-0.9  c0.6-0.3,1.3-0.5,1.9-0.7s1.3-0.4,2-0.5c0.7-0.1,1.4-0.2,2-0.3C45.7,65.9,46.4,65.9,47.1,65.9z"/>
<path d="M48.9,81.6l1.1-0.1c0.1,0.5,0.3,0.9,0.6,1.2s0.7,0.4,1.1,0.4c0.5,0,0.9-0.2,1.3-0.6c0.4-0.4,0.5-0.9,0.5-1.5  c0-0.6-0.2-1.1-0.5-1.4c-0.3-0.3-0.8-0.5-1.3-0.5c-0.3,0-0.6,0.1-0.9,0.2c-0.3,0.2-0.5,0.4-0.6,0.6l-1-0.1l0.8-4.4h4.3v1h-3.4  l-0.5,2.3c0.5-0.4,1.1-0.5,1.6-0.5c0.7,0,1.4,0.3,1.9,0.8s0.8,1.2,0.8,2c0,0.8-0.2,1.4-0.7,2c-0.6,0.7-1.3,1-2.3,1  c-0.8,0-1.4-0.2-1.9-0.7C49.2,82.9,49,82.3,48.9,81.6z"/>
<path d="M55.6,81.6l1.1-0.1c0.1,0.5,0.3,0.9,0.6,1.2s0.7,0.4,1.1,0.4c0.5,0,0.9-0.2,1.3-0.6c0.4-0.4,0.5-0.9,0.5-1.5  c0-0.6-0.2-1.1-0.5-1.4c-0.3-0.3-0.8-0.5-1.3-0.5c-0.3,0-0.6,0.1-0.9,0.2c-0.3,0.2-0.5,0.4-0.6,0.6l-1-0.1l0.8-4.4h4.3v1h-3.4  L57,78.7c0.5-0.4,1.1-0.5,1.6-0.5c0.7,0,1.4,0.3,1.9,0.8s0.8,1.2,0.8,2c0,0.8-0.2,1.4-0.7,2c-0.6,0.7-1.3,1-2.3,1  c-0.8,0-1.4-0.2-1.9-0.7C55.9,82.9,55.6,82.3,55.6,81.6z"/>
<path d="M62.2,81.6l1.1-0.1c0.1,0.5,0.3,0.9,0.6,1.2c0.3,0.3,0.7,0.4,1.1,0.4c0.5,0,0.9-0.2,1.3-0.6c0.4-0.4,0.5-0.9,0.5-1.5  c0-0.6-0.2-1.1-0.5-1.4c-0.3-0.3-0.8-0.5-1.3-0.5c-0.3,0-0.6,0.1-0.9,0.2c-0.3,0.2-0.5,0.4-0.6,0.6l-1-0.1l0.8-4.4h4.3v1h-3.4  l-0.5,2.3c0.5-0.4,1.1-0.5,1.6-0.5c0.7,0,1.4,0.3,1.9,0.8s0.8,1.2,0.8,2c0,0.8-0.2,1.4-0.7,2c-0.6,0.7-1.3,1-2.3,1  c-0.8,0-1.4-0.2-1.9-0.7C62.6,82.9,62.3,82.3,62.2,81.6z"/>
<path d="M74.4,77.4l-1,0.1c-0.1-0.4-0.2-0.7-0.4-0.9c-0.3-0.3-0.6-0.5-1.1-0.5c-0.3,0-0.6,0.1-0.9,0.3c-0.3,0.2-0.6,0.6-0.8,1.1  c-0.2,0.5-0.3,1.1-0.3,2c0.3-0.4,0.6-0.7,0.9-0.9c0.4-0.2,0.8-0.3,1.2-0.3c0.7,0,1.3,0.3,1.8,0.8s0.7,1.2,0.7,2c0,0.5-0.1,1-0.3,1.5  c-0.2,0.5-0.6,0.8-1,1.1S72.3,84,71.8,84c-0.9,0-1.6-0.3-2.1-1c-0.6-0.6-0.8-1.7-0.8-3.2c0-1.7,0.3-2.9,0.9-3.6c0.5-0.7,1.3-1,2.2-1  c0.7,0,1.2,0.2,1.7,0.6C74,76.2,74.3,76.7,74.4,77.4z M70.1,81.1c0,0.4,0.1,0.7,0.2,1c0.2,0.3,0.4,0.6,0.6,0.8  c0.3,0.2,0.6,0.3,0.9,0.3c0.4,0,0.8-0.2,1.1-0.5c0.3-0.4,0.5-0.8,0.5-1.5c0-0.6-0.2-1.1-0.5-1.4c-0.3-0.3-0.7-0.5-1.2-0.5  c-0.5,0-0.9,0.2-1.2,0.5S70.1,80.5,70.1,81.1z"/>
<path d="M75.6,79.6c0-1,0.1-1.8,0.3-2.5c0.2-0.6,0.5-1.1,0.9-1.4c0.4-0.3,0.9-0.5,1.6-0.5c0.5,0,0.9,0.1,1.2,0.3  c0.3,0.2,0.6,0.5,0.9,0.8s0.4,0.8,0.5,1.3s0.2,1.2,0.2,2c0,1-0.1,1.8-0.3,2.4c-0.2,0.6-0.5,1.1-0.9,1.4S79,84,78.4,84  c-0.8,0-1.5-0.3-1.9-0.9C75.8,82.4,75.6,81.3,75.6,79.6z M76.6,79.6c0,1.4,0.2,2.3,0.5,2.8c0.3,0.5,0.7,0.7,1.2,0.7s0.9-0.2,1.2-0.7  c0.3-0.5,0.5-1.4,0.5-2.8c0-1.4-0.2-2.4-0.5-2.8c-0.3-0.5-0.7-0.7-1.2-0.7c-0.5,0-0.9,0.2-1.2,0.6C76.8,77.3,76.6,78.2,76.6,79.6z"/>
<path d="M83.5,83.9h-1v-8.6h1.1v3.1c0.4-0.6,1-0.8,1.7-0.8c0.4,0,0.7,0.1,1.1,0.2c0.3,0.2,0.6,0.4,0.8,0.7c0.2,0.3,0.4,0.6,0.5,1  s0.2,0.8,0.2,1.3c0,1.1-0.3,1.9-0.8,2.5S86,84,85.2,84c-0.7,0-1.3-0.3-1.7-0.9V83.9z M83.5,80.7c0,0.7,0.1,1.3,0.3,1.6  c0.3,0.5,0.8,0.8,1.3,0.8c0.5,0,0.9-0.2,1.2-0.6c0.3-0.4,0.5-1,0.5-1.8c0-0.8-0.2-1.4-0.5-1.8c-0.3-0.4-0.7-0.6-1.2-0.6  c-0.5,0-0.9,0.2-1.2,0.6C83.7,79.4,83.5,80,83.5,80.7z"/>
<path d="M93.2,83.9v-0.8c-0.4,0.6-1,0.9-1.7,0.9c-0.5,0-1-0.1-1.4-0.4s-0.7-0.7-1-1.1c-0.2-0.5-0.3-1.1-0.3-1.7  c0-0.6,0.1-1.2,0.3-1.7c0.2-0.5,0.5-0.9,0.9-1.2s0.9-0.4,1.4-0.4c0.4,0,0.7,0.1,1,0.2c0.3,0.2,0.5,0.4,0.7,0.6v-3.1h1v8.6H93.2z   M89.9,80.8c0,0.8,0.2,1.4,0.5,1.8c0.3,0.4,0.7,0.6,1.2,0.6c0.5,0,0.9-0.2,1.2-0.6s0.5-1,0.5-1.7c0-0.9-0.2-1.5-0.5-1.9  s-0.7-0.6-1.2-0.6c-0.5,0-0.9,0.2-1.2,0.6C90.1,79.3,89.9,79.9,89.9,80.8z"/>
<path d="M96.1,83.9v-5.4h-0.9v-0.8h0.9V77c0-0.4,0-0.7,0.1-0.9c0.1-0.3,0.3-0.5,0.5-0.7c0.3-0.2,0.6-0.3,1.1-0.3c0.3,0,0.6,0,1,0.1  l-0.2,0.9c-0.2,0-0.4-0.1-0.6-0.1c-0.3,0-0.5,0.1-0.7,0.2c-0.1,0.1-0.2,0.4-0.2,0.8v0.6h1.2v0.8h-1.2v5.4H96.1z"/>
<path d="M38.8,97.4l3.3-8.6h1.2l3.5,8.6h-1.3l-1-2.6H41l-0.9,2.6H38.8z M41.3,93.8h2.9l-0.9-2.4c-0.3-0.7-0.5-1.3-0.6-1.8  c-0.1,0.6-0.3,1.1-0.5,1.6L41.3,93.8z"/>
<path d="M47.4,94.6l1.1-0.1c0.1,0.4,0.2,0.8,0.4,1.1c0.2,0.3,0.5,0.5,0.9,0.7c0.4,0.2,0.8,0.3,1.3,0.3c0.4,0,0.8-0.1,1.1-0.2  c0.3-0.1,0.6-0.3,0.7-0.5c0.2-0.2,0.2-0.5,0.2-0.7c0-0.3-0.1-0.5-0.2-0.7c-0.2-0.2-0.4-0.4-0.8-0.5c-0.2-0.1-0.7-0.2-1.5-0.4  s-1.3-0.4-1.7-0.5c-0.4-0.2-0.7-0.5-0.9-0.8c-0.2-0.3-0.3-0.7-0.3-1.1c0-0.4,0.1-0.8,0.4-1.2c0.2-0.4,0.6-0.7,1.1-0.9s1-0.3,1.6-0.3  c0.6,0,1.2,0.1,1.7,0.3s0.9,0.5,1.1,0.9c0.3,0.4,0.4,0.8,0.4,1.4l-1.1,0.1c-0.1-0.5-0.3-1-0.6-1.2s-0.8-0.4-1.5-0.4  c-0.7,0-1.2,0.1-1.5,0.4c-0.3,0.3-0.5,0.6-0.5,0.9c0,0.3,0.1,0.6,0.3,0.8c0.2,0.2,0.8,0.4,1.7,0.6c0.9,0.2,1.6,0.4,1.9,0.5  c0.5,0.2,0.9,0.5,1.1,0.9s0.4,0.8,0.4,1.2c0,0.5-0.1,0.9-0.4,1.3c-0.3,0.4-0.6,0.7-1.1,0.9s-1,0.3-1.7,0.3c-0.8,0-1.4-0.1-2-0.3  s-0.9-0.6-1.2-1C47.6,95.7,47.4,95.2,47.4,94.6z"/>
<path d="M55.4,94.6l1.1-0.1c0.1,0.4,0.2,0.8,0.4,1.1c0.2,0.3,0.5,0.5,0.9,0.7c0.4,0.2,0.8,0.3,1.3,0.3c0.4,0,0.8-0.1,1.1-0.2  c0.3-0.1,0.6-0.3,0.7-0.5c0.2-0.2,0.2-0.5,0.2-0.7c0-0.3-0.1-0.5-0.2-0.7c-0.2-0.2-0.4-0.4-0.8-0.5c-0.2-0.1-0.7-0.2-1.5-0.4  s-1.3-0.4-1.7-0.5c-0.4-0.2-0.7-0.5-0.9-0.8c-0.2-0.3-0.3-0.7-0.3-1.1c0-0.4,0.1-0.8,0.4-1.2c0.2-0.4,0.6-0.7,1.1-0.9s1-0.3,1.6-0.3  c0.6,0,1.2,0.1,1.7,0.3s0.9,0.5,1.1,0.9c0.3,0.4,0.4,0.8,0.4,1.4l-1.1,0.1c-0.1-0.5-0.3-1-0.6-1.2s-0.8-0.4-1.5-0.4  c-0.7,0-1.2,0.1-1.5,0.4c-0.3,0.3-0.5,0.6-0.5,0.9c0,0.3,0.1,0.6,0.3,0.8c0.2,0.2,0.8,0.4,1.7,0.6c0.9,0.2,1.6,0.4,1.9,0.5  c0.5,0.2,0.9,0.5,1.1,0.9s0.4,0.8,0.4,1.2c0,0.5-0.1,0.9-0.4,1.3c-0.3,0.4-0.6,0.7-1.1,0.9s-1,0.3-1.7,0.3c-0.8,0-1.4-0.1-2-0.3  s-0.9-0.6-1.2-1C55.6,95.7,55.4,95.2,55.4,94.6z"/>
<path d="M63.8,97.4v-8.6H70v1h-5.1v2.6h4.7v1h-4.7v2.9h5.3v1H63.8z"/>
<path d="M71.8,97.4v-8.6h3.8c0.8,0,1.3,0.1,1.7,0.2s0.7,0.4,1,0.8c0.2,0.4,0.4,0.8,0.4,1.3c0,0.6-0.2,1.1-0.6,1.5  c-0.4,0.4-1,0.7-1.8,0.8c0.3,0.1,0.5,0.3,0.7,0.4c0.3,0.3,0.6,0.7,0.9,1.1l1.5,2.3h-1.4l-1.1-1.8c-0.3-0.5-0.6-0.9-0.8-1.2  c-0.2-0.3-0.4-0.5-0.6-0.6c-0.2-0.1-0.3-0.2-0.5-0.2c-0.1,0-0.3,0-0.6,0h-1.3v3.8H71.8z M72.9,92.6h2.4c0.5,0,0.9-0.1,1.2-0.2  c0.3-0.1,0.5-0.3,0.7-0.5s0.2-0.5,0.2-0.8c0-0.4-0.1-0.7-0.4-1c-0.3-0.3-0.8-0.4-1.4-0.4h-2.7V92.6z"/>
<path d="M82.4,97.4v-7.6h-2.8v-1h6.8v1h-2.8v7.6H82.4z"/>
<path d="M87.7,97.4v-8.6h1.1v8.6H87.7z"/>
<path d="M90.5,93.2c0-1.4,0.4-2.5,1.1-3.3c0.8-0.8,1.8-1.2,3-1.2c0.8,0,1.5,0.2,2.1,0.6c0.6,0.4,1.1,0.9,1.5,1.6  c0.3,0.7,0.5,1.4,0.5,2.3c0,0.9-0.2,1.7-0.5,2.3c-0.4,0.7-0.8,1.2-1.5,1.6c-0.6,0.4-1.3,0.5-2.1,0.5c-0.8,0-1.5-0.2-2.2-0.6  S91.3,96,91,95.3S90.5,93.9,90.5,93.2z M91.7,93.2c0,1,0.3,1.9,0.8,2.4s1.3,0.9,2.1,0.9c0.9,0,1.6-0.3,2.1-0.9s0.8-1.5,0.8-2.6  c0-0.7-0.1-1.3-0.4-1.8c-0.2-0.5-0.6-0.9-1-1.2c-0.5-0.3-1-0.4-1.5-0.4c-0.8,0-1.5,0.3-2.1,0.8S91.7,91.9,91.7,93.2z"/>
<path d="M100.2,97.4v-8.6h1.2l4.5,6.7v-6.7h1.1v8.6h-1.2l-4.5-6.8v6.8H100.2z"/>
<rect x="38.9" y="73.4" fill-rule="evenodd" fill="none" width="68.9" height="27"/>
<rect x="182.1" y="26.1" fill="none" stroke="#000000" stroke-width="2.249" width="144.7" height="42"/>
<path d="M228.4,36.7v-1h5.6v0.8c-0.5,0.6-1.1,1.4-1.6,2.3s-1,2-1.2,3c-0.2,0.7-0.3,1.5-0.4,2.4h-1.1c0-0.7,0.1-1.5,0.4-2.4  c0.3-1,0.6-1.9,1.1-2.8s1-1.6,1.5-2.2H228.4z"/>
<path d="M235,39.9c0-1,0.1-1.8,0.3-2.5c0.2-0.6,0.5-1.1,0.9-1.4c0.4-0.3,0.9-0.5,1.6-0.5c0.5,0,0.9,0.1,1.2,0.3  c0.3,0.2,0.6,0.5,0.9,0.8s0.4,0.8,0.5,1.3s0.2,1.2,0.2,2c0,1-0.1,1.8-0.3,2.4c-0.2,0.6-0.5,1.1-0.9,1.4s-0.9,0.5-1.6,0.5  c-0.8,0-1.5-0.3-1.9-0.9C235.3,42.7,235,41.5,235,39.9z M236.1,39.9c0,1.4,0.2,2.3,0.5,2.8c0.3,0.5,0.7,0.7,1.2,0.7s0.9-0.2,1.2-0.7  c0.3-0.5,0.5-1.4,0.5-2.8c0-1.4-0.2-2.4-0.5-2.8c-0.3-0.5-0.7-0.7-1.2-0.7c-0.5,0-0.9,0.2-1.2,0.6C236.3,37.5,236.1,38.5,236.1,39.9  z"/>
<path d="M241.8,42.1l1-0.1c0.1,0.5,0.2,0.8,0.5,1s0.6,0.3,0.9,0.3c0.3,0,0.6-0.1,0.9-0.2c0.2-0.1,0.4-0.3,0.6-0.6  c0.2-0.2,0.3-0.6,0.4-1s0.2-0.9,0.2-1.3c0,0,0-0.1,0-0.2c-0.2,0.3-0.5,0.6-0.9,0.8s-0.8,0.3-1.2,0.3c-0.7,0-1.3-0.3-1.8-0.8  s-0.7-1.2-0.7-2c0-0.9,0.3-1.6,0.8-2.1s1.2-0.8,1.9-0.8c0.6,0,1.1,0.2,1.5,0.5s0.8,0.7,1.1,1.3c0.2,0.6,0.4,1.4,0.4,2.4  c0,1.1-0.1,2-0.4,2.6c-0.2,0.7-0.6,1.1-1.1,1.5s-1,0.5-1.7,0.5c-0.7,0-1.2-0.2-1.6-0.6S241.9,42.8,241.8,42.1z M246.1,38.3  c0-0.6-0.2-1.1-0.5-1.4c-0.3-0.4-0.7-0.5-1.2-0.5c-0.5,0-0.9,0.2-1.2,0.6s-0.5,0.9-0.5,1.5c0,0.5,0.2,1,0.5,1.3  c0.3,0.3,0.7,0.5,1.2,0.5c0.5,0,0.9-0.2,1.2-0.5C246,39.4,246.1,39,246.1,38.3z"/>
<path d="M253.9,43.1v1h-5.7c0-0.3,0-0.5,0.1-0.7c0.1-0.4,0.4-0.8,0.7-1.1c0.3-0.4,0.8-0.8,1.4-1.3c0.9-0.8,1.6-1.4,1.9-1.8  c0.3-0.4,0.5-0.9,0.5-1.3c0-0.4-0.1-0.8-0.4-1.1c-0.3-0.3-0.7-0.4-1.2-0.4c-0.5,0-0.9,0.2-1.2,0.5c-0.3,0.3-0.5,0.7-0.5,1.3  l-1.1-0.1c0.1-0.8,0.4-1.4,0.8-1.8s1.1-0.6,1.9-0.6c0.8,0,1.5,0.2,2,0.7s0.7,1,0.7,1.7c0,0.3-0.1,0.7-0.2,1c-0.1,0.3-0.4,0.7-0.7,1  c-0.3,0.4-0.9,0.9-1.6,1.5c-0.6,0.5-1,0.9-1.2,1.1c-0.2,0.2-0.3,0.4-0.4,0.6H253.9z"/>
<path d="M259.3,44.1v-0.8c-0.4,0.6-1,0.9-1.7,0.9c-0.5,0-1-0.1-1.4-0.4s-0.7-0.7-1-1.1c-0.2-0.5-0.3-1.1-0.3-1.7  c0-0.6,0.1-1.2,0.3-1.7c0.2-0.5,0.5-0.9,0.9-1.2s0.9-0.4,1.4-0.4c0.4,0,0.7,0.1,1,0.2c0.3,0.2,0.5,0.4,0.7,0.6v-3.1h1v8.6H259.3z   M256,41c0,0.8,0.2,1.4,0.5,1.8c0.3,0.4,0.7,0.6,1.2,0.6c0.5,0,0.9-0.2,1.2-0.6s0.5-1,0.5-1.7c0-0.9-0.2-1.5-0.5-1.9  s-0.7-0.6-1.2-0.6c-0.5,0-0.9,0.2-1.2,0.6C256.2,39.6,256,40.2,256,41z"/>
<path d="M267.1,37.6l-1,0.1c-0.1-0.4-0.2-0.7-0.4-0.9c-0.3-0.3-0.6-0.5-1.1-0.5c-0.3,0-0.6,0.1-0.9,0.3c-0.3,0.2-0.6,0.6-0.8,1.1  c-0.2,0.5-0.3,1.1-0.3,2c0.3-0.4,0.6-0.7,0.9-0.9c0.4-0.2,0.8-0.3,1.2-0.3c0.7,0,1.3,0.3,1.8,0.8s0.7,1.2,0.7,2c0,0.5-0.1,1-0.3,1.5  c-0.2,0.5-0.6,0.8-1,1.1s-0.9,0.4-1.4,0.4c-0.9,0-1.6-0.3-2.1-1c-0.6-0.6-0.8-1.7-0.8-3.2c0-1.7,0.3-2.9,0.9-3.6  c0.5-0.7,1.3-1,2.2-1c0.7,0,1.2,0.2,1.7,0.6C266.8,36.4,267.1,37,267.1,37.6z M262.8,41.3c0,0.4,0.1,0.7,0.2,1  c0.2,0.3,0.4,0.6,0.6,0.8c0.3,0.2,0.6,0.3,0.9,0.3c0.4,0,0.8-0.2,1.1-0.5c0.3-0.4,0.5-0.8,0.5-1.5c0-0.6-0.2-1.1-0.5-1.4  c-0.3-0.3-0.7-0.5-1.2-0.5c-0.5,0-0.9,0.2-1.2,0.5S262.8,40.8,262.8,41.3z"/>
<path d="M273.9,43.1v1h-5.7c0-0.3,0-0.5,0.1-0.7c0.1-0.4,0.4-0.8,0.7-1.1c0.3-0.4,0.8-0.8,1.4-1.3c0.9-0.8,1.6-1.4,1.9-1.8  c0.3-0.4,0.5-0.9,0.5-1.3c0-0.4-0.1-0.8-0.4-1.1c-0.3-0.3-0.7-0.4-1.2-0.4c-0.5,0-0.9,0.2-1.2,0.5c-0.3,0.3-0.5,0.7-0.5,1.3  l-1.1-0.1c0.1-0.8,0.4-1.4,0.8-1.8s1.1-0.6,1.9-0.6c0.8,0,1.5,0.2,2,0.7s0.7,1,0.7,1.7c0,0.3-0.1,0.7-0.2,1c-0.1,0.3-0.4,0.7-0.7,1  c-0.3,0.4-0.9,0.9-1.6,1.5c-0.6,0.5-1,0.9-1.2,1.1c-0.2,0.2-0.3,0.4-0.4,0.6H273.9z"/>
<path d="M275,39.9c0-1,0.1-1.8,0.3-2.5c0.2-0.6,0.5-1.1,0.9-1.4c0.4-0.3,0.9-0.5,1.6-0.5c0.5,0,0.9,0.1,1.2,0.3  c0.3,0.2,0.6,0.5,0.9,0.8s0.4,0.8,0.5,1.3s0.2,1.2,0.2,2c0,1-0.1,1.8-0.3,2.4c-0.2,0.6-0.5,1.1-0.9,1.4s-0.9,0.5-1.6,0.5  c-0.8,0-1.5-0.3-1.9-0.9C275.3,42.7,275,41.5,275,39.9z M276.1,39.9c0,1.4,0.2,2.3,0.5,2.8c0.3,0.5,0.7,0.7,1.2,0.7s0.9-0.2,1.2-0.7  c0.3-0.5,0.5-1.4,0.5-2.8c0-1.4-0.2-2.4-0.5-2.8c-0.3-0.5-0.7-0.7-1.2-0.7c-0.5,0-0.9,0.2-1.2,0.6C276.3,37.5,276.1,38.5,276.1,39.9  z"/>
<path d="M234.1,52.1l-0.3-1.6V49h1.2v1.4l-0.3,1.6H234.1z M236,52.1l-0.3-1.6V49h1.2v1.4l-0.3,1.6H236z"/>
<path d="M238.3,57.6V49h1.1v4.9l2.5-2.5h1.4l-2.4,2.3l2.6,3.9h-1.3l-2.1-3.2l-0.7,0.7v2.5H238.3z"/>
<path d="M244.3,57.6v-6.2h0.9v0.9c0.5-0.7,1.1-1,2-1c0.4,0,0.7,0.1,1,0.2c0.3,0.1,0.5,0.3,0.7,0.5s0.3,0.5,0.3,0.8  c0,0.2,0.1,0.5,0.1,1v3.8h-1.1v-3.8c0-0.4,0-0.8-0.1-1c-0.1-0.2-0.2-0.4-0.4-0.5c-0.2-0.1-0.5-0.2-0.7-0.2c-0.4,0-0.8,0.1-1.2,0.4  c-0.3,0.3-0.5,0.8-0.5,1.6v3.4H244.3z"/>
<path d="M250.6,54.5c0-1.2,0.3-2,1-2.6c0.5-0.5,1.2-0.7,2-0.7c0.9,0,1.6,0.3,2.1,0.8s0.8,1.3,0.8,2.3c0,0.8-0.1,1.4-0.4,1.9  c-0.2,0.5-0.6,0.8-1,1.1s-1,0.4-1.5,0.4c-0.9,0-1.6-0.3-2.1-0.8S250.6,55.6,250.6,54.5z M251.7,54.5c0,0.8,0.2,1.4,0.5,1.8  c0.3,0.4,0.8,0.6,1.3,0.6c0.5,0,1-0.2,1.3-0.6c0.3-0.4,0.5-1,0.5-1.8c0-0.8-0.2-1.4-0.5-1.7c-0.3-0.4-0.8-0.6-1.3-0.6  c-0.5,0-1,0.2-1.3,0.6C251.8,53.1,251.7,53.7,251.7,54.5z"/>
<path d="M258.8,57.6l-1.9-6.2h1.1l1,3.6l0.4,1.3c0-0.1,0.1-0.5,0.3-1.3l1-3.6h1.1l0.9,3.6l0.3,1.2l0.4-1.2l1.1-3.6h1l-1.9,6.2h-1.1  l-1-3.7l-0.2-1.1l-1.3,4.8H258.8z"/>
<path d="M265.9,55.8l1-0.2c0.1,0.4,0.2,0.7,0.5,1c0.3,0.2,0.6,0.3,1.1,0.3c0.5,0,0.8-0.1,1.1-0.3c0.2-0.2,0.4-0.4,0.4-0.7  c0-0.2-0.1-0.4-0.3-0.6c-0.1-0.1-0.5-0.2-1.1-0.4c-0.8-0.2-1.3-0.4-1.6-0.5c-0.3-0.1-0.5-0.3-0.7-0.6c-0.2-0.3-0.2-0.5-0.2-0.8  c0-0.3,0.1-0.5,0.2-0.8c0.1-0.2,0.3-0.4,0.5-0.6c0.2-0.1,0.4-0.2,0.7-0.3c0.3-0.1,0.6-0.1,0.9-0.1c0.5,0,0.9,0.1,1.3,0.2  c0.4,0.1,0.6,0.3,0.8,0.6s0.3,0.6,0.4,1l-1,0.1c0-0.3-0.2-0.6-0.4-0.8c-0.2-0.2-0.5-0.3-1-0.3c-0.5,0-0.8,0.1-1,0.2  c-0.2,0.2-0.3,0.3-0.3,0.6c0,0.1,0,0.3,0.1,0.4c0.1,0.1,0.2,0.2,0.4,0.3c0.1,0,0.4,0.1,0.9,0.3c0.7,0.2,1.3,0.4,1.6,0.5  c0.3,0.1,0.5,0.3,0.7,0.6c0.2,0.2,0.3,0.5,0.3,0.9c0,0.4-0.1,0.7-0.3,1c-0.2,0.3-0.5,0.6-0.9,0.7s-0.8,0.3-1.3,0.3  c-0.8,0-1.4-0.2-1.8-0.5C266.3,56.9,266,56.4,265.9,55.8z"/>
<path d="M272.3,52.1l-0.3-1.6V49h1.2v1.4l-0.3,1.6H272.3z M274.3,52.1l-0.3-1.6V49h1.2v1.4l-0.3,1.6H274.3z"/>
<rect x="189.6" y="33.6" fill-rule="evenodd" fill="none" width="129.6" height="27"/>
<rect x="188.5" y="105.6" fill="none" stroke="#000000" stroke-width="2.249" width="132.1" height="42"/>
<path d="M228.5,121.6l1-0.1c0.1,0.5,0.2,0.8,0.5,1s0.6,0.3,0.9,0.3c0.3,0,0.6-0.1,0.9-0.2c0.2-0.1,0.4-0.3,0.6-0.6  c0.2-0.2,0.3-0.6,0.4-1s0.2-0.9,0.2-1.3c0,0,0-0.1,0-0.2c-0.2,0.3-0.5,0.6-0.9,0.8s-0.8,0.3-1.2,0.3c-0.7,0-1.3-0.3-1.8-0.8  s-0.7-1.2-0.7-2c0-0.9,0.3-1.6,0.8-2.1s1.2-0.8,1.9-0.8c0.6,0,1.1,0.2,1.5,0.5s0.8,0.7,1.1,1.3c0.2,0.6,0.4,1.4,0.4,2.4  c0,1.1-0.1,2-0.4,2.6c-0.2,0.7-0.6,1.1-1.1,1.5s-1,0.5-1.7,0.5c-0.7,0-1.2-0.2-1.6-0.6S228.6,122.3,228.5,121.6z M232.8,117.8  c0-0.6-0.2-1.1-0.5-1.4c-0.3-0.4-0.7-0.5-1.2-0.5c-0.5,0-0.9,0.2-1.2,0.6s-0.5,0.9-0.5,1.5c0,0.5,0.2,1,0.5,1.3  c0.3,0.3,0.7,0.5,1.2,0.5c0.5,0,0.9-0.2,1.2-0.5C232.7,118.9,232.8,118.5,232.8,117.8z"/>
<path d="M239.4,122.9c-0.4,0.3-0.8,0.6-1.1,0.7s-0.7,0.2-1.2,0.2c-0.7,0-1.2-0.2-1.6-0.5s-0.6-0.8-0.6-1.3c0-0.3,0.1-0.6,0.2-0.8  c0.1-0.3,0.3-0.5,0.5-0.6c0.2-0.2,0.5-0.3,0.8-0.3c0.2-0.1,0.5-0.1,0.9-0.2c0.9-0.1,1.5-0.2,1.9-0.4c0-0.1,0-0.2,0-0.3  c0-0.4-0.1-0.7-0.3-0.9c-0.3-0.2-0.7-0.4-1.2-0.4c-0.5,0-0.9,0.1-1.1,0.3s-0.4,0.5-0.5,0.9l-1-0.1c0.1-0.4,0.2-0.8,0.5-1.1  c0.2-0.3,0.5-0.5,0.9-0.6s0.9-0.2,1.4-0.2c0.5,0,1,0.1,1.3,0.2c0.3,0.1,0.6,0.3,0.7,0.5s0.3,0.4,0.3,0.7c0,0.2,0.1,0.5,0.1,1v1.4  c0,1,0,1.6,0.1,1.9s0.1,0.5,0.3,0.7h-1.1C239.5,123.4,239.4,123.1,239.4,122.9z M239.3,120.5c-0.4,0.2-1,0.3-1.7,0.4  c-0.4,0.1-0.7,0.1-0.9,0.2s-0.3,0.2-0.4,0.3s-0.1,0.3-0.1,0.5c0,0.3,0.1,0.5,0.3,0.7c0.2,0.2,0.5,0.3,0.9,0.3c0.4,0,0.8-0.1,1.1-0.3  c0.3-0.2,0.5-0.4,0.7-0.7c0.1-0.2,0.2-0.6,0.2-1.1V120.5z"/>
<path d="M241.7,116.2v-1h5.6v0.8c-0.5,0.6-1.1,1.4-1.6,2.3s-1,2-1.2,3c-0.2,0.7-0.3,1.5-0.4,2.4h-1.1c0-0.7,0.1-1.5,0.4-2.4  c0.3-1,0.6-1.9,1.1-2.8s1-1.6,1.5-2.2H241.7z"/>
<path d="M248.4,116.2v-1h5.6v0.8c-0.5,0.6-1.1,1.4-1.6,2.3s-1,2-1.2,3c-0.2,0.7-0.3,1.5-0.4,2.4h-1.1c0-0.7,0.1-1.5,0.4-2.4  c0.3-1,0.6-1.9,1.1-2.8s1-1.6,1.5-2.2H248.4z"/>
<path d="M259,123.6h-1.1v-6.7c-0.3,0.2-0.6,0.5-1,0.7c-0.4,0.2-0.8,0.4-1.1,0.5v-1c0.6-0.3,1.1-0.6,1.5-1c0.4-0.4,0.8-0.8,0.9-1.1  h0.7V123.6z"/>
<path d="M261.7,116.2v-1h5.6v0.8c-0.5,0.6-1.1,1.4-1.6,2.3s-1,2-1.2,3c-0.2,0.7-0.3,1.5-0.4,2.4h-1.1c0-0.7,0.1-1.5,0.4-2.4  c0.3-1,0.6-1.9,1.1-2.8s1-1.6,1.5-2.2H261.7z"/>
<path d="M272.3,123.6h-1.1v-6.7c-0.3,0.2-0.6,0.5-1,0.7c-0.4,0.2-0.8,0.4-1.1,0.5v-1c0.6-0.3,1.1-0.6,1.5-1c0.4-0.4,0.8-0.8,0.9-1.1  h0.7V123.6z"/>
<path d="M275,121.4l1.1-0.1c0.1,0.5,0.3,0.9,0.6,1.2s0.7,0.4,1.1,0.4c0.5,0,0.9-0.2,1.3-0.6c0.4-0.4,0.5-0.9,0.5-1.5  c0-0.6-0.2-1.1-0.5-1.4c-0.3-0.3-0.8-0.5-1.3-0.5c-0.3,0-0.6,0.1-0.9,0.2c-0.3,0.2-0.5,0.4-0.6,0.6l-1-0.1l0.8-4.4h4.3v1h-3.4  l-0.5,2.3c0.5-0.4,1.1-0.5,1.6-0.5c0.7,0,1.4,0.3,1.9,0.8s0.8,1.2,0.8,2c0,0.8-0.2,1.4-0.7,2c-0.6,0.7-1.3,1-2.3,1  c-0.8,0-1.4-0.2-1.9-0.7C275.4,122.7,275.1,122.1,275,121.4z"/>
<path d="M240.4,131.6l-0.3-1.6v-1.4h1.2v1.4l-0.3,1.6H240.4z M242.4,131.6l-0.3-1.6v-1.4h1.2v1.4l-0.3,1.6H242.4z"/>
<path d="M244.7,137.1v-8.6h3.2c0.7,0,1.2,0.1,1.6,0.3c0.4,0.2,0.7,0.4,0.9,0.8c0.2,0.4,0.3,0.7,0.3,1.1c0,0.4-0.1,0.7-0.3,1  c-0.2,0.3-0.5,0.6-0.9,0.8c0.5,0.2,0.9,0.4,1.2,0.8c0.3,0.4,0.4,0.8,0.4,1.3c0,0.4-0.1,0.8-0.3,1.1s-0.4,0.6-0.6,0.8  c-0.2,0.2-0.6,0.3-0.9,0.4c-0.4,0.1-0.8,0.1-1.4,0.1H244.7z M245.9,132.1h1.9c0.5,0,0.9,0,1.1-0.1c0.3-0.1,0.5-0.2,0.7-0.4  c0.1-0.2,0.2-0.4,0.2-0.8c0-0.3-0.1-0.5-0.2-0.8c-0.1-0.2-0.3-0.4-0.6-0.4c-0.3-0.1-0.7-0.1-1.3-0.1h-1.7V132.1z M245.9,136.1h2.1  c0.4,0,0.6,0,0.8,0c0.3,0,0.5-0.1,0.7-0.2c0.2-0.1,0.3-0.3,0.4-0.5s0.2-0.5,0.2-0.7c0-0.3-0.1-0.6-0.2-0.8s-0.4-0.4-0.7-0.5  c-0.3-0.1-0.7-0.1-1.3-0.1h-2V136.1z"/>
<path d="M252.2,134c0-1.2,0.3-2,1-2.6c0.5-0.5,1.2-0.7,2-0.7c0.9,0,1.6,0.3,2.1,0.8s0.8,1.3,0.8,2.3c0,0.8-0.1,1.4-0.4,1.9  c-0.2,0.5-0.6,0.8-1,1.1s-1,0.4-1.5,0.4c-0.9,0-1.6-0.3-2.1-0.8S252.2,135.1,252.2,134z M253.3,134c0,0.8,0.2,1.4,0.5,1.8  c0.3,0.4,0.8,0.6,1.3,0.6c0.5,0,1-0.2,1.3-0.6c0.3-0.4,0.5-1,0.5-1.8c0-0.8-0.2-1.4-0.5-1.7c-0.3-0.4-0.8-0.6-1.3-0.6  c-0.5,0-1,0.2-1.3,0.6C253.5,132.6,253.3,133.2,253.3,134z"/>
<path d="M260.3,137.1h-1v-8.6h1.1v3.1c0.4-0.6,1-0.8,1.7-0.8c0.4,0,0.7,0.1,1.1,0.2c0.3,0.2,0.6,0.4,0.8,0.7c0.2,0.3,0.4,0.6,0.5,1  s0.2,0.8,0.2,1.3c0,1.1-0.3,1.9-0.8,2.5s-1.2,0.9-1.9,0.9c-0.7,0-1.3-0.3-1.7-0.9V137.1z M260.3,134c0,0.7,0.1,1.3,0.3,1.6  c0.3,0.5,0.8,0.8,1.3,0.8c0.5,0,0.9-0.2,1.2-0.6c0.3-0.4,0.5-1,0.5-1.8c0-0.8-0.2-1.4-0.5-1.8c-0.3-0.4-0.7-0.6-1.2-0.6  c-0.5,0-0.9,0.2-1.2,0.6C260.4,132.6,260.3,133.2,260.3,134z"/>
<path d="M266,131.6l-0.3-1.6v-1.4h1.2v1.4l-0.3,1.6H266z M268,131.6l-0.3-1.6v-1.4h1.2v1.4l-0.3,1.6H268z"/>
<rect x="196" y="113.1" fill-rule="evenodd" fill="none" width="116.9" height="27"/>
</svg>
