<?xml version='1.0' encoding='utf-8'?>
<svg xmlns="http://www.w3.org/2000/svg" xmlns:xlink="http://www.w3.org/1999/xlink" version="1.2" baseProfile="tiny" width="151.2px" height="104px" viewBox="0 0 151.2 104" xml:space="preserve">
<path d="M41.5,71.9h3.7v2.2h-3.7V71.9z M39.9,67.4l1.7,3.4l-2,1l-1.7-3.4L39.9,67.4z M36.6,60.7l1.7,3.4l-2,1l-1.7-3.4L36.6,60.7z   M33.2,54l1.7,3.4l-2,1L31.2,55L33.2,54z M34.1,48.3l-1.7,3.4l-2-1l1.7-3.4L34.1,48.3z M37.5,41.6l-1.7,3.4l-2-1l1.7-3.4L37.5,41.6z   M40.8,34.9l-1.7,3.4l-2-1l1.7-3.4L40.8,34.9z M45.2,32.1h-3.7V31l1,0.5l0,0l-2-1l0.3-0.6h4.4V32.1z M52.7,32.1H49v-2.2h3.7V32.1z   M60.2,32.1h-3.7v-2.2h3.7V32.1z M67.7,32.1h-3.7v-2.2h3.7V32.1z M75.2,32.1h-3.7v-2.2h3.7V32.1z M82.7,32.1h-3.7v-2.2h3.7V32.1z   M90.1,32.1h-3.7v-2.2h3.7V32.1z M97.6,32.1h-3.7v-2.2h3.7V32.1z M105.1,32.1h-3.7v-2.2h3.7V32.1z M110,34.1l-1.3-2.5l1-0.5v1.1  h-0.9v-2.2h1.6L112,33L110,34.1z M113.4,40.8l-1.7-3.4l2-1l1.7,3.4L113.4,40.8z M116.7,47.5l-1.7-3.4l2-1l1.7,3.4L116.7,47.5z   M118.4,53.2l0.8-1.7l1,0.5l-1,0.5l-0.8-1.7l2-1l1.1,2.2l-1.1,2.2L118.4,53.2z M115.1,59.9l1.7-3.4l2,1l-1.7,3.4L115.1,59.9z   M111.7,66.6l1.7-3.4l2,1l-1.7,3.4L111.7,66.6z M108.9,71.9h0.9V73l-1-0.5l1.3-2.6l2,1l-1.6,3.2h-1.6V71.9z M101.4,71.9h3.7v2.2  h-3.7V71.9z M93.9,71.9h3.7v2.2h-3.7V71.9z M86.4,71.9h3.7v2.2h-3.7V71.9z M78.9,71.9h3.7v2.2h-3.7V71.9z M71.4,71.9h3.7v2.2h-3.7  V71.9z M63.9,71.9h3.7v2.2h-3.7V71.9z M56.5,71.9h3.7v2.2h-3.7V71.9z M49,71.9h3.7v2.2H49V71.9z"/>
<rect x="25" y="25" fill-rule="evenodd" fill="none" width="101.2" height="54"/>
<path d="M53.4,49h-1.1v-6.7c-0.3,0.2-0.6,0.5-1,0.7s-0.8,0.4-1.1,0.5v-1c0.6-0.3,1.1-0.6,1.5-1s0.8-0.8,0.9-1.1h0.7V49z"/>
<path d="M56.1,46.7l1.1-0.1c0.1,0.6,0.3,1,0.6,1.3s0.6,0.4,1.1,0.4c0.5,0,0.9-0.2,1.3-0.5s0.5-0.8,0.5-1.3c0-0.5-0.2-0.9-0.5-1.2  s-0.7-0.5-1.2-0.5c-0.2,0-0.4,0-0.7,0.1l0.1-0.9c0.1,0,0.1,0,0.2,0c0.4,0,0.9-0.1,1.2-0.4s0.5-0.6,0.5-1.1c0-0.4-0.1-0.7-0.4-1  s-0.6-0.4-1-0.4c-0.4,0-0.8,0.1-1,0.4c-0.3,0.3-0.4,0.6-0.5,1.2l-1.1-0.2c0.1-0.7,0.4-1.3,0.9-1.6c0.5-0.4,1-0.6,1.7-0.6  c0.5,0,0.9,0.1,1.3,0.3s0.7,0.5,0.9,0.8c0.2,0.3,0.3,0.7,0.3,1.1c0,0.4-0.1,0.7-0.3,1c-0.2,0.3-0.5,0.5-0.9,0.7  c0.5,0.1,0.9,0.4,1.2,0.7s0.4,0.8,0.4,1.4c0,0.8-0.3,1.4-0.8,1.9c-0.5,0.5-1.2,0.8-2.1,0.8c-0.8,0-1.4-0.2-1.9-0.7  C56.5,48,56.2,47.4,56.1,46.7z"/>
<path d="M63,47l1-0.1c0.1,0.5,0.2,0.8,0.5,1c0.2,0.2,0.6,0.3,0.9,0.3c0.3,0,0.6-0.1,0.9-0.2c0.2-0.1,0.4-0.3,0.6-0.6s0.3-0.6,0.4-1  s0.2-0.9,0.2-1.3c0,0,0-0.1,0-0.2c-0.2,0.3-0.5,0.6-0.9,0.8s-0.8,0.3-1.2,0.3c-0.7,0-1.3-0.3-1.8-0.8c-0.5-0.5-0.7-1.2-0.7-2  c0-0.9,0.3-1.6,0.8-2.1c0.5-0.5,1.2-0.8,1.9-0.8c0.6,0,1.1,0.2,1.5,0.5c0.5,0.3,0.8,0.7,1.1,1.3c0.2,0.6,0.4,1.4,0.4,2.4  c0,1.1-0.1,2-0.4,2.6c-0.2,0.7-0.6,1.1-1.1,1.5c-0.5,0.3-1,0.5-1.7,0.5c-0.7,0-1.2-0.2-1.6-0.6S63,47.7,63,47z M67.3,43.2  c0-0.6-0.2-1.1-0.5-1.4s-0.7-0.5-1.2-0.5c-0.5,0-0.9,0.2-1.2,0.6s-0.5,0.9-0.5,1.5c0,0.5,0.2,1,0.5,1.3s0.7,0.5,1.2,0.5  c0.5,0,0.9-0.2,1.2-0.5S67.3,43.8,67.3,43.2z"/>
<path d="M72.8,49v-2.1h-3.7v-1l3.9-5.6h0.9V46H75v1h-1.2V49H72.8z M72.8,46v-3.9L70.1,46H72.8z"/>
<path d="M80.1,49H79v-6.7c-0.3,0.2-0.6,0.5-1,0.7s-0.8,0.4-1.1,0.5v-1c0.6-0.3,1.1-0.6,1.5-1s0.8-0.8,0.9-1.1h0.7V49z"/>
<path d="M84.1,49h-1v-8.6h1.1v3.1c0.4-0.6,1-0.8,1.7-0.8c0.4,0,0.7,0.1,1.1,0.2s0.6,0.4,0.8,0.7c0.2,0.3,0.4,0.6,0.5,1  s0.2,0.8,0.2,1.3c0,1.1-0.3,1.9-0.8,2.5c-0.5,0.6-1.2,0.9-1.9,0.9c-0.7,0-1.3-0.3-1.7-0.9V49z M84,45.8c0,0.7,0.1,1.3,0.3,1.6  c0.3,0.5,0.8,0.8,1.3,0.8c0.5,0,0.9-0.2,1.2-0.6s0.5-1,0.5-1.8c0-0.8-0.2-1.4-0.5-1.8s-0.7-0.6-1.2-0.6c-0.5,0-0.9,0.2-1.2,0.6  C84.2,44.5,84,45.1,84,45.8z"/>
<path d="M92.8,49v-2.1h-3.7v-1l3.9-5.6h0.9V46H95v1h-1.2V49H92.8z M92.8,46v-3.9L90.1,46H92.8z"/>
<path d="M97.7,44.3c-0.4-0.2-0.8-0.4-1-0.7c-0.2-0.3-0.3-0.7-0.3-1.1c0-0.6,0.2-1.2,0.7-1.6c0.4-0.4,1-0.6,1.8-0.6  c0.7,0,1.4,0.2,1.8,0.7c0.5,0.4,0.7,1,0.7,1.6c0,0.4-0.1,0.7-0.3,1c-0.2,0.3-0.5,0.5-1,0.7c0.5,0.2,0.9,0.4,1.2,0.8  c0.3,0.4,0.4,0.8,0.4,1.4c0,0.7-0.3,1.4-0.8,1.9c-0.5,0.5-1.2,0.8-2,0.8c-0.8,0-1.5-0.3-2-0.8c-0.5-0.5-0.8-1.1-0.8-1.9  c0-0.6,0.1-1,0.4-1.4C96.8,44.7,97.2,44.5,97.7,44.3z M97.2,46.5c0,0.3,0.1,0.6,0.2,0.9c0.1,0.3,0.4,0.5,0.6,0.7s0.6,0.2,0.9,0.2  c0.5,0,0.9-0.2,1.2-0.5s0.5-0.7,0.5-1.2c0-0.5-0.2-0.9-0.5-1.3s-0.8-0.5-1.3-0.5c-0.5,0-0.9,0.2-1.2,0.5S97.2,46,97.2,46.5z   M97.5,42.6c0,0.4,0.1,0.7,0.4,1c0.3,0.3,0.6,0.4,1,0.4c0.4,0,0.7-0.1,1-0.4c0.3-0.3,0.4-0.6,0.4-0.9c0-0.4-0.1-0.7-0.4-1  c-0.3-0.3-0.6-0.4-1-0.4c-0.4,0-0.7,0.1-1,0.4C97.7,41.9,97.5,42.2,97.5,42.6z"/>
<path d="M54.9,62.5v-8.6h6.2v1h-5.1v2.6h4.7v1h-4.7v2.9h5.3v1H54.9z"/>
<path d="M62.8,62.5v-8.6H64v7.6h4.2v1H62.8z"/>
<path d="M69.8,62.5v-8.6h1.1v8.6H69.8z"/>
<path d="M72.9,62.5v-8.6h3c0.7,0,1.2,0,1.5,0.1c0.5,0.1,0.9,0.3,1.3,0.6c0.5,0.4,0.8,0.9,1,1.5s0.3,1.3,0.3,2c0,0.7-0.1,1.2-0.2,1.7  c-0.2,0.5-0.3,0.9-0.6,1.3c-0.2,0.3-0.5,0.6-0.8,0.8c-0.3,0.2-0.6,0.3-1,0.4c-0.4,0.1-0.9,0.1-1.4,0.1H72.9z M74,61.5h1.8  c0.6,0,1-0.1,1.3-0.2s0.6-0.3,0.8-0.4c0.3-0.3,0.5-0.6,0.6-1.1c0.2-0.5,0.2-1,0.2-1.7c0-0.9-0.1-1.6-0.4-2.1c-0.3-0.5-0.7-0.8-1.1-1  c-0.3-0.1-0.8-0.2-1.5-0.2H74V61.5z"/>
<path d="M81.6,62.5v-8.6h6.2v1h-5.1v2.6h4.7v1h-4.7v2.9H88v1H81.6z"/>
<path d="M89.5,62.5v-8.6h3c0.7,0,1.2,0,1.5,0.1c0.5,0.1,0.9,0.3,1.3,0.6c0.5,0.4,0.8,0.9,1,1.5s0.3,1.3,0.3,2c0,0.7-0.1,1.2-0.2,1.7  c-0.2,0.5-0.3,0.9-0.6,1.3c-0.2,0.3-0.5,0.6-0.8,0.8c-0.3,0.2-0.6,0.3-1,0.4c-0.4,0.1-0.9,0.1-1.4,0.1H89.5z M90.7,61.5h1.8  c0.6,0,1-0.1,1.3-0.2s0.6-0.3,0.8-0.4c0.3-0.3,0.5-0.6,0.6-1.1c0.2-0.5,0.2-1,0.2-1.7c0-0.9-0.1-1.6-0.4-2.1c-0.3-0.5-0.7-0.8-1.1-1  c-0.3-0.1-0.8-0.2-1.5-0.2h-1.8V61.5z"/>
<rect x="49" y="38.5" fill-rule="evenodd" fill="none" width="53.2" height="27"/>
</svg>
