<?xml version='1.0' encoding='utf-8'?>
<svg xmlns="http://www.w3.org/2000/svg" xmlns:xlink="http://www.w3.org/1999/xlink" version="1.2" baseProfile="tiny" width="160.8px" height="94.2px" viewBox="0 0 160.8 94.2" xml:space="preserve">
<path d="M25.1,67h3.7v2.2h-3.7V67z M30.2,64.7l-2.6,2.7l-1.6-1.6l2.6-2.7L30.2,64.7z M35.5,59.4L32.8,62l-1.6-1.6l2.6-2.7L35.5,59.4  z M40.7,54.1l-2.6,2.7l-1.6-1.6l2.6-2.7L40.7,54.1z M46,48.8l-2.6,2.7l-1.6-1.6l2.6-2.7L46,48.8z M42.5,41.9l2.6,2.7l-1.6,1.6  l-2.6-2.7L42.5,41.9z M37.2,36.6l2.6,2.7l-1.6,1.6l-2.6-2.7L37.2,36.6z M31.9,31.3l2.6,2.7l-1.6,1.6l-2.6-2.7L31.9,31.3z M26.6,26  l2.6,2.7l-1.6,1.6L25,27.6L26.6,26z M31.7,27.2H28V25h3.7V27.2z M39.2,27.2h-3.7V25h3.7V27.2z M46.7,27.2h-3.7V25h3.7V27.2z   M54.2,27.2h-3.7V25h3.7V27.2z M61.6,27.2h-3.7V25h3.7V27.2z M69.1,27.2h-3.7V25h3.7V27.2z M76.6,27.2h-3.7V25h3.7V27.2z M84.1,27.2  h-3.7V25h3.7V27.2z M91.6,27.2h-3.7V25h3.7V27.2z M99.1,27.2h-3.7V25h3.7V27.2z M106.5,27.2h-3.7V25h3.7V27.2z M114,27.2h-3.7V25  h3.7V27.2z M121.5,27.2h-3.7V25h3.7V27.2z M129,27.2h-3.7V25h3.7V27.2z M133.6,27.9v-1.8h1.1v1.1h-2V25h3.1v2.9H133.6z M133.6,35.4  v-3.8h2.2v3.8H133.6z M133.6,42.9v-3.8h2.2v3.8H133.6z M133.6,50.4v-3.8h2.2v3.8H133.6z M133.6,57.9v-3.8h2.2v3.8H133.6z   M133.6,65.4v-3.8h2.2v3.8H133.6z M129.9,67h3.7v2.2h-3.7V67z M122.4,67h3.7v2.2h-3.7V67z M114.9,67h3.7v2.2h-3.7V67z M107.5,67h3.7  v2.2h-3.7V67z M100,67h3.7v2.2H100V67z M92.5,67h3.7v2.2h-3.7V67z M85,67h3.7v2.2H85V67z M77.5,67h3.7v2.2h-3.7V67z M70,67h3.7v2.2  H70V67z M62.6,67h3.7v2.2h-3.7V67z M55.1,67h3.7v2.2h-3.7V67z M47.6,67h3.7v2.2h-3.7V67z M40.1,67h3.7v2.2h-3.7V67z M32.6,67h3.7  v2.2h-3.7V67z"/>
<path d="M69.8,43.1v1h-5.7c0-0.3,0-0.5,0.1-0.7c0.1-0.4,0.4-0.8,0.7-1.1c0.3-0.4,0.8-0.8,1.4-1.3c0.9-0.8,1.6-1.4,1.9-1.8  s0.5-0.9,0.5-1.3c0-0.4-0.1-0.8-0.4-1.1c-0.3-0.3-0.7-0.4-1.2-0.4c-0.5,0-0.9,0.2-1.2,0.5c-0.3,0.3-0.5,0.7-0.5,1.3L64.3,38  c0.1-0.8,0.4-1.4,0.8-1.8s1.1-0.6,1.9-0.6c0.8,0,1.5,0.2,2,0.7c0.5,0.5,0.7,1,0.7,1.7c0,0.3-0.1,0.7-0.2,1c-0.1,0.3-0.4,0.7-0.7,1  c-0.3,0.4-0.9,0.9-1.6,1.5c-0.6,0.5-1,0.9-1.2,1.1s-0.3,0.4-0.4,0.6H69.8z"/>
<path d="M71,36.7v-1h5.5v0.8c-0.5,0.6-1.1,1.4-1.6,2.3c-0.5,1-0.9,2-1.2,3c-0.2,0.7-0.3,1.5-0.4,2.4h-1.1c0-0.7,0.1-1.5,0.4-2.4  s0.6-1.9,1.1-2.8s1-1.6,1.5-2.2H71z"/>
<path d="M79.2,39.5c-0.4-0.2-0.8-0.4-1-0.7s-0.3-0.7-0.3-1.1c0-0.6,0.2-1.2,0.7-1.6c0.4-0.4,1-0.6,1.8-0.6c0.7,0,1.4,0.2,1.8,0.7  s0.7,1,0.7,1.6c0,0.4-0.1,0.7-0.3,1s-0.5,0.5-0.9,0.7c0.5,0.2,0.9,0.4,1.2,0.8c0.3,0.4,0.4,0.8,0.4,1.4c0,0.7-0.3,1.4-0.8,1.9  c-0.5,0.5-1.2,0.8-2,0.8c-0.8,0-1.5-0.3-2-0.8c-0.5-0.5-0.8-1.1-0.8-1.9c0-0.6,0.1-1,0.4-1.4C78.3,39.9,78.7,39.6,79.2,39.5z   M78.6,41.6c0,0.3,0.1,0.6,0.2,0.9s0.4,0.5,0.6,0.7s0.6,0.2,0.9,0.2c0.5,0,0.9-0.2,1.2-0.5c0.3-0.3,0.5-0.7,0.5-1.2  c0-0.5-0.2-0.9-0.5-1.3c-0.3-0.3-0.8-0.5-1.3-0.5c-0.5,0-0.9,0.2-1.2,0.5C78.8,40.7,78.6,41.2,78.6,41.6z M79,37.7  c0,0.4,0.1,0.7,0.4,1c0.3,0.3,0.6,0.4,1,0.4c0.4,0,0.7-0.1,1-0.4c0.3-0.3,0.4-0.6,0.4-0.9c0-0.4-0.1-0.7-0.4-1  c-0.3-0.3-0.6-0.4-1-0.4c-0.4,0-0.7,0.1-1,0.4C79.1,37,79,37.3,79,37.7z"/>
<path d="M87.6,44.1v-2.1h-3.7v-1l3.9-5.6h0.9v5.6h1.2v1h-1.2v2.1H87.6z M87.6,41.1v-3.9l-2.7,3.9H87.6z"/>
<path d="M90.9,39.9c0-1,0.1-1.8,0.3-2.5s0.5-1.1,0.9-1.4s0.9-0.5,1.6-0.5c0.5,0,0.9,0.1,1.2,0.3c0.3,0.2,0.6,0.5,0.9,0.8  c0.2,0.3,0.4,0.8,0.5,1.3s0.2,1.2,0.2,2c0,1-0.1,1.8-0.3,2.4s-0.5,1.1-0.9,1.4s-0.9,0.5-1.6,0.5c-0.8,0-1.5-0.3-1.9-0.9  C91.2,42.7,90.9,41.5,90.9,39.9z M92,39.9c0,1.4,0.2,2.3,0.5,2.8c0.3,0.5,0.7,0.7,1.2,0.7c0.5,0,0.9-0.2,1.2-0.7  c0.3-0.5,0.5-1.4,0.5-2.8c0-1.4-0.2-2.4-0.5-2.8c-0.3-0.5-0.7-0.7-1.2-0.7c-0.5,0-0.9,0.2-1.2,0.6C92.1,37.5,92,38.5,92,39.9z"/>
<path d="M97.5,41.9l1.1-0.1c0.1,0.6,0.3,1,0.6,1.3c0.3,0.3,0.6,0.4,1.1,0.4c0.5,0,0.9-0.2,1.3-0.5c0.3-0.3,0.5-0.8,0.5-1.3  c0-0.5-0.2-0.9-0.5-1.2c-0.3-0.3-0.7-0.5-1.2-0.5c-0.2,0-0.4,0-0.7,0.1l0.1-0.9c0.1,0,0.1,0,0.2,0c0.4,0,0.9-0.1,1.2-0.4  s0.5-0.6,0.5-1.1c0-0.4-0.1-0.7-0.4-1s-0.6-0.4-1-0.4c-0.4,0-0.8,0.1-1,0.4s-0.4,0.6-0.5,1.2l-1.1-0.2c0.1-0.7,0.4-1.3,0.9-1.6  c0.5-0.4,1-0.6,1.7-0.6c0.5,0,0.9,0.1,1.3,0.3s0.7,0.5,0.9,0.8s0.3,0.7,0.3,1.1c0,0.4-0.1,0.7-0.3,1s-0.5,0.5-0.9,0.7  c0.5,0.1,0.9,0.4,1.2,0.7c0.3,0.4,0.4,0.8,0.4,1.4c0,0.8-0.3,1.4-0.8,1.9c-0.5,0.5-1.2,0.8-2.1,0.8c-0.8,0-1.4-0.2-1.9-0.7  C97.9,43.2,97.6,42.6,97.5,41.9z"/>
<path d="M104.2,41.9l1.1-0.1c0.1,0.5,0.3,0.9,0.6,1.2c0.3,0.3,0.7,0.4,1.1,0.4c0.5,0,0.9-0.2,1.3-0.6c0.4-0.4,0.5-0.9,0.5-1.5  c0-0.6-0.2-1.1-0.5-1.4c-0.3-0.3-0.8-0.5-1.3-0.5c-0.3,0-0.6,0.1-0.9,0.2c-0.3,0.2-0.5,0.4-0.6,0.6l-1-0.1l0.8-4.4h4.3v1h-3.4  l-0.5,2.3c0.5-0.4,1.1-0.5,1.6-0.5c0.7,0,1.4,0.3,1.9,0.8c0.5,0.5,0.8,1.2,0.8,2c0,0.8-0.2,1.4-0.7,2c-0.5,0.7-1.3,1-2.3,1  c-0.8,0-1.4-0.2-1.9-0.7C104.5,43.2,104.3,42.6,104.2,41.9z"/>
<path d="M110.9,39.9c0-1,0.1-1.8,0.3-2.5s0.5-1.1,0.9-1.4s0.9-0.5,1.6-0.5c0.5,0,0.9,0.1,1.2,0.3c0.3,0.2,0.6,0.5,0.9,0.8  c0.2,0.3,0.4,0.8,0.5,1.3s0.2,1.2,0.2,2c0,1-0.1,1.8-0.3,2.4s-0.5,1.1-0.9,1.4s-0.9,0.5-1.6,0.5c-0.8,0-1.5-0.3-1.9-0.9  C111.1,42.7,110.9,41.5,110.9,39.9z M111.9,39.9c0,1.4,0.2,2.3,0.5,2.8c0.3,0.5,0.7,0.7,1.2,0.7c0.5,0,0.9-0.2,1.2-0.7  c0.3-0.5,0.5-1.4,0.5-2.8c0-1.4-0.2-2.4-0.5-2.8c-0.3-0.5-0.7-0.7-1.2-0.7c-0.5,0-0.9,0.2-1.2,0.6C112.1,37.5,111.9,38.5,111.9,39.9  z"/>
<path d="M54.5,57.6V49h6.2v1h-5.1v2.6h4.7v1h-4.7v2.9h5.3v1H54.5z"/>
<path d="M62.5,57.6V49h1.2l4.5,6.7V49h1.1v8.6h-1.2l-4.5-6.8v6.8H62.5z"/>
<path d="M77.2,54.6l1.1,0.3c-0.2,0.9-0.7,1.6-1.3,2.1s-1.4,0.7-2.3,0.7c-0.9,0-1.7-0.2-2.3-0.6s-1-0.9-1.3-1.6  c-0.3-0.7-0.5-1.5-0.5-2.3c0-0.9,0.2-1.7,0.5-2.3c0.3-0.7,0.8-1.2,1.5-1.5s1.3-0.5,2.1-0.5c0.9,0,1.6,0.2,2.2,0.7  c0.6,0.4,1,1.1,1.2,1.8l-1.1,0.3c-0.2-0.6-0.5-1.1-0.9-1.4s-0.9-0.4-1.4-0.4c-0.7,0-1.2,0.2-1.7,0.5s-0.8,0.7-0.9,1.3  S72,52.7,72,53.3c0,0.7,0.1,1.4,0.3,1.9s0.5,1,1,1.2c0.4,0.3,0.9,0.4,1.5,0.4c0.6,0,1.2-0.2,1.6-0.6C76.8,55.9,77.1,55.3,77.2,54.6z  "/>
<path d="M79.8,57.6V49h3.8c0.8,0,1.3,0.1,1.7,0.2s0.7,0.4,1,0.8s0.4,0.8,0.4,1.3c0,0.6-0.2,1.1-0.6,1.5s-1,0.7-1.8,0.8  c0.3,0.1,0.5,0.3,0.7,0.4c0.3,0.3,0.6,0.7,0.9,1.1l1.5,2.3h-1.4l-1.1-1.8c-0.3-0.5-0.6-0.9-0.8-1.2s-0.4-0.5-0.6-0.6  c-0.2-0.1-0.3-0.2-0.5-0.2c-0.1,0-0.3,0-0.6,0h-1.3v3.8H79.8z M80.9,52.8h2.4c0.5,0,0.9-0.1,1.2-0.2c0.3-0.1,0.5-0.3,0.7-0.5  c0.2-0.2,0.2-0.5,0.2-0.8c0-0.4-0.1-0.7-0.4-1c-0.3-0.3-0.8-0.4-1.4-0.4h-2.7V52.8z"/>
<path d="M90.6,57.6V54l-3.3-5h1.4l1.7,2.6c0.3,0.5,0.6,1,0.9,1.5c0.3-0.4,0.6-1,0.9-1.5l1.7-2.5h1.3l-3.4,5v3.6H90.6z"/>
<path d="M96.2,57.6V49h3.2c0.6,0,1,0,1.3,0.1c0.4,0.1,0.8,0.2,1.1,0.4c0.3,0.2,0.5,0.5,0.7,0.8s0.3,0.7,0.3,1.2  c0,0.7-0.2,1.3-0.7,1.9c-0.5,0.5-1.3,0.8-2.5,0.8h-2.2v3.5H96.2z M97.3,53.1h2.2c0.7,0,1.3-0.1,1.6-0.4c0.3-0.3,0.5-0.7,0.5-1.2  c0-0.4-0.1-0.7-0.3-0.9s-0.4-0.4-0.7-0.5c-0.2-0.1-0.5-0.1-1.1-0.1h-2.2V53.1z"/>
<path d="M106.4,57.6V50h-2.8v-1h6.8v1h-2.8v7.6H106.4z"/>
<path d="M111.5,57.6V49h6.2v1h-5.1v2.6h4.7v1h-4.7v2.9h5.3v1H111.5z"/>
<path d="M119.5,57.6V49h3c0.7,0,1.2,0,1.5,0.1c0.5,0.1,0.9,0.3,1.3,0.6c0.5,0.4,0.8,0.9,1,1.5s0.3,1.3,0.3,2c0,0.7-0.1,1.2-0.2,1.7  c-0.2,0.5-0.3,0.9-0.6,1.3c-0.2,0.3-0.5,0.6-0.8,0.8c-0.3,0.2-0.6,0.3-1,0.4s-0.9,0.1-1.4,0.1H119.5z M120.6,56.6h1.8  c0.6,0,1-0.1,1.3-0.2c0.3-0.1,0.6-0.3,0.8-0.4c0.3-0.3,0.5-0.6,0.6-1.1s0.2-1,0.2-1.7c0-0.9-0.1-1.6-0.4-2.1c-0.3-0.5-0.7-0.8-1.1-1  c-0.3-0.1-0.8-0.2-1.5-0.2h-1.8V56.6z"/>
</svg>
