<?xml version='1.0' encoding='utf-8'?>
<svg xmlns="http://www.w3.org/2000/svg" xmlns:xlink="http://www.w3.org/1999/xlink" version="1.2" baseProfile="tiny" width="529.3px" height="531.5px" viewBox="0 0 529.3 531.5" xml:space="preserve">
<path fill="none" stroke="#000000" stroke-width="1.4997" d="M72.5,174.7l8.5-21.3c8.5-21.3,25.5-63.8,39-85s23.4-21.3,28.3-21.3h5"/>
<polygon fill="black" points="145.2,42.6 154.2,47.1 145.2,51.6 "/>
<rect x="143.7" y="42.6" fill-rule="evenodd" fill="none" width="12" height="9"/>
<path fill="none" stroke="#000000" stroke-width="1.4997" d="M81.1,179.7l7.1-8.8c7.1-8.8,21.2-26.5,36.8-35.4s32.5-8.8,41-8.8h8.5"/>
<polygon fill="black" points="166.3,122.1 175.3,126.6 166.3,131.1 "/>
<rect x="164.8" y="122.1" fill-rule="evenodd" fill="none" width="12" height="9"/>
<path fill="none" stroke="#000000" stroke-width="1.4997" d="M269,107.7l8.6-3.5c8.6-3.5,25.9-10.4,40.3-13.9  c14.3-3.5,25.7-3.5,31.4-3.5h5.7"/>
<polygon fill="black" points="346.9,82.4 355.9,86.9 346.9,91.4 "/>
<rect x="345.4" y="82.4" fill-rule="evenodd" fill="none" width="12" height="9"/>
<path fill="none" stroke="#000000" stroke-width="1.4997" d="M269,145.6l8.6,3.5c8.6,3.5,25.9,10.4,39.7,13.9  c13.8,3.5,24,3.5,29.1,3.5h5.1"/>
<polygon fill="black" points="343.5,161.9 352.5,166.4 343.5,170.9 "/>
<rect x="342" y="161.9" fill-rule="evenodd" fill="none" width="12" height="9"/>
<path fill="none" stroke="#000000" stroke-width="1.4997" d="M81.1,232.6l7.1,8.8c7.1,8.8,21.2,26.5,36.8,35.4s32.5,8.8,41,8.8h8.5"/>
<polygon fill="black" points="166.3,281.1 175.3,285.6 166.3,290.1 "/>
<rect x="164.8" y="281.1" fill-rule="evenodd" fill="none" width="12" height="9"/>
<path fill="none" stroke="#000000" stroke-width="1.4997" d="M269,266.7l8.6-3.5c8.6-3.5,25.9-10.4,40.3-13.9  c14.3-3.5,25.7-3.5,31.4-3.5h5.7"/>
<polygon fill="black" points="346.9,241.4 355.9,245.9 346.9,250.4 "/>
<rect x="345.4" y="241.4" fill-rule="evenodd" fill="none" width="12" height="9"/>
<path fill="none" stroke="#000000" stroke-width="1.4997" d="M269,304.6l8.6,3.5c8.6,3.5,25.9,10.4,41.3,13.9s28.9,3.5,35.6,3.5h6.7  "/>
<polygon fill="black" points="353.2,320.9 362.2,325.4 353.2,329.9 "/>
<rect x="351.7" y="320.9" fill-rule="evenodd" fill="none" width="12" height="9"/>
<path fill="none" stroke="#000000" stroke-width="1.4997" d="M68.7,238.8l9.1,34.3c9.1,34.3,27.4,102.9,45.1,137.2  s34.6,34.3,43.1,34.3h8.5"/>
<polygon fill="black" points="166.3,440.1 175.3,444.6 166.3,449.1 "/>
<rect x="164.8" y="440.1" fill-rule="evenodd" fill="none" width="12" height="9"/>
<path fill="none" stroke="#000000" stroke-width="1.4997" d="M269,425.7l8.6-3.5c8.6-3.5,25.9-10.4,40.3-13.9  c14.3-3.5,25.7-3.5,31.4-3.5h5.7"/>
<polygon fill="black" points="346.9,400.4 355.9,404.9 346.9,409.4 "/>
<rect x="345.4" y="400.4" fill-rule="evenodd" fill="none" width="12" height="9"/>
<path fill="none" stroke="#000000" stroke-width="1.4997" d="M269,463.6l8.6,3.5c8.6,3.5,25.9,10.4,40.7,13.9  c14.8,3.5,27,3.5,33.1,3.5h6.1"/>
<polygon fill="black" points="349.5,479.9 358.5,484.4 349.5,488.9 "/>
<rect x="348" y="479.9" fill-rule="evenodd" fill="none" width="12" height="9"/>
<path d="M112.9,49l1-0.2c0.1,0.4,0.2,0.7,0.5,1c0.3,0.2,0.6,0.3,1.1,0.3c0.5,0,0.8-0.1,1.1-0.3s0.4-0.4,0.4-0.7  c0-0.2-0.1-0.4-0.3-0.6c-0.1-0.1-0.5-0.2-1.1-0.4c-0.8-0.2-1.3-0.4-1.6-0.5s-0.5-0.3-0.7-0.6s-0.2-0.5-0.2-0.8  c0-0.3,0.1-0.5,0.2-0.8s0.3-0.4,0.5-0.6c0.2-0.1,0.4-0.2,0.7-0.3c0.3-0.1,0.6-0.1,0.9-0.1c0.5,0,0.9,0.1,1.3,0.2  c0.4,0.1,0.6,0.3,0.8,0.6s0.3,0.6,0.4,1l-1,0.1c0-0.3-0.2-0.6-0.4-0.8s-0.5-0.3-1-0.3c-0.5,0-0.8,0.1-1,0.2  c-0.2,0.2-0.3,0.3-0.3,0.6c0,0.1,0,0.3,0.1,0.4c0.1,0.1,0.2,0.2,0.4,0.3c0.1,0,0.4,0.1,0.9,0.3c0.7,0.2,1.3,0.4,1.6,0.5  c0.3,0.1,0.5,0.3,0.7,0.6s0.3,0.5,0.3,0.9c0,0.4-0.1,0.7-0.3,1s-0.5,0.6-0.9,0.7c-0.4,0.2-0.8,0.3-1.3,0.3c-0.8,0-1.4-0.2-1.8-0.5  S113.1,49.7,112.9,49z"/>
<path d="M123.4,50.9V50c-0.5,0.7-1.1,1.1-2,1.1c-0.4,0-0.7-0.1-1-0.2c-0.3-0.1-0.6-0.3-0.7-0.5s-0.3-0.5-0.3-0.8  c0-0.2-0.1-0.5-0.1-1v-3.9h1.1v3.5c0,0.6,0,0.9,0.1,1.1c0.1,0.3,0.2,0.5,0.4,0.7s0.5,0.2,0.8,0.2c0.3,0,0.6-0.1,0.9-0.2  s0.5-0.4,0.6-0.7s0.2-0.7,0.2-1.2v-3.3h1.1v6.2H123.4z"/>
<path d="M127,50.9h-1v-8.6h1.1v3.1c0.4-0.6,1-0.8,1.7-0.8c0.4,0,0.7,0.1,1.1,0.2c0.3,0.2,0.6,0.4,0.8,0.7c0.2,0.3,0.4,0.6,0.5,1  s0.2,0.8,0.2,1.3c0,1.1-0.3,1.9-0.8,2.5c-0.5,0.6-1.2,0.9-1.9,0.9c-0.7,0-1.3-0.3-1.7-0.9V50.9z M127,47.7c0,0.7,0.1,1.3,0.3,1.6  c0.3,0.5,0.8,0.8,1.3,0.8c0.5,0,0.9-0.2,1.2-0.6c0.3-0.4,0.5-1,0.5-1.8c0-0.8-0.2-1.4-0.5-1.8c-0.3-0.4-0.7-0.6-1.2-0.6  c-0.5,0-0.9,0.2-1.2,0.6S127,47,127,47.7z"/>
<path d="M131.4,53.3l0.2-0.9c0.2,0.1,0.4,0.1,0.5,0.1c0.2,0,0.4-0.1,0.5-0.2c0.1-0.1,0.2-0.5,0.2-1.1v-6.5h1.1v6.6  c0,0.8-0.1,1.3-0.3,1.6c-0.3,0.4-0.7,0.6-1.3,0.6C131.9,53.4,131.6,53.4,131.4,53.3z M132.7,43.5v-1.2h1.1v1.2H132.7z"/>
<rect x="112.6" y="40.4" fill-rule="evenodd" fill="none" width="21.7" height="13.5"/>
<path d="M309.7,93v-8.6h1v0.8c0.2-0.3,0.5-0.6,0.8-0.7s0.6-0.2,1-0.2c0.5,0,1,0.1,1.4,0.4s0.7,0.7,0.9,1.2s0.3,1,0.3,1.6  c0,0.6-0.1,1.2-0.3,1.7c-0.2,0.5-0.6,0.9-1,1.2s-0.9,0.4-1.4,0.4c-0.4,0-0.7-0.1-0.9-0.2s-0.5-0.3-0.7-0.6v3H309.7z M310.6,87.5  c0,0.8,0.2,1.4,0.5,1.8s0.7,0.6,1.2,0.6c0.5,0,0.9-0.2,1.2-0.6c0.3-0.4,0.5-1,0.5-1.8c0-0.8-0.2-1.4-0.5-1.8  c-0.3-0.4-0.7-0.6-1.2-0.6c-0.4,0-0.8,0.2-1.2,0.6S310.6,86.7,310.6,87.5z"/>
<path d="M316.3,90.6v-6.2h0.9v0.9c0.2-0.4,0.5-0.7,0.7-0.9s0.4-0.2,0.7-0.2c0.4,0,0.7,0.1,1.1,0.3l-0.4,1c-0.3-0.2-0.5-0.2-0.8-0.2  c-0.2,0-0.4,0.1-0.6,0.2s-0.3,0.3-0.4,0.6c-0.1,0.4-0.2,0.8-0.2,1.2v3.3H316.3z"/>
<path d="M324.6,88.6l1.1,0.1c-0.2,0.6-0.5,1.1-1,1.5s-1.1,0.5-1.8,0.5c-0.9,0-1.6-0.3-2.2-0.8c-0.5-0.6-0.8-1.3-0.8-2.4  c0-1,0.3-1.9,0.8-2.4s1.2-0.9,2.1-0.9c0.8,0,1.5,0.3,2,0.8s0.8,1.4,0.8,2.4c0,0.1,0,0.2,0,0.3h-4.6c0,0.7,0.2,1.2,0.6,1.6  s0.8,0.5,1.3,0.5c0.4,0,0.7-0.1,1-0.3S324.4,89.1,324.6,88.6z M321.1,86.9h3.5c0-0.5-0.2-0.9-0.4-1.2c-0.3-0.4-0.8-0.6-1.3-0.6  c-0.5,0-0.9,0.2-1.2,0.5S321.2,86.4,321.1,86.9z"/>
<path d="M331,90.6v-0.8c-0.4,0.6-1,0.9-1.7,0.9c-0.5,0-1-0.1-1.4-0.4s-0.7-0.7-1-1.1s-0.3-1.1-0.3-1.7c0-0.6,0.1-1.2,0.3-1.7  s0.5-0.9,0.9-1.2s0.9-0.4,1.4-0.4c0.4,0,0.7,0.1,1,0.2c0.3,0.2,0.5,0.4,0.7,0.6V82h1v8.6H331z M327.7,87.5c0,0.8,0.2,1.4,0.5,1.8  s0.7,0.6,1.2,0.6c0.5,0,0.9-0.2,1.2-0.6s0.5-1,0.5-1.7c0-0.9-0.2-1.5-0.5-1.9s-0.7-0.6-1.2-0.6c-0.5,0-0.9,0.2-1.2,0.6  S327.7,86.7,327.7,87.5z"/>
<rect x="308.9" y="80.1" fill-rule="evenodd" fill="none" width="24" height="13.5"/>
<path d="M313.3,167c0-1.2,0.3-2,1-2.6c0.5-0.5,1.2-0.7,2-0.7c0.9,0,1.6,0.3,2.1,0.8c0.5,0.6,0.8,1.3,0.8,2.3c0,0.8-0.1,1.4-0.4,1.9  c-0.2,0.5-0.6,0.8-1,1.1s-1,0.4-1.5,0.4c-0.9,0-1.6-0.3-2.1-0.8S313.3,168.1,313.3,167z M314.4,167c0,0.8,0.2,1.4,0.5,1.8  c0.3,0.4,0.8,0.6,1.3,0.6c0.5,0,1-0.2,1.3-0.6c0.3-0.4,0.5-1,0.5-1.8c0-0.8-0.2-1.4-0.5-1.7c-0.3-0.4-0.8-0.6-1.3-0.6  c-0.5,0-1,0.2-1.3,0.6C314.5,165.6,314.4,166.2,314.4,167z"/>
<path d="M321.3,170.1h-1v-8.6h1.1v3.1c0.4-0.6,1-0.8,1.7-0.8c0.4,0,0.7,0.1,1.1,0.2s0.6,0.4,0.8,0.7s0.4,0.6,0.5,1s0.2,0.8,0.2,1.3  c0,1.1-0.3,1.9-0.8,2.5s-1.2,0.9-1.9,0.9c-0.7,0-1.3-0.3-1.7-0.9V170.1z M321.3,167c0,0.7,0.1,1.3,0.3,1.6c0.3,0.5,0.8,0.8,1.3,0.8  c0.5,0,0.9-0.2,1.2-0.6s0.5-1,0.5-1.8c0-0.8-0.2-1.4-0.5-1.8s-0.7-0.6-1.2-0.6c-0.5,0-0.9,0.2-1.2,0.6S321.3,166.2,321.3,167z"/>
<path d="M325.7,172.5l0.2-0.9c0.2,0.1,0.4,0.1,0.5,0.1c0.2,0,0.4-0.1,0.5-0.2s0.2-0.5,0.2-1.1v-6.5h1.1v6.6c0,0.8-0.1,1.3-0.3,1.6  c-0.3,0.4-0.7,0.6-1.3,0.6C326.2,172.7,325.9,172.6,325.7,172.5z M327,162.8v-1.2h1.1v1.2H327z"/>
<rect x="312.9" y="159.6" fill-rule="evenodd" fill="none" width="15.7" height="13.5"/>
<path d="M309.7,252v-8.6h1v0.8c0.2-0.3,0.5-0.6,0.8-0.7s0.6-0.2,1-0.2c0.5,0,1,0.1,1.4,0.4s0.7,0.7,0.9,1.2s0.3,1,0.3,1.6  c0,0.6-0.1,1.2-0.3,1.7c-0.2,0.5-0.6,0.9-1,1.2s-0.9,0.4-1.4,0.4c-0.4,0-0.7-0.1-0.9-0.2s-0.5-0.3-0.7-0.6v3H309.7z M310.6,246.5  c0,0.8,0.2,1.4,0.5,1.8s0.7,0.6,1.2,0.6c0.5,0,0.9-0.2,1.2-0.6c0.3-0.4,0.5-1,0.5-1.8c0-0.8-0.2-1.4-0.5-1.8  c-0.3-0.4-0.7-0.6-1.2-0.6c-0.4,0-0.8,0.2-1.2,0.6S310.6,245.7,310.6,246.5z"/>
<path d="M316.3,249.6v-6.2h0.9v0.9c0.2-0.4,0.5-0.7,0.7-0.9s0.4-0.2,0.7-0.2c0.4,0,0.7,0.1,1.1,0.3l-0.4,1c-0.3-0.2-0.5-0.2-0.8-0.2  c-0.2,0-0.4,0.1-0.6,0.2s-0.3,0.3-0.4,0.6c-0.1,0.4-0.2,0.8-0.2,1.2v3.3H316.3z"/>
<path d="M324.6,247.6l1.1,0.1c-0.2,0.6-0.5,1.1-1,1.5s-1.1,0.5-1.8,0.5c-0.9,0-1.6-0.3-2.2-0.8c-0.5-0.6-0.8-1.3-0.8-2.4  c0-1,0.3-1.9,0.8-2.4s1.2-0.9,2.1-0.9c0.8,0,1.5,0.3,2,0.8s0.8,1.4,0.8,2.4c0,0.1,0,0.2,0,0.3h-4.6c0,0.7,0.2,1.2,0.6,1.6  s0.8,0.5,1.3,0.5c0.4,0,0.7-0.1,1-0.3S324.4,248.1,324.6,247.6z M321.1,245.9h3.5c0-0.5-0.2-0.9-0.4-1.2c-0.3-0.4-0.8-0.6-1.3-0.6  c-0.5,0-0.9,0.2-1.2,0.5S321.2,245.4,321.1,245.9z"/>
<path d="M331,249.6v-0.8c-0.4,0.6-1,0.9-1.7,0.9c-0.5,0-1-0.1-1.4-0.4s-0.7-0.7-1-1.1s-0.3-1.1-0.3-1.7c0-0.6,0.1-1.2,0.3-1.7  s0.5-0.9,0.9-1.2s0.9-0.4,1.4-0.4c0.4,0,0.7,0.1,1,0.2c0.3,0.2,0.5,0.4,0.7,0.6V241h1v8.6H331z M327.7,246.5c0,0.8,0.2,1.4,0.5,1.8  s0.7,0.6,1.2,0.6c0.5,0,0.9-0.2,1.2-0.6s0.5-1,0.5-1.7c0-0.9-0.2-1.5-0.5-1.9s-0.7-0.6-1.2-0.6c-0.5,0-0.9,0.2-1.2,0.6  S327.7,245.7,327.7,246.5z"/>
<rect x="308.9" y="239.1" fill-rule="evenodd" fill="none" width="24" height="13.5"/>
<path d="M313.3,326c0-1.2,0.3-2,1-2.6c0.5-0.5,1.2-0.7,2-0.7c0.9,0,1.6,0.3,2.1,0.8c0.5,0.6,0.8,1.3,0.8,2.3c0,0.8-0.1,1.4-0.4,1.9  c-0.2,0.5-0.6,0.8-1,1.1s-1,0.4-1.5,0.4c-0.9,0-1.6-0.3-2.1-0.8S313.3,327.1,313.3,326z M314.4,326c0,0.8,0.2,1.4,0.5,1.8  c0.3,0.4,0.8,0.6,1.3,0.6c0.5,0,1-0.2,1.3-0.6c0.3-0.4,0.5-1,0.5-1.8c0-0.8-0.2-1.4-0.5-1.7c-0.3-0.4-0.8-0.6-1.3-0.6  c-0.5,0-1,0.2-1.3,0.6C314.5,324.6,314.4,325.2,314.4,326z"/>
<path d="M321.3,329.1h-1v-8.6h1.1v3.1c0.4-0.6,1-0.8,1.7-0.8c0.4,0,0.7,0.1,1.1,0.2s0.6,0.4,0.8,0.7s0.4,0.6,0.5,1s0.2,0.8,0.2,1.3  c0,1.1-0.3,1.9-0.8,2.5s-1.2,0.9-1.9,0.9c-0.7,0-1.3-0.3-1.7-0.9V329.1z M321.3,326c0,0.7,0.1,1.3,0.3,1.6c0.3,0.5,0.8,0.8,1.3,0.8  c0.5,0,0.9-0.2,1.2-0.6s0.5-1,0.5-1.8c0-0.8-0.2-1.4-0.5-1.8s-0.7-0.6-1.2-0.6c-0.5,0-0.9,0.2-1.2,0.6S321.3,325.2,321.3,326z"/>
<path d="M325.7,331.5l0.2-0.9c0.2,0.1,0.4,0.1,0.5,0.1c0.2,0,0.4-0.1,0.5-0.2s0.2-0.5,0.2-1.1v-6.5h1.1v6.6c0,0.8-0.1,1.3-0.3,1.6  c-0.3,0.4-0.7,0.6-1.3,0.6C326.2,331.7,325.9,331.6,325.7,331.5z M327,321.8v-1.2h1.1v1.2H327z"/>
<rect x="312.9" y="318.6" fill-rule="evenodd" fill="none" width="15.7" height="13.5"/>
<path d="M309.7,411v-8.6h1v0.8c0.2-0.3,0.5-0.6,0.8-0.7s0.6-0.2,1-0.2c0.5,0,1,0.1,1.4,0.4s0.7,0.7,0.9,1.2s0.3,1,0.3,1.6  c0,0.6-0.1,1.2-0.3,1.7c-0.2,0.5-0.6,0.9-1,1.2s-0.9,0.4-1.4,0.4c-0.4,0-0.7-0.1-0.9-0.2s-0.5-0.3-0.7-0.6v3H309.7z M310.6,405.5  c0,0.8,0.2,1.4,0.5,1.8s0.7,0.6,1.2,0.6c0.5,0,0.9-0.2,1.2-0.6c0.3-0.4,0.5-1,0.5-1.8c0-0.8-0.2-1.4-0.5-1.8  c-0.3-0.4-0.7-0.6-1.2-0.6c-0.4,0-0.8,0.2-1.2,0.6S310.6,404.7,310.6,405.5z"/>
<path d="M316.3,408.6v-6.2h0.9v0.9c0.2-0.4,0.5-0.7,0.7-0.9s0.4-0.2,0.7-0.2c0.4,0,0.7,0.1,1.1,0.3l-0.4,1c-0.3-0.2-0.5-0.2-0.8-0.2  c-0.2,0-0.4,0.1-0.6,0.2s-0.3,0.3-0.4,0.6c-0.1,0.4-0.2,0.8-0.2,1.2v3.3H316.3z"/>
<path d="M324.6,406.6l1.1,0.1c-0.2,0.6-0.5,1.1-1,1.5s-1.1,0.5-1.8,0.5c-0.9,0-1.6-0.3-2.2-0.8c-0.5-0.6-0.8-1.3-0.8-2.4  c0-1,0.3-1.9,0.8-2.4s1.2-0.9,2.1-0.9c0.8,0,1.5,0.3,2,0.8s0.8,1.4,0.8,2.4c0,0.1,0,0.2,0,0.3h-4.6c0,0.7,0.2,1.2,0.6,1.6  s0.8,0.5,1.3,0.5c0.4,0,0.7-0.1,1-0.3S324.4,407.1,324.6,406.6z M321.1,404.9h3.5c0-0.5-0.2-0.9-0.4-1.2c-0.3-0.4-0.8-0.6-1.3-0.6  c-0.5,0-0.9,0.2-1.2,0.5S321.2,404.4,321.1,404.9z"/>
<path d="M331,408.6v-0.8c-0.4,0.6-1,0.9-1.7,0.9c-0.5,0-1-0.1-1.4-0.4s-0.7-0.7-1-1.1s-0.3-1.1-0.3-1.7c0-0.6,0.1-1.2,0.3-1.7  s0.5-0.9,0.9-1.2s0.9-0.4,1.4-0.4c0.4,0,0.7,0.1,1,0.2c0.3,0.2,0.5,0.4,0.7,0.6V400h1v8.6H331z M327.7,405.5c0,0.8,0.2,1.4,0.5,1.8  s0.7,0.6,1.2,0.6c0.5,0,0.9-0.2,1.2-0.6s0.5-1,0.5-1.7c0-0.9-0.2-1.5-0.5-1.9s-0.7-0.6-1.2-0.6c-0.5,0-0.9,0.2-1.2,0.6  S327.7,404.7,327.7,405.5z"/>
<rect x="308.9" y="398.1" fill-rule="evenodd" fill="none" width="24" height="13.5"/>
<path d="M313.3,485c0-1.2,0.3-2,1-2.6c0.5-0.5,1.2-0.7,2-0.7c0.9,0,1.6,0.3,2.1,0.8c0.5,0.6,0.8,1.3,0.8,2.3c0,0.8-0.1,1.4-0.4,1.9  c-0.2,0.5-0.6,0.8-1,1.1s-1,0.4-1.5,0.4c-0.9,0-1.6-0.3-2.1-0.8S313.3,486.1,313.3,485z M314.4,485c0,0.8,0.2,1.4,0.5,1.8  c0.3,0.4,0.8,0.6,1.3,0.6c0.5,0,1-0.2,1.3-0.6c0.3-0.4,0.5-1,0.5-1.8c0-0.8-0.2-1.4-0.5-1.7c-0.3-0.4-0.8-0.6-1.3-0.6  c-0.5,0-1,0.2-1.3,0.6C314.5,483.6,314.4,484.2,314.4,485z"/>
<path d="M321.3,488.1h-1v-8.6h1.1v3.1c0.4-0.6,1-0.8,1.7-0.8c0.4,0,0.7,0.1,1.1,0.2s0.6,0.4,0.8,0.7s0.4,0.6,0.5,1s0.2,0.8,0.2,1.3  c0,1.1-0.3,1.9-0.8,2.5s-1.2,0.9-1.9,0.9c-0.7,0-1.3-0.3-1.7-0.9V488.1z M321.3,485c0,0.7,0.1,1.3,0.3,1.6c0.3,0.5,0.8,0.8,1.3,0.8  c0.5,0,0.9-0.2,1.2-0.6s0.5-1,0.5-1.8c0-0.8-0.2-1.4-0.5-1.8s-0.7-0.6-1.2-0.6c-0.5,0-0.9,0.2-1.2,0.6S321.3,484.2,321.3,485z"/>
<path d="M325.7,490.5l0.2-0.9c0.2,0.1,0.4,0.1,0.5,0.1c0.2,0,0.4-0.1,0.5-0.2s0.2-0.5,0.2-1.1v-6.5h1.1v6.6c0,0.8-0.1,1.3-0.3,1.6  c-0.3,0.4-0.7,0.6-1.3,0.6C326.2,490.7,325.9,490.6,325.7,490.5z M327,480.8v-1.2h1.1v1.2H327z"/>
<rect x="312.9" y="477.6" fill-rule="evenodd" fill="none" width="15.7" height="13.5"/>
<path fill="none" stroke="#000000" stroke-width="2.2496" d="M93.8,206.1c0,1.1-0.1,2.2-0.2,3.3c-0.1,1.1-0.3,2.2-0.5,3.3  c-0.2,1.1-0.5,2.2-0.8,3.2c-0.3,1.1-0.7,2.1-1.1,3.1c-0.4,1-0.9,2-1.4,3c-0.5,1-1.1,1.9-1.7,2.9c-0.6,0.9-1.3,1.8-2,2.7  c-0.7,0.9-1.4,1.7-2.2,2.5c-0.8,0.8-1.6,1.5-2.5,2.2c-0.9,0.7-1.7,1.4-2.7,2c-0.9,0.6-1.9,1.2-2.8,1.7s-2,1-3,1.4  c-1,0.4-2.1,0.8-3.1,1.1c-1.1,0.3-2.1,0.6-3.2,0.8c-1.1,0.2-2.2,0.4-3.3,0.5S61.1,240,60,240s-2.2-0.1-3.3-0.2s-2.2-0.3-3.3-0.5  c-1.1-0.2-2.2-0.5-3.2-0.8c-1.1-0.3-2.1-0.7-3.1-1.1c-1-0.4-2-0.9-3-1.4c-1-0.5-1.9-1.1-2.8-1.7s-1.8-1.3-2.7-2s-1.7-1.4-2.5-2.2  c-0.8-0.8-1.5-1.6-2.2-2.5c-0.7-0.9-1.4-1.7-2-2.7c-0.6-0.9-1.2-1.9-1.7-2.9c-0.5-1-1-2-1.4-3c-0.4-1-0.8-2.1-1.1-3.1  c-0.3-1.1-0.6-2.1-0.8-3.2s-0.4-2.2-0.5-3.3c-0.1-1.1-0.2-2.2-0.2-3.3s0.1-2.2,0.2-3.3c0.1-1.1,0.3-2.2,0.5-3.3s0.5-2.2,0.8-3.2  c0.3-1.1,0.7-2.1,1.1-3.1c0.4-1,0.9-2,1.4-3c0.5-1,1.1-1.9,1.7-2.9c0.6-0.9,1.3-1.8,2-2.7c0.7-0.9,1.4-1.7,2.2-2.5  c0.8-0.8,1.6-1.5,2.5-2.2s1.7-1.4,2.7-2s1.9-1.2,2.8-1.7c1-0.5,2-1,3-1.4c1-0.4,2.1-0.8,3.1-1.1c1.1-0.3,2.1-0.6,3.2-0.8  c1.1-0.2,2.2-0.4,3.3-0.5s2.2-0.2,3.3-0.2s2.2,0.1,3.3,0.2s2.2,0.3,3.3,0.5c1.1,0.2,2.2,0.5,3.2,0.8c1.1,0.3,2.1,0.7,3.1,1.1  c1,0.4,2,0.9,3,1.4s1.9,1.1,2.8,1.7c0.9,0.6,1.8,1.3,2.7,2s1.7,1.4,2.5,2.2c0.8,0.8,1.5,1.6,2.2,2.5c0.7,0.9,1.4,1.7,2,2.7  c0.6,0.9,1.2,1.9,1.7,2.9c0.5,1,1,2,1.4,3c0.4,1,0.8,2.1,1.1,3.1c0.3,1.1,0.6,2.1,0.8,3.2c0.2,1.1,0.4,2.2,0.5,3.3  C93.8,203.9,93.8,205,93.8,206.1z"/>
<path d="M34.1,198.9c0-1,0.1-1.8,0.3-2.5s0.5-1.1,0.9-1.4c0.4-0.3,0.9-0.5,1.6-0.5c0.5,0,0.9,0.1,1.2,0.3c0.3,0.2,0.6,0.5,0.9,0.8  c0.2,0.3,0.4,0.8,0.5,1.3s0.2,1.2,0.2,2c0,1-0.1,1.8-0.3,2.4s-0.5,1.1-0.9,1.4s-0.9,0.5-1.6,0.5c-0.8,0-1.5-0.3-2-0.9  C34.4,201.7,34.1,200.5,34.1,198.9z M35.2,198.9c0,1.4,0.2,2.3,0.5,2.8c0.3,0.5,0.7,0.7,1.2,0.7c0.5,0,0.9-0.2,1.2-0.7  c0.3-0.5,0.5-1.4,0.5-2.8c0-1.4-0.2-2.4-0.5-2.8c-0.3-0.5-0.7-0.7-1.2-0.7c-0.5,0-0.9,0.2-1.2,0.6C35.4,196.5,35.2,197.5,35.2,198.9  z"/>
<path d="M45.1,202.4c-0.4,0.3-0.8,0.6-1.1,0.7s-0.7,0.2-1.2,0.2c-0.7,0-1.2-0.2-1.6-0.5s-0.6-0.8-0.6-1.3c0-0.3,0.1-0.6,0.2-0.8  c0.1-0.3,0.3-0.5,0.5-0.6s0.5-0.3,0.8-0.3c0.2-0.1,0.5-0.1,0.9-0.2c0.9-0.1,1.5-0.2,1.9-0.4c0-0.1,0-0.2,0-0.3  c0-0.4-0.1-0.7-0.3-0.9c-0.3-0.2-0.7-0.4-1.2-0.4c-0.5,0-0.9,0.1-1.1,0.3s-0.4,0.5-0.5,0.9l-1-0.1c0.1-0.4,0.2-0.8,0.5-1.1  s0.5-0.5,0.9-0.6c0.4-0.1,0.9-0.2,1.4-0.2c0.5,0,1,0.1,1.3,0.2s0.6,0.3,0.7,0.5c0.2,0.2,0.3,0.4,0.3,0.7c0,0.2,0.1,0.5,0.1,1v1.4  c0,1,0,1.6,0.1,1.9s0.1,0.5,0.3,0.7h-1.1C45.2,202.9,45.2,202.7,45.1,202.4z M45.1,200c-0.4,0.2-1,0.3-1.7,0.4  c-0.4,0.1-0.7,0.1-0.9,0.2s-0.3,0.2-0.4,0.3c-0.1,0.2-0.1,0.3-0.1,0.5c0,0.3,0.1,0.5,0.3,0.7c0.2,0.2,0.5,0.3,0.9,0.3  c0.4,0,0.8-0.1,1.1-0.3s0.5-0.4,0.7-0.7c0.1-0.2,0.2-0.6,0.2-1.1V200z"/>
<path d="M48.7,203.1h-1v-8.6h1.1v3.1c0.4-0.6,1-0.8,1.7-0.8c0.4,0,0.7,0.1,1.1,0.2c0.3,0.2,0.6,0.4,0.8,0.7c0.2,0.3,0.4,0.6,0.5,1  s0.2,0.8,0.2,1.3c0,1.1-0.3,1.9-0.8,2.5c-0.5,0.6-1.2,0.9-1.9,0.9c-0.7,0-1.3-0.3-1.7-0.9V203.1z M48.7,200c0,0.7,0.1,1.3,0.3,1.6  c0.3,0.5,0.8,0.8,1.3,0.8c0.5,0,0.9-0.2,1.2-0.6c0.3-0.4,0.5-1,0.5-1.8c0-0.8-0.2-1.4-0.5-1.8c-0.3-0.4-0.7-0.6-1.2-0.6  c-0.5,0-0.9,0.2-1.2,0.6S48.7,199.2,48.7,200z"/>
<path d="M58.5,202.4c-0.4,0.3-0.8,0.6-1.1,0.7s-0.7,0.2-1.2,0.2c-0.7,0-1.2-0.2-1.6-0.5s-0.6-0.8-0.6-1.3c0-0.3,0.1-0.6,0.2-0.8  c0.1-0.3,0.3-0.5,0.5-0.6s0.5-0.3,0.8-0.3c0.2-0.1,0.5-0.1,0.9-0.2c0.9-0.1,1.5-0.2,1.9-0.4c0-0.1,0-0.2,0-0.3  c0-0.4-0.1-0.7-0.3-0.9c-0.3-0.2-0.7-0.4-1.2-0.4c-0.5,0-0.9,0.1-1.1,0.3s-0.4,0.5-0.5,0.9l-1-0.1c0.1-0.4,0.2-0.8,0.5-1.1  s0.5-0.5,0.9-0.6c0.4-0.1,0.9-0.2,1.4-0.2c0.5,0,1,0.1,1.3,0.2s0.6,0.3,0.7,0.5c0.2,0.2,0.3,0.4,0.3,0.7c0,0.2,0.1,0.5,0.1,1v1.4  c0,1,0,1.6,0.1,1.9s0.1,0.5,0.3,0.7h-1.1C58.6,202.9,58.5,202.7,58.5,202.4z M58.4,200c-0.4,0.2-1,0.3-1.7,0.4  c-0.4,0.1-0.7,0.1-0.9,0.2s-0.3,0.2-0.4,0.3c-0.1,0.2-0.1,0.3-0.1,0.5c0,0.3,0.1,0.5,0.3,0.7c0.2,0.2,0.5,0.3,0.9,0.3  c0.4,0,0.8-0.1,1.1-0.3s0.5-0.4,0.7-0.7c0.1-0.2,0.2-0.6,0.2-1.1V200z"/>
<path d="M65.2,200.8l1,0.1c-0.1,0.7-0.4,1.3-0.9,1.7s-1,0.6-1.7,0.6c-0.9,0-1.5-0.3-2.1-0.8s-0.8-1.4-0.8-2.4c0-0.7,0.1-1.3,0.3-1.8  c0.2-0.5,0.6-0.9,1-1.1c0.5-0.3,0.9-0.4,1.5-0.4c0.7,0,1.2,0.2,1.7,0.5s0.7,0.8,0.8,1.5l-1,0.2c-0.1-0.4-0.3-0.7-0.5-0.9  c-0.2-0.2-0.5-0.3-0.9-0.3c-0.5,0-1,0.2-1.3,0.6c-0.3,0.4-0.5,1-0.5,1.8c0,0.8,0.2,1.4,0.5,1.8c0.3,0.4,0.7,0.6,1.3,0.6  c0.4,0,0.8-0.1,1-0.4C64.9,201.8,65.1,201.4,65.2,200.8z"/>
<path d="M72.3,196.6l-1,0.1c-0.1-0.4-0.2-0.7-0.4-0.9c-0.3-0.3-0.6-0.5-1.1-0.5c-0.3,0-0.6,0.1-0.9,0.3c-0.3,0.2-0.6,0.6-0.8,1.1  c-0.2,0.5-0.3,1.1-0.3,2c0.3-0.4,0.6-0.7,0.9-0.9s0.8-0.3,1.2-0.3c0.7,0,1.3,0.3,1.8,0.8c0.5,0.5,0.7,1.2,0.7,2c0,0.5-0.1,1-0.3,1.5  c-0.2,0.5-0.6,0.8-1,1.1s-0.9,0.4-1.4,0.4c-0.9,0-1.6-0.3-2.1-1c-0.6-0.6-0.8-1.7-0.8-3.2c0-1.7,0.3-2.9,0.9-3.6  c0.5-0.7,1.3-1,2.2-1c0.7,0,1.2,0.2,1.7,0.6C71.9,195.4,72.2,196,72.3,196.6z M68,200.3c0,0.4,0.1,0.7,0.2,1  c0.2,0.3,0.4,0.6,0.6,0.8s0.6,0.3,0.9,0.3c0.4,0,0.8-0.2,1.1-0.5c0.3-0.4,0.5-0.8,0.5-1.5c0-0.6-0.2-1.1-0.5-1.4  c-0.3-0.3-0.7-0.5-1.2-0.5c-0.5,0-0.9,0.2-1.2,0.5C68.1,199.3,68,199.8,68,200.3z"/>
<path d="M73.5,198.9c0-1,0.1-1.8,0.3-2.5s0.5-1.1,0.9-1.4c0.4-0.3,0.9-0.5,1.6-0.5c0.5,0,0.9,0.1,1.2,0.3c0.3,0.2,0.6,0.5,0.9,0.8  c0.2,0.3,0.4,0.8,0.5,1.3s0.2,1.2,0.2,2c0,1-0.1,1.8-0.3,2.4s-0.5,1.1-0.9,1.4s-0.9,0.5-1.6,0.5c-0.8,0-1.5-0.3-2-0.9  C73.8,201.7,73.5,200.5,73.5,198.9z M74.6,198.9c0,1.4,0.2,2.3,0.5,2.8c0.3,0.5,0.7,0.7,1.2,0.7c0.5,0,0.9-0.2,1.2-0.7  c0.3-0.5,0.5-1.4,0.5-2.8c0-1.4-0.2-2.4-0.5-2.8c-0.3-0.5-0.7-0.7-1.2-0.7c-0.5,0-0.9,0.2-1.2,0.6C74.7,196.5,74.6,197.5,74.6,198.9  z"/>
<path d="M84.5,202.4c-0.4,0.3-0.8,0.6-1.1,0.7s-0.7,0.2-1.2,0.2c-0.7,0-1.2-0.2-1.6-0.5s-0.6-0.8-0.6-1.3c0-0.3,0.1-0.6,0.2-0.8  c0.1-0.3,0.3-0.5,0.5-0.6s0.5-0.3,0.8-0.3c0.2-0.1,0.5-0.1,0.9-0.2c0.9-0.1,1.5-0.2,1.9-0.4c0-0.1,0-0.2,0-0.3  c0-0.4-0.1-0.7-0.3-0.9c-0.3-0.2-0.7-0.4-1.2-0.4c-0.5,0-0.9,0.1-1.1,0.3s-0.4,0.5-0.5,0.9l-1-0.1c0.1-0.4,0.2-0.8,0.5-1.1  s0.5-0.5,0.9-0.6c0.4-0.1,0.9-0.2,1.4-0.2c0.5,0,1,0.1,1.3,0.2s0.6,0.3,0.7,0.5c0.2,0.2,0.3,0.4,0.3,0.7c0,0.2,0.1,0.5,0.1,1v1.4  c0,1,0,1.6,0.1,1.9s0.1,0.5,0.3,0.7h-1.1C84.6,202.9,84.5,202.7,84.5,202.4z M84.4,200c-0.4,0.2-1,0.3-1.7,0.4  c-0.4,0.1-0.7,0.1-0.9,0.2s-0.3,0.2-0.4,0.3c-0.1,0.2-0.1,0.3-0.1,0.5c0,0.3,0.1,0.5,0.3,0.7c0.2,0.2,0.5,0.3,0.9,0.3  c0.4,0,0.8-0.1,1.1-0.3s0.5-0.4,0.7-0.7c0.1-0.2,0.2-0.6,0.2-1.1V200z"/>
<path d="M43.6,216.6V208h1.2l4.5,6.7V208h1.1v8.6h-1.2l-4.5-6.8v6.8H43.6z"/>
<path d="M51.9,212.4c0-1.4,0.4-2.5,1.1-3.3c0.8-0.8,1.8-1.2,3-1.2c0.8,0,1.5,0.2,2.1,0.6c0.6,0.4,1.1,0.9,1.5,1.6  c0.3,0.7,0.5,1.4,0.5,2.3c0,0.9-0.2,1.7-0.5,2.3c-0.4,0.7-0.8,1.2-1.5,1.6c-0.6,0.4-1.3,0.5-2.1,0.5c-0.8,0-1.5-0.2-2.2-0.6  c-0.6-0.4-1.1-0.9-1.4-1.6S51.9,213.2,51.9,212.4z M53.1,212.5c0,1,0.3,1.9,0.8,2.4s1.3,0.9,2.1,0.9c0.9,0,1.6-0.3,2.1-0.9  c0.6-0.6,0.8-1.5,0.8-2.6c0-0.7-0.1-1.3-0.4-1.8s-0.6-0.9-1-1.2s-1-0.4-1.5-0.4c-0.8,0-1.5,0.3-2.1,0.8  C53.3,210.2,53.1,211.2,53.1,212.5z"/>
<path d="M61.6,216.6V208h3c0.7,0,1.2,0,1.5,0.1c0.5,0.1,0.9,0.3,1.3,0.6c0.5,0.4,0.8,0.9,1,1.5s0.3,1.3,0.3,2c0,0.7-0.1,1.2-0.2,1.7  s-0.3,0.9-0.6,1.3s-0.5,0.6-0.8,0.8s-0.6,0.3-1,0.4c-0.4,0.1-0.9,0.1-1.4,0.1H61.6z M62.7,215.6h1.8c0.6,0,1-0.1,1.3-0.2  s0.6-0.3,0.8-0.4c0.3-0.3,0.5-0.6,0.6-1.1s0.2-1,0.2-1.7c0-0.9-0.1-1.6-0.4-2.1s-0.7-0.8-1.1-1c-0.3-0.1-0.8-0.2-1.5-0.2h-1.8V215.6  z"/>
<path d="M70.2,216.6V208h6.2v1h-5.1v2.6h4.8v1h-4.8v2.9h5.3v1H70.2z"/>
<rect x="33.6" y="192.6" fill-rule="evenodd" fill="none" width="52.5" height="27"/>
<rect x="153.3" y="26.1" fill="none" stroke="#000000" stroke-width="2.2496" width="136.8" height="42"/>
<path d="M201.1,43.1v1h-5.7c0-0.3,0-0.5,0.1-0.7c0.1-0.4,0.4-0.8,0.7-1.1s0.8-0.8,1.4-1.3c0.9-0.8,1.6-1.4,1.9-1.8  c0.3-0.4,0.5-0.9,0.5-1.3c0-0.4-0.1-0.8-0.4-1.1c-0.3-0.3-0.7-0.4-1.2-0.4c-0.5,0-0.9,0.2-1.2,0.5c-0.3,0.3-0.5,0.7-0.5,1.3  l-1.1-0.1c0.1-0.8,0.4-1.4,0.8-1.8c0.5-0.4,1.1-0.6,2-0.6c0.8,0,1.5,0.2,2,0.7c0.5,0.5,0.7,1,0.7,1.7c0,0.3-0.1,0.7-0.2,1  c-0.1,0.3-0.4,0.7-0.7,1s-0.9,0.9-1.6,1.5c-0.6,0.5-1,0.9-1.2,1.1s-0.3,0.4-0.4,0.6H201.1z"/>
<path d="M202.3,36.7v-1h5.6v0.8c-0.5,0.6-1.1,1.4-1.6,2.3c-0.5,1-1,2-1.2,3c-0.2,0.7-0.3,1.5-0.4,2.4h-1.1c0-0.7,0.1-1.5,0.4-2.4  s0.6-1.9,1.1-2.8c0.5-0.9,1-1.6,1.5-2.2H202.3z"/>
<path d="M210.5,39.5c-0.4-0.2-0.8-0.4-1-0.7s-0.3-0.7-0.3-1.1c0-0.6,0.2-1.2,0.7-1.6c0.4-0.4,1-0.6,1.8-0.6c0.8,0,1.4,0.2,1.8,0.7  s0.7,1,0.7,1.6c0,0.4-0.1,0.7-0.3,1c-0.2,0.3-0.5,0.5-1,0.7c0.5,0.2,0.9,0.4,1.2,0.8c0.3,0.4,0.4,0.8,0.4,1.4c0,0.7-0.3,1.4-0.8,1.9  c-0.5,0.5-1.2,0.8-2.1,0.8c-0.8,0-1.5-0.3-2-0.8c-0.5-0.5-0.8-1.1-0.8-1.9c0-0.6,0.1-1,0.4-1.4S210,39.6,210.5,39.5z M210,41.6  c0,0.3,0.1,0.6,0.2,0.9c0.1,0.3,0.4,0.5,0.6,0.7s0.6,0.2,0.9,0.2c0.5,0,0.9-0.2,1.2-0.5c0.3-0.3,0.5-0.7,0.5-1.2  c0-0.5-0.2-0.9-0.5-1.3c-0.3-0.3-0.8-0.5-1.3-0.5c-0.5,0-0.9,0.2-1.2,0.5C210.1,40.7,210,41.2,210,41.6z M210.3,37.7  c0,0.4,0.1,0.7,0.4,1s0.6,0.4,1,0.4c0.4,0,0.7-0.1,1-0.4c0.3-0.3,0.4-0.6,0.4-0.9c0-0.4-0.1-0.7-0.4-1c-0.3-0.3-0.6-0.4-1-0.4  c-0.4,0-0.7,0.1-1,0.4S210.3,37.3,210.3,37.7z"/>
<path d="M218.9,44.1v-2.1h-3.7v-1l3.9-5.6h0.9v5.6h1.2v1H220v2.1H218.9z M218.9,41.1v-3.9l-2.7,3.9H218.9z"/>
<path d="M222.2,39.9c0-1,0.1-1.8,0.3-2.5s0.5-1.1,0.9-1.4c0.4-0.3,0.9-0.5,1.6-0.5c0.5,0,0.9,0.1,1.2,0.3c0.3,0.2,0.6,0.5,0.9,0.8  c0.2,0.3,0.4,0.8,0.5,1.3s0.2,1.2,0.2,2c0,1-0.1,1.8-0.3,2.4s-0.5,1.1-0.9,1.4s-0.9,0.5-1.6,0.5c-0.8,0-1.5-0.3-2-0.9  C222.5,42.7,222.2,41.5,222.2,39.9z M223.3,39.9c0,1.4,0.2,2.3,0.5,2.8c0.3,0.5,0.7,0.7,1.2,0.7c0.5,0,0.9-0.2,1.2-0.7  c0.3-0.5,0.5-1.4,0.5-2.8c0-1.4-0.2-2.4-0.5-2.8c-0.3-0.5-0.7-0.7-1.2-0.7c-0.5,0-0.9,0.2-1.2,0.6C223.5,37.5,223.3,38.5,223.3,39.9  z"/>
<path d="M228.9,41.9l1.1-0.1c0.1,0.6,0.3,1,0.6,1.3s0.6,0.4,1.1,0.4c0.5,0,0.9-0.2,1.3-0.5c0.3-0.3,0.5-0.8,0.5-1.3  c0-0.5-0.2-0.9-0.5-1.2c-0.3-0.3-0.7-0.5-1.2-0.5c-0.2,0-0.4,0-0.7,0.1l0.1-0.9c0.1,0,0.1,0,0.2,0c0.4,0,0.9-0.1,1.2-0.4  c0.4-0.2,0.5-0.6,0.5-1.1c0-0.4-0.1-0.7-0.4-1c-0.3-0.3-0.6-0.4-1-0.4c-0.4,0-0.8,0.1-1,0.4s-0.4,0.6-0.5,1.2l-1.1-0.2  c0.1-0.7,0.4-1.3,0.9-1.6c0.5-0.4,1-0.6,1.7-0.6c0.5,0,0.9,0.1,1.3,0.3c0.4,0.2,0.7,0.5,0.9,0.8c0.2,0.3,0.3,0.7,0.3,1.1  c0,0.4-0.1,0.7-0.3,1s-0.5,0.5-0.9,0.7c0.5,0.1,0.9,0.4,1.2,0.7c0.3,0.4,0.4,0.8,0.4,1.4c0,0.8-0.3,1.4-0.8,1.9  c-0.5,0.5-1.2,0.8-2.1,0.8c-0.8,0-1.4-0.2-1.9-0.7S229,42.6,228.9,41.9z"/>
<path d="M235.6,41.9l1.1-0.1c0.1,0.5,0.3,0.9,0.6,1.2c0.3,0.3,0.7,0.4,1.1,0.4c0.5,0,0.9-0.2,1.3-0.6c0.4-0.4,0.5-0.9,0.5-1.5  c0-0.6-0.2-1.1-0.5-1.4c-0.3-0.3-0.8-0.5-1.3-0.5c-0.3,0-0.6,0.1-0.9,0.2s-0.5,0.4-0.6,0.6l-1-0.1l0.8-4.4h4.3v1h-3.4L237,39  c0.5-0.4,1.1-0.5,1.6-0.5c0.8,0,1.4,0.3,1.9,0.8c0.5,0.5,0.8,1.2,0.8,2c0,0.8-0.2,1.4-0.7,2c-0.6,0.7-1.3,1-2.3,1  c-0.8,0-1.4-0.2-1.9-0.7C235.9,43.2,235.6,42.6,235.6,41.9z"/>
<path d="M242.2,39.9c0-1,0.1-1.8,0.3-2.5s0.5-1.1,0.9-1.4c0.4-0.3,0.9-0.5,1.6-0.5c0.5,0,0.9,0.1,1.2,0.3c0.3,0.2,0.6,0.5,0.9,0.8  c0.2,0.3,0.4,0.8,0.5,1.3s0.2,1.2,0.2,2c0,1-0.1,1.8-0.3,2.4s-0.5,1.1-0.9,1.4s-0.9,0.5-1.6,0.5c-0.8,0-1.5-0.3-2-0.9  C242.5,42.7,242.2,41.5,242.2,39.9z M243.3,39.9c0,1.4,0.2,2.3,0.5,2.8c0.3,0.5,0.7,0.7,1.2,0.7c0.5,0,0.9-0.2,1.2-0.7  c0.3-0.5,0.5-1.4,0.5-2.8c0-1.4-0.2-2.4-0.5-2.8c-0.3-0.5-0.7-0.7-1.2-0.7c-0.5,0-0.9,0.2-1.2,0.6C243.5,37.5,243.3,38.5,243.3,39.9  z"/>
<path d="M205.3,52.1l-0.3-1.6V49h1.2v1.4l-0.3,1.6H205.3z M207.3,52.1l-0.3-1.6V49h1.2v1.4l-0.3,1.6H207.3z"/>
<path d="M208.7,57.6L212,49h1.2l3.5,8.6h-1.3l-1-2.6h-3.6l-0.9,2.6H208.7z M211.2,54.1h2.9l-0.9-2.4c-0.3-0.7-0.5-1.3-0.6-1.8  c-0.1,0.6-0.3,1.1-0.5,1.6L211.2,54.1z"/>
<path d="M217.5,57.6V49h1.1v8.6H217.5z"/>
<path d="M220.2,50.2V49h1.1v1.2H220.2z M220.2,57.6v-6.2h1.1v6.2H220.2z"/>
<path d="M226.9,55.3l1,0.1c-0.1,0.7-0.4,1.3-0.9,1.7s-1,0.6-1.7,0.6c-0.9,0-1.5-0.3-2.1-0.8s-0.8-1.4-0.8-2.4c0-0.7,0.1-1.3,0.3-1.8  c0.2-0.5,0.6-0.9,1-1.1c0.5-0.3,0.9-0.4,1.5-0.4c0.7,0,1.2,0.2,1.7,0.5s0.7,0.8,0.8,1.5l-1,0.2c-0.1-0.4-0.3-0.7-0.5-0.9  c-0.2-0.2-0.5-0.3-0.9-0.3c-0.5,0-1,0.2-1.3,0.6c-0.3,0.4-0.5,1-0.5,1.8c0,0.8,0.2,1.4,0.5,1.8c0.3,0.4,0.7,0.6,1.3,0.6  c0.4,0,0.8-0.1,1-0.4C226.7,56.3,226.8,55.9,226.9,55.3z"/>
<path d="M233.1,55.6l1.1,0.1c-0.2,0.6-0.5,1.1-1,1.5s-1.1,0.5-1.8,0.5c-0.9,0-1.6-0.3-2.2-0.8s-0.8-1.3-0.8-2.4c0-1,0.3-1.9,0.8-2.4  s1.2-0.9,2.1-0.9c0.8,0,1.5,0.3,2,0.8c0.5,0.6,0.8,1.4,0.8,2.4c0,0.1,0,0.2,0,0.3h-4.6c0,0.7,0.2,1.2,0.6,1.6s0.8,0.5,1.3,0.5  c0.4,0,0.7-0.1,1-0.3C232.7,56.4,232.9,56.1,233.1,55.6z M229.6,53.9h3.5c0-0.5-0.2-0.9-0.4-1.2c-0.3-0.4-0.8-0.6-1.3-0.6  c-0.5,0-0.9,0.2-1.2,0.5S229.7,53.4,229.6,53.9z"/>
<path d="M235.6,52.1l-0.3-1.6V49h1.2v1.4l-0.3,1.6H235.6z M237.5,52.1l-0.3-1.6V49h1.2v1.4l-0.3,1.6H237.5z"/>
<rect x="160.8" y="33.6" fill-rule="evenodd" fill="none" width="122.2" height="27"/>
<path fill="none" stroke="#000000" stroke-width="2.2496" d="M195.4,105.6H248c0.7,0,1.4,0,2.1,0.1c0.7,0.1,1.4,0.2,2,0.3  c0.7,0.1,1.3,0.3,2,0.5c0.7,0.2,1.3,0.4,1.9,0.7c0.6,0.3,1.3,0.6,1.9,0.9c0.6,0.3,1.2,0.7,1.8,1.1c0.6,0.4,1.1,0.8,1.7,1.2  s1,0.9,1.5,1.4s0.9,1,1.4,1.5s0.8,1.1,1.2,1.7c0.4,0.6,0.7,1.2,1.1,1.8s0.6,1.2,0.9,1.9c0.3,0.6,0.5,1.3,0.7,1.9  c0.2,0.7,0.4,1.3,0.5,2s0.2,1.4,0.3,2s0.1,1.4,0.1,2.1s0,1.4-0.1,2.1c-0.1,0.7-0.2,1.4-0.3,2s-0.3,1.3-0.5,2  c-0.2,0.7-0.4,1.3-0.7,1.9c-0.3,0.6-0.6,1.3-0.9,1.9c-0.3,0.6-0.7,1.2-1.1,1.8c-0.4,0.6-0.8,1.1-1.2,1.7s-0.9,1-1.4,1.5  s-1,0.9-1.5,1.4s-1.1,0.8-1.7,1.2c-0.6,0.4-1.2,0.7-1.8,1.1c-0.6,0.3-1.2,0.6-1.9,0.9c-0.6,0.3-1.3,0.5-1.9,0.7  c-0.7,0.2-1.3,0.4-2,0.5c-0.7,0.1-1.4,0.2-2,0.3c-0.7,0.1-1.4,0.1-2.1,0.1h-52.6c-0.7,0-1.4,0-2.1-0.1c-0.7-0.1-1.4-0.2-2-0.3  c-0.7-0.1-1.3-0.3-2-0.5c-0.7-0.2-1.3-0.4-1.9-0.7c-0.6-0.3-1.3-0.6-1.9-0.9c-0.6-0.3-1.2-0.7-1.8-1.1c-0.6-0.4-1.1-0.8-1.7-1.2  c-0.5-0.4-1-0.9-1.5-1.4s-0.9-1-1.4-1.5s-0.8-1.1-1.2-1.7c-0.4-0.6-0.7-1.2-1.1-1.8s-0.6-1.2-0.9-1.9c-0.3-0.6-0.5-1.3-0.7-1.9  c-0.2-0.7-0.4-1.3-0.5-2s-0.2-1.4-0.3-2s-0.1-1.4-0.1-2.1s0-1.4,0.1-2.1c0.1-0.7,0.2-1.4,0.3-2s0.3-1.3,0.5-2  c0.2-0.7,0.4-1.3,0.7-1.9c0.3-0.6,0.6-1.3,0.9-1.9c0.3-0.6,0.7-1.2,1.1-1.8c0.4-0.6,0.8-1.1,1.2-1.7s0.9-1,1.4-1.5s1-0.9,1.5-1.4  c0.5-0.4,1.1-0.8,1.7-1.2c0.6-0.4,1.2-0.7,1.8-1.1c0.6-0.3,1.2-0.6,1.9-0.9c0.6-0.3,1.3-0.5,1.9-0.7c0.7-0.2,1.3-0.4,2-0.5  c0.7-0.1,1.4-0.2,2-0.3C194.1,105.7,194.7,105.6,195.4,105.6z"/>
<path d="M199.5,123.6h-1.1v-6.7c-0.3,0.2-0.6,0.5-1,0.7s-0.8,0.4-1.1,0.5v-1c0.6-0.3,1.1-0.6,1.5-1c0.4-0.4,0.8-0.8,0.9-1.1h0.7  V123.6z"/>
<path d="M206.8,121.6l1.1,0.1c-0.2,0.6-0.5,1.1-1,1.5s-1.1,0.5-1.8,0.5c-0.9,0-1.6-0.3-2.2-0.8s-0.8-1.3-0.8-2.4  c0-1,0.3-1.9,0.8-2.4s1.2-0.9,2.1-0.9c0.8,0,1.5,0.3,2,0.8c0.5,0.6,0.8,1.4,0.8,2.4c0,0.1,0,0.2,0,0.3h-4.6c0,0.7,0.2,1.2,0.6,1.6  s0.8,0.5,1.3,0.5c0.4,0,0.7-0.1,1-0.3C206.4,122.4,206.6,122.1,206.8,121.6z M203.3,119.9h3.5c0-0.5-0.2-0.9-0.4-1.2  c-0.3-0.4-0.8-0.6-1.3-0.6c-0.5,0-0.9,0.2-1.2,0.5S203.3,119.4,203.3,119.9z"/>
<path d="M208.9,119.4c0-1,0.1-1.8,0.3-2.5s0.5-1.1,0.9-1.4c0.4-0.3,0.9-0.5,1.6-0.5c0.5,0,0.9,0.1,1.2,0.3c0.3,0.2,0.6,0.5,0.9,0.8  c0.2,0.3,0.4,0.8,0.5,1.3s0.2,1.2,0.2,2c0,1-0.1,1.8-0.3,2.4s-0.5,1.1-0.9,1.4s-0.9,0.5-1.6,0.5c-0.8,0-1.5-0.3-2-0.9  C209.2,122.2,208.9,121,208.9,119.4z M210,119.4c0,1.4,0.2,2.3,0.5,2.8c0.3,0.5,0.7,0.7,1.2,0.7c0.5,0,0.9-0.2,1.2-0.7  c0.3-0.5,0.5-1.4,0.5-2.8c0-1.4-0.2-2.4-0.5-2.8c-0.3-0.5-0.7-0.7-1.2-0.7c-0.5,0-0.9,0.2-1.2,0.6C210.1,117,210,118,210,119.4z"/>
<path d="M216.8,123.6h-1V115h1.1v3.1c0.4-0.6,1-0.8,1.7-0.8c0.4,0,0.7,0.1,1.1,0.2c0.3,0.2,0.6,0.4,0.8,0.7c0.2,0.3,0.4,0.6,0.5,1  s0.2,0.8,0.2,1.3c0,1.1-0.3,1.9-0.8,2.5c-0.5,0.6-1.2,0.9-1.9,0.9c-0.7,0-1.3-0.3-1.7-0.9V123.6z M216.8,120.5  c0,0.7,0.1,1.3,0.3,1.6c0.3,0.5,0.8,0.8,1.3,0.8c0.5,0,0.9-0.2,1.2-0.6c0.3-0.4,0.5-1,0.5-1.8c0-0.8-0.2-1.4-0.5-1.8  c-0.3-0.4-0.7-0.6-1.2-0.6c-0.5,0-0.9,0.2-1.2,0.6S216.8,119.7,216.8,120.5z"/>
<path d="M222.2,119.4c0-1,0.1-1.8,0.3-2.5s0.5-1.1,0.9-1.4c0.4-0.3,0.9-0.5,1.6-0.5c0.5,0,0.9,0.1,1.2,0.3c0.3,0.2,0.6,0.5,0.9,0.8  c0.2,0.3,0.4,0.8,0.5,1.3s0.2,1.2,0.2,2c0,1-0.1,1.8-0.3,2.4s-0.5,1.1-0.9,1.4s-0.9,0.5-1.6,0.5c-0.8,0-1.5-0.3-2-0.9  C222.5,122.2,222.2,121,222.2,119.4z M223.3,119.4c0,1.4,0.2,2.3,0.5,2.8c0.3,0.5,0.7,0.7,1.2,0.7c0.5,0,0.9-0.2,1.2-0.7  c0.3-0.5,0.5-1.4,0.5-2.8c0-1.4-0.2-2.4-0.5-2.8c-0.3-0.5-0.7-0.7-1.2-0.7c-0.5,0-0.9,0.2-1.2,0.6C223.5,117,223.3,118,223.3,119.4z  "/>
<path d="M232.3,123.6v-2.1h-3.7v-1l3.9-5.6h0.9v5.6h1.2v1h-1.2v2.1H232.3z M232.3,120.6v-3.9l-2.7,3.9H232.3z"/>
<path d="M235.7,121.6l1-0.1c0.1,0.5,0.2,0.8,0.5,1s0.6,0.3,0.9,0.3c0.3,0,0.6-0.1,0.9-0.2s0.4-0.3,0.6-0.6s0.3-0.6,0.4-1  s0.2-0.9,0.2-1.3c0,0,0-0.1,0-0.2c-0.2,0.3-0.5,0.6-0.9,0.8c-0.4,0.2-0.8,0.3-1.2,0.3c-0.7,0-1.3-0.3-1.8-0.8s-0.7-1.2-0.7-2  c0-0.9,0.3-1.6,0.8-2.1c0.5-0.5,1.2-0.8,1.9-0.8c0.6,0,1.1,0.2,1.5,0.5c0.5,0.3,0.8,0.7,1.1,1.3c0.2,0.6,0.4,1.4,0.4,2.4  c0,1.1-0.1,2-0.4,2.6c-0.2,0.7-0.6,1.1-1.1,1.5c-0.5,0.3-1,0.5-1.7,0.5c-0.7,0-1.2-0.2-1.6-0.6C236.1,122.8,235.8,122.3,235.7,121.6  z M240,117.8c0-0.6-0.2-1.1-0.5-1.4c-0.3-0.4-0.7-0.5-1.2-0.5c-0.5,0-0.9,0.2-1.2,0.6s-0.5,0.9-0.5,1.5c0,0.5,0.2,1,0.5,1.3  c0.3,0.3,0.7,0.5,1.2,0.5c0.5,0,0.9-0.2,1.2-0.5C239.9,118.9,240,118.5,240,117.8z"/>
<path d="M243.5,123.6h-1V115h1.1v3.1c0.4-0.6,1-0.8,1.7-0.8c0.4,0,0.7,0.1,1.1,0.2c0.3,0.2,0.6,0.4,0.8,0.7c0.2,0.3,0.4,0.6,0.5,1  s0.2,0.8,0.2,1.3c0,1.1-0.3,1.9-0.8,2.5c-0.5,0.6-1.2,0.9-1.9,0.9c-0.7,0-1.3-0.3-1.7-0.9V123.6z M243.5,120.5  c0,0.7,0.1,1.3,0.3,1.6c0.3,0.5,0.8,0.8,1.3,0.8c0.5,0,0.9-0.2,1.2-0.6c0.3-0.4,0.5-1,0.5-1.8c0-0.8-0.2-1.4-0.5-1.8  c-0.3-0.4-0.7-0.6-1.2-0.6c-0.5,0-0.9,0.2-1.2,0.6S243.5,119.7,243.5,120.5z"/>
<path d="M187.2,137.1l3.3-8.6h1.2l3.5,8.6h-1.3l-1-2.6h-3.6l-0.9,2.6H187.2z M189.6,133.6h2.9l-0.9-2.4c-0.3-0.7-0.5-1.3-0.6-1.8  c-0.1,0.6-0.3,1.1-0.5,1.6L189.6,133.6z"/>
<path d="M195.7,134.4l1.1-0.1c0.1,0.4,0.2,0.8,0.4,1.1c0.2,0.3,0.5,0.5,0.9,0.7c0.4,0.2,0.8,0.3,1.3,0.3c0.4,0,0.8-0.1,1.1-0.2  c0.3-0.1,0.6-0.3,0.7-0.5s0.2-0.5,0.2-0.7c0-0.3-0.1-0.5-0.2-0.7s-0.4-0.4-0.8-0.5c-0.2-0.1-0.7-0.2-1.5-0.4s-1.3-0.4-1.7-0.5  c-0.4-0.2-0.7-0.5-0.9-0.8s-0.3-0.7-0.3-1.1c0-0.4,0.1-0.8,0.4-1.2s0.6-0.7,1.1-0.9s1-0.3,1.6-0.3c0.6,0,1.2,0.1,1.7,0.3  c0.5,0.2,0.9,0.5,1.1,0.9c0.3,0.4,0.4,0.8,0.4,1.4l-1.1,0.1c-0.1-0.5-0.3-1-0.6-1.2c-0.3-0.3-0.8-0.4-1.5-0.4  c-0.7,0-1.2,0.1-1.5,0.4s-0.5,0.6-0.5,0.9c0,0.3,0.1,0.6,0.3,0.8c0.2,0.2,0.8,0.4,1.7,0.6s1.6,0.4,1.9,0.5c0.5,0.2,0.9,0.5,1.1,0.9  c0.2,0.4,0.4,0.8,0.4,1.2c0,0.5-0.1,0.9-0.4,1.3c-0.3,0.4-0.6,0.7-1.1,0.9c-0.5,0.2-1,0.3-1.7,0.3c-0.8,0-1.4-0.1-2-0.3  c-0.5-0.2-0.9-0.6-1.2-1S195.7,134.9,195.7,134.4z"/>
<path d="M203.7,134.4l1.1-0.1c0.1,0.4,0.2,0.8,0.4,1.1c0.2,0.3,0.5,0.5,0.9,0.7c0.4,0.2,0.8,0.3,1.3,0.3c0.4,0,0.8-0.1,1.1-0.2  c0.3-0.1,0.6-0.3,0.7-0.5s0.2-0.5,0.2-0.7c0-0.3-0.1-0.5-0.2-0.7s-0.4-0.4-0.8-0.5c-0.2-0.1-0.7-0.2-1.5-0.4s-1.3-0.4-1.7-0.5  c-0.4-0.2-0.7-0.5-0.9-0.8s-0.3-0.7-0.3-1.1c0-0.4,0.1-0.8,0.4-1.2s0.6-0.7,1.1-0.9s1-0.3,1.6-0.3c0.6,0,1.2,0.1,1.7,0.3  c0.5,0.2,0.9,0.5,1.1,0.9c0.3,0.4,0.4,0.8,0.4,1.4l-1.1,0.1c-0.1-0.5-0.3-1-0.6-1.2c-0.3-0.3-0.8-0.4-1.5-0.4  c-0.7,0-1.2,0.1-1.5,0.4s-0.5,0.6-0.5,0.9c0,0.3,0.1,0.6,0.3,0.8c0.2,0.2,0.8,0.4,1.7,0.6s1.6,0.4,1.9,0.5c0.5,0.2,0.9,0.5,1.1,0.9  c0.2,0.4,0.4,0.8,0.4,1.2c0,0.5-0.1,0.9-0.4,1.3c-0.3,0.4-0.6,0.7-1.1,0.9c-0.5,0.2-1,0.3-1.7,0.3c-0.8,0-1.4-0.1-2-0.3  c-0.5-0.2-0.9-0.6-1.2-1S203.7,134.9,203.7,134.4z"/>
<path d="M212.1,137.1v-8.6h6.2v1h-5.1v2.6h4.8v1h-4.8v2.9h5.3v1H212.1z"/>
<path d="M220.1,137.1v-8.6h3.8c0.8,0,1.3,0.1,1.7,0.2s0.7,0.4,1,0.8s0.4,0.8,0.4,1.3c0,0.6-0.2,1.1-0.6,1.5c-0.4,0.4-1,0.7-1.8,0.8  c0.3,0.1,0.5,0.3,0.7,0.4c0.3,0.3,0.6,0.7,0.9,1.1l1.5,2.3h-1.4l-1.1-1.8c-0.3-0.5-0.6-0.9-0.8-1.2s-0.4-0.5-0.6-0.6  c-0.2-0.1-0.3-0.2-0.5-0.2c-0.1,0-0.3,0-0.6,0h-1.3v3.8H220.1z M221.3,132.3h2.4c0.5,0,0.9-0.1,1.2-0.2c0.3-0.1,0.5-0.3,0.7-0.5  s0.2-0.5,0.2-0.8c0-0.4-0.1-0.7-0.4-1s-0.8-0.4-1.4-0.4h-2.7V132.3z"/>
<path d="M230.7,137.1v-7.6h-2.8v-1h6.8v1h-2.8v7.6H230.7z"/>
<path d="M236.1,137.1v-8.6h1.1v8.6H236.1z"/>
<path d="M238.9,132.9c0-1.4,0.4-2.5,1.1-3.3c0.8-0.8,1.8-1.2,3-1.2c0.8,0,1.5,0.2,2.1,0.6c0.6,0.4,1.1,0.9,1.5,1.6  c0.3,0.7,0.5,1.4,0.5,2.3c0,0.9-0.2,1.7-0.5,2.3c-0.4,0.7-0.8,1.2-1.5,1.6c-0.6,0.4-1.3,0.5-2.1,0.5c-0.8,0-1.5-0.2-2.2-0.6  c-0.6-0.4-1.1-0.9-1.4-1.6S238.9,133.7,238.9,132.9z M240,133c0,1,0.3,1.9,0.8,2.4s1.3,0.9,2.1,0.9c0.9,0,1.6-0.3,2.1-0.9  c0.6-0.6,0.8-1.5,0.8-2.6c0-0.7-0.1-1.3-0.4-1.8s-0.6-0.9-1-1.2s-1-0.4-1.5-0.4c-0.8,0-1.5,0.3-2.1,0.8  C240.3,130.7,240,131.7,240,133z"/>
<path d="M248.5,137.1v-8.6h1.2l4.5,6.7v-6.7h1.1v8.6h-1.2l-4.5-6.8v6.8H248.5z"/>
<rect x="187.2" y="113.1" fill-rule="evenodd" fill="none" width="69" height="27"/>
<rect x="355" y="65.9" fill="none" stroke="#000000" stroke-width="2.2496" width="144.8" height="42"/>
<path d="M401.3,76.4v-1h5.6v0.8c-0.5,0.6-1.1,1.4-1.6,2.3s-1,2-1.2,3c-0.2,0.7-0.3,1.5-0.4,2.4h-1.1c0-0.7,0.1-1.5,0.4-2.4  s0.6-1.9,1.1-2.8s1-1.6,1.5-2.2H401.3z"/>
<path d="M407.9,79.6c0-1,0.1-1.8,0.3-2.5s0.5-1.1,0.9-1.4s0.9-0.5,1.6-0.5c0.5,0,0.9,0.1,1.2,0.3s0.6,0.5,0.9,0.8s0.4,0.8,0.5,1.3  s0.2,1.2,0.2,2c0,1-0.1,1.8-0.3,2.4s-0.5,1.1-0.9,1.4s-0.9,0.5-1.6,0.5c-0.8,0-1.5-0.3-2-0.9C408.1,82.4,407.9,81.3,407.9,79.6z   M408.9,79.6c0,1.4,0.2,2.3,0.5,2.8s0.7,0.7,1.2,0.7c0.5,0,0.9-0.2,1.2-0.7s0.5-1.4,0.5-2.8c0-1.4-0.2-2.4-0.5-2.8s-0.7-0.7-1.2-0.7  c-0.5,0-0.9,0.2-1.2,0.6C409.1,77.3,408.9,78.2,408.9,79.6z"/>
<path d="M414.7,81.9l1-0.1c0.1,0.5,0.2,0.8,0.5,1s0.6,0.3,0.9,0.3c0.3,0,0.6-0.1,0.9-0.2c0.2-0.1,0.4-0.3,0.6-0.6s0.3-0.6,0.4-1  s0.2-0.9,0.2-1.3c0,0,0-0.1,0-0.2c-0.2,0.3-0.5,0.6-0.9,0.8s-0.8,0.3-1.2,0.3c-0.7,0-1.3-0.3-1.8-0.8c-0.5-0.5-0.7-1.2-0.7-2  c0-0.9,0.3-1.6,0.8-2.1c0.5-0.5,1.2-0.8,1.9-0.8c0.6,0,1.1,0.2,1.5,0.5s0.8,0.7,1.1,1.3s0.4,1.4,0.4,2.4c0,1.1-0.1,2-0.4,2.6  s-0.6,1.1-1.1,1.5s-1,0.5-1.7,0.5c-0.7,0-1.2-0.2-1.6-0.6C415,83.1,414.8,82.6,414.7,81.9z M419,78.1c0-0.6-0.2-1.1-0.5-1.4  s-0.7-0.5-1.2-0.5c-0.5,0-0.9,0.2-1.2,0.6s-0.5,0.9-0.5,1.5c0,0.5,0.2,1,0.5,1.3s0.7,0.5,1.2,0.5c0.5,0,0.9-0.2,1.2-0.5  S419,78.7,419,78.1z"/>
<path d="M426.7,82.9v1h-5.7c0-0.3,0-0.5,0.1-0.7c0.1-0.4,0.4-0.8,0.7-1.1c0.3-0.4,0.8-0.8,1.4-1.3c0.9-0.8,1.6-1.4,1.9-1.8  s0.5-0.9,0.5-1.3c0-0.4-0.1-0.8-0.4-1.1s-0.7-0.4-1.2-0.4c-0.5,0-0.9,0.2-1.2,0.5s-0.5,0.7-0.5,1.3l-1.1-0.1  c0.1-0.8,0.4-1.4,0.8-1.8c0.5-0.4,1.1-0.6,2-0.6c0.8,0,1.5,0.2,2,0.7s0.7,1,0.7,1.7c0,0.3-0.1,0.7-0.2,1s-0.4,0.7-0.7,1  s-0.9,0.9-1.6,1.5c-0.6,0.5-1,0.9-1.2,1.1s-0.3,0.4-0.4,0.6H426.7z"/>
<path d="M432.2,83.9v-0.8c-0.4,0.6-1,0.9-1.7,0.9c-0.5,0-1-0.1-1.4-0.4s-0.7-0.7-1-1.1s-0.3-1.1-0.3-1.7c0-0.6,0.1-1.2,0.3-1.7  s0.5-0.9,0.9-1.2s0.9-0.4,1.4-0.4c0.4,0,0.7,0.1,1,0.2c0.3,0.2,0.5,0.4,0.7,0.6v-3.1h1v8.6H432.2z M428.9,80.8  c0,0.8,0.2,1.4,0.5,1.8s0.7,0.6,1.2,0.6c0.5,0,0.9-0.2,1.2-0.6s0.5-1,0.5-1.7c0-0.9-0.2-1.5-0.5-1.9s-0.7-0.6-1.2-0.6  c-0.5,0-0.9,0.2-1.2,0.6S428.9,79.9,428.9,80.8z"/>
<path d="M440,77.4l-1,0.1c-0.1-0.4-0.2-0.7-0.4-0.9c-0.3-0.3-0.6-0.5-1.1-0.5c-0.3,0-0.6,0.1-0.9,0.3c-0.3,0.2-0.6,0.6-0.8,1.1  s-0.3,1.1-0.3,2c0.3-0.4,0.6-0.7,0.9-0.9s0.8-0.3,1.2-0.3c0.7,0,1.3,0.3,1.8,0.8s0.7,1.2,0.7,2c0,0.5-0.1,1-0.3,1.5s-0.6,0.8-1,1.1  S438,84,437.5,84c-0.9,0-1.6-0.3-2.2-1c-0.6-0.6-0.8-1.7-0.8-3.2c0-1.7,0.3-2.9,0.9-3.6c0.5-0.7,1.3-1,2.2-1c0.7,0,1.2,0.2,1.7,0.6  S439.9,76.7,440,77.4z M435.7,81.1c0,0.4,0.1,0.7,0.2,1s0.4,0.6,0.6,0.8s0.6,0.3,0.9,0.3c0.4,0,0.8-0.2,1.1-0.5s0.5-0.8,0.5-1.5  c0-0.6-0.2-1.1-0.5-1.4s-0.7-0.5-1.2-0.5c-0.5,0-0.9,0.2-1.2,0.5S435.7,80.5,435.7,81.1z"/>
<path d="M446.8,82.9v1h-5.7c0-0.3,0-0.5,0.1-0.7c0.1-0.4,0.4-0.8,0.7-1.1c0.3-0.4,0.8-0.8,1.4-1.3c0.9-0.8,1.6-1.4,1.9-1.8  s0.5-0.9,0.5-1.3c0-0.4-0.1-0.8-0.4-1.1s-0.7-0.4-1.2-0.4c-0.5,0-0.9,0.2-1.2,0.5s-0.5,0.7-0.5,1.3l-1.1-0.1  c0.1-0.8,0.4-1.4,0.8-1.8c0.5-0.4,1.1-0.6,2-0.6c0.8,0,1.5,0.2,2,0.7s0.7,1,0.7,1.7c0,0.3-0.1,0.7-0.2,1s-0.4,0.7-0.7,1  s-0.9,0.9-1.6,1.5c-0.6,0.5-1,0.9-1.2,1.1s-0.3,0.4-0.4,0.6H446.8z"/>
<path d="M447.9,79.6c0-1,0.1-1.8,0.3-2.5s0.5-1.1,0.9-1.4s0.9-0.5,1.6-0.5c0.5,0,0.9,0.1,1.2,0.3s0.6,0.5,0.9,0.8s0.4,0.8,0.5,1.3  s0.2,1.2,0.2,2c0,1-0.1,1.8-0.3,2.4s-0.5,1.1-0.9,1.4s-0.9,0.5-1.6,0.5c-0.8,0-1.5-0.3-2-0.9C448.2,82.4,447.9,81.3,447.9,79.6z   M449,79.6c0,1.4,0.2,2.3,0.5,2.8s0.7,0.7,1.2,0.7c0.5,0,0.9-0.2,1.2-0.7s0.5-1.4,0.5-2.8c0-1.4-0.2-2.4-0.5-2.8s-0.7-0.7-1.2-0.7  c-0.5,0-0.9,0.2-1.2,0.6C449.2,77.3,449,78.2,449,79.6z"/>
<path d="M407,91.8l-0.3-1.6v-1.4h1.2v1.4l-0.3,1.6H407z M408.9,91.8l-0.3-1.6v-1.4h1.2v1.4l-0.3,1.6H408.9z"/>
<path d="M411.2,97.4v-8.6h1.1v4.9l2.5-2.5h1.4l-2.4,2.3l2.6,3.9H415l-2.1-3.2l-0.7,0.7v2.5H411.2z"/>
<path d="M417.2,97.4v-6.2h0.9V92c0.5-0.7,1.1-1,2-1c0.4,0,0.7,0.1,1,0.2s0.5,0.3,0.7,0.5s0.3,0.5,0.3,0.8c0,0.2,0.1,0.5,0.1,1v3.8  h-1.1v-3.8c0-0.4,0-0.8-0.1-1s-0.2-0.4-0.4-0.5s-0.5-0.2-0.7-0.2c-0.4,0-0.8,0.1-1.2,0.4s-0.5,0.8-0.5,1.6v3.4H417.2z"/>
<path d="M423.4,94.3c0-1.2,0.3-2,1-2.6c0.5-0.5,1.2-0.7,2-0.7c0.9,0,1.6,0.3,2.1,0.8s0.8,1.3,0.8,2.3c0,0.8-0.1,1.4-0.4,1.9  s-0.6,0.8-1,1.1s-1,0.4-1.5,0.4c-0.9,0-1.6-0.3-2.1-0.8C423.7,96.1,423.4,95.3,423.4,94.3z M424.5,94.3c0,0.8,0.2,1.4,0.5,1.8  s0.8,0.6,1.3,0.6c0.5,0,1-0.2,1.3-0.6s0.5-1,0.5-1.8c0-0.8-0.2-1.4-0.5-1.7s-0.8-0.6-1.3-0.6c-0.5,0-1,0.2-1.3,0.6  S424.5,93.5,424.5,94.3z"/>
<path d="M431.7,97.4l-1.9-6.2h1.1l1,3.6l0.4,1.3c0-0.1,0.1-0.5,0.3-1.3l1-3.6h1.1l0.9,3.6l0.3,1.2l0.4-1.2l1.1-3.6h1l-1.9,6.2h-1.1  l-1-3.7l-0.2-1.1l-1.3,4.8H431.7z"/>
<path d="M438.7,95.5l1-0.2c0.1,0.4,0.2,0.7,0.5,1s0.6,0.3,1.1,0.3c0.5,0,0.8-0.1,1.1-0.3s0.4-0.4,0.4-0.7c0-0.2-0.1-0.4-0.3-0.6  c-0.1-0.1-0.5-0.2-1.1-0.4c-0.8-0.2-1.3-0.4-1.6-0.5c-0.3-0.1-0.5-0.3-0.7-0.6s-0.2-0.5-0.2-0.8c0-0.3,0.1-0.5,0.2-0.8  s0.3-0.4,0.5-0.6c0.2-0.1,0.4-0.2,0.7-0.3s0.6-0.1,0.9-0.1c0.5,0,0.9,0.1,1.3,0.2c0.4,0.1,0.6,0.3,0.8,0.6s0.3,0.6,0.4,1l-1,0.1  c0-0.3-0.2-0.6-0.4-0.8c-0.2-0.2-0.5-0.3-1-0.3c-0.5,0-0.8,0.1-1,0.2s-0.3,0.3-0.3,0.6c0,0.1,0,0.3,0.1,0.4c0.1,0.1,0.2,0.2,0.4,0.3  c0.1,0,0.4,0.1,0.9,0.3c0.7,0.2,1.3,0.4,1.6,0.5s0.5,0.3,0.7,0.6s0.3,0.5,0.3,0.9c0,0.4-0.1,0.7-0.3,1s-0.5,0.6-0.9,0.7  s-0.8,0.3-1.3,0.3c-0.8,0-1.4-0.2-1.8-0.5C439.1,96.7,438.9,96.2,438.7,95.5z"/>
<path d="M445.2,91.8l-0.3-1.6v-1.4h1.2v1.4l-0.3,1.6H445.2z M447.2,91.8l-0.3-1.6v-1.4h1.2v1.4l-0.3,1.6H447.2z"/>
<rect x="362.5" y="73.4" fill-rule="evenodd" fill="none" width="129.7" height="27"/>
<rect x="351.6" y="145.4" fill="none" stroke="#000000" stroke-width="2.2496" width="151.5" height="42"/>
<path d="M409,163.4v-0.8c-0.4,0.6-1,0.9-1.7,0.9c-0.5,0-1-0.1-1.4-0.4s-0.7-0.7-1-1.1s-0.3-1.1-0.3-1.7c0-0.6,0.1-1.2,0.3-1.7  s0.5-0.9,0.9-1.2s0.9-0.4,1.4-0.4c0.4,0,0.7,0.1,1,0.2c0.3,0.2,0.5,0.4,0.7,0.6v-3.1h1v8.6H409z M405.6,160.3c0,0.8,0.2,1.4,0.5,1.8  s0.7,0.6,1.2,0.6c0.5,0,0.9-0.2,1.2-0.6s0.5-1,0.5-1.7c0-0.9-0.2-1.5-0.5-1.9s-0.7-0.6-1.2-0.6c-0.5,0-0.9,0.2-1.2,0.6  S405.6,159.4,405.6,160.3z"/>
<path d="M411.3,161.1l1.1-0.1c0.1,0.5,0.3,0.9,0.6,1.2s0.7,0.4,1.1,0.4c0.5,0,0.9-0.2,1.3-0.6s0.5-0.9,0.5-1.5  c0-0.6-0.2-1.1-0.5-1.4s-0.8-0.5-1.3-0.5c-0.3,0-0.6,0.1-0.9,0.2s-0.5,0.4-0.6,0.6l-1-0.1l0.8-4.4h4.3v1h-3.4l-0.5,2.3  c0.5-0.4,1.1-0.5,1.6-0.5c0.7,0,1.4,0.3,1.9,0.8s0.8,1.2,0.8,2c0,0.8-0.2,1.4-0.7,2c-0.6,0.7-1.3,1-2.3,1c-0.8,0-1.4-0.2-1.9-0.7  C411.7,162.4,411.4,161.8,411.3,161.1z"/>
<path d="M422.3,162.6c-0.4,0.3-0.8,0.6-1.1,0.7c-0.4,0.1-0.7,0.2-1.2,0.2c-0.7,0-1.2-0.2-1.6-0.5c-0.4-0.3-0.6-0.8-0.6-1.3  c0-0.3,0.1-0.6,0.2-0.8s0.3-0.5,0.5-0.6c0.2-0.2,0.5-0.3,0.8-0.3c0.2-0.1,0.5-0.1,0.9-0.2c0.9-0.1,1.5-0.2,1.9-0.4  c0-0.1,0-0.2,0-0.3c0-0.4-0.1-0.7-0.3-0.9c-0.3-0.2-0.7-0.4-1.2-0.4c-0.5,0-0.9,0.1-1.1,0.3s-0.4,0.5-0.5,0.9l-1-0.1  c0.1-0.4,0.2-0.8,0.5-1.1c0.2-0.3,0.5-0.5,0.9-0.6s0.9-0.2,1.4-0.2c0.5,0,1,0.1,1.3,0.2s0.6,0.3,0.7,0.5s0.3,0.4,0.3,0.7  c0,0.2,0.1,0.5,0.1,1v1.4c0,1,0,1.6,0.1,1.9s0.1,0.5,0.3,0.7h-1.1C422.4,163.2,422.4,162.9,422.3,162.6z M422.2,160.3  c-0.4,0.2-1,0.3-1.7,0.4c-0.4,0.1-0.7,0.1-0.9,0.2s-0.3,0.2-0.4,0.3s-0.1,0.3-0.1,0.5c0,0.3,0.1,0.5,0.3,0.7s0.5,0.3,0.9,0.3  c0.4,0,0.8-0.1,1.1-0.3c0.3-0.2,0.5-0.4,0.7-0.7c0.1-0.2,0.2-0.6,0.2-1.1V160.3z"/>
<path d="M424.7,161.1l1.1-0.1c0.1,0.6,0.3,1,0.6,1.3s0.6,0.4,1.1,0.4c0.5,0,0.9-0.2,1.3-0.5s0.5-0.8,0.5-1.3c0-0.5-0.2-0.9-0.5-1.2  s-0.7-0.5-1.2-0.5c-0.2,0-0.4,0-0.7,0.1l0.1-0.9c0.1,0,0.1,0,0.2,0c0.4,0,0.9-0.1,1.2-0.4s0.5-0.6,0.5-1.1c0-0.4-0.1-0.7-0.4-1  s-0.6-0.4-1-0.4c-0.4,0-0.8,0.1-1,0.4s-0.4,0.6-0.5,1.2l-1.1-0.2c0.1-0.7,0.4-1.3,0.9-1.6c0.5-0.4,1-0.6,1.7-0.6  c0.5,0,0.9,0.1,1.3,0.3s0.7,0.5,0.9,0.8s0.3,0.7,0.3,1.1c0,0.4-0.1,0.7-0.3,1s-0.5,0.5-0.9,0.7c0.5,0.1,0.9,0.4,1.2,0.7  s0.4,0.8,0.4,1.4c0,0.8-0.3,1.4-0.8,1.9s-1.2,0.8-2.1,0.8c-0.8,0-1.4-0.2-1.9-0.7C425,162.4,424.7,161.8,424.7,161.1z"/>
<path d="M431.4,155.9v-1h5.6v0.8c-0.5,0.6-1.1,1.4-1.6,2.3s-1,2-1.2,3c-0.2,0.7-0.3,1.5-0.4,2.4h-1.1c0-0.7,0.1-1.5,0.4-2.4  s0.6-1.9,1.1-2.8s1-1.6,1.5-2.2H431.4z"/>
<path d="M438,161.1l1.1-0.1c0.1,0.5,0.3,0.9,0.6,1.2s0.7,0.4,1.1,0.4c0.5,0,0.9-0.2,1.3-0.6s0.5-0.9,0.5-1.5c0-0.6-0.2-1.1-0.5-1.4  s-0.8-0.5-1.3-0.5c-0.3,0-0.6,0.1-0.9,0.2s-0.5,0.4-0.6,0.6l-1-0.1l0.8-4.4h4.3v1h-3.4l-0.5,2.3c0.5-0.4,1.1-0.5,1.6-0.5  c0.7,0,1.4,0.3,1.9,0.8s0.8,1.2,0.8,2c0,0.8-0.2,1.4-0.7,2c-0.6,0.7-1.3,1-2.3,1c-0.8,0-1.4-0.2-1.9-0.7  C438.4,162.4,438.1,161.8,438,161.1z"/>
<path d="M445.2,163.4V158h-0.9v-0.8h0.9v-0.7c0-0.4,0-0.7,0.1-0.9c0.1-0.3,0.3-0.5,0.5-0.7s0.6-0.3,1.1-0.3c0.3,0,0.6,0,1,0.1  l-0.2,0.9c-0.2,0-0.4-0.1-0.6-0.1c-0.3,0-0.5,0.1-0.7,0.2s-0.2,0.4-0.2,0.8v0.6h1.2v0.8h-1.2v5.4H445.2z"/>
<path d="M448.3,163.4V158h-0.9v-0.8h0.9v-0.7c0-0.4,0-0.7,0.1-0.9c0.1-0.3,0.3-0.5,0.5-0.7s0.6-0.3,1.1-0.3c0.3,0,0.6,0,1,0.1  l-0.2,0.9c-0.2,0-0.4-0.1-0.6-0.1c-0.3,0-0.5,0.1-0.7,0.2s-0.2,0.4-0.2,0.8v0.6h1.2v0.8h-1.2v5.4H448.3z"/>
<path d="M403.6,171.3l-0.3-1.6v-1.4h1.2v1.4l-0.3,1.6H403.6z M405.6,171.3l-0.3-1.6v-1.4h1.2v1.4l-0.3,1.6H405.6z"/>
<path d="M408,176.9v-8.6h6.2v1h-5.1v2.6h4.8v1h-4.8v2.9h5.3v1H408z"/>
<path d="M419.9,176.9v-0.8c-0.4,0.6-1,0.9-1.7,0.9c-0.5,0-1-0.1-1.4-0.4s-0.7-0.7-1-1.1s-0.3-1.1-0.3-1.7c0-0.6,0.1-1.2,0.3-1.7  s0.5-0.9,0.9-1.2s0.9-0.4,1.4-0.4c0.4,0,0.7,0.1,1,0.2c0.3,0.2,0.5,0.4,0.7,0.6v-3.1h1v8.6H419.9z M416.5,173.8  c0,0.8,0.2,1.4,0.5,1.8s0.7,0.6,1.2,0.6c0.5,0,0.9-0.2,1.2-0.6s0.5-1,0.5-1.7c0-0.9-0.2-1.5-0.5-1.9s-0.7-0.6-1.2-0.6  c-0.5,0-0.9,0.2-1.2,0.6S416.5,172.9,416.5,173.8z"/>
<path d="M423.7,176.9l-1.9-6.2h1.1l1,3.6l0.4,1.3c0-0.1,0.1-0.5,0.3-1.3l1-3.6h1.1l0.9,3.6l0.3,1.2l0.4-1.2l1.1-3.6h1l-1.9,6.2h-1.1  l-1-3.7l-0.2-1.1l-1.3,4.8H423.7z"/>
<path d="M435.2,176.1c-0.4,0.3-0.8,0.6-1.1,0.7c-0.4,0.1-0.7,0.2-1.2,0.2c-0.7,0-1.2-0.2-1.6-0.5c-0.4-0.3-0.6-0.8-0.6-1.3  c0-0.3,0.1-0.6,0.2-0.8s0.3-0.5,0.5-0.6c0.2-0.2,0.5-0.3,0.8-0.3c0.2-0.1,0.5-0.1,0.9-0.2c0.9-0.1,1.5-0.2,1.9-0.4  c0-0.1,0-0.2,0-0.3c0-0.4-0.1-0.7-0.3-0.9c-0.3-0.2-0.7-0.4-1.2-0.4c-0.5,0-0.9,0.1-1.1,0.3s-0.4,0.5-0.5,0.9l-1-0.1  c0.1-0.4,0.2-0.8,0.5-1.1c0.2-0.3,0.5-0.5,0.9-0.6s0.9-0.2,1.4-0.2c0.5,0,1,0.1,1.3,0.2s0.6,0.3,0.7,0.5s0.3,0.4,0.3,0.7  c0,0.2,0.1,0.5,0.1,1v1.4c0,1,0,1.6,0.1,1.9s0.1,0.5,0.3,0.7h-1.1C435.3,176.7,435.3,176.4,435.2,176.1z M435.1,173.8  c-0.4,0.2-1,0.3-1.7,0.4c-0.4,0.1-0.7,0.1-0.9,0.2s-0.3,0.2-0.4,0.3s-0.1,0.3-0.1,0.5c0,0.3,0.1,0.5,0.3,0.7s0.5,0.3,0.9,0.3  c0.4,0,0.8-0.1,1.1-0.3c0.3-0.2,0.5-0.4,0.7-0.7c0.1-0.2,0.2-0.6,0.2-1.1V173.8z"/>
<path d="M437.8,176.9v-6.2h0.9v0.9c0.2-0.4,0.5-0.7,0.7-0.9s0.4-0.2,0.7-0.2c0.4,0,0.7,0.1,1.1,0.3l-0.4,1c-0.3-0.2-0.5-0.2-0.8-0.2  c-0.2,0-0.4,0.1-0.6,0.2s-0.3,0.3-0.4,0.6c-0.1,0.4-0.2,0.8-0.2,1.2v3.3H437.8z"/>
<path d="M445.9,176.9v-0.8c-0.4,0.6-1,0.9-1.7,0.9c-0.5,0-1-0.1-1.4-0.4s-0.7-0.7-1-1.1s-0.3-1.1-0.3-1.7c0-0.6,0.1-1.2,0.3-1.7  s0.5-0.9,0.9-1.2s0.9-0.4,1.4-0.4c0.4,0,0.7,0.1,1,0.2c0.3,0.2,0.5,0.4,0.7,0.6v-3.1h1v8.6H445.9z M442.5,173.8  c0,0.8,0.2,1.4,0.5,1.8s0.7,0.6,1.2,0.6c0.5,0,0.9-0.2,1.2-0.6s0.5-1,0.5-1.7c0-0.9-0.2-1.5-0.5-1.9s-0.7-0.6-1.2-0.6  c-0.5,0-0.9,0.2-1.2,0.6S442.5,172.9,442.5,173.8z"/>
<path d="M448.6,171.3l-0.3-1.6v-1.4h1.2v1.4l-0.3,1.6H448.6z M450.5,171.3l-0.3-1.6v-1.4h1.2v1.4l-0.3,1.6H450.5z"/>
<rect x="359.1" y="152.9" fill-rule="evenodd" fill="none" width="136.4" height="27"/>
<path fill="none" stroke="#000000" stroke-width="2.2496" d="M195.4,264.6H248c0.7,0,1.4,0,2.1,0.1c0.7,0.1,1.4,0.2,2,0.3  c0.7,0.1,1.3,0.3,2,0.5c0.7,0.2,1.3,0.4,1.9,0.7c0.6,0.3,1.3,0.6,1.9,0.9c0.6,0.3,1.2,0.7,1.8,1.1c0.6,0.4,1.1,0.8,1.7,1.2  s1,0.9,1.5,1.4s0.9,1,1.4,1.5s0.8,1.1,1.2,1.7c0.4,0.6,0.7,1.2,1.1,1.8s0.6,1.2,0.9,1.9c0.3,0.6,0.5,1.3,0.7,1.9  c0.2,0.7,0.4,1.3,0.5,2s0.2,1.4,0.3,2s0.1,1.4,0.1,2.1s0,1.4-0.1,2.1c-0.1,0.7-0.2,1.4-0.3,2s-0.3,1.3-0.5,2  c-0.2,0.7-0.4,1.3-0.7,1.9c-0.3,0.6-0.6,1.3-0.9,1.9c-0.3,0.6-0.7,1.2-1.1,1.8c-0.4,0.6-0.8,1.1-1.2,1.7c-0.4,0.5-0.9,1-1.4,1.5  s-1,0.9-1.5,1.4s-1.1,0.8-1.7,1.2c-0.6,0.4-1.2,0.7-1.8,1.1c-0.6,0.3-1.2,0.6-1.9,0.9c-0.6,0.3-1.3,0.5-1.9,0.7  c-0.7,0.2-1.3,0.4-2,0.5c-0.7,0.1-1.4,0.2-2,0.3s-1.4,0.1-2.1,0.1h-52.6c-0.7,0-1.4,0-2.1-0.1s-1.4-0.2-2-0.3  c-0.7-0.1-1.3-0.3-2-0.5c-0.7-0.2-1.3-0.4-1.9-0.7c-0.6-0.3-1.3-0.6-1.9-0.9c-0.6-0.3-1.2-0.7-1.8-1.1c-0.6-0.4-1.1-0.8-1.7-1.2  c-0.5-0.4-1-0.9-1.5-1.4s-0.9-1-1.4-1.5c-0.4-0.5-0.8-1.1-1.2-1.7c-0.4-0.6-0.7-1.2-1.1-1.8s-0.6-1.2-0.9-1.9  c-0.3-0.6-0.5-1.3-0.7-1.9c-0.2-0.7-0.4-1.3-0.5-2s-0.2-1.4-0.3-2s-0.1-1.4-0.1-2.1s0-1.4,0.1-2.1c0.1-0.7,0.2-1.4,0.3-2  s0.3-1.3,0.5-2c0.2-0.7,0.4-1.3,0.7-1.9c0.3-0.6,0.6-1.3,0.9-1.9c0.3-0.6,0.7-1.2,1.1-1.8c0.4-0.6,0.8-1.1,1.2-1.7s0.9-1,1.4-1.5  s1-0.9,1.5-1.4c0.5-0.4,1.1-0.8,1.7-1.2c0.6-0.4,1.2-0.7,1.8-1.1c0.6-0.3,1.2-0.6,1.9-0.9c0.6-0.3,1.3-0.5,1.9-0.7  c0.7-0.2,1.3-0.4,2-0.5c0.7-0.1,1.4-0.2,2-0.3C194.1,264.7,194.7,264.6,195.4,264.6z"/>
<path d="M197.2,280.4l1.1-0.1c0.1,0.5,0.3,0.9,0.6,1.2c0.3,0.3,0.7,0.4,1.1,0.4c0.5,0,0.9-0.2,1.3-0.6c0.4-0.4,0.5-0.9,0.5-1.5  c0-0.6-0.2-1.1-0.5-1.4c-0.3-0.3-0.8-0.5-1.3-0.5c-0.3,0-0.6,0.1-0.9,0.2s-0.5,0.4-0.6,0.6l-1-0.1l0.8-4.4h4.3v1h-3.4l-0.5,2.3  c0.5-0.4,1.1-0.5,1.6-0.5c0.8,0,1.4,0.3,1.9,0.8c0.5,0.5,0.8,1.2,0.8,2c0,0.8-0.2,1.4-0.7,2c-0.6,0.7-1.3,1-2.3,1  c-0.8,0-1.4-0.2-1.9-0.7C197.6,281.7,197.3,281.1,197.2,280.4z"/>
<path d="M203.9,280.4l1.1-0.1c0.1,0.5,0.3,0.9,0.6,1.2c0.3,0.3,0.7,0.4,1.1,0.4c0.5,0,0.9-0.2,1.3-0.6c0.4-0.4,0.5-0.9,0.5-1.5  c0-0.6-0.2-1.1-0.5-1.4c-0.3-0.3-0.8-0.5-1.3-0.5c-0.3,0-0.6,0.1-0.9,0.2s-0.5,0.4-0.6,0.6l-1-0.1l0.8-4.4h4.3v1h-3.4l-0.5,2.3  c0.5-0.4,1.1-0.5,1.6-0.5c0.8,0,1.4,0.3,1.9,0.8c0.5,0.5,0.8,1.2,0.8,2c0,0.8-0.2,1.4-0.7,2c-0.6,0.7-1.3,1-2.3,1  c-0.8,0-1.4-0.2-1.9-0.7C204.2,281.7,204,281.1,203.9,280.4z"/>
<path d="M210.6,280.4l1.1-0.1c0.1,0.5,0.3,0.9,0.6,1.2c0.3,0.3,0.7,0.4,1.1,0.4c0.5,0,0.9-0.2,1.3-0.6c0.4-0.4,0.5-0.9,0.5-1.5  c0-0.6-0.2-1.1-0.5-1.4c-0.3-0.3-0.8-0.5-1.3-0.5c-0.3,0-0.6,0.1-0.9,0.2s-0.5,0.4-0.6,0.6l-1-0.1l0.8-4.4h4.3v1h-3.4l-0.5,2.3  c0.5-0.4,1.1-0.5,1.6-0.5c0.8,0,1.4,0.3,1.9,0.8c0.5,0.5,0.8,1.2,0.8,2c0,0.8-0.2,1.4-0.7,2c-0.6,0.7-1.3,1-2.3,1  c-0.8,0-1.4-0.2-1.9-0.7C210.9,281.7,210.6,281.1,210.6,280.4z"/>
<path d="M222.7,276.1l-1,0.1c-0.1-0.4-0.2-0.7-0.4-0.9c-0.3-0.3-0.6-0.5-1.1-0.5c-0.3,0-0.6,0.1-0.9,0.3c-0.3,0.2-0.6,0.6-0.8,1.1  c-0.2,0.5-0.3,1.1-0.3,2c0.3-0.4,0.6-0.7,0.9-0.9s0.8-0.3,1.2-0.3c0.7,0,1.3,0.3,1.8,0.8c0.5,0.5,0.7,1.2,0.7,2c0,0.5-0.1,1-0.3,1.5  c-0.2,0.5-0.6,0.8-1,1.1s-0.9,0.4-1.4,0.4c-0.9,0-1.6-0.3-2.1-1c-0.6-0.6-0.8-1.7-0.8-3.2c0-1.7,0.3-2.9,0.9-3.6  c0.5-0.7,1.3-1,2.2-1c0.7,0,1.2,0.2,1.7,0.6C222.4,274.9,222.6,275.5,222.7,276.1z M218.4,279.8c0,0.4,0.1,0.7,0.2,1  c0.2,0.3,0.4,0.6,0.6,0.8s0.6,0.3,0.9,0.3c0.4,0,0.8-0.2,1.1-0.5c0.3-0.4,0.5-0.8,0.5-1.5c0-0.6-0.2-1.1-0.5-1.4  c-0.3-0.3-0.7-0.5-1.2-0.5c-0.5,0-0.9,0.2-1.2,0.5C218.6,278.8,218.4,279.3,218.4,279.8z"/>
<path d="M223.9,278.4c0-1,0.1-1.8,0.3-2.5s0.5-1.1,0.9-1.4c0.4-0.3,0.9-0.5,1.6-0.5c0.5,0,0.9,0.1,1.2,0.3c0.3,0.2,0.6,0.5,0.9,0.8  c0.2,0.3,0.4,0.8,0.5,1.3s0.2,1.2,0.2,2c0,1-0.1,1.8-0.3,2.4s-0.5,1.1-0.9,1.4s-0.9,0.5-1.6,0.5c-0.8,0-1.5-0.3-2-0.9  C224.2,281.2,223.9,280,223.9,278.4z M225,278.4c0,1.4,0.2,2.3,0.5,2.8c0.3,0.5,0.7,0.7,1.2,0.7c0.5,0,0.9-0.2,1.2-0.7  c0.3-0.5,0.5-1.4,0.5-2.8c0-1.4-0.2-2.4-0.5-2.8c-0.3-0.5-0.7-0.7-1.2-0.7c-0.5,0-0.9,0.2-1.2,0.6C225.2,276,225,277,225,278.4z"/>
<path d="M231.8,282.6h-1V274h1.1v3.1c0.4-0.6,1-0.8,1.7-0.8c0.4,0,0.7,0.1,1.1,0.2c0.3,0.2,0.6,0.4,0.8,0.7c0.2,0.3,0.4,0.6,0.5,1  s0.2,0.8,0.2,1.3c0,1.1-0.3,1.9-0.8,2.5c-0.5,0.6-1.2,0.9-1.9,0.9c-0.7,0-1.3-0.3-1.7-0.9V282.6z M231.8,279.5  c0,0.7,0.1,1.3,0.3,1.6c0.3,0.5,0.8,0.8,1.3,0.8c0.5,0,0.9-0.2,1.2-0.6c0.3-0.4,0.5-1,0.5-1.8c0-0.8-0.2-1.4-0.5-1.8  c-0.3-0.4-0.7-0.6-1.2-0.6c-0.5,0-0.9,0.2-1.2,0.6S231.8,278.7,231.8,279.5z"/>
<path d="M241.6,282.6v-0.8c-0.4,0.6-1,0.9-1.7,0.9c-0.5,0-1-0.1-1.4-0.4c-0.4-0.3-0.7-0.7-1-1.1c-0.2-0.5-0.3-1.1-0.3-1.7  c0-0.6,0.1-1.2,0.3-1.7s0.5-0.9,0.9-1.2c0.4-0.3,0.9-0.4,1.4-0.4c0.4,0,0.7,0.1,1,0.2s0.5,0.4,0.7,0.6V274h1v8.6H241.6z   M238.2,279.5c0,0.8,0.2,1.4,0.5,1.8c0.3,0.4,0.7,0.6,1.2,0.6c0.5,0,0.9-0.2,1.2-0.6c0.3-0.4,0.5-1,0.5-1.7c0-0.9-0.2-1.5-0.5-1.9  c-0.3-0.4-0.7-0.6-1.2-0.6c-0.5,0-0.9,0.2-1.2,0.6C238.4,278.1,238.2,278.7,238.2,279.5z"/>
<path d="M244.5,282.6v-5.4h-0.9v-0.8h0.9v-0.7c0-0.4,0-0.7,0.1-0.9c0.1-0.3,0.3-0.5,0.5-0.7c0.3-0.2,0.6-0.3,1.1-0.3  c0.3,0,0.6,0,1,0.1l-0.2,0.9c-0.2,0-0.4-0.1-0.6-0.1c-0.3,0-0.5,0.1-0.7,0.2s-0.2,0.4-0.2,0.8v0.6h1.2v0.8h-1.2v5.4H244.5z"/>
<path d="M187.2,296.1l3.3-8.6h1.2l3.5,8.6h-1.3l-1-2.6h-3.6l-0.9,2.6H187.2z M189.6,292.6h2.9l-0.9-2.4c-0.3-0.7-0.5-1.3-0.6-1.8  c-0.1,0.6-0.3,1.1-0.5,1.6L189.6,292.6z"/>
<path d="M195.7,293.4l1.1-0.1c0.1,0.4,0.2,0.8,0.4,1.1c0.2,0.3,0.5,0.5,0.9,0.7c0.4,0.2,0.8,0.3,1.3,0.3c0.4,0,0.8-0.1,1.1-0.2  c0.3-0.1,0.6-0.3,0.7-0.5s0.2-0.5,0.2-0.7c0-0.3-0.1-0.5-0.2-0.7s-0.4-0.4-0.8-0.5c-0.2-0.1-0.7-0.2-1.5-0.4s-1.3-0.4-1.7-0.5  c-0.4-0.2-0.7-0.5-0.9-0.8s-0.3-0.7-0.3-1.1c0-0.4,0.1-0.8,0.4-1.2s0.6-0.7,1.1-0.9s1-0.3,1.6-0.3c0.6,0,1.2,0.1,1.7,0.3  c0.5,0.2,0.9,0.5,1.1,0.9c0.3,0.4,0.4,0.8,0.4,1.4l-1.1,0.1c-0.1-0.5-0.3-1-0.6-1.2c-0.3-0.3-0.8-0.4-1.5-0.4  c-0.7,0-1.2,0.1-1.5,0.4s-0.5,0.6-0.5,0.9c0,0.3,0.1,0.6,0.3,0.8c0.2,0.2,0.8,0.4,1.7,0.6s1.6,0.4,1.9,0.5c0.5,0.2,0.9,0.5,1.1,0.9  c0.2,0.4,0.4,0.8,0.4,1.2c0,0.5-0.1,0.9-0.4,1.3c-0.3,0.4-0.6,0.7-1.1,0.9c-0.5,0.2-1,0.3-1.7,0.3c-0.8,0-1.4-0.1-2-0.3  c-0.5-0.2-0.9-0.6-1.2-1S195.7,293.9,195.7,293.4z"/>
<path d="M203.7,293.4l1.1-0.1c0.1,0.4,0.2,0.8,0.4,1.1c0.2,0.3,0.5,0.5,0.9,0.7c0.4,0.2,0.8,0.3,1.3,0.3c0.4,0,0.8-0.1,1.1-0.2  c0.3-0.1,0.6-0.3,0.7-0.5s0.2-0.5,0.2-0.7c0-0.3-0.1-0.5-0.2-0.7s-0.4-0.4-0.8-0.5c-0.2-0.1-0.7-0.2-1.5-0.4s-1.3-0.4-1.7-0.5  c-0.4-0.2-0.7-0.5-0.9-0.8s-0.3-0.7-0.3-1.1c0-0.4,0.1-0.8,0.4-1.2s0.6-0.7,1.1-0.9s1-0.3,1.6-0.3c0.6,0,1.2,0.1,1.7,0.3  c0.5,0.2,0.9,0.5,1.1,0.9c0.3,0.4,0.4,0.8,0.4,1.4l-1.1,0.1c-0.1-0.5-0.3-1-0.6-1.2c-0.3-0.3-0.8-0.4-1.5-0.4  c-0.7,0-1.2,0.1-1.5,0.4s-0.5,0.6-0.5,0.9c0,0.3,0.1,0.6,0.3,0.8c0.2,0.2,0.8,0.4,1.7,0.6s1.6,0.4,1.9,0.5c0.5,0.2,0.9,0.5,1.1,0.9  c0.2,0.4,0.4,0.8,0.4,1.2c0,0.5-0.1,0.9-0.4,1.3c-0.3,0.4-0.6,0.7-1.1,0.9c-0.5,0.2-1,0.3-1.7,0.3c-0.8,0-1.4-0.1-2-0.3  c-0.5-0.2-0.9-0.6-1.2-1S203.7,293.9,203.7,293.4z"/>
<path d="M212.1,296.1v-8.6h6.2v1h-5.1v2.6h4.8v1h-4.8v2.9h5.3v1H212.1z"/>
<path d="M220.1,296.1v-8.6h3.8c0.8,0,1.3,0.1,1.7,0.2s0.7,0.4,1,0.8s0.4,0.8,0.4,1.3c0,0.6-0.2,1.1-0.6,1.5c-0.4,0.4-1,0.7-1.8,0.8  c0.3,0.1,0.5,0.3,0.7,0.4c0.3,0.3,0.6,0.7,0.9,1.1l1.5,2.3h-1.4l-1.1-1.8c-0.3-0.5-0.6-0.9-0.8-1.2s-0.4-0.5-0.6-0.6  c-0.2-0.1-0.3-0.2-0.5-0.2c-0.1,0-0.3,0-0.6,0h-1.3v3.8H220.1z M221.3,291.3h2.4c0.5,0,0.9-0.1,1.2-0.2c0.3-0.1,0.5-0.3,0.7-0.5  s0.2-0.5,0.2-0.8c0-0.4-0.1-0.7-0.4-1s-0.8-0.4-1.4-0.4h-2.7V291.3z"/>
<path d="M230.7,296.1v-7.6h-2.8v-1h6.8v1h-2.8v7.6H230.7z"/>
<path d="M236.1,296.1v-8.6h1.1v8.6H236.1z"/>
<path d="M238.9,291.9c0-1.4,0.4-2.5,1.1-3.3c0.8-0.8,1.8-1.2,3-1.2c0.8,0,1.5,0.2,2.1,0.6c0.6,0.4,1.1,0.9,1.5,1.6  c0.3,0.7,0.5,1.4,0.5,2.3c0,0.9-0.2,1.7-0.5,2.3c-0.4,0.7-0.8,1.2-1.5,1.6c-0.6,0.4-1.3,0.5-2.1,0.5c-0.8,0-1.5-0.2-2.2-0.6  c-0.6-0.4-1.1-0.9-1.4-1.6S238.9,292.7,238.9,291.9z M240,292c0,1,0.3,1.9,0.8,2.4s1.3,0.9,2.1,0.9c0.9,0,1.6-0.3,2.1-0.9  c0.6-0.6,0.8-1.5,0.8-2.6c0-0.7-0.1-1.3-0.4-1.8s-0.6-0.9-1-1.2s-1-0.4-1.5-0.4c-0.8,0-1.5,0.3-2.1,0.8  C240.3,289.7,240,290.7,240,292z"/>
<path d="M248.5,296.1v-8.6h1.2l4.5,6.7v-6.7h1.1v8.6h-1.2l-4.5-6.8v6.8H248.5z"/>
<rect x="187.2" y="272.1" fill-rule="evenodd" fill="none" width="69" height="27"/>
<rect x="355" y="224.9" fill="none" stroke="#000000" stroke-width="2.2496" width="144.8" height="42"/>
<path d="M401.3,235.4v-1h5.6v0.8c-0.5,0.6-1.1,1.4-1.6,2.3s-1,2-1.2,3c-0.2,0.7-0.3,1.5-0.4,2.4h-1.1c0-0.7,0.1-1.5,0.4-2.4  s0.6-1.9,1.1-2.8s1-1.6,1.5-2.2H401.3z"/>
<path d="M407.9,238.6c0-1,0.1-1.8,0.3-2.5s0.5-1.1,0.9-1.4s0.9-0.5,1.6-0.5c0.5,0,0.9,0.1,1.2,0.3s0.6,0.5,0.9,0.8s0.4,0.8,0.5,1.3  s0.2,1.2,0.2,2c0,1-0.1,1.8-0.3,2.4s-0.5,1.1-0.9,1.4s-0.9,0.5-1.6,0.5c-0.8,0-1.5-0.3-2-0.9C408.1,241.4,407.9,240.3,407.9,238.6z   M408.9,238.6c0,1.4,0.2,2.3,0.5,2.8s0.7,0.7,1.2,0.7c0.5,0,0.9-0.2,1.2-0.7s0.5-1.4,0.5-2.8c0-1.4-0.2-2.4-0.5-2.8  s-0.7-0.7-1.2-0.7c-0.5,0-0.9,0.2-1.2,0.6C409.1,236.3,408.9,237.2,408.9,238.6z"/>
<path d="M414.7,240.9l1-0.1c0.1,0.5,0.2,0.8,0.5,1s0.6,0.3,0.9,0.3c0.3,0,0.6-0.1,0.9-0.2c0.2-0.1,0.4-0.3,0.6-0.6s0.3-0.6,0.4-1  s0.2-0.9,0.2-1.3c0,0,0-0.1,0-0.2c-0.2,0.3-0.5,0.6-0.9,0.8s-0.8,0.3-1.2,0.3c-0.7,0-1.3-0.3-1.8-0.8c-0.5-0.5-0.7-1.2-0.7-2  c0-0.9,0.3-1.6,0.8-2.1c0.5-0.5,1.2-0.8,1.9-0.8c0.6,0,1.1,0.2,1.5,0.5s0.8,0.7,1.1,1.3s0.4,1.4,0.4,2.4c0,1.1-0.1,2-0.4,2.6  s-0.6,1.1-1.1,1.5s-1,0.5-1.7,0.5c-0.7,0-1.2-0.2-1.6-0.6C415,242.1,414.8,241.6,414.7,240.9z M419,237.1c0-0.6-0.2-1.1-0.5-1.4  s-0.7-0.5-1.2-0.5c-0.5,0-0.9,0.2-1.2,0.6s-0.5,0.9-0.5,1.5c0,0.5,0.2,1,0.5,1.3s0.7,0.5,1.2,0.5c0.5,0,0.9-0.2,1.2-0.5  S419,237.7,419,237.1z"/>
<path d="M426.7,241.9v1h-5.7c0-0.3,0-0.5,0.1-0.7c0.1-0.4,0.4-0.8,0.7-1.1c0.3-0.4,0.8-0.8,1.4-1.3c0.9-0.8,1.6-1.4,1.9-1.8  s0.5-0.9,0.5-1.3c0-0.4-0.1-0.8-0.4-1.1s-0.7-0.4-1.2-0.4c-0.5,0-0.9,0.2-1.2,0.5s-0.5,0.7-0.5,1.3l-1.1-0.1  c0.1-0.8,0.4-1.4,0.8-1.8c0.5-0.4,1.1-0.6,2-0.6c0.8,0,1.5,0.2,2,0.7s0.7,1,0.7,1.7c0,0.3-0.1,0.7-0.2,1s-0.4,0.7-0.7,1  s-0.9,0.9-1.6,1.5c-0.6,0.5-1,0.9-1.2,1.1s-0.3,0.4-0.4,0.6H426.7z"/>
<path d="M432.2,242.9v-0.8c-0.4,0.6-1,0.9-1.7,0.9c-0.5,0-1-0.1-1.4-0.4s-0.7-0.7-1-1.1s-0.3-1.1-0.3-1.7c0-0.6,0.1-1.2,0.3-1.7  s0.5-0.9,0.9-1.2s0.9-0.4,1.4-0.4c0.4,0,0.7,0.1,1,0.2c0.3,0.2,0.5,0.4,0.7,0.6v-3.1h1v8.6H432.2z M428.9,239.8  c0,0.8,0.2,1.4,0.5,1.8s0.7,0.6,1.2,0.6c0.5,0,0.9-0.2,1.2-0.6s0.5-1,0.5-1.7c0-0.9-0.2-1.5-0.5-1.9s-0.7-0.6-1.2-0.6  c-0.5,0-0.9,0.2-1.2,0.6S428.9,238.9,428.9,239.8z"/>
<path d="M440,236.4l-1,0.1c-0.1-0.4-0.2-0.7-0.4-0.9c-0.3-0.3-0.6-0.5-1.1-0.5c-0.3,0-0.6,0.1-0.9,0.3c-0.3,0.2-0.6,0.6-0.8,1.1  s-0.3,1.1-0.3,2c0.3-0.4,0.6-0.7,0.9-0.9s0.8-0.3,1.2-0.3c0.7,0,1.3,0.3,1.8,0.8s0.7,1.2,0.7,2c0,0.5-0.1,1-0.3,1.5s-0.6,0.8-1,1.1  s-0.9,0.4-1.4,0.4c-0.9,0-1.6-0.3-2.2-1c-0.6-0.6-0.8-1.7-0.8-3.2c0-1.7,0.3-2.9,0.9-3.6c0.5-0.7,1.3-1,2.2-1c0.7,0,1.2,0.2,1.7,0.6  S439.9,235.7,440,236.4z M435.7,240.1c0,0.4,0.1,0.7,0.2,1s0.4,0.6,0.6,0.8s0.6,0.3,0.9,0.3c0.4,0,0.8-0.2,1.1-0.5s0.5-0.8,0.5-1.5  c0-0.6-0.2-1.1-0.5-1.4s-0.7-0.5-1.2-0.5c-0.5,0-0.9,0.2-1.2,0.5S435.7,239.5,435.7,240.1z"/>
<path d="M446.8,241.9v1h-5.7c0-0.3,0-0.5,0.1-0.7c0.1-0.4,0.4-0.8,0.7-1.1c0.3-0.4,0.8-0.8,1.4-1.3c0.9-0.8,1.6-1.4,1.9-1.8  s0.5-0.9,0.5-1.3c0-0.4-0.1-0.8-0.4-1.1s-0.7-0.4-1.2-0.4c-0.5,0-0.9,0.2-1.2,0.5s-0.5,0.7-0.5,1.3l-1.1-0.1  c0.1-0.8,0.4-1.4,0.8-1.8c0.5-0.4,1.1-0.6,2-0.6c0.8,0,1.5,0.2,2,0.7s0.7,1,0.7,1.7c0,0.3-0.1,0.7-0.2,1s-0.4,0.7-0.7,1  s-0.9,0.9-1.6,1.5c-0.6,0.5-1,0.9-1.2,1.1s-0.3,0.4-0.4,0.6H446.8z"/>
<path d="M447.9,238.6c0-1,0.1-1.8,0.3-2.5s0.5-1.1,0.9-1.4s0.9-0.5,1.6-0.5c0.5,0,0.9,0.1,1.2,0.3s0.6,0.5,0.9,0.8s0.4,0.8,0.5,1.3  s0.2,1.2,0.2,2c0,1-0.1,1.8-0.3,2.4s-0.5,1.1-0.9,1.4s-0.9,0.5-1.6,0.5c-0.8,0-1.5-0.3-2-0.9C448.2,241.4,447.9,240.3,447.9,238.6z   M449,238.6c0,1.4,0.2,2.3,0.5,2.8s0.7,0.7,1.2,0.7c0.5,0,0.9-0.2,1.2-0.7s0.5-1.4,0.5-2.8c0-1.4-0.2-2.4-0.5-2.8s-0.7-0.7-1.2-0.7  c-0.5,0-0.9,0.2-1.2,0.6C449.2,236.3,449,237.2,449,238.6z"/>
<path d="M407,250.8l-0.3-1.6v-1.4h1.2v1.4l-0.3,1.6H407z M408.9,250.8l-0.3-1.6v-1.4h1.2v1.4l-0.3,1.6H408.9z"/>
<path d="M411.2,256.4v-8.6h1.1v4.9l2.5-2.5h1.4l-2.4,2.3l2.6,3.9H415l-2.1-3.2l-0.7,0.7v2.5H411.2z"/>
<path d="M417.2,256.4v-6.2h0.9v0.9c0.5-0.7,1.1-1,2-1c0.4,0,0.7,0.1,1,0.2s0.5,0.3,0.7,0.5s0.3,0.5,0.3,0.8c0,0.2,0.1,0.5,0.1,1v3.8  h-1.1v-3.8c0-0.4,0-0.8-0.1-1s-0.2-0.4-0.4-0.5s-0.5-0.2-0.7-0.2c-0.4,0-0.8,0.1-1.2,0.4s-0.5,0.8-0.5,1.6v3.4H417.2z"/>
<path d="M423.4,253.3c0-1.2,0.3-2,1-2.6c0.5-0.5,1.2-0.7,2-0.7c0.9,0,1.6,0.3,2.1,0.8s0.8,1.3,0.8,2.3c0,0.8-0.1,1.4-0.4,1.9  s-0.6,0.8-1,1.1c-0.5,0.3-1,0.4-1.5,0.4c-0.9,0-1.6-0.3-2.1-0.8C423.7,255.1,423.4,254.3,423.4,253.3z M424.5,253.3  c0,0.8,0.2,1.4,0.5,1.8s0.8,0.6,1.3,0.6c0.5,0,1-0.2,1.3-0.6s0.5-1,0.5-1.8c0-0.8-0.2-1.4-0.5-1.7s-0.8-0.6-1.3-0.6  c-0.5,0-1,0.2-1.3,0.6S424.5,252.5,424.5,253.3z"/>
<path d="M431.7,256.4l-1.9-6.2h1.1l1,3.6l0.4,1.3c0-0.1,0.1-0.5,0.3-1.3l1-3.6h1.1l0.9,3.6l0.3,1.2l0.4-1.2l1.1-3.6h1l-1.9,6.2h-1.1  l-1-3.7l-0.2-1.1l-1.3,4.8H431.7z"/>
<path d="M438.7,254.5l1-0.2c0.1,0.4,0.2,0.7,0.5,1s0.6,0.3,1.1,0.3c0.5,0,0.8-0.1,1.1-0.3s0.4-0.4,0.4-0.7c0-0.2-0.1-0.4-0.3-0.6  c-0.1-0.1-0.5-0.2-1.1-0.4c-0.8-0.2-1.3-0.4-1.6-0.5c-0.3-0.1-0.5-0.3-0.7-0.6s-0.2-0.5-0.2-0.8c0-0.3,0.1-0.5,0.2-0.8  s0.3-0.4,0.5-0.6c0.2-0.1,0.4-0.2,0.7-0.3s0.6-0.1,0.9-0.1c0.5,0,0.9,0.1,1.3,0.2c0.4,0.1,0.6,0.3,0.8,0.6s0.3,0.6,0.4,1l-1,0.1  c0-0.3-0.2-0.6-0.4-0.8c-0.2-0.2-0.5-0.3-1-0.3c-0.5,0-0.8,0.1-1,0.2s-0.3,0.3-0.3,0.6c0,0.1,0,0.3,0.1,0.4c0.1,0.1,0.2,0.2,0.4,0.3  c0.1,0,0.4,0.1,0.9,0.3c0.7,0.2,1.3,0.4,1.6,0.5s0.5,0.3,0.7,0.6s0.3,0.5,0.3,0.9c0,0.4-0.1,0.7-0.3,1s-0.5,0.6-0.9,0.7  s-0.8,0.3-1.3,0.3c-0.8,0-1.4-0.2-1.8-0.5C439.1,255.7,438.9,255.2,438.7,254.5z"/>
<path d="M445.2,250.8l-0.3-1.6v-1.4h1.2v1.4l-0.3,1.6H445.2z M447.2,250.8l-0.3-1.6v-1.4h1.2v1.4l-0.3,1.6H447.2z"/>
<rect x="362.5" y="232.4" fill-rule="evenodd" fill="none" width="129.7" height="27"/>
<rect x="361.3" y="304.4" fill="none" stroke="#000000" stroke-width="2.2496" width="132.2" height="42"/>
<path d="M401.4,320.4l1-0.1c0.1,0.5,0.2,0.8,0.5,1s0.6,0.3,0.9,0.3c0.3,0,0.6-0.1,0.9-0.2c0.2-0.1,0.4-0.3,0.6-0.6s0.3-0.6,0.4-1  s0.2-0.9,0.2-1.3c0,0,0-0.1,0-0.2c-0.2,0.3-0.5,0.6-0.9,0.8s-0.8,0.3-1.2,0.3c-0.7,0-1.3-0.3-1.8-0.8c-0.5-0.5-0.7-1.2-0.7-2  c0-0.9,0.3-1.6,0.8-2.1c0.5-0.5,1.2-0.8,1.9-0.8c0.6,0,1.1,0.2,1.5,0.5s0.8,0.7,1.1,1.3s0.4,1.4,0.4,2.4c0,1.1-0.1,2-0.4,2.6  s-0.6,1.1-1.1,1.5s-1,0.5-1.7,0.5c-0.7,0-1.2-0.2-1.6-0.6C401.7,321.6,401.4,321.1,401.4,320.4z M405.7,316.6c0-0.6-0.2-1.1-0.5-1.4  s-0.7-0.5-1.2-0.5c-0.5,0-0.9,0.2-1.2,0.6s-0.5,0.9-0.5,1.5c0,0.5,0.2,1,0.5,1.3s0.7,0.5,1.2,0.5c0.5,0,0.9-0.2,1.2-0.5  S405.7,317.2,405.7,316.6z"/>
<path d="M412.2,321.6c-0.4,0.3-0.8,0.6-1.1,0.7c-0.4,0.1-0.7,0.2-1.2,0.2c-0.7,0-1.2-0.2-1.6-0.5c-0.4-0.3-0.6-0.8-0.6-1.3  c0-0.3,0.1-0.6,0.2-0.8s0.3-0.5,0.5-0.6c0.2-0.2,0.5-0.3,0.8-0.3c0.2-0.1,0.5-0.1,0.9-0.2c0.9-0.1,1.5-0.2,1.9-0.4  c0-0.1,0-0.2,0-0.3c0-0.4-0.1-0.7-0.3-0.9c-0.3-0.2-0.7-0.4-1.2-0.4c-0.5,0-0.9,0.1-1.1,0.3s-0.4,0.5-0.5,0.9l-1-0.1  c0.1-0.4,0.2-0.8,0.5-1.1c0.2-0.3,0.5-0.5,0.9-0.6s0.9-0.2,1.4-0.2c0.5,0,1,0.1,1.3,0.2s0.6,0.3,0.7,0.5s0.3,0.4,0.3,0.7  c0,0.2,0.1,0.5,0.1,1v1.4c0,1,0,1.6,0.1,1.9s0.1,0.5,0.3,0.7h-1.1C412.3,322.2,412.3,321.9,412.2,321.6z M412.1,319.3  c-0.4,0.2-1,0.3-1.7,0.4c-0.4,0.1-0.7,0.1-0.9,0.2s-0.3,0.2-0.4,0.3s-0.1,0.3-0.1,0.5c0,0.3,0.1,0.5,0.3,0.7s0.5,0.3,0.9,0.3  c0.4,0,0.8-0.1,1.1-0.3c0.3-0.2,0.5-0.4,0.7-0.7c0.1-0.2,0.2-0.6,0.2-1.1V319.3z"/>
<path d="M414.6,314.9v-1h5.6v0.8c-0.5,0.6-1.1,1.4-1.6,2.3s-1,2-1.2,3c-0.2,0.7-0.3,1.5-0.4,2.4h-1.1c0-0.7,0.1-1.5,0.4-2.4  s0.6-1.9,1.1-2.8s1-1.6,1.5-2.2H414.6z"/>
<path d="M421.3,314.9v-1h5.6v0.8c-0.5,0.6-1.1,1.4-1.6,2.3s-1,2-1.2,3c-0.2,0.7-0.3,1.5-0.4,2.4h-1.1c0-0.7,0.1-1.5,0.4-2.4  s0.6-1.9,1.1-2.8s1-1.6,1.5-2.2H421.3z"/>
<path d="M431.9,322.4h-1.1v-6.7c-0.3,0.2-0.6,0.5-1,0.7s-0.8,0.4-1.1,0.5v-1c0.6-0.3,1.1-0.6,1.5-1s0.8-0.8,0.9-1.1h0.7V322.4z"/>
<path d="M434.6,314.9v-1h5.6v0.8c-0.5,0.6-1.1,1.4-1.6,2.3s-1,2-1.2,3c-0.2,0.7-0.3,1.5-0.4,2.4h-1.1c0-0.7,0.1-1.5,0.4-2.4  s0.6-1.9,1.1-2.8s1-1.6,1.5-2.2H434.6z"/>
<path d="M445.2,322.4h-1.1v-6.7c-0.3,0.2-0.6,0.5-1,0.7s-0.8,0.4-1.1,0.5v-1c0.6-0.3,1.1-0.6,1.5-1s0.8-0.8,0.9-1.1h0.7V322.4z"/>
<path d="M447.9,320.1l1.1-0.1c0.1,0.5,0.3,0.9,0.6,1.2s0.7,0.4,1.1,0.4c0.5,0,0.9-0.2,1.3-0.6s0.5-0.9,0.5-1.5  c0-0.6-0.2-1.1-0.5-1.4s-0.8-0.5-1.3-0.5c-0.3,0-0.6,0.1-0.9,0.2s-0.5,0.4-0.6,0.6l-1-0.1l0.8-4.4h4.3v1h-3.4l-0.5,2.3  c0.5-0.4,1.1-0.5,1.6-0.5c0.7,0,1.4,0.3,1.9,0.8s0.8,1.2,0.8,2c0,0.8-0.2,1.4-0.7,2c-0.6,0.7-1.3,1-2.3,1c-0.8,0-1.4-0.2-1.9-0.7  C448.2,321.4,448,320.8,447.9,320.1z"/>
<path d="M413.3,330.3l-0.3-1.6v-1.4h1.2v1.4l-0.3,1.6H413.3z M415.2,330.3l-0.3-1.6v-1.4h1.2v1.4l-0.3,1.6H415.2z"/>
<path d="M417.6,335.9v-8.6h3.2c0.7,0,1.2,0.1,1.6,0.3s0.7,0.4,0.9,0.8s0.3,0.7,0.3,1.1c0,0.4-0.1,0.7-0.3,1s-0.5,0.6-0.9,0.8  c0.5,0.2,0.9,0.4,1.2,0.8s0.4,0.8,0.4,1.3c0,0.4-0.1,0.8-0.3,1.1s-0.4,0.6-0.6,0.8c-0.2,0.2-0.6,0.3-0.9,0.4s-0.8,0.1-1.4,0.1H417.6  z M418.7,330.9h1.9c0.5,0,0.9,0,1.1-0.1c0.3-0.1,0.5-0.2,0.7-0.4s0.2-0.4,0.2-0.8c0-0.3-0.1-0.5-0.2-0.8s-0.3-0.4-0.6-0.4  s-0.7-0.1-1.3-0.1h-1.7V330.9z M418.7,334.9h2.1c0.4,0,0.6,0,0.8,0c0.3,0,0.5-0.1,0.7-0.2s0.3-0.3,0.4-0.5s0.2-0.5,0.2-0.7  c0-0.3-0.1-0.6-0.2-0.8s-0.4-0.4-0.7-0.5s-0.7-0.1-1.3-0.1h-2V334.9z"/>
<path d="M425.1,332.8c0-1.2,0.3-2,1-2.6c0.5-0.5,1.2-0.7,2-0.7c0.9,0,1.6,0.3,2.1,0.8s0.8,1.3,0.8,2.3c0,0.8-0.1,1.4-0.4,1.9  s-0.6,0.8-1,1.1s-1,0.4-1.5,0.4c-0.9,0-1.6-0.3-2.1-0.8C425.4,334.6,425.1,333.8,425.1,332.8z M426.2,332.8c0,0.8,0.2,1.4,0.5,1.8  s0.8,0.6,1.3,0.6c0.5,0,1-0.2,1.3-0.6s0.5-1,0.5-1.8c0-0.8-0.2-1.4-0.5-1.7s-0.8-0.6-1.3-0.6c-0.5,0-1,0.2-1.3,0.6  S426.2,332,426.2,332.8z"/>
<path d="M433.1,335.9h-1v-8.6h1.1v3.1c0.4-0.6,1-0.8,1.7-0.8c0.4,0,0.7,0.1,1.1,0.2s0.6,0.4,0.8,0.7s0.4,0.6,0.5,1s0.2,0.8,0.2,1.3  c0,1.1-0.3,1.9-0.8,2.5s-1.2,0.9-1.9,0.9c-0.7,0-1.3-0.3-1.7-0.9V335.9z M433.1,332.7c0,0.7,0.1,1.3,0.3,1.6  c0.3,0.5,0.8,0.8,1.3,0.8c0.5,0,0.9-0.2,1.2-0.6s0.5-1,0.5-1.8c0-0.8-0.2-1.4-0.5-1.8s-0.7-0.6-1.2-0.6c-0.5,0-0.9,0.2-1.2,0.6  S433.1,332,433.1,332.7z"/>
<path d="M438.9,330.3l-0.3-1.6v-1.4h1.2v1.4l-0.3,1.6H438.9z M440.8,330.3l-0.3-1.6v-1.4h1.2v1.4l-0.3,1.6H440.8z"/>
<rect x="368.8" y="311.9" fill-rule="evenodd" fill="none" width="117" height="27"/>
<path fill="none" stroke="#000000" stroke-width="2.2496" d="M195.4,423.6H248c0.7,0,1.4,0,2.1,0.1s1.4,0.2,2,0.3  c0.7,0.1,1.3,0.3,2,0.5c0.7,0.2,1.3,0.4,1.9,0.7c0.6,0.3,1.3,0.6,1.9,0.9c0.6,0.3,1.2,0.7,1.8,1.1c0.6,0.4,1.1,0.8,1.7,1.2  s1,0.9,1.5,1.4s0.9,1,1.4,1.5c0.4,0.5,0.8,1.1,1.2,1.7c0.4,0.6,0.7,1.2,1.1,1.8s0.6,1.2,0.9,1.9c0.3,0.6,0.5,1.3,0.7,1.9  c0.2,0.7,0.4,1.3,0.5,2s0.2,1.4,0.3,2c0.1,0.7,0.1,1.4,0.1,2.1s0,1.4-0.1,2.1c-0.1,0.7-0.2,1.4-0.3,2s-0.3,1.3-0.5,2  c-0.2,0.7-0.4,1.3-0.7,1.9c-0.3,0.6-0.6,1.3-0.9,1.9c-0.3,0.6-0.7,1.2-1.1,1.8c-0.4,0.6-0.8,1.1-1.2,1.7c-0.4,0.5-0.9,1-1.4,1.5  s-1,0.9-1.5,1.4s-1.1,0.8-1.7,1.2c-0.6,0.4-1.2,0.7-1.8,1.1c-0.6,0.3-1.2,0.6-1.9,0.9c-0.6,0.3-1.3,0.5-1.9,0.7  c-0.7,0.2-1.3,0.4-2,0.5c-0.7,0.1-1.4,0.2-2,0.3s-1.4,0.1-2.1,0.1h-52.6c-0.7,0-1.4,0-2.1-0.1s-1.4-0.2-2-0.3  c-0.7-0.1-1.3-0.3-2-0.5c-0.7-0.2-1.3-0.4-1.9-0.7c-0.6-0.3-1.3-0.6-1.9-0.9c-0.6-0.3-1.2-0.7-1.8-1.1c-0.6-0.4-1.1-0.8-1.7-1.2  c-0.5-0.4-1-0.9-1.5-1.4s-0.9-1-1.4-1.5c-0.4-0.5-0.8-1.1-1.2-1.7c-0.4-0.6-0.7-1.2-1.1-1.8s-0.6-1.2-0.9-1.9  c-0.3-0.6-0.5-1.3-0.7-1.9c-0.2-0.7-0.4-1.3-0.5-2s-0.2-1.4-0.3-2c-0.1-0.7-0.1-1.4-0.1-2.1s0-1.4,0.1-2.1c0.1-0.7,0.2-1.4,0.3-2  s0.3-1.3,0.5-2c0.2-0.7,0.4-1.3,0.7-1.9c0.3-0.6,0.6-1.3,0.9-1.9c0.3-0.6,0.7-1.2,1.1-1.8c0.4-0.6,0.8-1.1,1.2-1.7  c0.4-0.5,0.9-1,1.4-1.5s1-0.9,1.5-1.4c0.5-0.4,1.1-0.8,1.7-1.2c0.6-0.4,1.2-0.7,1.8-1.1c0.6-0.3,1.2-0.6,1.9-0.9  c0.6-0.3,1.3-0.5,1.9-0.7c0.7-0.2,1.3-0.4,2-0.5c0.7-0.1,1.4-0.2,2-0.3S194.7,423.6,195.4,423.6z"/>
<path d="M195.6,434.2v-1h5.6v0.8c-0.5,0.6-1.1,1.4-1.6,2.3c-0.5,1-1,2-1.2,3c-0.2,0.7-0.3,1.5-0.4,2.4h-1.1c0-0.7,0.1-1.5,0.4-2.4  s0.6-1.9,1.1-2.8c0.5-0.9,1-1.6,1.5-2.2H195.6z"/>
<path d="M206.2,441.6h-1.1v-6.7c-0.3,0.2-0.6,0.5-1,0.7s-0.8,0.4-1.1,0.5v-1c0.6-0.3,1.1-0.6,1.5-1c0.4-0.4,0.8-0.8,0.9-1.1h0.7  V441.6z"/>
<path d="M213.2,440.9c-0.4,0.3-0.8,0.6-1.1,0.7s-0.7,0.2-1.2,0.2c-0.7,0-1.2-0.2-1.6-0.5s-0.6-0.8-0.6-1.3c0-0.3,0.1-0.6,0.2-0.8  c0.1-0.3,0.3-0.5,0.5-0.6s0.5-0.3,0.8-0.3c0.2-0.1,0.5-0.1,0.9-0.2c0.9-0.1,1.5-0.2,1.9-0.4c0-0.1,0-0.2,0-0.3  c0-0.4-0.1-0.7-0.3-0.9c-0.3-0.2-0.7-0.4-1.2-0.4c-0.5,0-0.9,0.1-1.1,0.3s-0.4,0.5-0.5,0.9l-1-0.1c0.1-0.4,0.2-0.8,0.5-1.1  s0.5-0.5,0.9-0.6c0.4-0.1,0.9-0.2,1.4-0.2c0.5,0,1,0.1,1.3,0.2s0.6,0.3,0.7,0.5c0.2,0.2,0.3,0.4,0.3,0.7c0,0.2,0.1,0.5,0.1,1v1.4  c0,1,0,1.6,0.1,1.9s0.1,0.5,0.3,0.7h-1.1C213.3,441.4,213.3,441.2,213.2,440.9z M213.1,438.5c-0.4,0.2-1,0.3-1.7,0.4  c-0.4,0.1-0.7,0.1-0.9,0.2s-0.3,0.2-0.4,0.3c-0.1,0.2-0.1,0.3-0.1,0.5c0,0.3,0.1,0.5,0.3,0.7c0.2,0.2,0.5,0.3,0.9,0.3  c0.4,0,0.8-0.1,1.1-0.3s0.5-0.4,0.7-0.7c0.1-0.2,0.2-0.6,0.2-1.1V438.5z"/>
<path d="M215.6,439.4l1.1-0.1c0.1,0.6,0.3,1,0.6,1.3s0.6,0.4,1.1,0.4c0.5,0,0.9-0.2,1.3-0.5c0.3-0.3,0.5-0.8,0.5-1.3  c0-0.5-0.2-0.9-0.5-1.2c-0.3-0.3-0.7-0.5-1.2-0.5c-0.2,0-0.4,0-0.7,0.1l0.1-0.9c0.1,0,0.1,0,0.2,0c0.4,0,0.9-0.1,1.2-0.4  c0.4-0.2,0.5-0.6,0.5-1.1c0-0.4-0.1-0.7-0.4-1c-0.3-0.3-0.6-0.4-1-0.4c-0.4,0-0.8,0.1-1,0.4s-0.4,0.6-0.5,1.2l-1.1-0.2  c0.1-0.7,0.4-1.3,0.9-1.6c0.5-0.4,1-0.6,1.7-0.6c0.5,0,0.9,0.1,1.3,0.3c0.4,0.2,0.7,0.5,0.9,0.8c0.2,0.3,0.3,0.7,0.3,1.1  c0,0.4-0.1,0.7-0.3,1s-0.5,0.5-0.9,0.7c0.5,0.1,0.9,0.4,1.2,0.7c0.3,0.4,0.4,0.8,0.4,1.4c0,0.8-0.3,1.4-0.8,1.9  c-0.5,0.5-1.2,0.8-2.1,0.8c-0.8,0-1.4-0.2-1.9-0.7S215.6,440.1,215.6,439.4z"/>
<path d="M222.2,437.4c0-1,0.1-1.8,0.3-2.5s0.5-1.1,0.9-1.4c0.4-0.3,0.9-0.5,1.6-0.5c0.5,0,0.9,0.1,1.2,0.3c0.3,0.2,0.6,0.5,0.9,0.8  c0.2,0.3,0.4,0.8,0.5,1.3s0.2,1.2,0.2,2c0,1-0.1,1.8-0.3,2.4s-0.5,1.1-0.9,1.4s-0.9,0.5-1.6,0.5c-0.8,0-1.5-0.3-2-0.9  C222.5,440.2,222.2,439,222.2,437.4z M223.3,437.4c0,1.4,0.2,2.3,0.5,2.8c0.3,0.5,0.7,0.7,1.2,0.7c0.5,0,0.9-0.2,1.2-0.7  c0.3-0.5,0.5-1.4,0.5-2.8c0-1.4-0.2-2.4-0.5-2.8c-0.3-0.5-0.7-0.7-1.2-0.7c-0.5,0-0.9,0.2-1.2,0.6C223.5,435,223.3,436,223.3,437.4z  "/>
<path d="M234.4,435.1l-1,0.1c-0.1-0.4-0.2-0.7-0.4-0.9c-0.3-0.3-0.6-0.5-1.1-0.5c-0.3,0-0.6,0.1-0.9,0.3c-0.3,0.2-0.6,0.6-0.8,1.1  c-0.2,0.5-0.3,1.1-0.3,2c0.3-0.4,0.6-0.7,0.9-0.9s0.8-0.3,1.2-0.3c0.7,0,1.3,0.3,1.8,0.8c0.5,0.5,0.7,1.2,0.7,2c0,0.5-0.1,1-0.3,1.5  c-0.2,0.5-0.6,0.8-1,1.1s-0.9,0.4-1.4,0.4c-0.9,0-1.6-0.3-2.1-1c-0.6-0.6-0.8-1.7-0.8-3.2c0-1.7,0.3-2.9,0.9-3.6  c0.5-0.7,1.3-1,2.2-1c0.7,0,1.2,0.2,1.7,0.6C234,433.9,234.3,434.5,234.4,435.1z M230.1,438.8c0,0.4,0.1,0.7,0.2,1  c0.2,0.3,0.4,0.6,0.6,0.8s0.6,0.3,0.9,0.3c0.4,0,0.8-0.2,1.1-0.5c0.3-0.4,0.5-0.8,0.5-1.5c0-0.6-0.2-1.1-0.5-1.4  c-0.3-0.3-0.7-0.5-1.2-0.5c-0.5,0-0.9,0.2-1.2,0.5C230.2,437.8,230.1,438.3,230.1,438.8z"/>
<path d="M235.7,439.6l1-0.1c0.1,0.5,0.2,0.8,0.5,1s0.6,0.3,0.9,0.3c0.3,0,0.6-0.1,0.9-0.2s0.4-0.3,0.6-0.6s0.3-0.6,0.4-1  s0.2-0.9,0.2-1.3c0,0,0-0.1,0-0.2c-0.2,0.3-0.5,0.6-0.9,0.8c-0.4,0.2-0.8,0.3-1.2,0.3c-0.7,0-1.3-0.3-1.8-0.8s-0.7-1.2-0.7-2  c0-0.9,0.3-1.6,0.8-2.1c0.5-0.5,1.2-0.8,1.9-0.8c0.6,0,1.1,0.2,1.5,0.5c0.5,0.3,0.8,0.7,1.1,1.3c0.2,0.6,0.4,1.4,0.4,2.4  c0,1.1-0.1,2-0.4,2.6c-0.2,0.7-0.6,1.1-1.1,1.5c-0.5,0.3-1,0.5-1.7,0.5c-0.7,0-1.2-0.2-1.6-0.6C236.1,440.8,235.8,440.3,235.7,439.6  z M240,435.8c0-0.6-0.2-1.1-0.5-1.4c-0.3-0.4-0.7-0.5-1.2-0.5c-0.5,0-0.9,0.2-1.2,0.6s-0.5,0.9-0.5,1.5c0,0.5,0.2,1,0.5,1.3  c0.3,0.3,0.7,0.5,1.2,0.5c0.5,0,0.9-0.2,1.2-0.5C239.9,436.9,240,436.5,240,435.8z"/>
<path d="M242.2,437.4c0-1,0.1-1.8,0.3-2.5s0.5-1.1,0.9-1.4c0.4-0.3,0.9-0.5,1.6-0.5c0.5,0,0.9,0.1,1.2,0.3c0.3,0.2,0.6,0.5,0.9,0.8  c0.2,0.3,0.4,0.8,0.5,1.3s0.2,1.2,0.2,2c0,1-0.1,1.8-0.3,2.4s-0.5,1.1-0.9,1.4s-0.9,0.5-1.6,0.5c-0.8,0-1.5-0.3-2-0.9  C242.5,440.2,242.2,439,242.2,437.4z M243.3,437.4c0,1.4,0.2,2.3,0.5,2.8c0.3,0.5,0.7,0.7,1.2,0.7c0.5,0,0.9-0.2,1.2-0.7  c0.3-0.5,0.5-1.4,0.5-2.8c0-1.4-0.2-2.4-0.5-2.8c-0.3-0.5-0.7-0.7-1.2-0.7c-0.5,0-0.9,0.2-1.2,0.6C243.5,435,243.3,436,243.3,437.4z  "/>
<path d="M187.2,455.1l3.3-8.6h1.2l3.5,8.6h-1.3l-1-2.6h-3.6l-0.9,2.6H187.2z M189.6,451.6h2.9l-0.9-2.4c-0.3-0.7-0.5-1.3-0.6-1.8  c-0.1,0.6-0.3,1.1-0.5,1.6L189.6,451.6z"/>
<path d="M195.7,452.4l1.1-0.1c0.1,0.4,0.2,0.8,0.4,1.1c0.2,0.3,0.5,0.5,0.9,0.7c0.4,0.2,0.8,0.3,1.3,0.3c0.4,0,0.8-0.1,1.1-0.2  c0.3-0.1,0.6-0.3,0.7-0.5s0.2-0.5,0.2-0.7c0-0.3-0.1-0.5-0.2-0.7s-0.4-0.4-0.8-0.5c-0.2-0.1-0.7-0.2-1.5-0.4s-1.3-0.4-1.7-0.5  c-0.4-0.2-0.7-0.5-0.9-0.8s-0.3-0.7-0.3-1.1c0-0.4,0.1-0.8,0.4-1.2s0.6-0.7,1.1-0.9s1-0.3,1.6-0.3c0.6,0,1.2,0.1,1.7,0.3  c0.5,0.2,0.9,0.5,1.1,0.9c0.3,0.4,0.4,0.8,0.4,1.4l-1.1,0.1c-0.1-0.5-0.3-1-0.6-1.2c-0.3-0.3-0.8-0.4-1.5-0.4  c-0.7,0-1.2,0.1-1.5,0.4s-0.5,0.6-0.5,0.9c0,0.3,0.1,0.6,0.3,0.8c0.2,0.2,0.8,0.4,1.7,0.6s1.6,0.4,1.9,0.5c0.5,0.2,0.9,0.5,1.1,0.9  c0.2,0.4,0.4,0.8,0.4,1.2c0,0.5-0.1,0.9-0.4,1.3c-0.3,0.4-0.6,0.7-1.1,0.9c-0.5,0.2-1,0.3-1.7,0.3c-0.8,0-1.4-0.1-2-0.3  c-0.5-0.2-0.9-0.6-1.2-1S195.7,452.9,195.7,452.4z"/>
<path d="M203.7,452.4l1.1-0.1c0.1,0.4,0.2,0.8,0.4,1.1c0.2,0.3,0.5,0.5,0.9,0.7c0.4,0.2,0.8,0.3,1.3,0.3c0.4,0,0.8-0.1,1.1-0.2  c0.3-0.1,0.6-0.3,0.7-0.5s0.2-0.5,0.2-0.7c0-0.3-0.1-0.5-0.2-0.7s-0.4-0.4-0.8-0.5c-0.2-0.1-0.7-0.2-1.5-0.4s-1.3-0.4-1.7-0.5  c-0.4-0.2-0.7-0.5-0.9-0.8s-0.3-0.7-0.3-1.1c0-0.4,0.1-0.8,0.4-1.2s0.6-0.7,1.1-0.9s1-0.3,1.6-0.3c0.6,0,1.2,0.1,1.7,0.3  c0.5,0.2,0.9,0.5,1.1,0.9c0.3,0.4,0.4,0.8,0.4,1.4l-1.1,0.1c-0.1-0.5-0.3-1-0.6-1.2c-0.3-0.3-0.8-0.4-1.5-0.4  c-0.7,0-1.2,0.1-1.5,0.4s-0.5,0.6-0.5,0.9c0,0.3,0.1,0.6,0.3,0.8c0.2,0.2,0.8,0.4,1.7,0.6s1.6,0.4,1.9,0.5c0.5,0.2,0.9,0.5,1.1,0.9  c0.2,0.4,0.4,0.8,0.4,1.2c0,0.5-0.1,0.9-0.4,1.3c-0.3,0.4-0.6,0.7-1.1,0.9c-0.5,0.2-1,0.3-1.7,0.3c-0.8,0-1.4-0.1-2-0.3  c-0.5-0.2-0.9-0.6-1.2-1S203.7,452.9,203.7,452.4z"/>
<path d="M212.1,455.1v-8.6h6.2v1h-5.1v2.6h4.8v1h-4.8v2.9h5.3v1H212.1z"/>
<path d="M220.1,455.1v-8.6h3.8c0.8,0,1.3,0.1,1.7,0.2s0.7,0.4,1,0.8s0.4,0.8,0.4,1.3c0,0.6-0.2,1.1-0.6,1.5c-0.4,0.4-1,0.7-1.8,0.8  c0.3,0.1,0.5,0.3,0.7,0.4c0.3,0.3,0.6,0.7,0.9,1.1l1.5,2.3h-1.4l-1.1-1.8c-0.3-0.5-0.6-0.9-0.8-1.2s-0.4-0.5-0.6-0.6  c-0.2-0.1-0.3-0.2-0.5-0.2c-0.1,0-0.3,0-0.6,0h-1.3v3.8H220.1z M221.3,450.3h2.4c0.5,0,0.9-0.1,1.2-0.2c0.3-0.1,0.5-0.3,0.7-0.5  s0.2-0.5,0.2-0.8c0-0.4-0.1-0.7-0.4-1s-0.8-0.4-1.4-0.4h-2.7V450.3z"/>
<path d="M230.7,455.1v-7.6h-2.8v-1h6.8v1h-2.8v7.6H230.7z"/>
<path d="M236.1,455.1v-8.6h1.1v8.6H236.1z"/>
<path d="M238.9,450.9c0-1.4,0.4-2.5,1.1-3.3c0.8-0.8,1.8-1.2,3-1.2c0.8,0,1.5,0.2,2.1,0.6c0.6,0.4,1.1,0.9,1.5,1.6  c0.3,0.7,0.5,1.4,0.5,2.3c0,0.9-0.2,1.7-0.5,2.3c-0.4,0.7-0.8,1.2-1.5,1.6c-0.6,0.4-1.3,0.5-2.1,0.5c-0.8,0-1.5-0.2-2.2-0.6  c-0.6-0.4-1.1-0.9-1.4-1.6S238.9,451.7,238.9,450.9z M240,451c0,1,0.3,1.9,0.8,2.4s1.3,0.9,2.1,0.9c0.9,0,1.6-0.3,2.1-0.9  c0.6-0.6,0.8-1.5,0.8-2.6c0-0.7-0.1-1.3-0.4-1.8s-0.6-0.9-1-1.2s-1-0.4-1.5-0.4c-0.8,0-1.5,0.3-2.1,0.8  C240.3,448.7,240,449.7,240,451z"/>
<path d="M248.5,455.1v-8.6h1.2l4.5,6.7v-6.7h1.1v8.6h-1.2l-4.5-6.8v6.8H248.5z"/>
<rect x="187.2" y="431.1" fill-rule="evenodd" fill="none" width="69" height="27"/>
<rect x="355" y="383.9" fill="none" stroke="#000000" stroke-width="2.2496" width="144.8" height="42"/>
<path d="M401.3,394.4v-1h5.6v0.8c-0.5,0.6-1.1,1.4-1.6,2.3s-1,2-1.2,3c-0.2,0.7-0.3,1.5-0.4,2.4h-1.1c0-0.7,0.1-1.5,0.4-2.4  s0.6-1.9,1.1-2.8s1-1.6,1.5-2.2H401.3z"/>
<path d="M407.9,397.6c0-1,0.1-1.8,0.3-2.5s0.5-1.1,0.9-1.4s0.9-0.5,1.6-0.5c0.5,0,0.9,0.1,1.2,0.3s0.6,0.5,0.9,0.8s0.4,0.8,0.5,1.3  s0.2,1.2,0.2,2c0,1-0.1,1.8-0.3,2.4s-0.5,1.1-0.9,1.4s-0.9,0.5-1.6,0.5c-0.8,0-1.5-0.3-2-0.9C408.1,400.4,407.9,399.3,407.9,397.6z   M408.9,397.6c0,1.4,0.2,2.3,0.5,2.8s0.7,0.7,1.2,0.7c0.5,0,0.9-0.2,1.2-0.7s0.5-1.4,0.5-2.8c0-1.4-0.2-2.4-0.5-2.8  s-0.7-0.7-1.2-0.7c-0.5,0-0.9,0.2-1.2,0.6C409.1,395.3,408.9,396.2,408.9,397.6z"/>
<path d="M414.7,399.9l1-0.1c0.1,0.5,0.2,0.8,0.5,1s0.6,0.3,0.9,0.3c0.3,0,0.6-0.1,0.9-0.2c0.2-0.1,0.4-0.3,0.6-0.6s0.3-0.6,0.4-1  s0.2-0.9,0.2-1.3c0,0,0-0.1,0-0.2c-0.2,0.3-0.5,0.6-0.9,0.8s-0.8,0.3-1.2,0.3c-0.7,0-1.3-0.3-1.8-0.8c-0.5-0.5-0.7-1.2-0.7-2  c0-0.9,0.3-1.6,0.8-2.1c0.5-0.5,1.2-0.8,1.9-0.8c0.6,0,1.1,0.2,1.5,0.5s0.8,0.7,1.1,1.3s0.4,1.4,0.4,2.4c0,1.1-0.1,2-0.4,2.6  s-0.6,1.1-1.1,1.5s-1,0.5-1.7,0.5c-0.7,0-1.2-0.2-1.6-0.6C415,401.1,414.8,400.6,414.7,399.9z M419,396.1c0-0.6-0.2-1.1-0.5-1.4  s-0.7-0.5-1.2-0.5c-0.5,0-0.9,0.2-1.2,0.6s-0.5,0.9-0.5,1.5c0,0.5,0.2,1,0.5,1.3s0.7,0.5,1.2,0.5c0.5,0,0.9-0.2,1.2-0.5  S419,396.7,419,396.1z"/>
<path d="M426.7,400.9v1h-5.7c0-0.3,0-0.5,0.1-0.7c0.1-0.4,0.4-0.8,0.7-1.1c0.3-0.4,0.8-0.8,1.4-1.3c0.9-0.8,1.6-1.4,1.9-1.8  s0.5-0.9,0.5-1.3c0-0.4-0.1-0.8-0.4-1.1s-0.7-0.4-1.2-0.4c-0.5,0-0.9,0.2-1.2,0.5s-0.5,0.7-0.5,1.3l-1.1-0.1  c0.1-0.8,0.4-1.4,0.8-1.8c0.5-0.4,1.1-0.6,2-0.6c0.8,0,1.5,0.2,2,0.7s0.7,1,0.7,1.7c0,0.3-0.1,0.7-0.2,1s-0.4,0.7-0.7,1  s-0.9,0.9-1.6,1.5c-0.6,0.5-1,0.9-1.2,1.1s-0.3,0.4-0.4,0.6H426.7z"/>
<path d="M432.2,401.9v-0.8c-0.4,0.6-1,0.9-1.7,0.9c-0.5,0-1-0.1-1.4-0.4s-0.7-0.7-1-1.1s-0.3-1.1-0.3-1.7c0-0.6,0.1-1.2,0.3-1.7  s0.5-0.9,0.9-1.2s0.9-0.4,1.4-0.4c0.4,0,0.7,0.1,1,0.2c0.3,0.2,0.5,0.4,0.7,0.6v-3.1h1v8.6H432.2z M428.9,398.8  c0,0.8,0.2,1.4,0.5,1.8s0.7,0.6,1.2,0.6c0.5,0,0.9-0.2,1.2-0.6s0.5-1,0.5-1.7c0-0.9-0.2-1.5-0.5-1.9s-0.7-0.6-1.2-0.6  c-0.5,0-0.9,0.2-1.2,0.6S428.9,397.9,428.9,398.8z"/>
<path d="M440,395.4l-1,0.1c-0.1-0.4-0.2-0.7-0.4-0.9c-0.3-0.3-0.6-0.5-1.1-0.5c-0.3,0-0.6,0.1-0.9,0.3c-0.3,0.2-0.6,0.6-0.8,1.1  s-0.3,1.1-0.3,2c0.3-0.4,0.6-0.7,0.9-0.9s0.8-0.3,1.2-0.3c0.7,0,1.3,0.3,1.8,0.8s0.7,1.2,0.7,2c0,0.5-0.1,1-0.3,1.5s-0.6,0.8-1,1.1  s-0.9,0.4-1.4,0.4c-0.9,0-1.6-0.3-2.2-1c-0.6-0.6-0.8-1.7-0.8-3.2c0-1.7,0.3-2.9,0.9-3.6c0.5-0.7,1.3-1,2.2-1c0.7,0,1.2,0.2,1.7,0.6  S439.9,394.7,440,395.4z M435.7,399.1c0,0.4,0.1,0.7,0.2,1s0.4,0.6,0.6,0.8s0.6,0.3,0.9,0.3c0.4,0,0.8-0.2,1.1-0.5s0.5-0.8,0.5-1.5  c0-0.6-0.2-1.1-0.5-1.4s-0.7-0.5-1.2-0.5c-0.5,0-0.9,0.2-1.2,0.5S435.7,398.5,435.7,399.1z"/>
<path d="M446.8,400.9v1h-5.7c0-0.3,0-0.5,0.1-0.7c0.1-0.4,0.4-0.8,0.7-1.1c0.3-0.4,0.8-0.8,1.4-1.3c0.9-0.8,1.6-1.4,1.9-1.8  s0.5-0.9,0.5-1.3c0-0.4-0.1-0.8-0.4-1.1s-0.7-0.4-1.2-0.4c-0.5,0-0.9,0.2-1.2,0.5s-0.5,0.7-0.5,1.3l-1.1-0.1  c0.1-0.8,0.4-1.4,0.8-1.8c0.5-0.4,1.1-0.6,2-0.6c0.8,0,1.5,0.2,2,0.7s0.7,1,0.7,1.7c0,0.3-0.1,0.7-0.2,1s-0.4,0.7-0.7,1  s-0.9,0.9-1.6,1.5c-0.6,0.5-1,0.9-1.2,1.1s-0.3,0.4-0.4,0.6H446.8z"/>
<path d="M447.9,397.6c0-1,0.1-1.8,0.3-2.5s0.5-1.1,0.9-1.4s0.9-0.5,1.6-0.5c0.5,0,0.9,0.1,1.2,0.3s0.6,0.5,0.9,0.8s0.4,0.8,0.5,1.3  s0.2,1.2,0.2,2c0,1-0.1,1.8-0.3,2.4s-0.5,1.1-0.9,1.4s-0.9,0.5-1.6,0.5c-0.8,0-1.5-0.3-2-0.9C448.2,400.4,447.9,399.3,447.9,397.6z   M449,397.6c0,1.4,0.2,2.3,0.5,2.8s0.7,0.7,1.2,0.7c0.5,0,0.9-0.2,1.2-0.7s0.5-1.4,0.5-2.8c0-1.4-0.2-2.4-0.5-2.8s-0.7-0.7-1.2-0.7  c-0.5,0-0.9,0.2-1.2,0.6C449.2,395.3,449,396.2,449,397.6z"/>
<path d="M407,409.8l-0.3-1.6v-1.4h1.2v1.4l-0.3,1.6H407z M408.9,409.8l-0.3-1.6v-1.4h1.2v1.4l-0.3,1.6H408.9z"/>
<path d="M411.2,415.4v-8.6h1.1v4.9l2.5-2.5h1.4l-2.4,2.3l2.6,3.9H415l-2.1-3.2l-0.7,0.7v2.5H411.2z"/>
<path d="M417.2,415.4v-6.2h0.9v0.9c0.5-0.7,1.1-1,2-1c0.4,0,0.7,0.1,1,0.2s0.5,0.3,0.7,0.5s0.3,0.5,0.3,0.8c0,0.2,0.1,0.5,0.1,1v3.8  h-1.1v-3.8c0-0.4,0-0.8-0.1-1s-0.2-0.4-0.4-0.5s-0.5-0.2-0.7-0.2c-0.4,0-0.8,0.1-1.2,0.4s-0.5,0.8-0.5,1.6v3.4H417.2z"/>
<path d="M423.4,412.3c0-1.2,0.3-2,1-2.6c0.5-0.5,1.2-0.7,2-0.7c0.9,0,1.6,0.3,2.1,0.8s0.8,1.3,0.8,2.3c0,0.8-0.1,1.4-0.4,1.9  s-0.6,0.8-1,1.1s-1,0.4-1.5,0.4c-0.9,0-1.6-0.3-2.1-0.8C423.7,414.1,423.4,413.3,423.4,412.3z M424.5,412.3c0,0.8,0.2,1.4,0.5,1.8  s0.8,0.6,1.3,0.6c0.5,0,1-0.2,1.3-0.6s0.5-1,0.5-1.8c0-0.8-0.2-1.4-0.5-1.7s-0.8-0.6-1.3-0.6c-0.5,0-1,0.2-1.3,0.6  S424.5,411.5,424.5,412.3z"/>
<path d="M431.7,415.4l-1.9-6.2h1.1l1,3.6l0.4,1.3c0-0.1,0.1-0.5,0.3-1.3l1-3.6h1.1l0.9,3.6l0.3,1.2l0.4-1.2l1.1-3.6h1l-1.9,6.2h-1.1  l-1-3.7l-0.2-1.1l-1.3,4.8H431.7z"/>
<path d="M438.7,413.5l1-0.2c0.1,0.4,0.2,0.7,0.5,1s0.6,0.3,1.1,0.3c0.5,0,0.8-0.1,1.1-0.3s0.4-0.4,0.4-0.7c0-0.2-0.1-0.4-0.3-0.6  c-0.1-0.1-0.5-0.2-1.1-0.4c-0.8-0.2-1.3-0.4-1.6-0.5c-0.3-0.1-0.5-0.3-0.7-0.6s-0.2-0.5-0.2-0.8c0-0.3,0.1-0.5,0.2-0.8  s0.3-0.4,0.5-0.6c0.2-0.1,0.4-0.2,0.7-0.3s0.6-0.1,0.9-0.1c0.5,0,0.9,0.1,1.3,0.2c0.4,0.1,0.6,0.3,0.8,0.6s0.3,0.6,0.4,1l-1,0.1  c0-0.3-0.2-0.6-0.4-0.8c-0.2-0.2-0.5-0.3-1-0.3c-0.5,0-0.8,0.1-1,0.2s-0.3,0.3-0.3,0.6c0,0.1,0,0.3,0.1,0.4c0.1,0.1,0.2,0.2,0.4,0.3  c0.1,0,0.4,0.1,0.9,0.3c0.7,0.2,1.3,0.4,1.6,0.5s0.5,0.3,0.7,0.6s0.3,0.5,0.3,0.9c0,0.4-0.1,0.7-0.3,1s-0.5,0.6-0.9,0.7  s-0.8,0.3-1.3,0.3c-0.8,0-1.4-0.2-1.8-0.5C439.1,414.7,438.9,414.2,438.7,413.5z"/>
<path d="M445.2,409.8l-0.3-1.6v-1.4h1.2v1.4l-0.3,1.6H445.2z M447.2,409.8l-0.3-1.6v-1.4h1.2v1.4l-0.3,1.6H447.2z"/>
<rect x="362.5" y="391.4" fill-rule="evenodd" fill="none" width="129.7" height="27"/>
<rect x="357.6" y="463.4" fill="none" stroke="#000000" stroke-width="2.2496" width="139.5" height="42"/>
<path d="M405.9,480.6c-0.4,0.3-0.8,0.6-1.1,0.7c-0.4,0.1-0.7,0.2-1.2,0.2c-0.7,0-1.2-0.2-1.6-0.5c-0.4-0.3-0.6-0.8-0.6-1.3  c0-0.3,0.1-0.6,0.2-0.8s0.3-0.5,0.5-0.6c0.2-0.2,0.5-0.3,0.8-0.3c0.2-0.1,0.5-0.1,0.9-0.2c0.9-0.1,1.5-0.2,1.9-0.4  c0-0.1,0-0.2,0-0.3c0-0.4-0.1-0.7-0.3-0.9c-0.3-0.2-0.7-0.4-1.2-0.4c-0.5,0-0.9,0.1-1.1,0.3s-0.4,0.5-0.5,0.9l-1-0.1  c0.1-0.4,0.2-0.8,0.5-1.1c0.2-0.3,0.5-0.5,0.9-0.6s0.9-0.2,1.4-0.2c0.5,0,1,0.1,1.3,0.2s0.6,0.3,0.7,0.5s0.3,0.4,0.3,0.7  c0,0.2,0.1,0.5,0.1,1v1.4c0,1,0,1.6,0.1,1.9s0.1,0.5,0.3,0.7h-1.1C406,481.2,405.9,480.9,405.9,480.6z M405.8,478.3  c-0.4,0.2-1,0.3-1.7,0.4c-0.4,0.1-0.7,0.1-0.9,0.2s-0.3,0.2-0.4,0.3s-0.1,0.3-0.1,0.5c0,0.3,0.1,0.5,0.3,0.7s0.5,0.3,0.9,0.3  c0.4,0,0.8-0.1,1.1-0.3c0.3-0.2,0.5-0.4,0.7-0.7c0.1-0.2,0.2-0.6,0.2-1.1V478.3z"/>
<path d="M412.5,481.4v-0.8c-0.4,0.6-1,0.9-1.7,0.9c-0.5,0-1-0.1-1.4-0.4s-0.7-0.7-1-1.1s-0.3-1.1-0.3-1.7c0-0.6,0.1-1.2,0.3-1.7  s0.5-0.9,0.9-1.2s0.9-0.4,1.4-0.4c0.4,0,0.7,0.1,1,0.2c0.3,0.2,0.5,0.4,0.7,0.6v-3.1h1v8.6H412.5z M409.2,478.3  c0,0.8,0.2,1.4,0.5,1.8s0.7,0.6,1.2,0.6c0.5,0,0.9-0.2,1.2-0.6s0.5-1,0.5-1.7c0-0.9-0.2-1.5-0.5-1.9s-0.7-0.6-1.2-0.6  c-0.5,0-0.9,0.2-1.2,0.6S409.2,477.4,409.2,478.3z"/>
<path d="M420.4,480.4v1h-5.7c0-0.3,0-0.5,0.1-0.7c0.1-0.4,0.4-0.8,0.7-1.1c0.3-0.4,0.8-0.8,1.4-1.3c0.9-0.8,1.6-1.4,1.9-1.8  s0.5-0.9,0.5-1.3c0-0.4-0.1-0.8-0.4-1.1s-0.7-0.4-1.2-0.4c-0.5,0-0.9,0.2-1.2,0.5s-0.5,0.7-0.5,1.3l-1.1-0.1  c0.1-0.8,0.4-1.4,0.8-1.8c0.5-0.4,1.1-0.6,2-0.6c0.8,0,1.5,0.2,2,0.7s0.7,1,0.7,1.7c0,0.3-0.1,0.7-0.2,1s-0.4,0.7-0.7,1  s-0.9,0.9-1.6,1.5c-0.6,0.5-1,0.9-1.2,1.1s-0.3,0.4-0.4,0.6H420.4z"/>
<path d="M425.9,479.1l1,0.1c-0.1,0.7-0.4,1.3-0.9,1.7s-1,0.6-1.7,0.6c-0.9,0-1.5-0.3-2.1-0.8c-0.5-0.6-0.8-1.4-0.8-2.4  c0-0.7,0.1-1.3,0.3-1.8s0.6-0.9,1-1.1s1-0.4,1.5-0.4c0.7,0,1.2,0.2,1.7,0.5s0.7,0.8,0.8,1.5l-1,0.2c-0.1-0.4-0.3-0.7-0.5-0.9  s-0.5-0.3-0.9-0.3c-0.5,0-1,0.2-1.3,0.6s-0.5,1-0.5,1.8c0,0.8,0.2,1.4,0.5,1.8s0.7,0.6,1.3,0.6c0.4,0,0.8-0.1,1-0.4  S425.8,479.6,425.9,479.1z"/>
<path d="M430.9,481.4v-2.1h-3.7v-1l3.9-5.6h0.9v5.6h1.2v1H432v2.1H430.9z M430.9,478.4v-3.9l-2.7,3.9H430.9z"/>
<path d="M434.2,479.1l1.1-0.1c0.1,0.5,0.3,0.9,0.6,1.2s0.7,0.4,1.1,0.4c0.5,0,0.9-0.2,1.3-0.6s0.5-0.9,0.5-1.5  c0-0.6-0.2-1.1-0.5-1.4s-0.8-0.5-1.3-0.5c-0.3,0-0.6,0.1-0.9,0.2s-0.5,0.4-0.6,0.6l-1-0.1l0.8-4.4h4.3v1h-3.4l-0.5,2.3  c0.5-0.4,1.1-0.5,1.6-0.5c0.7,0,1.4,0.3,1.9,0.8s0.8,1.2,0.8,2c0,0.8-0.2,1.4-0.7,2c-0.6,0.7-1.3,1-2.3,1c-0.8,0-1.4-0.2-1.9-0.7  C434.6,480.4,434.3,479.8,434.2,479.1z"/>
<path d="M444.3,481.4v-2.1h-3.7v-1l3.9-5.6h0.9v5.6h1.2v1h-1.2v2.1H444.3z M444.3,478.4v-3.9l-2.7,3.9H444.3z"/>
<path d="M448.8,481.4h-1v-8.6h1.1v3.1c0.4-0.6,1-0.8,1.7-0.8c0.4,0,0.7,0.1,1.1,0.2s0.6,0.4,0.8,0.7s0.4,0.6,0.5,1s0.2,0.8,0.2,1.3  c0,1.1-0.3,1.9-0.8,2.5s-1.2,0.9-1.9,0.9c-0.7,0-1.3-0.3-1.7-0.9V481.4z M448.8,478.2c0,0.7,0.1,1.3,0.3,1.6  c0.3,0.5,0.8,0.8,1.3,0.8c0.5,0,0.9-0.2,1.2-0.6s0.5-1,0.5-1.8c0-0.8-0.2-1.4-0.5-1.8s-0.7-0.6-1.2-0.6c-0.5,0-0.9,0.2-1.2,0.6  S448.8,477.5,448.8,478.2z"/>
<path d="M409.6,489.3l-0.3-1.6v-1.4h1.2v1.4l-0.3,1.6H409.6z M411.6,489.3l-0.3-1.6v-1.4h1.2v1.4l-0.3,1.6H411.6z"/>
<path d="M420.1,491.9l1.1,0.3c-0.2,0.9-0.7,1.6-1.3,2.1c-0.6,0.5-1.4,0.7-2.3,0.7c-0.9,0-1.7-0.2-2.3-0.6s-1-0.9-1.3-1.6  c-0.3-0.7-0.5-1.5-0.5-2.3c0-0.9,0.2-1.7,0.5-2.3c0.3-0.7,0.8-1.2,1.5-1.5s1.3-0.5,2.1-0.5c0.9,0,1.6,0.2,2.2,0.7  c0.6,0.4,1,1.1,1.2,1.8l-1.1,0.3c-0.2-0.6-0.5-1.1-0.9-1.4c-0.4-0.3-0.9-0.4-1.4-0.4c-0.7,0-1.2,0.2-1.7,0.5s-0.8,0.7-0.9,1.3  s-0.3,1.1-0.3,1.6c0,0.7,0.1,1.4,0.3,1.9s0.5,1,1,1.2s0.9,0.4,1.5,0.4c0.6,0,1.2-0.2,1.6-0.6C419.6,493.1,419.9,492.6,420.1,491.9z"/>
<path d="M426.6,494.1c-0.4,0.3-0.8,0.6-1.1,0.7c-0.4,0.1-0.7,0.2-1.2,0.2c-0.7,0-1.2-0.2-1.6-0.5c-0.4-0.3-0.6-0.8-0.6-1.3  c0-0.3,0.1-0.6,0.2-0.8s0.3-0.5,0.5-0.6c0.2-0.2,0.5-0.3,0.8-0.3c0.2-0.1,0.5-0.1,0.9-0.2c0.9-0.1,1.5-0.2,1.9-0.4  c0-0.1,0-0.2,0-0.3c0-0.4-0.1-0.7-0.3-0.9c-0.3-0.2-0.7-0.4-1.2-0.4c-0.5,0-0.9,0.1-1.1,0.3s-0.4,0.5-0.5,0.9l-1-0.1  c0.1-0.4,0.2-0.8,0.5-1.1c0.2-0.3,0.5-0.5,0.9-0.6s0.9-0.2,1.4-0.2c0.5,0,1,0.1,1.3,0.2s0.6,0.3,0.7,0.5s0.3,0.4,0.3,0.7  c0,0.2,0.1,0.5,0.1,1v1.4c0,1,0,1.6,0.1,1.9s0.1,0.5,0.3,0.7h-1.1C426.7,494.7,426.6,494.4,426.6,494.1z M426.5,491.8  c-0.4,0.2-1,0.3-1.7,0.4c-0.4,0.1-0.7,0.1-0.9,0.2s-0.3,0.2-0.4,0.3s-0.1,0.3-0.1,0.5c0,0.3,0.1,0.5,0.3,0.7s0.5,0.3,0.9,0.3  c0.4,0,0.8-0.1,1.1-0.3c0.3-0.2,0.5-0.4,0.7-0.7c0.1-0.2,0.2-0.6,0.2-1.1V491.8z"/>
<path d="M429.2,494.9v-6.2h0.9v0.9c0.2-0.4,0.5-0.7,0.7-0.9s0.4-0.2,0.7-0.2c0.4,0,0.7,0.1,1.1,0.3l-0.4,1c-0.3-0.2-0.5-0.2-0.8-0.2  c-0.2,0-0.4,0.1-0.6,0.2s-0.3,0.3-0.4,0.6c-0.1,0.4-0.2,0.8-0.2,1.2v3.3H429.2z"/>
<path d="M432.8,491.8c0-1.2,0.3-2,1-2.6c0.5-0.5,1.2-0.7,2-0.7c0.9,0,1.6,0.3,2.1,0.8s0.8,1.3,0.8,2.3c0,0.8-0.1,1.4-0.4,1.9  s-0.6,0.8-1,1.1s-1,0.4-1.5,0.4c-0.9,0-1.6-0.3-2.1-0.8C433,493.6,432.8,492.8,432.8,491.8z M433.9,491.8c0,0.8,0.2,1.4,0.5,1.8  s0.8,0.6,1.3,0.6c0.5,0,1-0.2,1.3-0.6s0.5-1,0.5-1.8c0-0.8-0.2-1.4-0.5-1.7s-0.8-0.6-1.3-0.6c-0.5,0-1,0.2-1.3,0.6  S433.9,491,433.9,491.8z"/>
<path d="M439.8,494.9v-8.6h1.1v8.6H439.8z"/>
<path d="M442.6,489.3l-0.3-1.6v-1.4h1.2v1.4l-0.3,1.6H442.6z M444.5,489.3l-0.3-1.6v-1.4h1.2v1.4l-0.3,1.6H444.5z"/>
<rect x="365.1" y="470.9" fill-rule="evenodd" fill="none" width="124.5" height="27"/>
</svg>
