<?xml version='1.0' encoding='utf-8'?>
<svg xmlns="http://www.w3.org/2000/svg" xmlns:xlink="http://www.w3.org/1999/xlink" version="1.2" baseProfile="tiny" width="150.4px" height="94.3px" viewBox="0 0 150.4 94.3" xml:space="preserve">
<polygon fill="none" stroke="#000000" stroke-width="2.2537" points="26.8,68.1 102.5,68.1 123.5,26.1 47.9,26.1 "/>
<path d="M49.1,42.1l1-0.1c0.1,0.5,0.3,0.8,0.5,1c0.2,0.2,0.6,0.3,0.9,0.3c0.3,0,0.6-0.1,0.9-0.2c0.2-0.1,0.4-0.3,0.6-0.6  s0.3-0.6,0.4-1c0.1-0.4,0.2-0.9,0.2-1.3c0,0,0-0.1,0-0.2c-0.2,0.3-0.5,0.6-0.9,0.8c-0.4,0.2-0.8,0.3-1.2,0.3c-0.7,0-1.3-0.3-1.8-0.8  c-0.5-0.5-0.7-1.2-0.7-2c0-0.9,0.3-1.6,0.8-2.1c0.5-0.5,1.2-0.8,1.9-0.8c0.6,0,1.1,0.2,1.5,0.5s0.8,0.7,1.1,1.3  c0.2,0.6,0.4,1.4,0.4,2.4c0,1.1-0.1,2-0.4,2.6c-0.2,0.7-0.6,1.1-1.1,1.5s-1,0.5-1.7,0.5c-0.7,0-1.2-0.2-1.7-0.6  C49.4,43.3,49.1,42.8,49.1,42.1z M53.4,38.3c0-0.6-0.2-1.1-0.5-1.4c-0.3-0.4-0.7-0.5-1.2-0.5c-0.5,0-0.9,0.2-1.2,0.6  c-0.3,0.4-0.5,0.9-0.5,1.5c0,0.5,0.2,1,0.5,1.3s0.7,0.5,1.2,0.5c0.5,0,0.9-0.2,1.2-0.5C53.2,39.4,53.4,39,53.4,38.3z"/>
<path d="M59.9,44.1v-0.8c-0.4,0.6-1,0.9-1.7,0.9c-0.5,0-1-0.1-1.4-0.4s-0.7-0.7-1-1.1c-0.2-0.5-0.3-1.1-0.3-1.7  c0-0.6,0.1-1.2,0.3-1.7c0.2-0.5,0.5-0.9,0.9-1.2s0.9-0.4,1.4-0.4c0.4,0,0.7,0.1,1,0.2s0.5,0.4,0.7,0.6v-3.1h1.1v8.6H59.9z M56.6,41  c0,0.8,0.2,1.4,0.5,1.8c0.3,0.4,0.7,0.6,1.2,0.6c0.5,0,0.9-0.2,1.2-0.6c0.3-0.4,0.5-1,0.5-1.7c0-0.9-0.2-1.5-0.5-1.9  c-0.3-0.4-0.7-0.6-1.2-0.6c-0.5,0-0.9,0.2-1.2,0.6S56.6,40.2,56.6,41z"/>
<path d="M62.4,36.7v-1h5.6v0.8c-0.5,0.6-1.1,1.4-1.6,2.3c-0.5,1-1,2-1.2,3c-0.2,0.7-0.3,1.5-0.4,2.4h-1.1c0-0.7,0.1-1.5,0.4-2.4  c0.3-1,0.6-1.9,1.1-2.8c0.5-0.9,1-1.6,1.5-2.2H62.4z"/>
<path d="M70.3,44.1h-1v-8.6h1.1v3.1c0.4-0.6,1-0.8,1.7-0.8c0.4,0,0.7,0.1,1.1,0.2c0.3,0.2,0.6,0.4,0.8,0.7c0.2,0.3,0.4,0.6,0.5,1  c0.1,0.4,0.2,0.8,0.2,1.3c0,1.1-0.3,1.9-0.8,2.5c-0.5,0.6-1.2,0.9-1.9,0.9c-0.7,0-1.3-0.3-1.7-0.9V44.1z M70.2,41  c0,0.7,0.1,1.3,0.3,1.6c0.3,0.5,0.8,0.8,1.4,0.8c0.5,0,0.9-0.2,1.2-0.6s0.5-1,0.5-1.8c0-0.8-0.2-1.4-0.5-1.8  c-0.3-0.4-0.7-0.6-1.2-0.6c-0.5,0-0.9,0.2-1.2,0.6C70.4,39.6,70.2,40.2,70.2,41z"/>
<path d="M80,43.4c-0.4,0.3-0.8,0.6-1.1,0.7c-0.4,0.1-0.8,0.2-1.2,0.2c-0.7,0-1.2-0.2-1.6-0.5c-0.4-0.3-0.6-0.8-0.6-1.3  c0-0.3,0.1-0.6,0.2-0.8s0.3-0.5,0.5-0.6s0.5-0.3,0.8-0.3c0.2-0.1,0.5-0.1,0.9-0.2c0.9-0.1,1.5-0.2,1.9-0.4c0-0.1,0-0.2,0-0.3  c0-0.4-0.1-0.7-0.3-0.9c-0.3-0.2-0.7-0.4-1.2-0.4c-0.5,0-0.9,0.1-1.1,0.3c-0.2,0.2-0.4,0.5-0.5,0.9l-1-0.1c0.1-0.4,0.2-0.8,0.5-1.1  c0.2-0.3,0.5-0.5,0.9-0.6c0.4-0.1,0.9-0.2,1.4-0.2c0.5,0,1,0.1,1.3,0.2c0.3,0.1,0.6,0.3,0.7,0.5c0.2,0.2,0.3,0.4,0.3,0.7  c0,0.2,0.1,0.5,0.1,1v1.4c0,1,0,1.6,0.1,1.9s0.1,0.5,0.3,0.7h-1.1C80.2,43.9,80.1,43.7,80,43.4z M80,41c-0.4,0.2-1,0.3-1.7,0.4  c-0.4,0.1-0.7,0.1-0.9,0.2S77,41.8,76.9,42c-0.1,0.2-0.1,0.3-0.1,0.5c0,0.3,0.1,0.5,0.3,0.7c0.2,0.2,0.5,0.3,0.9,0.3  c0.4,0,0.8-0.1,1.1-0.3c0.3-0.2,0.6-0.4,0.7-0.7c0.1-0.2,0.2-0.6,0.2-1.1V41z"/>
<path d="M82.5,42.1l1-0.1c0.1,0.5,0.3,0.8,0.5,1c0.2,0.2,0.6,0.3,0.9,0.3c0.3,0,0.6-0.1,0.9-0.2c0.2-0.1,0.4-0.3,0.6-0.6  s0.3-0.6,0.4-1c0.1-0.4,0.2-0.9,0.2-1.3c0,0,0-0.1,0-0.2c-0.2,0.3-0.5,0.6-0.9,0.8c-0.4,0.2-0.8,0.3-1.2,0.3c-0.7,0-1.3-0.3-1.8-0.8  c-0.5-0.5-0.7-1.2-0.7-2c0-0.9,0.3-1.6,0.8-2.1c0.5-0.5,1.2-0.8,1.9-0.8c0.6,0,1.1,0.2,1.5,0.5s0.8,0.7,1.1,1.3  c0.2,0.6,0.4,1.4,0.4,2.4c0,1.1-0.1,2-0.4,2.6c-0.2,0.7-0.6,1.1-1.1,1.5s-1,0.5-1.7,0.5c-0.7,0-1.2-0.2-1.7-0.6  C82.9,43.3,82.6,42.8,82.5,42.1z M86.9,38.3c0-0.6-0.2-1.1-0.5-1.4c-0.3-0.4-0.7-0.5-1.2-0.5c-0.5,0-0.9,0.2-1.2,0.6  c-0.3,0.4-0.5,0.9-0.5,1.5c0,0.5,0.2,1,0.5,1.3s0.7,0.5,1.2,0.5c0.5,0,0.9-0.2,1.2-0.5C86.7,39.4,86.9,39,86.9,38.3z"/>
<path d="M93.6,42.1l1.1,0.1c-0.2,0.6-0.5,1.1-1,1.5s-1.1,0.5-1.8,0.5c-0.9,0-1.6-0.3-2.2-0.8c-0.5-0.6-0.8-1.3-0.8-2.4  c0-1,0.3-1.9,0.8-2.4c0.5-0.6,1.2-0.9,2.1-0.9c0.8,0,1.5,0.3,2,0.8c0.5,0.6,0.8,1.4,0.8,2.4c0,0.1,0,0.2,0,0.3h-4.7  c0,0.7,0.2,1.2,0.6,1.6c0.3,0.4,0.8,0.5,1.3,0.5c0.4,0,0.7-0.1,1-0.3S93.5,42.6,93.6,42.1z M90.2,40.4h3.5c0-0.5-0.2-0.9-0.4-1.2  c-0.3-0.4-0.8-0.6-1.3-0.6c-0.5,0-0.9,0.2-1.2,0.5C90.4,39.4,90.2,39.9,90.2,40.4z"/>
<path d="M97,44.1h-1v-8.6h1.1v3.1c0.4-0.6,1-0.8,1.7-0.8c0.4,0,0.7,0.1,1.1,0.2c0.3,0.2,0.6,0.4,0.8,0.7c0.2,0.3,0.4,0.6,0.5,1  c0.1,0.4,0.2,0.8,0.2,1.3c0,1.1-0.3,1.9-0.8,2.5c-0.5,0.6-1.2,0.9-1.9,0.9c-0.7,0-1.3-0.3-1.7-0.9V44.1z M97,41  c0,0.7,0.1,1.3,0.3,1.6c0.3,0.5,0.8,0.8,1.4,0.8c0.5,0,0.9-0.2,1.2-0.6s0.5-1,0.5-1.8c0-0.8-0.2-1.4-0.5-1.8  c-0.3-0.4-0.7-0.6-1.2-0.6c-0.5,0-0.9,0.2-1.2,0.6C97.2,39.6,97,40.2,97,41z"/>
<path d="M51.3,57.6l-2.4-6.2H50l1.3,3.7c0.1,0.4,0.3,0.8,0.4,1.3c0.1-0.3,0.2-0.7,0.4-1.2l1.4-3.8h1.1l-2.4,6.2H51.3z"/>
<path d="M59.8,55.6l1.1,0.1c-0.2,0.6-0.5,1.1-1,1.5s-1.1,0.5-1.8,0.5c-0.9,0-1.6-0.3-2.2-0.8c-0.5-0.6-0.8-1.3-0.8-2.4  c0-1,0.3-1.9,0.8-2.4c0.5-0.6,1.2-0.9,2.1-0.9c0.8,0,1.5,0.3,2,0.8c0.5,0.6,0.8,1.4,0.8,2.4c0,0.1,0,0.2,0,0.3h-4.7  c0,0.7,0.2,1.2,0.6,1.6c0.3,0.4,0.8,0.5,1.3,0.5c0.4,0,0.7-0.1,1-0.3S59.7,56.1,59.8,55.6z M56.4,53.9h3.5c0-0.5-0.2-0.9-0.4-1.2  c-0.3-0.4-0.8-0.6-1.3-0.6c-0.5,0-0.9,0.2-1.2,0.5C56.6,52.9,56.4,53.4,56.4,53.9z"/>
<path d="M62.2,57.6v-6.2h1v0.9c0.2-0.4,0.5-0.7,0.7-0.9c0.2-0.1,0.4-0.2,0.7-0.2c0.4,0,0.7,0.1,1.1,0.3l-0.4,1  c-0.3-0.2-0.5-0.2-0.8-0.2c-0.2,0-0.4,0.1-0.6,0.2c-0.2,0.1-0.3,0.3-0.4,0.6c-0.1,0.4-0.2,0.8-0.2,1.2v3.3H62.2z"/>
<path d="M66.3,50.2V49h1.1v1.2H66.3z M66.3,57.6v-6.2h1.1v6.2H66.3z"/>
<path d="M69.2,57.6v-5.4h-0.9v-0.8h0.9v-0.7c0-0.4,0-0.7,0.1-0.9c0.1-0.3,0.3-0.5,0.5-0.7c0.3-0.2,0.6-0.3,1.1-0.3  c0.3,0,0.6,0,1,0.1l-0.2,0.9c-0.2,0-0.4-0.1-0.6-0.1c-0.3,0-0.5,0.1-0.7,0.2c-0.1,0.1-0.2,0.4-0.2,0.8v0.6h1.2v0.8h-1.2v5.4H69.2z"/>
<path d="M72.3,50.2V49h1.1v1.2H72.3z M72.3,57.6v-6.2h1.1v6.2H72.3z"/>
<path d="M79.2,55.6l1.1,0.1c-0.2,0.6-0.5,1.1-1,1.5s-1.1,0.5-1.8,0.5c-0.9,0-1.6-0.3-2.2-0.8c-0.5-0.6-0.8-1.3-0.8-2.4  c0-1,0.3-1.9,0.8-2.4c0.5-0.6,1.2-0.9,2.1-0.9c0.8,0,1.5,0.3,2,0.8c0.5,0.6,0.8,1.4,0.8,2.4c0,0.1,0,0.2,0,0.3h-4.7  c0,0.7,0.2,1.2,0.6,1.6c0.3,0.4,0.8,0.5,1.3,0.5c0.4,0,0.7-0.1,1-0.3S79.1,56.1,79.2,55.6z M75.8,53.9h3.5c0-0.5-0.2-0.9-0.4-1.2  c-0.3-0.4-0.8-0.6-1.3-0.6c-0.5,0-0.9,0.2-1.2,0.5C76,52.9,75.8,53.4,75.8,53.9z"/>
<path d="M85.7,57.6v-0.8c-0.4,0.6-1,0.9-1.7,0.9c-0.5,0-1-0.1-1.4-0.4s-0.7-0.7-1-1.1c-0.2-0.5-0.3-1.1-0.3-1.7  c0-0.6,0.1-1.2,0.3-1.7c0.2-0.5,0.5-0.9,0.9-1.2s0.9-0.4,1.4-0.4c0.4,0,0.7,0.1,1,0.2s0.5,0.4,0.7,0.6V49h1.1v8.6H85.7z M82.4,54.5  c0,0.8,0.2,1.4,0.5,1.8c0.3,0.4,0.7,0.6,1.2,0.6c0.5,0,0.9-0.2,1.2-0.6c0.3-0.4,0.5-1,0.5-1.7c0-0.9-0.2-1.5-0.5-1.9  c-0.3-0.4-0.7-0.6-1.2-0.6c-0.5,0-0.9,0.2-1.2,0.6S82.4,53.7,82.4,54.5z"/>
<path d="M88.4,57.6V49h3.2c0.7,0,1.2,0.1,1.6,0.3c0.4,0.2,0.7,0.4,0.9,0.8c0.2,0.4,0.3,0.7,0.3,1.1c0,0.4-0.1,0.7-0.3,1  c-0.2,0.3-0.5,0.6-0.9,0.8c0.5,0.2,0.9,0.4,1.2,0.8s0.4,0.8,0.4,1.3c0,0.4-0.1,0.8-0.3,1.1s-0.4,0.6-0.6,0.8s-0.6,0.3-0.9,0.4  c-0.4,0.1-0.8,0.1-1.4,0.1H88.4z M89.6,52.6h1.9c0.5,0,0.9,0,1.1-0.1c0.3-0.1,0.5-0.2,0.7-0.4s0.2-0.4,0.2-0.8  c0-0.3-0.1-0.5-0.2-0.8s-0.3-0.4-0.6-0.4s-0.7-0.1-1.3-0.1h-1.7V52.6z M89.6,56.6h2.1c0.4,0,0.6,0,0.8,0c0.3,0,0.5-0.1,0.7-0.2  s0.3-0.3,0.4-0.5s0.2-0.5,0.2-0.7c0-0.3-0.1-0.6-0.2-0.8s-0.4-0.4-0.7-0.5s-0.7-0.1-1.3-0.1h-2V56.6z"/>
<path d="M96.3,60l-0.1-1c0.2,0.1,0.4,0.1,0.6,0.1c0.2,0,0.4,0,0.6-0.1s0.3-0.2,0.3-0.3c0.1-0.1,0.2-0.4,0.3-0.8  c0-0.1,0.1-0.1,0.1-0.3l-2.4-6.2h1.1l1.3,3.6c0.2,0.5,0.3,0.9,0.5,1.4c0.1-0.5,0.3-1,0.4-1.4l1.3-3.6h1.1l-2.4,6.3  c-0.3,0.7-0.5,1.2-0.6,1.4c-0.2,0.3-0.4,0.6-0.6,0.8c-0.2,0.2-0.5,0.2-0.9,0.2C96.8,60.2,96.6,60.1,96.3,60z"/>
</svg>
