<?xml version='1.0' encoding='utf-8'?>
<svg xmlns="http://www.w3.org/2000/svg" xmlns:xlink="http://www.w3.org/1999/xlink" version="1.2" baseProfile="tiny" width="189.5px" height="94.3px" viewBox="0 0 189.5 94.3" xml:space="preserve">
<rect x="26.1" y="26.1" fill="none" stroke="#000000" stroke-width="2.2528" width="137.2" height="42"/>
<path d="M74,43.1v1h-5.7c0-0.3,0-0.5,0.1-0.7c0.1-0.4,0.4-0.8,0.7-1.1s0.8-0.8,1.4-1.3c0.9-0.8,1.6-1.4,1.9-1.8s0.5-0.9,0.5-1.3  c0-0.4-0.1-0.8-0.4-1.1c-0.3-0.3-0.7-0.4-1.2-0.4c-0.5,0-0.9,0.2-1.2,0.5c-0.3,0.3-0.5,0.7-0.5,1.3L68.5,38c0.1-0.8,0.4-1.4,0.8-1.8  c0.5-0.4,1.1-0.6,2-0.6c0.8,0,1.5,0.2,2,0.7c0.5,0.5,0.7,1,0.7,1.7c0,0.3-0.1,0.7-0.2,1s-0.4,0.7-0.7,1c-0.3,0.4-0.9,0.9-1.6,1.5  c-0.6,0.5-1,0.9-1.2,1.1s-0.3,0.4-0.4,0.6H74z"/>
<path d="M75.2,36.7v-1h5.6v0.8c-0.5,0.6-1.1,1.4-1.6,2.3s-1,2-1.2,3c-0.2,0.7-0.3,1.5-0.4,2.4h-1.1c0-0.7,0.1-1.5,0.4-2.4  s0.6-1.9,1.1-2.8c0.5-0.9,1-1.6,1.5-2.2H75.2z"/>
<path d="M83.5,39.5c-0.4-0.2-0.8-0.4-1-0.7s-0.3-0.7-0.3-1.1c0-0.6,0.2-1.2,0.7-1.6c0.5-0.4,1-0.6,1.8-0.6c0.8,0,1.4,0.2,1.8,0.7  c0.5,0.4,0.7,1,0.7,1.6c0,0.4-0.1,0.7-0.3,1s-0.5,0.5-1,0.7c0.5,0.2,0.9,0.4,1.2,0.8c0.3,0.4,0.4,0.8,0.4,1.4c0,0.7-0.3,1.4-0.8,1.9  c-0.5,0.5-1.2,0.8-2.1,0.8s-1.5-0.3-2.1-0.8c-0.5-0.5-0.8-1.1-0.8-1.9c0-0.6,0.1-1,0.4-1.4C82.6,39.9,83,39.6,83.5,39.5z M82.9,41.6  c0,0.3,0.1,0.6,0.2,0.9s0.4,0.5,0.6,0.7c0.3,0.2,0.6,0.2,0.9,0.2c0.5,0,0.9-0.2,1.3-0.5c0.3-0.3,0.5-0.7,0.5-1.2  c0-0.5-0.2-0.9-0.5-1.3c-0.3-0.3-0.8-0.5-1.3-0.5c-0.5,0-0.9,0.2-1.2,0.5C83.1,40.7,82.9,41.2,82.9,41.6z M83.3,37.7  c0,0.4,0.1,0.7,0.4,1c0.3,0.3,0.6,0.4,1,0.4c0.4,0,0.7-0.1,1-0.4c0.3-0.3,0.4-0.6,0.4-0.9c0-0.4-0.1-0.7-0.4-1s-0.6-0.4-1-0.4  c-0.4,0-0.7,0.1-1,0.4C83.4,37,83.3,37.3,83.3,37.7z"/>
<path d="M91.9,44.1v-2.1h-3.7v-1l3.9-5.6H93v5.6h1.2v1H93v2.1H91.9z M91.9,41.1v-3.9l-2.7,3.9H91.9z"/>
<path d="M95.2,39.9c0-1,0.1-1.8,0.3-2.5s0.5-1.1,0.9-1.4s0.9-0.5,1.6-0.5c0.5,0,0.9,0.1,1.2,0.3s0.6,0.5,0.9,0.8  c0.2,0.3,0.4,0.8,0.5,1.3c0.1,0.5,0.2,1.2,0.2,2c0,1-0.1,1.8-0.3,2.4s-0.5,1.1-0.9,1.4s-0.9,0.5-1.6,0.5c-0.8,0-1.5-0.3-2-0.9  C95.5,42.7,95.2,41.5,95.2,39.9z M96.3,39.9c0,1.4,0.2,2.3,0.5,2.8c0.3,0.5,0.7,0.7,1.2,0.7c0.5,0,0.9-0.2,1.2-0.7s0.5-1.4,0.5-2.8  c0-1.4-0.2-2.4-0.5-2.8s-0.7-0.7-1.2-0.7c-0.5,0-0.9,0.2-1.2,0.6C96.5,37.5,96.3,38.5,96.3,39.9z"/>
<path d="M101.9,41.9l1.1-0.1c0.1,0.6,0.3,1,0.6,1.3c0.3,0.3,0.6,0.4,1.1,0.4c0.5,0,0.9-0.2,1.3-0.5s0.5-0.8,0.5-1.3  c0-0.5-0.2-0.9-0.5-1.2c-0.3-0.3-0.7-0.5-1.2-0.5c-0.2,0-0.4,0-0.7,0.1l0.1-0.9c0.1,0,0.1,0,0.2,0c0.5,0,0.9-0.1,1.2-0.4  s0.5-0.6,0.5-1.1c0-0.4-0.1-0.7-0.4-1c-0.3-0.3-0.6-0.4-1-0.4c-0.4,0-0.8,0.1-1,0.4c-0.3,0.3-0.5,0.6-0.5,1.2l-1.1-0.2  c0.1-0.7,0.4-1.3,0.9-1.6c0.5-0.4,1-0.6,1.7-0.6c0.5,0,0.9,0.1,1.3,0.3s0.7,0.5,0.9,0.8s0.3,0.7,0.3,1.1c0,0.4-0.1,0.7-0.3,1  s-0.5,0.5-0.9,0.7c0.5,0.1,0.9,0.4,1.2,0.7c0.3,0.4,0.4,0.8,0.4,1.4c0,0.8-0.3,1.4-0.8,1.9s-1.2,0.8-2.1,0.8c-0.8,0-1.4-0.2-1.9-0.7  S102,42.6,101.9,41.9z"/>
<path d="M108.6,41.9l1.1-0.1c0.1,0.5,0.3,0.9,0.6,1.2c0.3,0.3,0.7,0.4,1.1,0.4c0.5,0,0.9-0.2,1.3-0.6c0.4-0.4,0.5-0.9,0.5-1.5  c0-0.6-0.2-1.1-0.5-1.4c-0.3-0.3-0.8-0.5-1.3-0.5c-0.3,0-0.6,0.1-0.9,0.2c-0.3,0.2-0.5,0.4-0.6,0.6l-1-0.1l0.8-4.4h4.3v1h-3.4  L110,39c0.5-0.4,1.1-0.5,1.6-0.5c0.8,0,1.4,0.3,1.9,0.8s0.8,1.2,0.8,2c0,0.8-0.2,1.4-0.7,2c-0.6,0.7-1.3,1-2.3,1  c-0.8,0-1.4-0.2-1.9-0.7C109,43.2,108.7,42.6,108.6,41.9z"/>
<path d="M115.3,39.9c0-1,0.1-1.8,0.3-2.5s0.5-1.1,0.9-1.4s0.9-0.5,1.6-0.5c0.5,0,0.9,0.1,1.2,0.3s0.6,0.5,0.9,0.8  c0.2,0.3,0.4,0.8,0.5,1.3c0.1,0.5,0.2,1.2,0.2,2c0,1-0.1,1.8-0.3,2.4s-0.5,1.1-0.9,1.4s-0.9,0.5-1.6,0.5c-0.8,0-1.5-0.3-2-0.9  C115.6,42.7,115.3,41.5,115.3,39.9z M116.4,39.9c0,1.4,0.2,2.3,0.5,2.8c0.3,0.5,0.7,0.7,1.2,0.7c0.5,0,0.9-0.2,1.2-0.7  s0.5-1.4,0.5-2.8c0-1.4-0.2-2.4-0.5-2.8s-0.7-0.7-1.2-0.7c-0.5,0-0.9,0.2-1.2,0.6C116.6,37.5,116.4,38.5,116.4,39.9z"/>
<path d="M78.3,52.1L78,50.4V49h1.2v1.4l-0.3,1.6H78.3z M80.2,52.1l-0.3-1.6V49h1.2v1.4l-0.3,1.6H80.2z"/>
<path d="M81.7,57.6L85,49h1.2l3.5,8.6h-1.3l-1-2.6h-3.6l-0.9,2.6H81.7z M84.2,54.1h2.9l-0.9-2.4c-0.3-0.7-0.5-1.3-0.6-1.8  c-0.1,0.6-0.3,1.1-0.5,1.6L84.2,54.1z"/>
<path d="M90.5,57.6V49h1.1v8.6H90.5z"/>
<path d="M93.2,50.2V49h1.1v1.2H93.2z M93.2,57.6v-6.2h1.1v6.2H93.2z"/>
<path d="M99.9,55.3l1,0.1c-0.1,0.7-0.4,1.3-0.9,1.7c-0.5,0.4-1,0.6-1.7,0.6c-0.9,0-1.5-0.3-2.1-0.8c-0.5-0.6-0.8-1.4-0.8-2.4  c0-0.7,0.1-1.3,0.3-1.8s0.6-0.9,1-1.1c0.5-0.3,1-0.4,1.5-0.4c0.7,0,1.2,0.2,1.7,0.5c0.4,0.3,0.7,0.8,0.8,1.5l-1,0.2  c-0.1-0.4-0.3-0.7-0.5-0.9c-0.2-0.2-0.5-0.3-0.9-0.3c-0.5,0-1,0.2-1.3,0.6c-0.3,0.4-0.5,1-0.5,1.8c0,0.8,0.2,1.4,0.5,1.8  c0.3,0.4,0.7,0.6,1.3,0.6c0.4,0,0.8-0.1,1-0.4C99.7,56.3,99.9,55.9,99.9,55.3z"/>
<path d="M106.1,55.6l1.1,0.1c-0.2,0.6-0.5,1.1-1,1.5c-0.5,0.4-1.1,0.5-1.8,0.5c-0.9,0-1.6-0.3-2.2-0.8c-0.5-0.6-0.8-1.3-0.8-2.4  c0-1,0.3-1.9,0.8-2.4c0.5-0.6,1.2-0.9,2.1-0.9c0.8,0,1.5,0.3,2,0.8c0.5,0.6,0.8,1.4,0.8,2.4c0,0.1,0,0.2,0,0.3h-4.7  c0,0.7,0.2,1.2,0.6,1.6s0.8,0.5,1.3,0.5c0.4,0,0.7-0.1,1-0.3C105.8,56.4,106,56.1,106.1,55.6z M102.7,53.9h3.5  c0-0.5-0.2-0.9-0.4-1.2c-0.3-0.4-0.8-0.6-1.3-0.6c-0.5,0-0.9,0.2-1.2,0.5S102.7,53.4,102.7,53.9z"/>
<path d="M108.6,52.1l-0.3-1.6V49h1.2v1.4l-0.3,1.6H108.6z M110.6,52.1l-0.3-1.6V49h1.2v1.4l-0.3,1.6H110.6z"/>
</svg>
