<?xml version='1.0' encoding='utf-8'?>
<svg xmlns="http://www.w3.org/2000/svg" xmlns:xlink="http://www.w3.org/1999/xlink" version="1.2" baseProfile="tiny" width="199.2px" height="104px" viewBox="0 0 199.2 104" xml:space="preserve">
<rect x="31" y="31" fill="none" stroke="#000000" stroke-width="2.2528" width="137.2" height="42"/>
<rect x="25" y="25" fill-rule="evenodd" fill="none" width="149.2" height="54"/>
<path d="M77.3,49h-1.1v-6.7c-0.3,0.2-0.6,0.5-1,0.7c-0.4,0.2-0.8,0.4-1.1,0.5v-1c0.6-0.3,1.1-0.6,1.6-1c0.4-0.4,0.8-0.8,0.9-1.1h0.7  V49z"/>
<path d="M80.1,46.7l1.1-0.1c0.1,0.6,0.3,1,0.6,1.3c0.3,0.3,0.6,0.4,1.1,0.4c0.5,0,0.9-0.2,1.3-0.5s0.5-0.8,0.5-1.3  c0-0.5-0.2-0.9-0.5-1.2c-0.3-0.3-0.7-0.5-1.2-0.5c-0.2,0-0.4,0-0.7,0.1l0.1-0.9c0.1,0,0.1,0,0.2,0c0.5,0,0.9-0.1,1.2-0.4  s0.5-0.6,0.5-1.1c0-0.4-0.1-0.7-0.4-1c-0.3-0.3-0.6-0.4-1-0.4c-0.4,0-0.8,0.1-1,0.4c-0.3,0.3-0.5,0.6-0.5,1.2l-1.1-0.2  c0.1-0.7,0.4-1.3,0.9-1.6c0.5-0.4,1-0.6,1.7-0.6c0.5,0,0.9,0.1,1.3,0.3s0.7,0.5,0.9,0.8s0.3,0.7,0.3,1.1c0,0.4-0.1,0.7-0.3,1  s-0.5,0.5-0.9,0.7c0.5,0.1,0.9,0.4,1.2,0.7c0.3,0.4,0.4,0.8,0.4,1.4c0,0.8-0.3,1.4-0.8,1.9s-1.2,0.8-2.1,0.8c-0.8,0-1.4-0.2-1.9-0.7  S80.1,47.4,80.1,46.7z"/>
<path d="M86.9,47l1-0.1c0.1,0.5,0.3,0.8,0.5,1s0.6,0.3,0.9,0.3c0.3,0,0.6-0.1,0.9-0.2s0.4-0.3,0.6-0.6c0.2-0.2,0.3-0.6,0.4-1  c0.1-0.4,0.2-0.9,0.2-1.3c0,0,0-0.1,0-0.2c-0.2,0.3-0.5,0.6-0.9,0.8s-0.8,0.3-1.2,0.3c-0.7,0-1.3-0.3-1.8-0.8  c-0.5-0.5-0.7-1.2-0.7-2c0-0.9,0.3-1.6,0.8-2.1c0.5-0.5,1.2-0.8,1.9-0.8c0.6,0,1.1,0.2,1.5,0.5c0.5,0.3,0.8,0.7,1.1,1.3  s0.4,1.4,0.4,2.4c0,1.1-0.1,2-0.4,2.6s-0.6,1.1-1.1,1.5c-0.5,0.3-1,0.5-1.7,0.5c-0.7,0-1.2-0.2-1.7-0.6S87,47.7,86.9,47z M91.2,43.2  c0-0.6-0.2-1.1-0.5-1.4c-0.3-0.4-0.7-0.5-1.2-0.5c-0.5,0-0.9,0.2-1.2,0.6s-0.5,0.9-0.5,1.5c0,0.5,0.2,1,0.5,1.3  c0.3,0.3,0.7,0.5,1.2,0.5c0.5,0,0.9-0.2,1.2-0.5C91.1,44.3,91.2,43.8,91.2,43.2z"/>
<path d="M96.8,49v-2.1h-3.7v-1l3.9-5.6h0.9V46H99v1h-1.2V49H96.8z M96.8,46v-3.9L94.1,46H96.8z"/>
<path d="M104.1,49H103v-6.7c-0.3,0.2-0.6,0.5-1,0.7c-0.4,0.2-0.8,0.4-1.1,0.5v-1c0.6-0.3,1.1-0.6,1.6-1c0.4-0.4,0.8-0.8,0.9-1.1h0.7  V49z"/>
<path d="M108.1,49h-1v-8.6h1.1v3.1c0.4-0.6,1-0.8,1.7-0.8c0.4,0,0.7,0.1,1.1,0.2s0.6,0.4,0.8,0.7s0.4,0.6,0.5,1s0.2,0.8,0.2,1.3  c0,1.1-0.3,1.9-0.8,2.5s-1.2,0.9-1.9,0.9c-0.7,0-1.3-0.3-1.7-0.9V49z M108.1,45.8c0,0.7,0.1,1.3,0.3,1.6c0.3,0.5,0.8,0.8,1.4,0.8  c0.5,0,0.9-0.2,1.2-0.6c0.3-0.4,0.5-1,0.5-1.8c0-0.8-0.2-1.4-0.5-1.8c-0.3-0.4-0.7-0.6-1.2-0.6c-0.5,0-0.9,0.2-1.2,0.6  C108.2,44.5,108.1,45.1,108.1,45.8z"/>
<path d="M116.9,49v-2.1h-3.7v-1l3.9-5.6h0.9V46h1.2v1H118V49H116.9z M116.9,46v-3.9l-2.7,3.9H116.9z"/>
<path d="M121.8,44.3c-0.4-0.2-0.8-0.4-1-0.7s-0.3-0.7-0.3-1.1c0-0.6,0.2-1.2,0.7-1.6c0.5-0.4,1-0.6,1.8-0.6c0.8,0,1.4,0.2,1.8,0.7  c0.5,0.4,0.7,1,0.7,1.6c0,0.4-0.1,0.7-0.3,1s-0.5,0.5-1,0.7c0.5,0.2,0.9,0.4,1.2,0.8c0.3,0.4,0.4,0.8,0.4,1.4c0,0.7-0.3,1.4-0.8,1.9  c-0.5,0.5-1.2,0.8-2.1,0.8s-1.5-0.3-2.1-0.8c-0.5-0.5-0.8-1.1-0.8-1.9c0-0.6,0.1-1,0.4-1.4C120.9,44.7,121.3,44.5,121.8,44.3z   M121.3,46.5c0,0.3,0.1,0.6,0.2,0.9s0.4,0.5,0.6,0.7c0.3,0.2,0.6,0.2,0.9,0.2c0.5,0,0.9-0.2,1.3-0.5c0.3-0.3,0.5-0.7,0.5-1.2  c0-0.5-0.2-0.9-0.5-1.3c-0.3-0.3-0.8-0.5-1.3-0.5c-0.5,0-0.9,0.2-1.2,0.5C121.4,45.6,121.3,46,121.3,46.5z M121.6,42.6  c0,0.4,0.1,0.7,0.4,1c0.3,0.3,0.6,0.4,1,0.4c0.4,0,0.7-0.1,1-0.4c0.3-0.3,0.4-0.6,0.4-0.9c0-0.4-0.1-0.7-0.4-1s-0.6-0.4-1-0.4  c-0.4,0-0.7,0.1-1,0.4C121.7,41.9,121.6,42.2,121.6,42.6z"/>
<path d="M83.2,57l-0.3-1.6v-1.4h1.2v1.4L83.8,57H83.2z M85.1,57l-0.3-1.6v-1.4H86v1.4L85.7,57H85.1z"/>
<path d="M86.6,62.5l3.3-8.6h1.2l3.5,8.6h-1.3l-1-2.6h-3.6l-0.9,2.6H86.6z M89.1,59H92l-0.9-2.4c-0.3-0.7-0.5-1.3-0.6-1.8  c-0.1,0.6-0.3,1.1-0.5,1.6L89.1,59z"/>
<path d="M95.4,62.5v-8.6h1.1v8.6H95.4z"/>
<path d="M98.1,55.1v-1.2h1.1v1.2H98.1z M98.1,62.5v-6.2h1.1v6.2H98.1z"/>
<path d="M104.8,60.2l1,0.1c-0.1,0.7-0.4,1.3-0.9,1.7c-0.5,0.4-1,0.6-1.7,0.6c-0.9,0-1.5-0.3-2.1-0.8c-0.5-0.6-0.8-1.4-0.8-2.4  c0-0.7,0.1-1.3,0.3-1.8s0.6-0.9,1-1.1c0.5-0.3,1-0.4,1.5-0.4c0.7,0,1.2,0.2,1.7,0.5c0.4,0.3,0.7,0.8,0.8,1.5l-1,0.2  c-0.1-0.4-0.3-0.7-0.5-0.9c-0.2-0.2-0.5-0.3-0.9-0.3c-0.5,0-1,0.2-1.3,0.6c-0.3,0.4-0.5,1-0.5,1.8c0,0.8,0.2,1.4,0.5,1.8  c0.3,0.4,0.7,0.6,1.3,0.6c0.4,0,0.8-0.1,1-0.4C104.6,61.1,104.7,60.7,104.8,60.2z"/>
<path d="M111,60.5l1.1,0.1c-0.2,0.6-0.5,1.1-1,1.5c-0.5,0.4-1.1,0.5-1.8,0.5c-0.9,0-1.6-0.3-2.2-0.8c-0.5-0.6-0.8-1.3-0.8-2.4  c0-1,0.3-1.9,0.8-2.4c0.5-0.6,1.2-0.9,2.1-0.9c0.8,0,1.5,0.3,2,0.8c0.5,0.6,0.8,1.4,0.8,2.4c0,0.1,0,0.2,0,0.3h-4.7  c0,0.7,0.2,1.2,0.6,1.6s0.8,0.5,1.3,0.5c0.4,0,0.7-0.1,1-0.3C110.7,61.3,110.9,60.9,111,60.5z M107.6,58.8h3.5  c0-0.5-0.2-0.9-0.4-1.2c-0.3-0.4-0.8-0.6-1.3-0.6c-0.5,0-0.9,0.2-1.2,0.5S107.6,58.2,107.6,58.8z"/>
<path d="M113.5,57l-0.3-1.6v-1.4h1.2v1.4l-0.3,1.6H113.5z M115.5,57l-0.3-1.6v-1.4h1.2v1.4l-0.3,1.6H115.5z"/>
<rect x="38.5" y="38.5" fill-rule="evenodd" fill="none" width="122.6" height="27"/>
</svg>
