<?xml version='1.0' encoding='utf-8'?>
<svg xmlns="http://www.w3.org/2000/svg" xmlns:xlink="http://www.w3.org/1999/xlink" version="1.2" baseProfile="tiny" width="533px" height="223.2px" viewBox="0 0 533 223.2" xml:space="preserve">
<path fill="none" stroke="#000000" stroke-width="1.4997" d="M94.2,73.7l5.8-3.6c5.8-3.6,17.4-10.8,28.2-14.5s20.7-3.6,25.6-3.6h5"/>
<rect x="25" y="25" fill-rule="evenodd" fill="none" width="483" height="173.2"/>
<polygon fill="black" points="150.8,47.5 159.8,52 150.8,56.5 "/>
<rect x="149.3" y="47.5" fill-rule="evenodd" fill="none" width="12" height="9"/>
<path fill="none" stroke="#000000" stroke-width="1.4997" d="M94.2,109.8l5.8,3.6c5.8,3.6,17.4,10.8,31.7,14.5s31.2,3.6,39.7,3.6  h8.5"/>
<rect x="25" y="25" fill-rule="evenodd" fill="none" width="483" height="173.2"/>
<polygon fill="black" points="171.9,127 180.9,131.5 171.9,136 "/>
<rect x="170.4" y="127" fill-rule="evenodd" fill="none" width="12" height="9"/>
<path fill="none" stroke="#000000" stroke-width="1.4997" d="M274.6,112.5l8.6-3.5c8.6-3.5,25.9-10.4,39.7-13.9  c13.8-3.5,24-3.5,29.1-3.5h5.1"/>
<rect x="25" y="25" fill-rule="evenodd" fill="none" width="483" height="173.2"/>
<polygon fill="black" points="349.1,87.2 358.1,91.8 349.1,96.2 "/>
<rect x="347.6" y="87.2" fill-rule="evenodd" fill="none" width="12" height="9"/>
<path fill="none" stroke="#000000" stroke-width="1.4997" d="M274.6,150.5l8.6,3.5c8.6,3.5,25.9,10.4,40.8,13.9  c14.8,3.5,27.2,3.5,33.4,3.5h6.2"/>
<rect x="25" y="25" fill-rule="evenodd" fill="none" width="483" height="173.2"/>
<polygon fill="black" points="355.4,166.8 364.4,171.2 355.4,175.8 "/>
<rect x="353.9" y="166.8" fill-rule="evenodd" fill="none" width="12" height="9"/>
<path d="M118.5,53.9l1-0.2c0.1,0.4,0.2,0.7,0.5,1c0.3,0.2,0.6,0.3,1.1,0.3c0.5,0,0.8-0.1,1.1-0.3s0.4-0.4,0.4-0.7  c0-0.2-0.1-0.4-0.3-0.6c-0.1-0.1-0.5-0.2-1.1-0.4c-0.8-0.2-1.3-0.4-1.6-0.5s-0.5-0.3-0.7-0.6s-0.2-0.5-0.2-0.8  c0-0.3,0.1-0.5,0.2-0.8s0.3-0.4,0.5-0.6c0.2-0.1,0.4-0.2,0.7-0.3c0.3-0.1,0.6-0.1,0.9-0.1c0.5,0,0.9,0.1,1.3,0.2  c0.4,0.1,0.6,0.3,0.8,0.6s0.3,0.6,0.4,1l-1,0.1c0-0.3-0.2-0.6-0.4-0.8s-0.5-0.3-1-0.3c-0.5,0-0.8,0.1-1,0.2  c-0.2,0.2-0.3,0.3-0.3,0.6c0,0.1,0,0.3,0.1,0.4c0.1,0.1,0.2,0.2,0.4,0.3c0.1,0,0.4,0.1,0.9,0.3c0.7,0.2,1.3,0.4,1.6,0.5  s0.5,0.3,0.7,0.6s0.3,0.5,0.3,0.9c0,0.4-0.1,0.7-0.3,1s-0.5,0.6-0.9,0.7c-0.4,0.2-0.8,0.3-1.3,0.3c-0.8,0-1.4-0.2-1.8-0.5  S118.6,54.6,118.5,53.9z"/>
<path d="M129,55.8v-0.9c-0.5,0.7-1.1,1.1-2,1.1c-0.4,0-0.7-0.1-1-0.2c-0.3-0.1-0.6-0.3-0.7-0.5s-0.3-0.5-0.3-0.8  c0-0.2-0.1-0.5-0.1-1v-3.9h1.1V53c0,0.6,0,0.9,0.1,1.1c0.1,0.3,0.2,0.5,0.4,0.7s0.5,0.2,0.8,0.2c0.3,0,0.6-0.1,0.9-0.2  s0.5-0.4,0.6-0.7s0.2-0.7,0.2-1.2v-3.3h1.1v6.2H129z"/>
<path d="M132.5,55.8h-1v-8.6h1.1v3.1c0.4-0.6,1-0.8,1.7-0.8c0.4,0,0.7,0.1,1.1,0.2s0.6,0.4,0.8,0.7c0.2,0.3,0.4,0.6,0.5,1  s0.2,0.8,0.2,1.3c0,1.1-0.3,1.9-0.8,2.5c-0.5,0.6-1.2,0.9-1.9,0.9c-0.7,0-1.3-0.3-1.7-0.9V55.8z M132.5,52.6c0,0.7,0.1,1.3,0.3,1.6  c0.3,0.5,0.8,0.8,1.3,0.8c0.5,0,0.9-0.2,1.2-0.6s0.5-1,0.5-1.8c0-0.8-0.2-1.4-0.5-1.8c-0.3-0.4-0.7-0.6-1.2-0.6  c-0.5,0-0.9,0.2-1.2,0.6S132.5,51.8,132.5,52.6z"/>
<path d="M136.9,58.2l0.2-0.9c0.2,0.1,0.4,0.1,0.5,0.1c0.2,0,0.4-0.1,0.5-0.2c0.1-0.1,0.2-0.5,0.2-1.1v-6.5h1.1v6.6  c0,0.8-0.1,1.3-0.3,1.6c-0.3,0.4-0.7,0.6-1.3,0.6C137.4,58.3,137.2,58.2,136.9,58.2z M138.2,48.4v-1.2h1.1v1.2H138.2z"/>
<rect x="118.1" y="45.2" fill-rule="evenodd" fill="none" width="21.7" height="13.5"/>
<path d="M315.2,97.9v-8.6h1v0.8c0.2-0.3,0.5-0.6,0.8-0.7s0.6-0.2,1-0.2c0.5,0,1,0.1,1.4,0.4s0.7,0.7,0.9,1.2s0.3,1,0.3,1.6  c0,0.6-0.1,1.2-0.3,1.7c-0.2,0.5-0.6,0.9-1,1.2s-0.9,0.4-1.4,0.4c-0.4,0-0.7-0.1-0.9-0.2s-0.5-0.3-0.7-0.6v3H315.2z M316.2,92.4  c0,0.8,0.2,1.4,0.5,1.8s0.7,0.6,1.2,0.6c0.5,0,0.9-0.2,1.2-0.6c0.3-0.4,0.5-1,0.5-1.8c0-0.8-0.2-1.4-0.5-1.8  c-0.3-0.4-0.7-0.6-1.2-0.6c-0.4,0-0.8,0.2-1.2,0.6S316.2,91.6,316.2,92.4z"/>
<path d="M321.9,95.5v-6.2h0.9v0.9c0.2-0.4,0.5-0.7,0.7-0.9s0.4-0.2,0.7-0.2c0.4,0,0.7,0.1,1.1,0.3l-0.4,1c-0.3-0.2-0.5-0.2-0.8-0.2  c-0.2,0-0.4,0.1-0.6,0.2s-0.3,0.3-0.4,0.6c-0.1,0.4-0.2,0.8-0.2,1.2v3.3H321.9z"/>
<path d="M330.1,93.5l1.1,0.1c-0.2,0.6-0.5,1.1-1,1.5s-1.1,0.5-1.8,0.5c-0.9,0-1.6-0.3-2.2-0.8c-0.5-0.6-0.8-1.3-0.8-2.4  c0-1,0.3-1.9,0.8-2.4c0.5-0.6,1.2-0.9,2.1-0.9c0.8,0,1.5,0.3,2,0.8s0.8,1.4,0.8,2.4c0,0.1,0,0.2,0,0.3h-4.6c0,0.7,0.2,1.2,0.6,1.6  s0.8,0.5,1.3,0.5c0.4,0,0.7-0.1,1-0.3S330,93.9,330.1,93.5z M326.7,91.8h3.5c0-0.5-0.2-0.9-0.4-1.2c-0.3-0.4-0.8-0.6-1.3-0.6  c-0.5,0-0.9,0.2-1.2,0.5S326.7,91.2,326.7,91.8z"/>
<path d="M336.6,95.5v-0.8c-0.4,0.6-1,0.9-1.7,0.9c-0.5,0-1-0.1-1.4-0.4s-0.7-0.7-1-1.1s-0.3-1.1-0.3-1.7c0-0.6,0.1-1.2,0.3-1.7  s0.5-0.9,0.9-1.2s0.9-0.4,1.4-0.4c0.4,0,0.7,0.1,1,0.2c0.3,0.2,0.5,0.4,0.7,0.6v-3.1h1v8.6H336.6z M333.3,92.4  c0,0.8,0.2,1.4,0.5,1.8s0.7,0.6,1.2,0.6c0.5,0,0.9-0.2,1.2-0.6s0.5-1,0.5-1.7c0-0.9-0.2-1.5-0.5-1.9s-0.7-0.6-1.2-0.6  c-0.5,0-0.9,0.2-1.2,0.6S333.3,91.6,333.3,92.4z"/>
<rect x="314.4" y="85" fill-rule="evenodd" fill="none" width="24" height="13.5"/>
<path d="M318.8,171.9c0-1.2,0.3-2,1-2.6c0.5-0.5,1.2-0.7,2-0.7c0.9,0,1.6,0.3,2.1,0.8c0.5,0.6,0.8,1.3,0.8,2.3  c0,0.8-0.1,1.4-0.4,1.9c-0.2,0.5-0.6,0.8-1,1.1s-1,0.4-1.5,0.4c-0.9,0-1.6-0.3-2.1-0.8C319.1,173.7,318.8,172.9,318.8,171.9z   M319.9,171.9c0,0.8,0.2,1.4,0.5,1.8c0.3,0.4,0.8,0.6,1.3,0.6c0.5,0,1-0.2,1.3-0.6s0.5-1,0.5-1.8c0-0.8-0.2-1.4-0.5-1.7  c-0.3-0.4-0.8-0.6-1.3-0.6c-0.5,0-1,0.2-1.3,0.6C320.1,170.5,319.9,171.1,319.9,171.9z"/>
<path d="M326.9,175h-1v-8.6h1.1v3.1c0.4-0.6,1-0.8,1.7-0.8c0.4,0,0.7,0.1,1.1,0.2s0.6,0.4,0.8,0.7s0.4,0.6,0.5,1s0.2,0.8,0.2,1.3  c0,1.1-0.3,1.9-0.8,2.5s-1.2,0.9-1.9,0.9c-0.7,0-1.3-0.3-1.7-0.9V175z M326.8,171.8c0,0.7,0.1,1.3,0.3,1.6c0.3,0.5,0.8,0.8,1.3,0.8  c0.5,0,0.9-0.2,1.2-0.6s0.5-1,0.5-1.8c0-0.8-0.2-1.4-0.5-1.8s-0.7-0.6-1.2-0.6c-0.5,0-0.9,0.2-1.2,0.6S326.8,171.1,326.8,171.8z"/>
<path d="M331.2,177.4l0.2-0.9c0.2,0.1,0.4,0.1,0.5,0.1c0.2,0,0.4-0.1,0.5-0.2s0.2-0.5,0.2-1.1v-6.5h1.1v6.6c0,0.8-0.1,1.3-0.3,1.6  c-0.3,0.4-0.7,0.6-1.3,0.6C331.8,177.5,331.5,177.5,331.2,177.4z M332.6,167.6v-1.2h1.1v1.2H332.6z"/>
<rect x="318.4" y="164.5" fill-rule="evenodd" fill="none" width="15.7" height="13.5"/>
<path fill="none" stroke="#000000" stroke-width="2.2496" d="M99.4,91.8c0,1.1-0.1,2.2-0.2,3.4c-0.1,1.1-0.3,2.2-0.5,3.3  c-0.2,1.1-0.5,2.2-0.8,3.3c-0.3,1.1-0.7,2.1-1.1,3.2c-0.4,1-0.9,2-1.4,3c-0.5,1-1.1,1.9-1.7,2.9c-0.6,0.9-1.3,1.8-2,2.7  s-1.5,1.7-2.3,2.5s-1.6,1.5-2.5,2.3c-0.9,0.7-1.8,1.4-2.7,2c-0.9,0.6-1.9,1.2-2.9,1.7c-1,0.5-2,1-3,1.4s-2.1,0.8-3.2,1.1  c-1.1,0.3-2.2,0.6-3.3,0.8s-2.2,0.4-3.3,0.5c-1.1,0.1-2.2,0.2-3.4,0.2c-1.1,0-2.2-0.1-3.4-0.2c-1.1-0.1-2.2-0.3-3.3-0.5  c-1.1-0.2-2.2-0.5-3.3-0.8c-1.1-0.3-2.1-0.7-3.2-1.1s-2-0.9-3-1.4c-1-0.5-1.9-1.1-2.9-1.7c-0.9-0.6-1.8-1.3-2.7-2  c-0.9-0.7-1.7-1.5-2.5-2.3s-1.5-1.6-2.3-2.5s-1.4-1.8-2-2.7c-0.6-0.9-1.2-1.9-1.7-2.9c-0.5-1-1-2-1.4-3c-0.4-1-0.8-2.1-1.1-3.2  c-0.3-1.1-0.6-2.2-0.8-3.3c-0.2-1.1-0.4-2.2-0.5-3.3C31.1,94,31,92.9,31,91.8c0-1.1,0.1-2.2,0.2-3.4c0.1-1.1,0.3-2.2,0.5-3.3  c0.2-1.1,0.5-2.2,0.8-3.3c0.3-1.1,0.7-2.1,1.1-3.2c0.4-1,0.9-2,1.4-3c0.5-1,1.1-1.9,1.7-2.9c0.6-0.9,1.3-1.8,2-2.7s1.5-1.7,2.3-2.5  s1.6-1.5,2.5-2.3c0.9-0.7,1.8-1.4,2.7-2c0.9-0.6,1.9-1.2,2.9-1.7c1-0.5,2-1,3-1.4s2.1-0.8,3.2-1.1c1.1-0.3,2.2-0.6,3.3-0.8  c1.1-0.2,2.2-0.4,3.3-0.5c1.1-0.1,2.2-0.2,3.4-0.2c1.1,0,2.2,0.1,3.4,0.2c1.1,0.1,2.2,0.3,3.3,0.5s2.2,0.5,3.3,0.8  c1.1,0.3,2.1,0.7,3.2,1.1s2,0.9,3,1.4c1,0.5,1.9,1.1,2.9,1.7c0.9,0.6,1.8,1.3,2.7,2c0.9,0.7,1.7,1.5,2.5,2.3s1.5,1.6,2.3,2.5  s1.4,1.8,2,2.7c0.6,0.9,1.2,1.9,1.7,2.9c0.5,1,1,2,1.4,3c0.4,1,0.8,2.1,1.1,3.2c0.3,1.1,0.6,2.2,0.8,3.3c0.2,1.1,0.4,2.2,0.5,3.3  C99.3,89.5,99.4,90.6,99.4,91.8z"/>
<rect x="25" y="25" fill-rule="evenodd" fill="none" width="483" height="173.2"/>
<path d="M40.6,84.1c-0.4-0.2-0.8-0.4-1-0.7s-0.3-0.7-0.3-1.1c0-0.6,0.2-1.2,0.7-1.6c0.4-0.4,1-0.6,1.8-0.6c0.8,0,1.4,0.2,1.8,0.7  s0.7,1,0.7,1.6c0,0.4-0.1,0.7-0.3,1c-0.2,0.3-0.5,0.5-1,0.7c0.5,0.2,0.9,0.4,1.2,0.8c0.3,0.4,0.4,0.8,0.4,1.4c0,0.7-0.3,1.4-0.8,1.9  c-0.5,0.5-1.2,0.8-2.1,0.8c-0.8,0-1.5-0.3-2-0.8C39.2,87.6,39,87,39,86.3c0-0.6,0.1-1,0.4-1.4S40.1,84.2,40.6,84.1z M40.1,86.3  c0,0.3,0.1,0.6,0.2,0.9c0.1,0.3,0.4,0.5,0.6,0.7s0.6,0.2,0.9,0.2c0.5,0,0.9-0.2,1.2-0.5c0.3-0.3,0.5-0.7,0.5-1.2  c0-0.5-0.2-0.9-0.5-1.3c-0.3-0.3-0.8-0.5-1.3-0.5c-0.5,0-0.9,0.2-1.2,0.5C40.2,85.4,40.1,85.8,40.1,86.3z M40.4,82.3  c0,0.4,0.1,0.7,0.4,1s0.6,0.4,1,0.4c0.4,0,0.7-0.1,1-0.4c0.3-0.3,0.4-0.6,0.4-0.9c0-0.4-0.1-0.7-0.4-1c-0.3-0.3-0.6-0.4-1-0.4  c-0.4,0-0.7,0.1-1,0.4S40.4,81.9,40.4,82.3z"/>
<path d="M45.8,86.8l1-0.1c0.1,0.5,0.2,0.8,0.5,1s0.6,0.3,0.9,0.3c0.3,0,0.6-0.1,0.9-0.2s0.4-0.3,0.6-0.6s0.3-0.6,0.4-1  s0.2-0.9,0.2-1.3c0,0,0-0.1,0-0.2c-0.2,0.3-0.5,0.6-0.9,0.8c-0.4,0.2-0.8,0.3-1.2,0.3c-0.7,0-1.3-0.3-1.8-0.8s-0.7-1.2-0.7-2  c0-0.9,0.3-1.6,0.8-2.1c0.5-0.5,1.2-0.8,1.9-0.8c0.6,0,1.1,0.2,1.5,0.5c0.5,0.3,0.8,0.7,1.1,1.3c0.2,0.6,0.4,1.4,0.4,2.4  c0,1.1-0.1,2-0.4,2.6c-0.2,0.7-0.6,1.1-1.1,1.5s-1,0.5-1.7,0.5c-0.7,0-1.2-0.2-1.6-0.6C46.2,88,45.9,87.4,45.8,86.8z M50.1,83  c0-0.6-0.2-1.1-0.5-1.4c-0.3-0.4-0.7-0.5-1.2-0.5c-0.5,0-0.9,0.2-1.2,0.6s-0.5,0.9-0.5,1.5c0,0.5,0.2,1,0.5,1.3s0.7,0.5,1.2,0.5  c0.5,0,0.9-0.2,1.2-0.5C50,84.1,50.1,83.6,50.1,83z"/>
<path d="M52.3,86.5l1.1-0.1c0.1,0.5,0.3,0.9,0.6,1.2c0.3,0.3,0.7,0.4,1.1,0.4c0.5,0,0.9-0.2,1.3-0.6c0.4-0.4,0.5-0.9,0.5-1.5  c0-0.6-0.2-1.1-0.5-1.4c-0.3-0.3-0.8-0.5-1.3-0.5c-0.3,0-0.6,0.1-0.9,0.2s-0.5,0.4-0.6,0.6l-1-0.1l0.8-4.4h4.3v1h-3.4l-0.5,2.3  c0.5-0.4,1.1-0.5,1.6-0.5c0.8,0,1.4,0.3,1.9,0.8c0.5,0.5,0.8,1.2,0.8,2c0,0.8-0.2,1.4-0.7,2c-0.6,0.7-1.3,1-2.3,1  c-0.8,0-1.4-0.2-1.9-0.7C52.7,87.8,52.4,87.2,52.3,86.5z"/>
<path d="M59,86.5l1.1-0.1c0.1,0.5,0.3,0.9,0.6,1.2c0.3,0.3,0.7,0.4,1.1,0.4c0.5,0,0.9-0.2,1.3-0.6c0.4-0.4,0.5-0.9,0.5-1.5  c0-0.6-0.2-1.1-0.5-1.4c-0.3-0.3-0.8-0.5-1.3-0.5c-0.3,0-0.6,0.1-0.9,0.2s-0.5,0.4-0.6,0.6l-1-0.1l0.8-4.4h4.3v1h-3.4l-0.5,2.3  c0.5-0.4,1.1-0.5,1.6-0.5c0.8,0,1.4,0.3,1.9,0.8c0.5,0.5,0.8,1.2,0.8,2c0,0.8-0.2,1.4-0.7,2c-0.6,0.7-1.3,1-2.3,1  c-0.8,0-1.4-0.2-1.9-0.7C59.4,87.8,59.1,87.2,59,86.5z"/>
<path d="M70,88.8V88c-0.4,0.6-1,0.9-1.7,0.9c-0.5,0-1-0.1-1.4-0.4c-0.4-0.3-0.7-0.7-1-1.1c-0.2-0.5-0.3-1.1-0.3-1.7  c0-0.6,0.1-1.2,0.3-1.7s0.5-0.9,0.9-1.2c0.4-0.3,0.9-0.4,1.4-0.4c0.4,0,0.7,0.1,1,0.2s0.5,0.4,0.7,0.6v-3.1h1v8.6H70z M66.7,85.6  c0,0.8,0.2,1.4,0.5,1.8c0.3,0.4,0.7,0.6,1.2,0.6c0.5,0,0.9-0.2,1.2-0.6c0.3-0.4,0.5-1,0.5-1.7c0-0.9-0.2-1.5-0.5-1.9  c-0.3-0.4-0.7-0.6-1.2-0.6c-0.5,0-0.9,0.2-1.2,0.6C66.8,84.2,66.7,84.8,66.7,85.6z"/>
<path d="M73.6,88.8h-1v-8.6h1.1v3.1c0.4-0.6,1-0.8,1.7-0.8c0.4,0,0.7,0.1,1.1,0.2s0.6,0.4,0.8,0.7c0.2,0.3,0.4,0.6,0.5,1  s0.2,0.8,0.2,1.3c0,1.1-0.3,1.9-0.8,2.5c-0.5,0.6-1.2,0.9-1.9,0.9c-0.7,0-1.3-0.3-1.7-0.9V88.8z M73.6,85.6c0,0.7,0.1,1.3,0.3,1.6  c0.3,0.5,0.8,0.8,1.3,0.8c0.5,0,0.9-0.2,1.2-0.6s0.5-1,0.5-1.8c0-0.8-0.2-1.4-0.5-1.8c-0.3-0.4-0.7-0.6-1.2-0.6  c-0.5,0-0.9,0.2-1.2,0.6S73.6,84.8,73.6,85.6z"/>
<path d="M79,86.5l1.1-0.1c0.1,0.5,0.3,0.9,0.6,1.2c0.3,0.3,0.7,0.4,1.1,0.4c0.5,0,0.9-0.2,1.3-0.6c0.4-0.4,0.5-0.9,0.5-1.5  c0-0.6-0.2-1.1-0.5-1.4c-0.3-0.3-0.8-0.5-1.3-0.5c-0.3,0-0.6,0.1-0.9,0.2s-0.5,0.4-0.6,0.6l-1-0.1l0.8-4.4h4.3v1h-3.4l-0.5,2.3  c0.5-0.4,1.1-0.5,1.6-0.5c0.8,0,1.4,0.3,1.9,0.8c0.5,0.5,0.8,1.2,0.8,2c0,0.8-0.2,1.4-0.7,2c-0.6,0.7-1.3,1-2.3,1  c-0.8,0-1.4-0.2-1.9-0.7C79.4,87.8,79.1,87.2,79,86.5z"/>
<path d="M90.2,86.7l1.1,0.1c-0.2,0.6-0.5,1.1-1,1.5c-0.5,0.4-1.1,0.5-1.8,0.5c-0.9,0-1.6-0.3-2.2-0.8s-0.8-1.3-0.8-2.4  c0-1,0.3-1.9,0.8-2.4s1.2-0.9,2.1-0.9c0.8,0,1.5,0.3,2,0.8c0.5,0.6,0.8,1.4,0.8,2.4c0,0.1,0,0.2,0,0.3h-4.6c0,0.7,0.2,1.2,0.6,1.6  s0.8,0.5,1.3,0.5c0.4,0,0.7-0.1,1-0.3C89.9,87.5,90.1,87.2,90.2,86.7z M86.8,85h3.5c0-0.5-0.2-0.9-0.4-1.2c-0.3-0.4-0.8-0.6-1.3-0.6  c-0.5,0-0.9,0.2-1.2,0.5S86.8,84.5,86.8,85z"/>
<path d="M48.8,102.2v-8.6h1.2l4.5,6.7v-6.7h1.1v8.6h-1.2l-4.5-6.8v6.8H48.8z"/>
<path d="M57.1,98.1c0-1.4,0.4-2.5,1.1-3.3c0.8-0.8,1.8-1.2,3-1.2c0.8,0,1.5,0.2,2.1,0.6c0.6,0.4,1.1,0.9,1.5,1.6  c0.3,0.7,0.5,1.4,0.5,2.3c0,0.9-0.2,1.7-0.5,2.3c-0.4,0.7-0.8,1.2-1.5,1.6c-0.6,0.4-1.3,0.5-2.1,0.5c-0.8,0-1.5-0.2-2.2-0.6  c-0.6-0.4-1.1-0.9-1.4-1.6S57.1,98.8,57.1,98.1z M58.3,98.1c0,1,0.3,1.9,0.8,2.4s1.3,0.9,2.1,0.9c0.9,0,1.6-0.3,2.1-0.9  c0.6-0.6,0.8-1.5,0.8-2.6c0-0.7-0.1-1.3-0.4-1.8s-0.6-0.9-1-1.2s-1-0.4-1.5-0.4c-0.8,0-1.5,0.3-2.1,0.8  C58.6,95.9,58.3,96.8,58.3,98.1z"/>
<path d="M66.8,102.2v-8.6h3c0.7,0,1.2,0,1.5,0.1c0.5,0.1,0.9,0.3,1.3,0.6c0.5,0.4,0.8,0.9,1,1.5s0.3,1.3,0.3,2  c0,0.7-0.1,1.2-0.2,1.7s-0.3,0.9-0.6,1.3s-0.5,0.6-0.8,0.8s-0.6,0.3-1,0.4c-0.4,0.1-0.9,0.1-1.4,0.1H66.8z M67.9,101.2h1.8  c0.6,0,1-0.1,1.3-0.2s0.6-0.3,0.8-0.4c0.3-0.3,0.5-0.6,0.6-1.1c0.1-0.5,0.2-1,0.2-1.7c0-0.9-0.1-1.6-0.4-2.1s-0.7-0.8-1.1-1  c-0.3-0.1-0.8-0.2-1.5-0.2h-1.8V101.2z"/>
<path d="M75.5,102.2v-8.6h6.2v1h-5.1v2.6h4.8v1h-4.8v2.9h5.3v1H75.5z"/>
<rect x="38.5" y="78.2" fill-rule="evenodd" fill="none" width="53.2" height="27"/>
<rect x="158.9" y="31" fill="none" stroke="#000000" stroke-width="2.2496" width="136.8" height="42"/>
<rect x="25" y="25" fill-rule="evenodd" fill="none" width="483" height="173.2"/>
<path d="M205.1,49H204v-6.7c-0.3,0.2-0.6,0.5-1,0.7s-0.8,0.4-1.1,0.5v-1c0.6-0.3,1.1-0.6,1.5-1c0.4-0.4,0.8-0.8,0.9-1.1h0.7V49z"/>
<path d="M207.8,46.7l1.1-0.1c0.1,0.6,0.3,1,0.6,1.3s0.6,0.4,1.1,0.4c0.5,0,0.9-0.2,1.3-0.5c0.3-0.3,0.5-0.8,0.5-1.3  c0-0.5-0.2-0.9-0.5-1.2c-0.3-0.3-0.7-0.5-1.2-0.5c-0.2,0-0.4,0-0.7,0.1L210,44c0.1,0,0.1,0,0.2,0c0.4,0,0.9-0.1,1.2-0.4  c0.4-0.2,0.5-0.6,0.5-1.1c0-0.4-0.1-0.7-0.4-1c-0.3-0.3-0.6-0.4-1-0.4c-0.4,0-0.8,0.1-1,0.4s-0.4,0.6-0.5,1.2l-1.1-0.2  c0.1-0.7,0.4-1.3,0.9-1.6c0.5-0.4,1-0.6,1.7-0.6c0.5,0,0.9,0.1,1.3,0.3c0.4,0.2,0.7,0.5,0.9,0.8c0.2,0.3,0.3,0.7,0.3,1.1  c0,0.4-0.1,0.7-0.3,1s-0.5,0.5-0.9,0.7c0.5,0.1,0.9,0.4,1.2,0.7c0.3,0.4,0.4,0.8,0.4,1.4c0,0.8-0.3,1.4-0.8,1.9  c-0.5,0.5-1.2,0.8-2.1,0.8c-0.8,0-1.4-0.2-1.9-0.7S207.8,47.4,207.8,46.7z"/>
<path d="M214.6,47l1-0.1c0.1,0.5,0.2,0.8,0.5,1s0.6,0.3,0.9,0.3c0.3,0,0.6-0.1,0.9-0.2s0.4-0.3,0.6-0.6s0.3-0.6,0.4-1  s0.2-0.9,0.2-1.3c0,0,0-0.1,0-0.2c-0.2,0.3-0.5,0.6-0.9,0.8c-0.4,0.2-0.8,0.3-1.2,0.3c-0.7,0-1.3-0.3-1.8-0.8s-0.7-1.2-0.7-2  c0-0.9,0.3-1.6,0.8-2.1c0.5-0.5,1.2-0.8,1.9-0.8c0.6,0,1.1,0.2,1.5,0.5c0.5,0.3,0.8,0.7,1.1,1.3c0.2,0.6,0.4,1.4,0.4,2.4  c0,1.1-0.1,2-0.4,2.6c-0.2,0.7-0.6,1.1-1.1,1.5s-1,0.5-1.7,0.5c-0.7,0-1.2-0.2-1.6-0.6C214.9,48.2,214.7,47.7,214.6,47z M218.9,43.2  c0-0.6-0.2-1.1-0.5-1.4c-0.3-0.4-0.7-0.5-1.2-0.5c-0.5,0-0.9,0.2-1.2,0.6s-0.5,0.9-0.5,1.5c0,0.5,0.2,1,0.5,1.3s0.7,0.5,1.2,0.5  c0.5,0,0.9-0.2,1.2-0.5C218.7,44.3,218.9,43.8,218.9,43.2z"/>
<path d="M224.5,49v-2.1h-3.7v-1l3.9-5.6h0.9V46h1.2v1h-1.2V49H224.5z M224.5,46v-3.9l-2.7,3.9H224.5z"/>
<path d="M231.7,49h-1.1v-6.7c-0.3,0.2-0.6,0.5-1,0.7s-0.8,0.4-1.1,0.5v-1c0.6-0.3,1.1-0.6,1.5-1c0.4-0.4,0.8-0.8,0.9-1.1h0.7V49z"/>
<path d="M235.7,49h-1v-8.6h1.1v3.1c0.4-0.6,1-0.8,1.7-0.8c0.4,0,0.7,0.1,1.1,0.2s0.6,0.4,0.8,0.7c0.2,0.3,0.4,0.6,0.5,1  s0.2,0.8,0.2,1.3c0,1.1-0.3,1.9-0.8,2.5c-0.5,0.6-1.2,0.9-1.9,0.9c-0.7,0-1.3-0.3-1.7-0.9V49z M235.7,45.8c0,0.7,0.1,1.3,0.3,1.6  c0.3,0.5,0.8,0.8,1.3,0.8c0.5,0,0.9-0.2,1.2-0.6s0.5-1,0.5-1.8c0-0.8-0.2-1.4-0.5-1.8c-0.3-0.4-0.7-0.6-1.2-0.6  c-0.5,0-0.9,0.2-1.2,0.6S235.7,45.1,235.7,45.8z"/>
<path d="M244.5,49v-2.1h-3.7v-1l3.9-5.6h0.9V46h1.2v1h-1.2V49H244.5z M244.5,46v-3.9l-2.7,3.9H244.5z"/>
<path d="M249.4,44.3c-0.4-0.2-0.8-0.4-1-0.7s-0.3-0.7-0.3-1.1c0-0.6,0.2-1.2,0.7-1.6c0.4-0.4,1-0.6,1.8-0.6c0.8,0,1.4,0.2,1.8,0.7  s0.7,1,0.7,1.6c0,0.4-0.1,0.7-0.3,1c-0.2,0.3-0.5,0.5-1,0.7c0.5,0.2,0.9,0.4,1.2,0.8c0.3,0.4,0.4,0.8,0.4,1.4c0,0.7-0.3,1.4-0.8,1.9  c-0.5,0.5-1.2,0.8-2.1,0.8c-0.8,0-1.5-0.3-2-0.8c-0.5-0.5-0.8-1.1-0.8-1.9c0-0.6,0.1-1,0.4-1.4S248.9,44.5,249.4,44.3z M248.9,46.5  c0,0.3,0.1,0.6,0.2,0.9c0.1,0.3,0.4,0.5,0.6,0.7s0.6,0.2,0.9,0.2c0.5,0,0.9-0.2,1.2-0.5c0.3-0.3,0.5-0.7,0.5-1.2  c0-0.5-0.2-0.9-0.5-1.3c-0.3-0.3-0.8-0.5-1.3-0.5c-0.5,0-0.9,0.2-1.2,0.5C249,45.6,248.9,46,248.9,46.5z M249.2,42.6  c0,0.4,0.1,0.7,0.4,1s0.6,0.4,1,0.4c0.4,0,0.7-0.1,1-0.4c0.3-0.3,0.4-0.6,0.4-0.9c0-0.4-0.1-0.7-0.4-1c-0.3-0.3-0.6-0.4-1-0.4  c-0.4,0-0.7,0.1-1,0.4S249.2,42.2,249.2,42.6z"/>
<path d="M210.9,57l-0.3-1.6v-1.4h1.2v1.4l-0.3,1.6H210.9z M212.8,57l-0.3-1.6v-1.4h1.2v1.4l-0.3,1.6H212.8z"/>
<path d="M214.3,62.5l3.3-8.6h1.2l3.5,8.6H221l-1-2.6h-3.6l-0.9,2.6H214.3z M216.7,59h2.9l-0.9-2.4c-0.3-0.7-0.5-1.3-0.6-1.8  c-0.1,0.6-0.3,1.1-0.5,1.6L216.7,59z"/>
<path d="M223,62.5v-8.6h1.1v8.6H223z"/>
<path d="M225.7,55.1v-1.2h1.1v1.2H225.7z M225.7,62.5v-6.2h1.1v6.2H225.7z"/>
<path d="M232.5,60.2l1,0.1c-0.1,0.7-0.4,1.3-0.9,1.7s-1,0.6-1.7,0.6c-0.9,0-1.5-0.3-2.1-0.8s-0.8-1.4-0.8-2.4c0-0.7,0.1-1.3,0.3-1.8  c0.2-0.5,0.6-0.9,1-1.1c0.5-0.3,0.9-0.4,1.5-0.4c0.7,0,1.2,0.2,1.7,0.5s0.7,0.8,0.8,1.5l-1,0.2c-0.1-0.4-0.3-0.7-0.5-0.9  c-0.2-0.2-0.5-0.3-0.9-0.3c-0.5,0-1,0.2-1.3,0.6c-0.3,0.4-0.5,1-0.5,1.8c0,0.8,0.2,1.4,0.5,1.8c0.3,0.4,0.7,0.6,1.3,0.6  c0.4,0,0.8-0.1,1-0.4C232.2,61.1,232.4,60.7,232.5,60.2z"/>
<path d="M238.6,60.5l1.1,0.1c-0.2,0.6-0.5,1.1-1,1.5c-0.5,0.4-1.1,0.5-1.8,0.5c-0.9,0-1.6-0.3-2.2-0.8s-0.8-1.3-0.8-2.4  c0-1,0.3-1.9,0.8-2.4s1.2-0.9,2.1-0.9c0.8,0,1.5,0.3,2,0.8c0.5,0.6,0.8,1.4,0.8,2.4c0,0.1,0,0.2,0,0.3h-4.6c0,0.7,0.2,1.2,0.6,1.6  s0.8,0.5,1.3,0.5c0.4,0,0.7-0.1,1-0.3C238.3,61.3,238.5,60.9,238.6,60.5z M235.2,58.8h3.5c0-0.5-0.2-0.9-0.4-1.2  c-0.3-0.4-0.8-0.6-1.3-0.6c-0.5,0-0.9,0.2-1.2,0.5S235.2,58.2,235.2,58.8z"/>
<path d="M241.1,57l-0.3-1.6v-1.4h1.2v1.4l-0.3,1.6H241.1z M243.1,57l-0.3-1.6v-1.4h1.2v1.4l-0.3,1.6H243.1z"/>
<rect x="166.4" y="38.5" fill-rule="evenodd" fill="none" width="122.2" height="27"/>
<path fill="none" stroke="#000000" stroke-width="2.2496" d="M201,110.5h52.6c0.7,0,1.4,0,2.1,0.1c0.7,0.1,1.4,0.2,2,0.3  c0.7,0.1,1.3,0.3,2,0.5s1.3,0.4,1.9,0.7c0.6,0.3,1.3,0.6,1.9,0.9s1.2,0.7,1.8,1.1c0.6,0.4,1.1,0.8,1.7,1.2s1,0.9,1.5,1.4  s0.9,1,1.4,1.5s0.8,1.1,1.2,1.7c0.4,0.6,0.7,1.2,1.1,1.8s0.6,1.2,0.9,1.9c0.3,0.6,0.5,1.3,0.7,1.9c0.2,0.7,0.4,1.3,0.5,2  c0.1,0.7,0.2,1.4,0.3,2s0.1,1.4,0.1,2.1s0,1.4-0.1,2.1c-0.1,0.7-0.2,1.4-0.3,2c-0.1,0.7-0.3,1.3-0.5,2c-0.2,0.7-0.4,1.3-0.7,1.9  c-0.3,0.6-0.6,1.3-0.9,1.9s-0.7,1.2-1.1,1.8c-0.4,0.6-0.8,1.1-1.2,1.7s-0.9,1-1.4,1.5s-1,0.9-1.5,1.4s-1.1,0.8-1.7,1.2  c-0.6,0.4-1.2,0.7-1.8,1.1s-1.2,0.6-1.9,0.9c-0.6,0.3-1.3,0.5-1.9,0.7s-1.3,0.4-2,0.5c-0.7,0.1-1.4,0.2-2,0.3  c-0.7,0.1-1.4,0.1-2.1,0.1H201c-0.7,0-1.4,0-2.1-0.1c-0.7-0.1-1.4-0.2-2-0.3c-0.7-0.1-1.3-0.3-2-0.5c-0.7-0.2-1.3-0.4-1.9-0.7  c-0.6-0.3-1.3-0.6-1.9-0.9s-1.2-0.7-1.8-1.1c-0.6-0.4-1.1-0.8-1.7-1.2s-1-0.9-1.5-1.4s-0.9-1-1.4-1.5c-0.4-0.5-0.8-1.1-1.2-1.7  c-0.4-0.6-0.7-1.2-1.1-1.8s-0.6-1.2-0.9-1.9c-0.3-0.6-0.5-1.3-0.7-1.9c-0.2-0.7-0.4-1.3-0.5-2s-0.2-1.4-0.3-2  c-0.1-0.7-0.1-1.4-0.1-2.1s0-1.4,0.1-2.1s0.2-1.4,0.3-2s0.3-1.3,0.5-2c0.2-0.7,0.4-1.3,0.7-1.9c0.3-0.6,0.6-1.3,0.9-1.9  c0.3-0.6,0.7-1.2,1.1-1.8c0.4-0.6,0.8-1.1,1.2-1.7c0.4-0.5,0.9-1,1.4-1.5s1-0.9,1.5-1.4s1.1-0.8,1.7-1.2c0.6-0.4,1.2-0.7,1.8-1.1  s1.2-0.6,1.9-0.9c0.6-0.3,1.3-0.5,1.9-0.7c0.7-0.2,1.3-0.4,2-0.5c0.7-0.1,1.4-0.2,2-0.3C199.6,110.5,200.3,110.5,201,110.5z"/>
<rect x="25" y="25" fill-rule="evenodd" fill="none" width="483" height="173.2"/>
<path d="M201.1,121v-1h5.6v0.8c-0.5,0.6-1.1,1.4-1.6,2.3c-0.5,1-1,2-1.2,3c-0.2,0.7-0.3,1.5-0.4,2.4h-1.1c0-0.7,0.1-1.5,0.4-2.4  s0.6-1.9,1.1-2.8c0.5-0.9,1-1.6,1.5-2.2H201.1z"/>
<path d="M209.4,123.8c-0.4-0.2-0.8-0.4-1-0.7s-0.3-0.7-0.3-1.1c0-0.6,0.2-1.2,0.7-1.6c0.4-0.4,1-0.6,1.8-0.6c0.8,0,1.4,0.2,1.8,0.7  s0.7,1,0.7,1.6c0,0.4-0.1,0.7-0.3,1c-0.2,0.3-0.5,0.5-1,0.7c0.5,0.2,0.9,0.4,1.2,0.8c0.3,0.4,0.4,0.8,0.4,1.4c0,0.7-0.3,1.4-0.8,1.9  c-0.5,0.5-1.2,0.8-2.1,0.8c-0.8,0-1.5-0.3-2-0.8c-0.5-0.5-0.8-1.1-0.8-1.9c0-0.6,0.1-1,0.4-1.4S208.8,124,209.4,123.8z M208.8,126  c0,0.3,0.1,0.6,0.2,0.9c0.1,0.3,0.4,0.5,0.6,0.7s0.6,0.2,0.9,0.2c0.5,0,0.9-0.2,1.2-0.5c0.3-0.3,0.5-0.7,0.5-1.2  c0-0.5-0.2-0.9-0.5-1.3c-0.3-0.3-0.8-0.5-1.3-0.5c-0.5,0-0.9,0.2-1.2,0.5C209,125.1,208.8,125.5,208.8,126z M209.2,122.1  c0,0.4,0.1,0.7,0.4,1s0.6,0.4,1,0.4c0.4,0,0.7-0.1,1-0.4c0.3-0.3,0.4-0.6,0.4-0.9c0-0.4-0.1-0.7-0.4-1c-0.3-0.3-0.6-0.4-1-0.4  c-0.4,0-0.7,0.1-1,0.4S209.2,121.7,209.2,122.1z"/>
<path d="M218.7,128.5v-0.8c-0.4,0.6-1,0.9-1.7,0.9c-0.5,0-1-0.1-1.4-0.4c-0.4-0.3-0.7-0.7-1-1.1c-0.2-0.5-0.3-1.1-0.3-1.7  c0-0.6,0.1-1.2,0.3-1.7s0.5-0.9,0.9-1.2c0.4-0.3,0.9-0.4,1.4-0.4c0.4,0,0.7,0.1,1,0.2s0.5,0.4,0.7,0.6v-3.1h1v8.6H218.7z   M215.4,125.4c0,0.8,0.2,1.4,0.5,1.8c0.3,0.4,0.7,0.6,1.2,0.6c0.5,0,0.9-0.2,1.2-0.6c0.3-0.4,0.5-1,0.5-1.7c0-0.9-0.2-1.5-0.5-1.9  c-0.3-0.4-0.7-0.6-1.2-0.6c-0.5,0-0.9,0.2-1.2,0.6C215.6,124,215.4,124.6,215.4,125.4z"/>
<path d="M226.6,122l-1,0.1c-0.1-0.4-0.2-0.7-0.4-0.9c-0.3-0.3-0.6-0.5-1.1-0.5c-0.3,0-0.6,0.1-0.9,0.3c-0.3,0.2-0.6,0.6-0.8,1.1  c-0.2,0.5-0.3,1.1-0.3,2c0.3-0.4,0.6-0.7,0.9-0.9s0.8-0.3,1.2-0.3c0.7,0,1.3,0.3,1.8,0.8c0.5,0.5,0.7,1.2,0.7,2c0,0.5-0.1,1-0.3,1.5  c-0.2,0.5-0.6,0.8-1,1.1s-0.9,0.4-1.4,0.4c-0.9,0-1.6-0.3-2.1-1c-0.6-0.6-0.8-1.7-0.8-3.2c0-1.7,0.3-2.9,0.9-3.6  c0.5-0.7,1.3-1,2.2-1c0.7,0,1.2,0.2,1.7,0.6C226.2,120.8,226.5,121.3,226.6,122z M222.3,125.7c0,0.4,0.1,0.7,0.2,1s0.4,0.6,0.6,0.8  s0.6,0.3,0.9,0.3c0.4,0,0.8-0.2,1.1-0.5c0.3-0.4,0.5-0.8,0.5-1.5c0-0.6-0.2-1.1-0.5-1.4c-0.3-0.3-0.7-0.5-1.2-0.5  c-0.5,0-0.9,0.2-1.2,0.5S222.3,125.2,222.3,125.7z"/>
<path d="M233.2,122l-1,0.1c-0.1-0.4-0.2-0.7-0.4-0.9c-0.3-0.3-0.6-0.5-1.1-0.5c-0.3,0-0.6,0.1-0.9,0.3c-0.3,0.2-0.6,0.6-0.8,1.1  c-0.2,0.5-0.3,1.1-0.3,2c0.3-0.4,0.6-0.7,0.9-0.9s0.8-0.3,1.2-0.3c0.7,0,1.3,0.3,1.8,0.8c0.5,0.5,0.7,1.2,0.7,2c0,0.5-0.1,1-0.3,1.5  c-0.2,0.5-0.6,0.8-1,1.1s-0.9,0.4-1.4,0.4c-0.9,0-1.6-0.3-2.1-1c-0.6-0.6-0.8-1.7-0.8-3.2c0-1.7,0.3-2.9,0.9-3.6  c0.5-0.7,1.3-1,2.2-1c0.7,0,1.2,0.2,1.7,0.6C232.9,120.8,233.1,121.3,233.2,122z M228.9,125.7c0,0.4,0.1,0.7,0.2,1s0.4,0.6,0.6,0.8  s0.6,0.3,0.9,0.3c0.4,0,0.8-0.2,1.1-0.5c0.3-0.4,0.5-0.8,0.5-1.5c0-0.6-0.2-1.1-0.5-1.4c-0.3-0.3-0.7-0.5-1.2-0.5  c-0.5,0-0.9,0.2-1.2,0.5S228.9,125.2,228.9,125.7z"/>
<path d="M239.9,122l-1,0.1c-0.1-0.4-0.2-0.7-0.4-0.9c-0.3-0.3-0.6-0.5-1.1-0.5c-0.3,0-0.6,0.1-0.9,0.3c-0.3,0.2-0.6,0.6-0.8,1.1  c-0.2,0.5-0.3,1.1-0.3,2c0.3-0.4,0.6-0.7,0.9-0.9s0.8-0.3,1.2-0.3c0.7,0,1.3,0.3,1.8,0.8c0.5,0.5,0.7,1.2,0.7,2c0,0.5-0.1,1-0.3,1.5  c-0.2,0.5-0.6,0.8-1,1.1s-0.9,0.4-1.4,0.4c-0.9,0-1.6-0.3-2.1-1c-0.6-0.6-0.8-1.7-0.8-3.2c0-1.7,0.3-2.9,0.9-3.6  c0.5-0.7,1.3-1,2.2-1c0.7,0,1.2,0.2,1.7,0.6C239.6,120.8,239.8,121.3,239.9,122z M235.6,125.7c0,0.4,0.1,0.7,0.2,1s0.4,0.6,0.6,0.8  s0.6,0.3,0.9,0.3c0.4,0,0.8-0.2,1.1-0.5c0.3-0.4,0.5-0.8,0.5-1.5c0-0.6-0.2-1.1-0.5-1.4c-0.3-0.3-0.7-0.5-1.2-0.5  c-0.5,0-0.9,0.2-1.2,0.5S235.6,125.2,235.6,125.7z"/>
<path d="M245.7,126.5l1.1,0.1c-0.2,0.6-0.5,1.1-1,1.5c-0.5,0.4-1.1,0.5-1.8,0.5c-0.9,0-1.6-0.3-2.2-0.8s-0.8-1.3-0.8-2.4  c0-1,0.3-1.9,0.8-2.4s1.2-0.9,2.1-0.9c0.8,0,1.5,0.3,2,0.8c0.5,0.6,0.8,1.4,0.8,2.4c0,0.1,0,0.2,0,0.3h-4.6c0,0.7,0.2,1.2,0.6,1.6  s0.8,0.5,1.3,0.5c0.4,0,0.7-0.1,1-0.3C245.3,127.3,245.5,126.9,245.7,126.5z M242.2,124.8h3.5c0-0.5-0.2-0.9-0.4-1.2  c-0.3-0.4-0.8-0.6-1.3-0.6c-0.5,0-0.9,0.2-1.2,0.5S242.2,124.2,242.2,124.8z"/>
<path d="M249,128.5h-1v-8.6h1.1v3.1c0.4-0.6,1-0.8,1.7-0.8c0.4,0,0.7,0.1,1.1,0.2s0.6,0.4,0.8,0.7c0.2,0.3,0.4,0.6,0.5,1  s0.2,0.8,0.2,1.3c0,1.1-0.3,1.9-0.8,2.5c-0.5,0.6-1.2,0.9-1.9,0.9c-0.7,0-1.3-0.3-1.7-0.9V128.5z M249,125.3c0,0.7,0.1,1.3,0.3,1.6  c0.3,0.5,0.8,0.8,1.3,0.8c0.5,0,0.9-0.2,1.2-0.6s0.5-1,0.5-1.8c0-0.8-0.2-1.4-0.5-1.8c-0.3-0.4-0.7-0.6-1.2-0.6  c-0.5,0-0.9,0.2-1.2,0.6S249,124.6,249,125.3z"/>
<path d="M192.7,142l3.3-8.6h1.2l3.5,8.6h-1.3l-1-2.6h-3.6l-0.9,2.6H192.7z M195.2,138.5h2.9l-0.9-2.4c-0.3-0.7-0.5-1.3-0.6-1.8  c-0.1,0.6-0.3,1.1-0.5,1.6L195.2,138.5z"/>
<path d="M201.3,139.2l1.1-0.1c0.1,0.4,0.2,0.8,0.4,1.1c0.2,0.3,0.5,0.5,0.9,0.7c0.4,0.2,0.8,0.3,1.3,0.3c0.4,0,0.8-0.1,1.1-0.2  c0.3-0.1,0.6-0.3,0.7-0.5s0.2-0.5,0.2-0.7c0-0.3-0.1-0.5-0.2-0.7s-0.4-0.4-0.8-0.5c-0.2-0.1-0.7-0.2-1.5-0.4s-1.3-0.4-1.7-0.5  c-0.4-0.2-0.7-0.5-0.9-0.8s-0.3-0.7-0.3-1.1c0-0.4,0.1-0.8,0.4-1.2s0.6-0.7,1.1-0.9s1-0.3,1.6-0.3c0.6,0,1.2,0.1,1.7,0.3  c0.5,0.2,0.9,0.5,1.1,0.9c0.3,0.4,0.4,0.8,0.4,1.4l-1.1,0.1c-0.1-0.5-0.3-1-0.6-1.2c-0.3-0.3-0.8-0.4-1.5-0.4  c-0.7,0-1.2,0.1-1.5,0.4s-0.5,0.6-0.5,0.9c0,0.3,0.1,0.6,0.3,0.8c0.2,0.2,0.8,0.4,1.7,0.6c0.9,0.2,1.6,0.4,1.9,0.5  c0.5,0.2,0.9,0.5,1.1,0.9c0.2,0.4,0.4,0.8,0.4,1.2c0,0.5-0.1,0.9-0.4,1.3c-0.3,0.4-0.6,0.7-1.1,0.9c-0.5,0.2-1,0.3-1.7,0.3  c-0.8,0-1.4-0.1-2-0.3c-0.5-0.2-0.9-0.6-1.2-1S201.3,139.8,201.3,139.2z"/>
<path d="M209.3,139.2l1.1-0.1c0.1,0.4,0.2,0.8,0.4,1.1c0.2,0.3,0.5,0.5,0.9,0.7c0.4,0.2,0.8,0.3,1.3,0.3c0.4,0,0.8-0.1,1.1-0.2  c0.3-0.1,0.6-0.3,0.7-0.5s0.2-0.5,0.2-0.7c0-0.3-0.1-0.5-0.2-0.7s-0.4-0.4-0.8-0.5c-0.2-0.1-0.7-0.2-1.5-0.4s-1.3-0.4-1.7-0.5  c-0.4-0.2-0.7-0.5-0.9-0.8s-0.3-0.7-0.3-1.1c0-0.4,0.1-0.8,0.4-1.2s0.6-0.7,1.1-0.9s1-0.3,1.6-0.3c0.6,0,1.2,0.1,1.7,0.3  c0.5,0.2,0.9,0.5,1.1,0.9c0.3,0.4,0.4,0.8,0.4,1.4l-1.1,0.1c-0.1-0.5-0.3-1-0.6-1.2c-0.3-0.3-0.8-0.4-1.5-0.4  c-0.7,0-1.2,0.1-1.5,0.4s-0.5,0.6-0.5,0.9c0,0.3,0.1,0.6,0.3,0.8c0.2,0.2,0.8,0.4,1.7,0.6c0.9,0.2,1.6,0.4,1.9,0.5  c0.5,0.2,0.9,0.5,1.1,0.9c0.2,0.4,0.4,0.8,0.4,1.2c0,0.5-0.1,0.9-0.4,1.3c-0.3,0.4-0.6,0.7-1.1,0.9c-0.5,0.2-1,0.3-1.7,0.3  c-0.8,0-1.4-0.1-2-0.3c-0.5-0.2-0.9-0.6-1.2-1S209.3,139.8,209.3,139.2z"/>
<path d="M217.7,142v-8.6h6.2v1h-5.1v2.6h4.8v1h-4.8v2.9h5.3v1H217.7z"/>
<path d="M225.7,142v-8.6h3.8c0.8,0,1.3,0.1,1.7,0.2s0.7,0.4,1,0.8s0.4,0.8,0.4,1.3c0,0.6-0.2,1.1-0.6,1.5s-1,0.7-1.8,0.8  c0.3,0.1,0.5,0.3,0.7,0.4c0.3,0.3,0.6,0.7,0.9,1.1l1.5,2.3h-1.4l-1.1-1.8c-0.3-0.5-0.6-0.9-0.8-1.2s-0.4-0.5-0.6-0.6  c-0.2-0.1-0.3-0.2-0.5-0.2c-0.1,0-0.3,0-0.6,0h-1.3v3.8H225.7z M226.8,137.2h2.4c0.5,0,0.9-0.1,1.2-0.2c0.3-0.1,0.5-0.3,0.7-0.5  s0.2-0.5,0.2-0.8c0-0.4-0.1-0.7-0.4-1s-0.8-0.4-1.4-0.4h-2.7V137.2z"/>
<path d="M236.3,142v-7.6h-2.8v-1h6.8v1h-2.8v7.6H236.3z"/>
<path d="M241.6,142v-8.6h1.1v8.6H241.6z"/>
<path d="M244.4,137.8c0-1.4,0.4-2.5,1.1-3.3c0.8-0.8,1.8-1.2,3-1.2c0.8,0,1.5,0.2,2.1,0.6c0.6,0.4,1.1,0.9,1.5,1.6  c0.3,0.7,0.5,1.4,0.5,2.3c0,0.9-0.2,1.7-0.5,2.3c-0.4,0.7-0.8,1.2-1.5,1.6c-0.6,0.4-1.3,0.5-2.1,0.5c-0.8,0-1.5-0.2-2.2-0.6  c-0.6-0.4-1.1-0.9-1.4-1.6S244.4,138.6,244.4,137.8z M245.6,137.8c0,1,0.3,1.9,0.8,2.4s1.3,0.9,2.1,0.9c0.9,0,1.6-0.3,2.1-0.9  c0.6-0.6,0.8-1.5,0.8-2.6c0-0.7-0.1-1.3-0.4-1.8s-0.6-0.9-1-1.2s-1-0.4-1.5-0.4c-0.8,0-1.5,0.3-2.1,0.8  C245.9,135.6,245.6,136.5,245.6,137.8z"/>
<path d="M254.1,142v-8.6h1.2l4.5,6.7v-6.7h1.1v8.6h-1.2l-4.5-6.8v6.8H254.1z"/>
<rect x="192.7" y="118" fill-rule="evenodd" fill="none" width="69" height="27"/>
<rect x="357.2" y="70.8" fill="none" stroke="#000000" stroke-width="2.2496" width="144.8" height="42"/>
<rect x="25" y="25" fill-rule="evenodd" fill="none" width="483" height="173.2"/>
<path d="M408.1,88.8V88c-0.4,0.6-1,0.9-1.7,0.9c-0.5,0-1-0.1-1.4-0.4s-0.7-0.7-1-1.1s-0.3-1.1-0.3-1.7c0-0.6,0.1-1.2,0.3-1.7  s0.5-0.9,0.9-1.2s0.9-0.4,1.4-0.4c0.4,0,0.7,0.1,1,0.2c0.3,0.2,0.5,0.4,0.7,0.6v-3.1h1v8.6H408.1z M404.7,85.6  c0,0.8,0.2,1.4,0.5,1.8s0.7,0.6,1.2,0.6c0.5,0,0.9-0.2,1.2-0.6s0.5-1,0.5-1.7c0-0.9-0.2-1.5-0.5-1.9s-0.7-0.6-1.2-0.6  c-0.5,0-0.9,0.2-1.2,0.6S404.7,84.8,404.7,85.6z"/>
<path d="M411.7,88.8h-1v-8.6h1.1v3.1c0.4-0.6,1-0.8,1.7-0.8c0.4,0,0.7,0.1,1.1,0.2s0.6,0.4,0.8,0.7s0.4,0.6,0.5,1s0.2,0.8,0.2,1.3  c0,1.1-0.3,1.9-0.8,2.5s-1.2,0.9-1.9,0.9c-0.7,0-1.3-0.3-1.7-0.9V88.8z M411.7,85.6c0,0.7,0.1,1.3,0.3,1.6c0.3,0.5,0.8,0.8,1.3,0.8  c0.5,0,0.9-0.2,1.2-0.6s0.5-1,0.5-1.8c0-0.8-0.2-1.4-0.5-1.8s-0.7-0.6-1.2-0.6c-0.5,0-0.9,0.2-1.2,0.6S411.7,84.8,411.7,85.6z"/>
<path d="M417.2,81.3v-1h5.6v0.8c-0.5,0.6-1.1,1.4-1.6,2.3s-1,2-1.2,3c-0.2,0.7-0.3,1.5-0.4,2.4h-1.1c0-0.7,0.1-1.5,0.4-2.4  s0.6-1.9,1.1-2.8s1-1.6,1.5-2.2H417.2z"/>
<path d="M428.1,88.8V88c-0.4,0.6-1,0.9-1.7,0.9c-0.5,0-1-0.1-1.4-0.4s-0.7-0.7-1-1.1s-0.3-1.1-0.3-1.7c0-0.6,0.1-1.2,0.3-1.7  s0.5-0.9,0.9-1.2s0.9-0.4,1.4-0.4c0.4,0,0.7,0.1,1,0.2c0.3,0.2,0.5,0.4,0.7,0.6v-3.1h1v8.6H428.1z M424.7,85.6  c0,0.8,0.2,1.4,0.5,1.8s0.7,0.6,1.2,0.6c0.5,0,0.9-0.2,1.2-0.6s0.5-1,0.5-1.7c0-0.9-0.2-1.5-0.5-1.9s-0.7-0.6-1.2-0.6  c-0.5,0-0.9,0.2-1.2,0.6S424.7,84.8,424.7,85.6z"/>
<path d="M434.8,88.8V88c-0.4,0.6-1,0.9-1.7,0.9c-0.5,0-1-0.1-1.4-0.4s-0.7-0.7-1-1.1s-0.3-1.1-0.3-1.7c0-0.6,0.1-1.2,0.3-1.7  s0.5-0.9,0.9-1.2s0.9-0.4,1.4-0.4c0.4,0,0.7,0.1,1,0.2c0.3,0.2,0.5,0.4,0.7,0.6v-3.1h1v8.6H434.8z M431.4,85.6  c0,0.8,0.2,1.4,0.5,1.8s0.7,0.6,1.2,0.6c0.5,0,0.9-0.2,1.2-0.6s0.5-1,0.5-1.7c0-0.9-0.2-1.5-0.5-1.9s-0.7-0.6-1.2-0.6  c-0.5,0-0.9,0.2-1.2,0.6S431.4,84.8,431.4,85.6z"/>
<path d="M442.6,87.7v1H437c0-0.3,0-0.5,0.1-0.7c0.1-0.4,0.4-0.8,0.7-1.1c0.3-0.4,0.8-0.8,1.4-1.3c0.9-0.8,1.6-1.4,1.9-1.8  s0.5-0.9,0.5-1.3c0-0.4-0.1-0.8-0.4-1.1s-0.7-0.4-1.2-0.4c-0.5,0-0.9,0.2-1.2,0.5s-0.5,0.7-0.5,1.3l-1.1-0.1  c0.1-0.8,0.4-1.4,0.8-1.8c0.5-0.4,1.1-0.6,2-0.6c0.8,0,1.5,0.2,2,0.7s0.7,1,0.7,1.7c0,0.3-0.1,0.7-0.2,1s-0.4,0.7-0.7,1  s-0.9,0.9-1.6,1.5c-0.6,0.5-1,0.9-1.2,1.1s-0.3,0.4-0.4,0.6H442.6z"/>
<path d="M447.7,88.8h-1.1V82c-0.3,0.2-0.6,0.5-1,0.7s-0.8,0.4-1.1,0.5v-1c0.6-0.3,1.1-0.6,1.5-1s0.8-0.8,0.9-1.1h0.7V88.8z"/>
<path d="M454.8,86.5l1,0.1c-0.1,0.7-0.4,1.3-0.9,1.7s-1,0.6-1.7,0.6c-0.9,0-1.5-0.3-2.1-0.8c-0.5-0.6-0.8-1.4-0.8-2.4  c0-0.7,0.1-1.3,0.3-1.8s0.6-0.9,1-1.1s1-0.4,1.5-0.4c0.7,0,1.2,0.2,1.7,0.5s0.7,0.8,0.8,1.5l-1,0.2c-0.1-0.4-0.3-0.7-0.5-0.9  s-0.5-0.3-0.9-0.3c-0.5,0-1,0.2-1.3,0.6s-0.5,1-0.5,1.8c0,0.8,0.2,1.4,0.5,1.8s0.7,0.6,1.3,0.6c0.4,0,0.8-0.1,1-0.4  S454.7,87,454.8,86.5z"/>
<path d="M409.2,96.7l-0.3-1.6v-1.4h1.2v1.4l-0.3,1.6H409.2z M411.1,96.7l-0.3-1.6v-1.4h1.2v1.4l-0.3,1.6H411.1z"/>
<path d="M413.4,102.2v-8.6h1.1v4.9l2.5-2.5h1.4l-2.4,2.3l2.6,3.9h-1.3l-2.1-3.2l-0.7,0.7v2.5H413.4z"/>
<path d="M419.4,102.2V96h0.9v0.9c0.5-0.7,1.1-1,2-1c0.4,0,0.7,0.1,1,0.2s0.5,0.3,0.7,0.5s0.3,0.5,0.3,0.8c0,0.2,0.1,0.5,0.1,1v3.8  h-1.1v-3.8c0-0.4,0-0.8-0.1-1s-0.2-0.4-0.4-0.5s-0.5-0.2-0.7-0.2c-0.4,0-0.8,0.1-1.2,0.4s-0.5,0.8-0.5,1.6v3.4H419.4z"/>
<path d="M425.7,99.1c0-1.2,0.3-2,1-2.6c0.5-0.5,1.2-0.7,2-0.7c0.9,0,1.6,0.3,2.1,0.8s0.8,1.3,0.8,2.3c0,0.8-0.1,1.4-0.4,1.9  s-0.6,0.8-1,1.1s-1,0.4-1.5,0.4c-0.9,0-1.6-0.3-2.1-0.8C425.9,101,425.7,100.2,425.7,99.1z M426.7,99.1c0,0.8,0.2,1.4,0.5,1.8  s0.8,0.6,1.3,0.6c0.5,0,1-0.2,1.3-0.6s0.5-1,0.5-1.8c0-0.8-0.2-1.4-0.5-1.7s-0.8-0.6-1.3-0.6c-0.5,0-1,0.2-1.3,0.6  S426.7,98.3,426.7,99.1z"/>
<path d="M433.9,102.2L432,96h1.1l1,3.6l0.4,1.3c0-0.1,0.1-0.5,0.3-1.3l1-3.6h1.1l0.9,3.6l0.3,1.2l0.4-1.2l1.1-3.6h1l-1.9,6.2h-1.1  l-1-3.7l-0.2-1.1l-1.3,4.8H433.9z"/>
<path d="M441,100.4l1-0.2c0.1,0.4,0.2,0.7,0.5,1s0.6,0.3,1.1,0.3c0.5,0,0.8-0.1,1.1-0.3s0.4-0.4,0.4-0.7c0-0.2-0.1-0.4-0.3-0.6  c-0.1-0.1-0.5-0.2-1.1-0.4c-0.8-0.2-1.3-0.4-1.6-0.5c-0.3-0.1-0.5-0.3-0.7-0.6s-0.2-0.5-0.2-0.8c0-0.3,0.1-0.5,0.2-0.8  s0.3-0.4,0.5-0.6c0.2-0.1,0.4-0.2,0.7-0.3s0.6-0.1,0.9-0.1c0.5,0,0.9,0.1,1.3,0.2c0.4,0.1,0.6,0.3,0.8,0.6s0.3,0.6,0.4,1l-1,0.1  c0-0.3-0.2-0.6-0.4-0.8s-0.5-0.3-1-0.3c-0.5,0-0.8,0.1-1,0.2s-0.3,0.3-0.3,0.6c0,0.1,0,0.3,0.1,0.4c0.1,0.1,0.2,0.2,0.4,0.3  c0.1,0,0.4,0.1,0.9,0.3c0.7,0.2,1.3,0.4,1.6,0.5s0.5,0.3,0.7,0.6s0.3,0.5,0.3,0.9c0,0.4-0.1,0.7-0.3,1s-0.5,0.6-0.9,0.7  s-0.8,0.3-1.3,0.3c-0.8,0-1.4-0.2-1.8-0.5C441.4,101.6,441.1,101.1,441,100.4z"/>
<path d="M447.4,96.7l-0.3-1.6v-1.4h1.2v1.4l-0.3,1.6H447.4z M449.4,96.7l-0.3-1.6v-1.4h1.2v1.4l-0.3,1.6H449.4z"/>
<rect x="364.7" y="78.2" fill-rule="evenodd" fill="none" width="129.7" height="27"/>
<rect x="363.5" y="150.2" fill="none" stroke="#000000" stroke-width="2.2496" width="132.2" height="42"/>
<rect x="25" y="25" fill-rule="evenodd" fill="none" width="483" height="173.2"/>
<path d="M407.4,168.2h-1.1v-6.7c-0.3,0.2-0.6,0.5-1,0.7s-0.8,0.4-1.1,0.5v-1c0.6-0.3,1.1-0.6,1.5-1s0.8-0.8,0.9-1.1h0.7V168.2z"/>
<path d="M410.1,166l1.1-0.1c0.1,0.6,0.3,1,0.6,1.3s0.6,0.4,1.1,0.4c0.5,0,0.9-0.2,1.3-0.5s0.5-0.8,0.5-1.3c0-0.5-0.2-0.9-0.5-1.2  s-0.7-0.5-1.2-0.5c-0.2,0-0.4,0-0.7,0.1l0.1-0.9c0.1,0,0.1,0,0.2,0c0.4,0,0.9-0.1,1.2-0.4s0.5-0.6,0.5-1.1c0-0.4-0.1-0.7-0.4-1  s-0.6-0.4-1-0.4c-0.4,0-0.8,0.1-1,0.4s-0.4,0.6-0.5,1.2l-1.1-0.2c0.1-0.7,0.4-1.3,0.9-1.6c0.5-0.4,1-0.6,1.7-0.6  c0.5,0,0.9,0.1,1.3,0.3s0.7,0.5,0.9,0.8s0.3,0.7,0.3,1.1c0,0.4-0.1,0.7-0.3,1s-0.5,0.5-0.9,0.7c0.5,0.1,0.9,0.4,1.2,0.7  s0.4,0.8,0.4,1.4c0,0.8-0.3,1.4-0.8,1.9s-1.2,0.8-2.1,0.8c-0.8,0-1.4-0.2-1.9-0.7C410.4,167.3,410.2,166.7,410.1,166z"/>
<path d="M418,168.2h-1v-8.6h1.1v3.1c0.4-0.6,1-0.8,1.7-0.8c0.4,0,0.7,0.1,1.1,0.2s0.6,0.4,0.8,0.7s0.4,0.6,0.5,1s0.2,0.8,0.2,1.3  c0,1.1-0.3,1.9-0.8,2.5s-1.2,0.9-1.9,0.9c-0.7,0-1.3-0.3-1.7-0.9V168.2z M418,165.1c0,0.7,0.1,1.3,0.3,1.6c0.3,0.5,0.8,0.8,1.3,0.8  c0.5,0,0.9-0.2,1.2-0.6s0.5-1,0.5-1.8c0-0.8-0.2-1.4-0.5-1.8s-0.7-0.6-1.2-0.6c-0.5,0-0.9,0.2-1.2,0.6S418,164.3,418,165.1z"/>
<path d="M423.5,160.8v-1h5.6v0.8c-0.5,0.6-1.1,1.4-1.6,2.3s-1,2-1.2,3c-0.2,0.7-0.3,1.5-0.4,2.4h-1.1c0-0.7,0.1-1.5,0.4-2.4  s0.6-1.9,1.1-2.8s1-1.6,1.5-2.2H423.5z"/>
<path d="M433.5,168.2v-2.1h-3.7v-1l3.9-5.6h0.9v5.6h1.2v1h-1.2v2.1H433.5z M433.5,165.2v-3.9l-2.7,3.9H433.5z"/>
<path d="M440.7,168.2h-1.1v-6.7c-0.3,0.2-0.6,0.5-1,0.7s-0.8,0.4-1.1,0.5v-1c0.6-0.3,1.1-0.6,1.5-1s0.8-0.8,0.9-1.1h0.7V168.2z"/>
<path d="M443.6,166.3l1-0.1c0.1,0.5,0.2,0.8,0.5,1s0.6,0.3,0.9,0.3c0.3,0,0.6-0.1,0.9-0.2s0.4-0.3,0.6-0.6s0.3-0.6,0.4-1  s0.2-0.9,0.2-1.3c0,0,0-0.1,0-0.2c-0.2,0.3-0.5,0.6-0.9,0.8s-0.8,0.3-1.2,0.3c-0.7,0-1.3-0.3-1.8-0.8c-0.5-0.5-0.7-1.2-0.7-2  c0-0.9,0.3-1.6,0.8-2.1c0.5-0.5,1.2-0.8,1.9-0.8c0.6,0,1.1,0.2,1.5,0.5s0.8,0.7,1.1,1.3s0.4,1.4,0.4,2.4c0,1.1-0.1,2-0.4,2.6  s-0.6,1.1-1.1,1.5s-1,0.5-1.7,0.5c-0.7,0-1.2-0.2-1.6-0.6C443.9,167.5,443.7,166.9,443.6,166.3z M447.9,162.5c0-0.6-0.2-1.1-0.5-1.4  s-0.7-0.5-1.2-0.5c-0.5,0-0.9,0.2-1.2,0.6s-0.5,0.9-0.5,1.5c0,0.5,0.2,1,0.5,1.3s0.7,0.5,1.2,0.5c0.5,0,0.9-0.2,1.2-0.5  S447.9,163.1,447.9,162.5z"/>
<path d="M453.5,168.2v-2.1h-3.7v-1l3.9-5.6h0.9v5.6h1.2v1h-1.2v2.1H453.5z M453.5,165.2v-3.9l-2.7,3.9H453.5z"/>
<path d="M415.5,176.2l-0.3-1.6v-1.4h1.2v1.4l-0.3,1.6H415.5z M417.4,176.2l-0.3-1.6v-1.4h1.2v1.4l-0.3,1.6H417.4z"/>
<path d="M419.8,181.8v-8.6h3.2c0.7,0,1.2,0.1,1.6,0.3s0.7,0.4,0.9,0.8s0.3,0.7,0.3,1.1c0,0.4-0.1,0.7-0.3,1s-0.5,0.6-0.9,0.8  c0.5,0.2,0.9,0.4,1.2,0.8s0.4,0.8,0.4,1.3c0,0.4-0.1,0.8-0.3,1.1s-0.4,0.6-0.6,0.8s-0.6,0.3-0.9,0.4s-0.8,0.1-1.4,0.1H419.8z   M420.9,176.8h1.9c0.5,0,0.9,0,1.1-0.1c0.3-0.1,0.5-0.2,0.7-0.4s0.2-0.4,0.2-0.8c0-0.3-0.1-0.5-0.2-0.8s-0.3-0.4-0.6-0.4  s-0.7-0.1-1.3-0.1h-1.7V176.8z M420.9,180.7h2.1c0.4,0,0.6,0,0.8,0c0.3,0,0.5-0.1,0.7-0.2s0.3-0.3,0.4-0.5s0.2-0.5,0.2-0.7  c0-0.3-0.1-0.6-0.2-0.8s-0.4-0.4-0.7-0.5s-0.7-0.1-1.3-0.1h-2V180.7z"/>
<path d="M427.3,178.6c0-1.2,0.3-2,1-2.6c0.5-0.5,1.2-0.7,2-0.7c0.9,0,1.6,0.3,2.1,0.8s0.8,1.3,0.8,2.3c0,0.8-0.1,1.4-0.4,1.9  s-0.6,0.8-1,1.1s-1,0.4-1.5,0.4c-0.9,0-1.6-0.3-2.1-0.8C427.6,180.5,427.3,179.7,427.3,178.6z M428.4,178.6c0,0.8,0.2,1.4,0.5,1.8  s0.8,0.6,1.3,0.6c0.5,0,1-0.2,1.3-0.6s0.5-1,0.5-1.8c0-0.8-0.2-1.4-0.5-1.7s-0.8-0.6-1.3-0.6c-0.5,0-1,0.2-1.3,0.6  S428.4,177.8,428.4,178.6z"/>
<path d="M435.3,181.8h-1v-8.6h1.1v3.1c0.4-0.6,1-0.8,1.7-0.8c0.4,0,0.7,0.1,1.1,0.2s0.6,0.4,0.8,0.7s0.4,0.6,0.5,1s0.2,0.8,0.2,1.3  c0,1.1-0.3,1.9-0.8,2.5s-1.2,0.9-1.9,0.9c-0.7,0-1.3-0.3-1.7-0.9V181.8z M435.3,178.6c0,0.7,0.1,1.3,0.3,1.6  c0.3,0.5,0.8,0.8,1.3,0.8c0.5,0,0.9-0.2,1.2-0.6s0.5-1,0.5-1.8c0-0.8-0.2-1.4-0.5-1.8s-0.7-0.6-1.2-0.6c-0.5,0-0.9,0.2-1.2,0.6  S435.3,177.8,435.3,178.6z"/>
<path d="M441.1,176.2l-0.3-1.6v-1.4h1.2v1.4l-0.3,1.6H441.1z M443,176.2l-0.3-1.6v-1.4h1.2v1.4l-0.3,1.6H443z"/>
<rect x="371" y="157.8" fill-rule="evenodd" fill="none" width="117" height="27"/>
</svg>
