<?xml version='1.0' encoding='utf-8'?>
<svg xmlns="http://www.w3.org/2000/svg" xmlns:xlink="http://www.w3.org/1999/xlink" version="1.2" baseProfile="tiny" width="352.9px" height="94.2px" viewBox="0 0 352.9 94.2" xml:space="preserve">
<path fill="none" stroke="#000000" stroke-width="1.4998" d="M120.4,47.5l6.6-0.1c6.6-0.1,19.9-0.2,31.5-0.2s21.5-0.1,26.5-0.1h5"/>
<polygon fill="black" points="181.9,42.6 190.9,47.1 181.9,51.6 "/>
<rect x="180.4" y="42.6" fill-rule="evenodd" fill="none" width="12" height="9"/>
<path d="M149.6,49l1-0.2c0.1,0.4,0.2,0.7,0.5,1s0.6,0.3,1.1,0.3c0.5,0,0.8-0.1,1.1-0.3s0.4-0.4,0.4-0.7c0-0.2-0.1-0.4-0.3-0.6  c-0.1-0.1-0.5-0.2-1.1-0.4c-0.8-0.2-1.3-0.4-1.6-0.5s-0.5-0.3-0.7-0.6c-0.2-0.3-0.2-0.5-0.2-0.8c0-0.3,0.1-0.5,0.2-0.8  c0.1-0.2,0.3-0.4,0.5-0.6c0.2-0.1,0.4-0.2,0.7-0.3s0.6-0.1,0.9-0.1c0.5,0,0.9,0.1,1.3,0.2s0.6,0.3,0.8,0.6s0.3,0.6,0.4,1l-1,0.1  c0-0.3-0.2-0.6-0.4-0.8s-0.5-0.3-1-0.3c-0.5,0-0.8,0.1-1,0.2s-0.3,0.3-0.3,0.6c0,0.1,0,0.3,0.1,0.4c0.1,0.1,0.2,0.2,0.4,0.3  c0.1,0,0.4,0.1,0.9,0.3c0.7,0.2,1.3,0.4,1.6,0.5s0.5,0.3,0.7,0.6s0.3,0.5,0.3,0.9c0,0.4-0.1,0.7-0.3,1c-0.2,0.3-0.5,0.6-0.9,0.7  s-0.8,0.3-1.3,0.3c-0.8,0-1.4-0.2-1.8-0.5C150,50.2,149.7,49.7,149.6,49z"/>
<path d="M160.1,50.9V50c-0.5,0.7-1.1,1.1-2,1.1c-0.4,0-0.7-0.1-1-0.2s-0.6-0.3-0.7-0.5s-0.3-0.5-0.3-0.8c0-0.2-0.1-0.5-0.1-1v-3.9  h1.1v3.5c0,0.6,0,0.9,0.1,1.1c0.1,0.3,0.2,0.5,0.4,0.7s0.5,0.2,0.8,0.2c0.3,0,0.6-0.1,0.9-0.2s0.5-0.4,0.6-0.7s0.2-0.7,0.2-1.2v-3.3  h1.1v6.2H160.1z"/>
<path d="M163.7,50.9h-1v-8.6h1.1v3.1c0.4-0.6,1-0.8,1.7-0.8c0.4,0,0.7,0.1,1.1,0.2s0.6,0.4,0.8,0.7s0.4,0.6,0.5,1s0.2,0.8,0.2,1.3  c0,1.1-0.3,1.9-0.8,2.5c-0.5,0.6-1.2,0.9-1.9,0.9c-0.7,0-1.3-0.3-1.7-0.9V50.9z M163.6,47.7c0,0.7,0.1,1.3,0.3,1.6  c0.3,0.5,0.8,0.8,1.3,0.8c0.5,0,0.9-0.2,1.2-0.6s0.5-1,0.5-1.8c0-0.8-0.2-1.4-0.5-1.8s-0.7-0.6-1.2-0.6c-0.5,0-0.9,0.2-1.2,0.6  S163.6,47,163.6,47.7z"/>
<path d="M168,53.3l0.2-0.9c0.2,0.1,0.4,0.1,0.5,0.1c0.2,0,0.4-0.1,0.5-0.2s0.2-0.5,0.2-1.1v-6.5h1.1v6.6c0,0.8-0.1,1.3-0.3,1.6  c-0.3,0.4-0.7,0.6-1.3,0.6C168.6,53.4,168.3,53.4,168,53.3z M169.3,43.5v-1.2h1.1v1.2H169.3z"/>
<rect x="149.2" y="40.4" fill-rule="evenodd" fill="none" width="21.7" height="13.5"/>
<polygon fill="none" stroke="#000000" stroke-width="2.2497" points="26.8,68.1 130.5,68.1 109.5,26.1 47.8,26.1 "/>
<path d="M56.8,43.4c-0.4,0.3-0.8,0.6-1.1,0.7s-0.7,0.2-1.2,0.2c-0.7,0-1.2-0.2-1.6-0.5c-0.4-0.3-0.6-0.8-0.6-1.3  c0-0.3,0.1-0.6,0.2-0.8c0.1-0.3,0.3-0.5,0.5-0.6s0.5-0.3,0.8-0.3c0.2-0.1,0.5-0.1,0.9-0.2c0.9-0.1,1.5-0.2,1.9-0.4  c0-0.1,0-0.2,0-0.3c0-0.4-0.1-0.7-0.3-0.9c-0.3-0.2-0.7-0.4-1.2-0.4c-0.5,0-0.9,0.1-1.1,0.3s-0.4,0.5-0.5,0.9l-1-0.1  c0.1-0.4,0.2-0.8,0.5-1.1c0.2-0.3,0.5-0.5,0.9-0.6s0.9-0.2,1.4-0.2c0.5,0,1,0.1,1.3,0.2c0.3,0.1,0.6,0.3,0.7,0.5s0.3,0.4,0.3,0.7  c0,0.2,0.1,0.5,0.1,1v1.4c0,1,0,1.6,0.1,1.9s0.1,0.5,0.3,0.7H57C56.9,43.9,56.8,43.6,56.8,43.4z M56.7,41c-0.4,0.2-1,0.3-1.7,0.4  c-0.4,0.1-0.7,0.1-0.9,0.2s-0.3,0.2-0.4,0.3s-0.1,0.3-0.1,0.5c0,0.3,0.1,0.5,0.3,0.7s0.5,0.3,0.9,0.3c0.4,0,0.8-0.1,1.1-0.3  s0.5-0.4,0.7-0.7c0.1-0.2,0.2-0.6,0.2-1.1V41z"/>
<path d="M63.5,43.4c-0.4,0.3-0.8,0.6-1.1,0.7s-0.7,0.2-1.2,0.2c-0.7,0-1.2-0.2-1.6-0.5c-0.4-0.3-0.6-0.8-0.6-1.3  c0-0.3,0.1-0.6,0.2-0.8c0.1-0.3,0.3-0.5,0.5-0.6s0.5-0.3,0.8-0.3c0.2-0.1,0.5-0.1,0.9-0.2c0.9-0.1,1.5-0.2,1.9-0.4  c0-0.1,0-0.2,0-0.3c0-0.4-0.1-0.7-0.3-0.9c-0.3-0.2-0.7-0.4-1.2-0.4c-0.5,0-0.9,0.1-1.1,0.3s-0.4,0.5-0.5,0.9l-1-0.1  c0.1-0.4,0.2-0.8,0.5-1.1c0.2-0.3,0.5-0.5,0.9-0.6s0.9-0.2,1.4-0.2c0.5,0,1,0.1,1.3,0.2c0.3,0.1,0.6,0.3,0.7,0.5s0.3,0.4,0.3,0.7  c0,0.2,0.1,0.5,0.1,1v1.4c0,1,0,1.6,0.1,1.9s0.1,0.5,0.3,0.7h-1.1C63.6,43.9,63.5,43.6,63.5,43.4z M63.4,41c-0.4,0.2-1,0.3-1.7,0.4  c-0.4,0.1-0.7,0.1-0.9,0.2s-0.3,0.2-0.4,0.3s-0.1,0.3-0.1,0.5c0,0.3,0.1,0.5,0.3,0.7s0.5,0.3,0.9,0.3c0.4,0,0.8-0.1,1.1-0.3  s0.5-0.4,0.7-0.7c0.1-0.2,0.2-0.6,0.2-1.1V41z"/>
<path d="M70.4,42.1l1.1,0.1c-0.2,0.6-0.5,1.1-1,1.5c-0.5,0.4-1.1,0.5-1.8,0.5c-0.9,0-1.6-0.3-2.2-0.8c-0.5-0.6-0.8-1.3-0.8-2.4  c0-1,0.3-1.9,0.8-2.4c0.5-0.6,1.2-0.9,2.1-0.9c0.8,0,1.5,0.3,2,0.8c0.5,0.6,0.8,1.4,0.8,2.4c0,0.1,0,0.2,0,0.3h-4.6  c0,0.7,0.2,1.2,0.6,1.6s0.8,0.5,1.3,0.5c0.4,0,0.7-0.1,1-0.3S70.2,42.6,70.4,42.1z M66.9,40.4h3.5c0-0.5-0.2-0.9-0.4-1.2  c-0.3-0.4-0.8-0.6-1.3-0.6c-0.5,0-0.9,0.2-1.2,0.5S66.9,39.9,66.9,40.4z"/>
<path d="M76.8,44.1v-0.8c-0.4,0.6-1,0.9-1.7,0.9c-0.5,0-1-0.1-1.4-0.4s-0.7-0.7-1-1.1s-0.3-1.1-0.3-1.7c0-0.6,0.1-1.2,0.3-1.7  c0.2-0.5,0.5-0.9,0.9-1.2s0.9-0.4,1.4-0.4c0.4,0,0.7,0.1,1,0.2s0.5,0.4,0.7,0.6v-3.1h1v8.6H76.8z M73.5,41c0,0.8,0.2,1.4,0.5,1.8  s0.7,0.6,1.2,0.6c0.5,0,0.9-0.2,1.2-0.6s0.5-1,0.5-1.7c0-0.9-0.2-1.5-0.5-1.9s-0.7-0.6-1.2-0.6c-0.5,0-0.9,0.2-1.2,0.6  S73.5,40.2,73.5,41z"/>
<path d="M82.5,44.1v-2.1h-3.7v-1l3.9-5.6h0.9v5.6h1.2v1h-1.2v2.1H82.5z M82.5,41.1v-3.9l-2.7,3.9H82.5z"/>
<path d="M85.9,36.7v-1h5.6v0.8c-0.5,0.6-1.1,1.4-1.6,2.3c-0.5,1-1,2-1.2,3c-0.2,0.7-0.3,1.5-0.4,2.4h-1.1c0-0.7,0.1-1.5,0.4-2.4  s0.6-1.9,1.1-2.8c0.5-0.9,1-1.6,1.5-2.2H85.9z"/>
<path d="M97,42.1l1.1,0.1c-0.2,0.6-0.5,1.1-1,1.5c-0.5,0.4-1.1,0.5-1.8,0.5c-0.9,0-1.6-0.3-2.2-0.8c-0.5-0.6-0.8-1.3-0.8-2.4  c0-1,0.3-1.9,0.8-2.4c0.5-0.6,1.2-0.9,2.1-0.9c0.8,0,1.5,0.3,2,0.8c0.5,0.6,0.8,1.4,0.8,2.4c0,0.1,0,0.2,0,0.3h-4.6  c0,0.7,0.2,1.2,0.6,1.6s0.8,0.5,1.3,0.5c0.4,0,0.7-0.1,1-0.3S96.9,42.6,97,42.1z M93.6,40.4h3.5c0-0.5-0.2-0.9-0.4-1.2  c-0.3-0.4-0.8-0.6-1.3-0.6c-0.5,0-0.9,0.2-1.2,0.5S93.6,39.9,93.6,40.4z"/>
<path d="M100.8,39.5c-0.4-0.2-0.8-0.4-1-0.7c-0.2-0.3-0.3-0.7-0.3-1.1c0-0.6,0.2-1.2,0.7-1.6s1-0.6,1.8-0.6c0.8,0,1.4,0.2,1.8,0.7  c0.5,0.4,0.7,1,0.7,1.6c0,0.4-0.1,0.7-0.3,1s-0.5,0.5-1,0.7c0.5,0.2,0.9,0.4,1.2,0.8s0.4,0.8,0.4,1.4c0,0.7-0.3,1.4-0.8,1.9  c-0.5,0.5-1.2,0.8-2.1,0.8c-0.8,0-1.5-0.3-2.1-0.8c-0.5-0.5-0.8-1.1-0.8-1.9c0-0.6,0.1-1,0.4-1.4C99.9,39.9,100.3,39.6,100.8,39.5z   M100.2,41.6c0,0.3,0.1,0.6,0.2,0.9s0.4,0.5,0.6,0.7s0.6,0.2,0.9,0.2c0.5,0,0.9-0.2,1.2-0.5s0.5-0.7,0.5-1.2c0-0.5-0.2-0.9-0.5-1.3  c-0.3-0.3-0.8-0.5-1.3-0.5c-0.5,0-0.9,0.2-1.2,0.5S100.2,41.2,100.2,41.6z M100.6,37.7c0,0.4,0.1,0.7,0.4,1s0.6,0.4,1,0.4  c0.4,0,0.7-0.1,1-0.4s0.4-0.6,0.4-0.9c0-0.4-0.1-0.7-0.4-1s-0.6-0.4-1-0.4c-0.4,0-0.7,0.1-1,0.4S100.6,37.3,100.6,37.7z"/>
<path d="M50.7,57.6L48.5,49h1.2l1.3,5.6c0.1,0.6,0.3,1.2,0.4,1.8c0.2-0.9,0.3-1.4,0.4-1.6l1.6-5.8h1.4l1.2,4.3  c0.3,1.1,0.5,2.1,0.7,3c0.1-0.5,0.3-1.2,0.4-1.9l1.3-5.5h1.1l-2.4,8.6h-1.1l-1.8-6.5c-0.2-0.5-0.2-0.9-0.3-1c-0.1,0.4-0.2,0.7-0.3,1  l-1.8,6.5H50.7z"/>
<path d="M60.6,57.6V49h3.8c0.8,0,1.3,0.1,1.7,0.2s0.7,0.4,1,0.8s0.4,0.8,0.4,1.3c0,0.6-0.2,1.1-0.6,1.5c-0.4,0.4-1,0.7-1.8,0.8  c0.3,0.1,0.5,0.3,0.7,0.4c0.3,0.3,0.6,0.7,0.9,1.1l1.5,2.3h-1.4l-1.1-1.8c-0.3-0.5-0.6-0.9-0.8-1.2c-0.2-0.3-0.4-0.5-0.6-0.6  s-0.3-0.2-0.5-0.2c-0.1,0-0.3,0-0.6,0h-1.3v3.8H60.6z M61.7,52.8h2.4c0.5,0,0.9-0.1,1.2-0.2s0.5-0.3,0.7-0.5s0.2-0.5,0.2-0.8  c0-0.4-0.1-0.7-0.4-1S65.1,50,64.4,50h-2.7V52.8z"/>
<path d="M68.3,57.6l3.3-8.6h1.2l3.5,8.6H75L74,55h-3.6l-0.9,2.6H68.3z M70.8,54.1h2.9l-0.9-2.4c-0.3-0.7-0.5-1.3-0.6-1.8  c-0.1,0.6-0.3,1.1-0.5,1.6L70.8,54.1z"/>
<path d="M77.2,57.6V49h3.2c0.6,0,1,0,1.3,0.1c0.4,0.1,0.8,0.2,1.1,0.4s0.5,0.5,0.7,0.8c0.2,0.4,0.3,0.7,0.3,1.2  c0,0.7-0.2,1.3-0.7,1.9c-0.5,0.5-1.3,0.8-2.5,0.8h-2.2v3.5H77.2z M78.4,53.1h2.2c0.7,0,1.3-0.1,1.6-0.4s0.5-0.7,0.5-1.2  c0-0.4-0.1-0.7-0.3-0.9s-0.4-0.4-0.7-0.5c-0.2-0.1-0.5-0.1-1.1-0.1h-2.2V53.1z"/>
<path d="M85.2,57.6V49h3.2c0.6,0,1,0,1.3,0.1c0.4,0.1,0.8,0.2,1.1,0.4s0.5,0.5,0.7,0.8c0.2,0.4,0.3,0.7,0.3,1.2  c0,0.7-0.2,1.3-0.7,1.9c-0.5,0.5-1.3,0.8-2.5,0.8h-2.2v3.5H85.2z M86.4,53.1h2.2c0.7,0,1.3-0.1,1.6-0.4s0.5-0.7,0.5-1.2  c0-0.4-0.1-0.7-0.3-0.9s-0.4-0.4-0.7-0.5c-0.2-0.1-0.5-0.1-1.1-0.1h-2.2V53.1z"/>
<path d="M93.3,57.6V49h6.2v1h-5.1v2.6h4.8v1h-4.8v2.9h5.3v1H93.3z"/>
<path d="M101.2,57.6V49h3c0.7,0,1.2,0,1.5,0.1c0.5,0.1,0.9,0.3,1.3,0.6c0.5,0.4,0.8,0.9,1,1.5s0.3,1.3,0.3,2c0,0.7-0.1,1.2-0.2,1.7  s-0.3,0.9-0.6,1.3c-0.2,0.3-0.5,0.6-0.8,0.8s-0.6,0.3-1,0.4s-0.9,0.1-1.4,0.1H101.2z M102.4,56.6h1.8c0.6,0,1-0.1,1.3-0.2  c0.3-0.1,0.6-0.3,0.8-0.4c0.3-0.3,0.5-0.6,0.6-1.1s0.2-1,0.2-1.7c0-0.9-0.1-1.6-0.4-2.1s-0.7-0.8-1.1-1c-0.3-0.1-0.8-0.2-1.5-0.2  h-1.8V56.6z"/>
<rect x="48.3" y="33.6" fill-rule="evenodd" fill="none" width="60.7" height="27"/>
<rect x="190" y="26.1" fill="none" stroke="#000000" stroke-width="2.2497" width="136.8" height="42"/>
<path d="M237.8,43.1v1h-5.7c0-0.3,0-0.5,0.1-0.7c0.1-0.4,0.4-0.8,0.7-1.1s0.8-0.8,1.4-1.3c0.9-0.8,1.6-1.4,1.9-1.8s0.5-0.9,0.5-1.3  c0-0.4-0.1-0.8-0.4-1.1s-0.7-0.4-1.2-0.4c-0.5,0-0.9,0.2-1.2,0.5s-0.5,0.7-0.5,1.3l-1.1-0.1c0.1-0.8,0.4-1.4,0.8-1.8s1.1-0.6,2-0.6  c0.8,0,1.5,0.2,2,0.7c0.5,0.5,0.7,1,0.7,1.7c0,0.3-0.1,0.7-0.2,1s-0.4,0.7-0.7,1c-0.3,0.4-0.9,0.9-1.6,1.5c-0.6,0.5-1,0.9-1.2,1.1  s-0.3,0.4-0.4,0.6H237.8z"/>
<path d="M239,36.7v-1h5.6v0.8c-0.5,0.6-1.1,1.4-1.6,2.3c-0.5,1-1,2-1.2,3c-0.2,0.7-0.3,1.5-0.4,2.4h-1.1c0-0.7,0.1-1.5,0.4-2.4  s0.6-1.9,1.1-2.8c0.5-0.9,1-1.6,1.5-2.2H239z"/>
<path d="M247.2,39.5c-0.4-0.2-0.8-0.4-1-0.7c-0.2-0.3-0.3-0.7-0.3-1.1c0-0.6,0.2-1.2,0.7-1.6s1-0.6,1.8-0.6c0.8,0,1.4,0.2,1.8,0.7  c0.5,0.4,0.7,1,0.7,1.6c0,0.4-0.1,0.7-0.3,1s-0.5,0.5-1,0.7c0.5,0.2,0.9,0.4,1.2,0.8s0.4,0.8,0.4,1.4c0,0.7-0.3,1.4-0.8,1.9  c-0.5,0.5-1.2,0.8-2.1,0.8c-0.8,0-1.5-0.3-2.1-0.8c-0.5-0.5-0.8-1.1-0.8-1.9c0-0.6,0.1-1,0.4-1.4C246.3,39.9,246.7,39.6,247.2,39.5z   M246.6,41.6c0,0.3,0.1,0.6,0.2,0.9s0.4,0.5,0.6,0.7s0.6,0.2,0.9,0.2c0.5,0,0.9-0.2,1.2-0.5s0.5-0.7,0.5-1.2c0-0.5-0.2-0.9-0.5-1.3  c-0.3-0.3-0.8-0.5-1.3-0.5c-0.5,0-0.9,0.2-1.2,0.5S246.6,41.2,246.6,41.6z M247,37.7c0,0.4,0.1,0.7,0.4,1s0.6,0.4,1,0.4  c0.4,0,0.7-0.1,1-0.4s0.4-0.6,0.4-0.9c0-0.4-0.1-0.7-0.4-1s-0.6-0.4-1-0.4c-0.4,0-0.7,0.1-1,0.4S247,37.3,247,37.7z"/>
<path d="M255.6,44.1v-2.1h-3.7v-1l3.9-5.6h0.9v5.6h1.2v1h-1.2v2.1H255.6z M255.6,41.1v-3.9l-2.7,3.9H255.6z"/>
<path d="M258.9,39.9c0-1,0.1-1.8,0.3-2.5c0.2-0.6,0.5-1.1,0.9-1.4s0.9-0.5,1.6-0.5c0.5,0,0.9,0.1,1.2,0.3s0.6,0.5,0.9,0.8  s0.4,0.8,0.5,1.3s0.2,1.2,0.2,2c0,1-0.1,1.8-0.3,2.4s-0.5,1.1-0.9,1.4c-0.4,0.3-0.9,0.5-1.6,0.5c-0.8,0-1.5-0.3-2-0.9  C259.2,42.7,258.9,41.5,258.9,39.9z M260,39.9c0,1.4,0.2,2.3,0.5,2.8s0.7,0.7,1.2,0.7c0.5,0,0.9-0.2,1.2-0.7s0.5-1.4,0.5-2.8  c0-1.4-0.2-2.4-0.5-2.8s-0.7-0.7-1.2-0.7c-0.5,0-0.9,0.2-1.2,0.6C260.2,37.5,260,38.5,260,39.9z"/>
<path d="M265.6,41.9l1.1-0.1c0.1,0.6,0.3,1,0.6,1.3s0.6,0.4,1.1,0.4c0.5,0,0.9-0.2,1.3-0.5s0.5-0.8,0.5-1.3c0-0.5-0.2-0.9-0.5-1.2  s-0.7-0.5-1.2-0.5c-0.2,0-0.4,0-0.7,0.1l0.1-0.9c0.1,0,0.1,0,0.2,0c0.4,0,0.9-0.1,1.2-0.4s0.5-0.6,0.5-1.1c0-0.4-0.1-0.7-0.4-1  s-0.6-0.4-1-0.4c-0.4,0-0.8,0.1-1,0.4s-0.4,0.6-0.5,1.2l-1.1-0.2c0.1-0.7,0.4-1.3,0.9-1.6s1-0.6,1.7-0.6c0.5,0,0.9,0.1,1.3,0.3  s0.7,0.5,0.9,0.8s0.3,0.7,0.3,1.1c0,0.4-0.1,0.7-0.3,1s-0.5,0.5-0.9,0.7c0.5,0.1,0.9,0.4,1.2,0.7s0.4,0.8,0.4,1.4  c0,0.8-0.3,1.4-0.8,1.9c-0.5,0.5-1.2,0.8-2.1,0.8c-0.8,0-1.4-0.2-1.9-0.7C265.9,43.2,265.6,42.6,265.6,41.9z"/>
<path d="M272.2,41.9l1.1-0.1c0.1,0.5,0.3,0.9,0.6,1.2s0.7,0.4,1.1,0.4c0.5,0,0.9-0.2,1.3-0.6s0.5-0.9,0.5-1.5c0-0.6-0.2-1.1-0.5-1.4  c-0.3-0.3-0.8-0.5-1.3-0.5c-0.3,0-0.6,0.1-0.9,0.2s-0.5,0.4-0.6,0.6l-1-0.1l0.8-4.4h4.3v1h-3.4l-0.5,2.3c0.5-0.4,1.1-0.5,1.6-0.5  c0.8,0,1.4,0.3,1.9,0.8c0.5,0.5,0.8,1.2,0.8,2c0,0.8-0.2,1.4-0.7,2c-0.6,0.7-1.3,1-2.3,1c-0.8,0-1.4-0.2-1.9-0.7  S272.3,42.6,272.2,41.9z"/>
<path d="M278.9,39.9c0-1,0.1-1.8,0.3-2.5c0.2-0.6,0.5-1.1,0.9-1.4s0.9-0.5,1.6-0.5c0.5,0,0.9,0.1,1.2,0.3s0.6,0.5,0.9,0.8  s0.4,0.8,0.5,1.3s0.2,1.2,0.2,2c0,1-0.1,1.8-0.3,2.4s-0.5,1.1-0.9,1.4c-0.4,0.3-0.9,0.5-1.6,0.5c-0.8,0-1.5-0.3-2-0.9  C279.2,42.7,278.9,41.5,278.9,39.9z M280,39.9c0,1.4,0.2,2.3,0.5,2.8s0.7,0.7,1.2,0.7c0.5,0,0.9-0.2,1.2-0.7s0.5-1.4,0.5-2.8  c0-1.4-0.2-2.4-0.5-2.8s-0.7-0.7-1.2-0.7c-0.5,0-0.9,0.2-1.2,0.6C280.2,37.5,280,38.5,280,39.9z"/>
<path d="M242,52.1l-0.3-1.6V49h1.2v1.4l-0.3,1.6H242z M243.9,52.1l-0.3-1.6V49h1.2v1.4l-0.3,1.6H243.9z"/>
<path d="M245.4,57.6l3.3-8.6h1.2l3.5,8.6h-1.3l-1-2.6h-3.6l-0.9,2.6H245.4z M247.9,54.1h2.9l-0.9-2.4c-0.3-0.7-0.5-1.3-0.6-1.8  c-0.1,0.6-0.3,1.1-0.5,1.6L247.9,54.1z"/>
<path d="M254.2,57.6V49h1.1v8.6H254.2z"/>
<path d="M256.9,50.2V49h1.1v1.2H256.9z M256.9,57.6v-6.2h1.1v6.2H256.9z"/>
<path d="M263.6,55.3l1,0.1c-0.1,0.7-0.4,1.3-0.9,1.7c-0.5,0.4-1,0.6-1.7,0.6c-0.9,0-1.5-0.3-2.1-0.8c-0.5-0.6-0.8-1.4-0.8-2.4  c0-0.7,0.1-1.3,0.3-1.8s0.6-0.9,1-1.1s1-0.4,1.5-0.4c0.7,0,1.2,0.2,1.7,0.5c0.4,0.3,0.7,0.8,0.8,1.5l-1,0.2  c-0.1-0.4-0.3-0.7-0.5-0.9s-0.5-0.3-0.9-0.3c-0.5,0-1,0.2-1.3,0.6s-0.5,1-0.5,1.8c0,0.8,0.2,1.4,0.5,1.8s0.7,0.6,1.3,0.6  c0.4,0,0.8-0.1,1-0.4S263.5,55.9,263.6,55.3z"/>
<path d="M269.8,55.6l1.1,0.1c-0.2,0.6-0.5,1.1-1,1.5c-0.5,0.4-1.1,0.5-1.8,0.5c-0.9,0-1.6-0.3-2.2-0.8c-0.5-0.6-0.8-1.3-0.8-2.4  c0-1,0.3-1.9,0.8-2.4c0.5-0.6,1.2-0.9,2.1-0.9c0.8,0,1.5,0.3,2,0.8c0.5,0.6,0.8,1.4,0.8,2.4c0,0.1,0,0.2,0,0.3h-4.6  c0,0.7,0.2,1.2,0.6,1.6s0.8,0.5,1.3,0.5c0.4,0,0.7-0.1,1-0.3S269.6,56.1,269.8,55.6z M266.3,53.9h3.5c0-0.5-0.2-0.9-0.4-1.2  c-0.3-0.4-0.8-0.6-1.3-0.6c-0.5,0-0.9,0.2-1.2,0.5S266.4,53.4,266.3,53.9z"/>
<path d="M272.2,52.1l-0.3-1.6V49h1.2v1.4l-0.3,1.6H272.2z M274.2,52.1l-0.3-1.6V49h1.2v1.4l-0.3,1.6H274.2z"/>
<rect x="197.5" y="33.6" fill-rule="evenodd" fill="none" width="122.2" height="27"/>
</svg>
