<?xml version="1.0" encoding="utf-8"?>
<!-- Generator: Adobe Illustrator 27.2.0, SVG Export Plug-In . SVG Version: 6.00 Build 0)  -->
<svg version="1.2" baseProfile="tiny" id="Layer_1" xmlns="http://www.w3.org/2000/svg" xmlns:xlink="http://www.w3.org/1999/xlink"
	 x="0px" y="0px" width="362.8px" height="183.5px" viewBox="0 0 362.8 183.5" overflow="visible" xml:space="preserve">
<path fill="none" stroke="#000000" stroke-width="1.4993" d="M119.5,70.8l6.1-3.1c6.1-3.1,18.4-9.4,29.7-12.5
	c11.3-3.1,21.5-3.1,26.6-3.1h5.1"/>
<rect x="25" y="25" fill-rule="evenodd" fill="none" width="312.8" height="133.5"/>
<polygon fill="#333333" points="178.9,47.5 187.9,52 178.9,56.5 "/>
<rect x="177.4" y="47.5" fill-rule="evenodd" fill="none" width="12" height="9"/>
<path fill="none" stroke="#000000" stroke-width="1.4993" d="M119.5,112.8l6.1,3.1c6.1,3.1,18.4,9.4,30.7,12.5
	c12.3,3.1,24.7,3.1,30.8,3.1h6.2"/>
<rect x="25" y="25" fill-rule="evenodd" fill="none" width="312.8" height="133.5"/>
<polygon fill="#333333" points="185.2,127 194.2,131.5 185.2,136 "/>
<rect x="183.7" y="127" fill-rule="evenodd" fill="none" width="12" height="9"/>
<path d="M145.1,58.1v-8.6h1v0.8c0.2-0.3,0.5-0.6,0.8-0.7c0.3-0.2,0.6-0.2,1-0.2c0.5,0,1,0.1,1.4,0.4c0.4,0.3,0.7,0.7,0.9,1.2
	s0.3,1,0.3,1.6c0,0.6-0.1,1.2-0.3,1.7c-0.2,0.5-0.6,0.9-1,1.2s-0.9,0.4-1.4,0.4c-0.4,0-0.7-0.1-0.9-0.2c-0.3-0.1-0.5-0.3-0.7-0.6v3
	H145.1z M146,52.7c0,0.8,0.2,1.4,0.5,1.8c0.3,0.4,0.7,0.6,1.2,0.6c0.5,0,0.9-0.2,1.2-0.6c0.3-0.4,0.5-1,0.5-1.8
	c0-0.8-0.2-1.4-0.5-1.8c-0.3-0.4-0.7-0.6-1.2-0.6c-0.4,0-0.8,0.2-1.2,0.6C146.2,51.3,146,51.9,146,52.7z"/>
<path d="M151.7,55.8v-6.2h0.9v0.9c0.2-0.4,0.5-0.7,0.7-0.9c0.2-0.1,0.4-0.2,0.7-0.2c0.4,0,0.7,0.1,1.1,0.3l-0.4,1
	c-0.3-0.2-0.5-0.2-0.8-0.2c-0.2,0-0.4,0.1-0.6,0.2c-0.2,0.1-0.3,0.3-0.4,0.6c-0.1,0.4-0.2,0.8-0.2,1.2v3.3H151.7z"/>
<path d="M160,53.7l1.1,0.1c-0.2,0.6-0.5,1.1-1,1.5c-0.5,0.4-1.1,0.5-1.8,0.5c-0.9,0-1.6-0.3-2.2-0.8s-0.8-1.3-0.8-2.4
	c0-1,0.3-1.9,0.8-2.4s1.2-0.9,2.1-0.9c0.8,0,1.5,0.3,2,0.8s0.8,1.4,0.8,2.4c0,0.1,0,0.2,0,0.3h-4.6c0,0.7,0.2,1.2,0.6,1.6
	s0.8,0.5,1.3,0.5c0.4,0,0.7-0.1,1-0.3C159.6,54.5,159.8,54.2,160,53.7z M156.5,52h3.5c0-0.5-0.2-0.9-0.4-1.2
	c-0.3-0.4-0.8-0.6-1.3-0.6c-0.5,0-0.9,0.2-1.2,0.5S156.6,51.5,156.5,52z"/>
<path d="M166.4,55.8V55c-0.4,0.6-1,0.9-1.7,0.9c-0.5,0-1-0.1-1.4-0.4s-0.7-0.7-1-1.1c-0.2-0.5-0.3-1.1-0.3-1.7
	c0-0.6,0.1-1.2,0.3-1.7c0.2-0.5,0.5-0.9,0.9-1.2s0.9-0.4,1.4-0.4c0.4,0,0.7,0.1,1,0.2c0.3,0.2,0.5,0.4,0.7,0.6v-3.1h1v8.6H166.4z
	 M163.1,52.6c0,0.8,0.2,1.4,0.5,1.8c0.3,0.4,0.7,0.6,1.2,0.6c0.5,0,0.9-0.2,1.2-0.6s0.5-1,0.5-1.7c0-0.9-0.2-1.5-0.5-1.9
	s-0.7-0.6-1.2-0.6c-0.5,0-0.9,0.2-1.2,0.6C163.2,51.2,163.1,51.8,163.1,52.6z"/>
<rect x="144.3" y="45.2" fill-rule="evenodd" fill="none" width="24" height="13.5"/>
<path d="M148.7,132.1c0-1.2,0.3-2,1-2.6c0.5-0.5,1.2-0.7,2-0.7c0.9,0,1.6,0.3,2.1,0.8s0.8,1.3,0.8,2.3c0,0.8-0.1,1.4-0.4,1.9
	c-0.2,0.5-0.6,0.8-1,1.1s-1,0.4-1.5,0.4c-0.9,0-1.6-0.3-2.1-0.8S148.7,133.2,148.7,132.1z M149.8,132.1c0,0.8,0.2,1.4,0.5,1.8
	c0.3,0.4,0.8,0.6,1.3,0.6c0.5,0,1-0.2,1.3-0.6c0.3-0.4,0.5-1,0.5-1.8c0-0.8-0.2-1.4-0.5-1.7c-0.3-0.4-0.8-0.6-1.3-0.6
	c-0.5,0-1,0.2-1.3,0.6C149.9,130.7,149.8,131.3,149.8,132.1z"/>
<path d="M156.7,135.2h-1v-8.6h1.1v3.1c0.4-0.6,1-0.8,1.7-0.8c0.4,0,0.7,0.1,1.1,0.2c0.3,0.2,0.6,0.4,0.8,0.7c0.2,0.3,0.4,0.6,0.5,1
	s0.2,0.8,0.2,1.3c0,1.1-0.3,1.9-0.8,2.5s-1.2,0.9-1.9,0.9c-0.7,0-1.3-0.3-1.7-0.9V135.2z M156.7,132.1c0,0.7,0.1,1.3,0.3,1.6
	c0.3,0.5,0.8,0.8,1.3,0.8c0.5,0,0.9-0.2,1.2-0.6c0.3-0.4,0.5-1,0.5-1.8c0-0.8-0.2-1.4-0.5-1.8c-0.3-0.4-0.7-0.6-1.2-0.6
	c-0.5,0-0.9,0.2-1.2,0.6C156.9,130.8,156.7,131.3,156.7,132.1z"/>
<path d="M161.1,137.7l0.2-0.9c0.2,0.1,0.4,0.1,0.5,0.1c0.2,0,0.4-0.1,0.5-0.2s0.2-0.5,0.2-1.1V129h1.1v6.6c0,0.8-0.1,1.3-0.3,1.6
	c-0.3,0.4-0.7,0.6-1.3,0.6C161.6,137.8,161.3,137.7,161.1,137.7z M162.4,127.9v-1.2h1.1v1.2H162.4z"/>
<rect x="148.3" y="124.8" fill-rule="evenodd" fill="none" width="15.7" height="13.5"/>
<path fill="none" stroke="#000000" stroke-width="2.249" d="M52,70.8h52.6c0.7,0,1.4,0,2.1,0.1c0.7,0.1,1.4,0.2,2,0.3
	c0.7,0.1,1.3,0.3,2,0.5s1.3,0.4,1.9,0.7c0.6,0.3,1.3,0.6,1.9,0.9c0.6,0.3,1.2,0.7,1.8,1.1c0.6,0.4,1.1,0.8,1.7,1.2
	c0.5,0.4,1,0.9,1.5,1.4s0.9,1,1.4,1.5s0.8,1.1,1.2,1.7c0.4,0.6,0.7,1.2,1.1,1.8c0.3,0.6,0.6,1.2,0.9,1.9c0.3,0.6,0.5,1.3,0.7,1.9
	c0.2,0.7,0.4,1.3,0.5,2s0.2,1.4,0.3,2c0.1,0.7,0.1,1.4,0.1,2.1s0,1.4-0.1,2.1c-0.1,0.7-0.2,1.4-0.3,2s-0.3,1.3-0.5,2
	c-0.2,0.7-0.4,1.3-0.7,1.9c-0.3,0.6-0.6,1.3-0.9,1.9c-0.3,0.6-0.7,1.2-1.1,1.8c-0.4,0.6-0.8,1.1-1.2,1.7s-0.9,1-1.4,1.5
	s-1,0.9-1.5,1.4c-0.5,0.4-1.1,0.8-1.7,1.2c-0.6,0.4-1.2,0.7-1.8,1.1c-0.6,0.3-1.2,0.6-1.9,0.9c-0.6,0.3-1.3,0.5-1.9,0.7
	s-1.3,0.4-2,0.5c-0.7,0.1-1.4,0.2-2,0.3c-0.7,0.1-1.4,0.1-2.1,0.1H52c-0.7,0-1.4,0-2.1-0.1c-0.7-0.1-1.4-0.2-2-0.3
	c-0.7-0.1-1.3-0.3-2-0.5s-1.3-0.4-1.9-0.7c-0.6-0.3-1.3-0.6-1.9-0.9c-0.6-0.3-1.2-0.7-1.8-1.1c-0.6-0.4-1.1-0.8-1.7-1.2
	c-0.5-0.4-1-0.9-1.5-1.4s-0.9-1-1.4-1.5s-0.8-1.1-1.2-1.7c-0.4-0.6-0.7-1.2-1.1-1.8c-0.3-0.6-0.6-1.2-0.9-1.9
	c-0.3-0.6-0.5-1.3-0.7-1.9c-0.2-0.7-0.4-1.3-0.5-2c-0.1-0.7-0.2-1.4-0.3-2C31,93.1,31,92.4,31,91.8s0-1.4,0.1-2.1s0.2-1.4,0.3-2
	c0.1-0.7,0.3-1.3,0.5-2c0.2-0.7,0.4-1.3,0.7-1.9c0.3-0.6,0.6-1.3,0.9-1.9c0.3-0.6,0.7-1.2,1.1-1.8c0.4-0.6,0.8-1.1,1.2-1.7
	s0.9-1,1.4-1.5s1-0.9,1.5-1.4c0.5-0.4,1.1-0.8,1.7-1.2c0.6-0.4,1.2-0.7,1.8-1.1c0.6-0.3,1.2-0.6,1.9-0.9c0.6-0.3,1.3-0.5,1.9-0.7
	s1.3-0.4,2-0.5c0.7-0.1,1.4-0.2,2-0.3C50.6,70.8,51.3,70.8,52,70.8z"/>
<rect x="25" y="25" fill-rule="evenodd" fill="none" width="312.8" height="133.5"/>
<path d="M52.2,81.3v-1h5.6v0.8c-0.5,0.6-1.1,1.4-1.6,2.3s-1,2-1.2,3c-0.2,0.7-0.3,1.5-0.4,2.4h-1.1c0-0.7,0.1-1.5,0.4-2.4
	c0.3-1,0.6-1.9,1.1-2.8s1-1.6,1.5-2.2H52.2z"/>
<path d="M60.4,84.1c-0.4-0.2-0.8-0.4-1-0.7c-0.2-0.3-0.3-0.7-0.3-1.1c0-0.6,0.2-1.2,0.7-1.6s1-0.6,1.8-0.6c0.7,0,1.4,0.2,1.8,0.7
	c0.5,0.4,0.7,1,0.7,1.6c0,0.4-0.1,0.7-0.3,1c-0.2,0.3-0.5,0.5-1,0.7c0.5,0.2,0.9,0.4,1.2,0.8c0.3,0.4,0.4,0.8,0.4,1.4
	c0,0.7-0.3,1.4-0.8,1.9s-1.2,0.8-2,0.8c-0.8,0-1.5-0.3-2-0.8s-0.8-1.1-0.8-1.9c0-0.6,0.1-1,0.4-1.4C59.5,84.5,59.9,84.2,60.4,84.1z
	 M59.8,86.3c0,0.3,0.1,0.6,0.2,0.9c0.1,0.3,0.4,0.5,0.6,0.7C61,88,61.3,88,61.6,88c0.5,0,0.9-0.2,1.2-0.5c0.3-0.3,0.5-0.7,0.5-1.2
	c0-0.5-0.2-0.9-0.5-1.3c-0.3-0.3-0.8-0.5-1.3-0.5c-0.5,0-0.9,0.2-1.2,0.5S59.8,85.8,59.8,86.3z M60.2,82.3c0,0.4,0.1,0.7,0.4,1
	c0.3,0.3,0.6,0.4,1,0.4c0.4,0,0.7-0.1,1-0.4s0.4-0.6,0.4-0.9c0-0.4-0.1-0.7-0.4-1c-0.3-0.3-0.6-0.4-1-0.4c-0.4,0-0.7,0.1-1,0.4
	C60.3,81.6,60.2,81.9,60.2,82.3z"/>
<path d="M69.7,88.8V88c-0.4,0.6-1,0.9-1.7,0.9c-0.5,0-1-0.1-1.4-0.4s-0.7-0.7-1-1.1c-0.2-0.5-0.3-1.1-0.3-1.7c0-0.6,0.1-1.2,0.3-1.7
	c0.2-0.5,0.5-0.9,0.9-1.2s0.9-0.4,1.4-0.4c0.4,0,0.7,0.1,1,0.2c0.3,0.2,0.5,0.4,0.7,0.6v-3.1h1v8.6H69.7z M66.4,85.6
	c0,0.8,0.2,1.4,0.5,1.8c0.3,0.4,0.7,0.6,1.2,0.6c0.5,0,0.9-0.2,1.2-0.6s0.5-1,0.5-1.7c0-0.9-0.2-1.5-0.5-1.9s-0.7-0.6-1.2-0.6
	c-0.5,0-0.9,0.2-1.2,0.6C66.6,84.2,66.4,84.8,66.4,85.6z"/>
<path d="M77.6,82.3l-1,0.1c-0.1-0.4-0.2-0.7-0.4-0.9c-0.3-0.3-0.6-0.5-1.1-0.5c-0.3,0-0.6,0.1-0.9,0.3c-0.3,0.2-0.6,0.6-0.8,1.1
	c-0.2,0.5-0.3,1.1-0.3,2c0.3-0.4,0.6-0.7,0.9-0.9c0.4-0.2,0.8-0.3,1.2-0.3c0.7,0,1.3,0.3,1.8,0.8s0.7,1.2,0.7,2c0,0.5-0.1,1-0.3,1.5
	c-0.2,0.5-0.6,0.8-1,1.1s-0.9,0.4-1.4,0.4c-0.9,0-1.6-0.3-2.1-1c-0.6-0.6-0.8-1.7-0.8-3.2c0-1.7,0.3-2.9,0.9-3.6
	c0.5-0.7,1.3-1,2.2-1c0.7,0,1.2,0.2,1.7,0.6C77.2,81.1,77.5,81.6,77.6,82.3z M73.3,86c0,0.4,0.1,0.7,0.2,1c0.2,0.3,0.4,0.6,0.6,0.8
	c0.3,0.2,0.6,0.3,0.9,0.3c0.4,0,0.8-0.2,1.1-0.5c0.3-0.4,0.5-0.8,0.5-1.5c0-0.6-0.2-1.1-0.5-1.4c-0.3-0.3-0.7-0.5-1.2-0.5
	c-0.5,0-0.9,0.2-1.2,0.5S73.3,85.4,73.3,86z"/>
<path d="M84.2,82.3l-1,0.1c-0.1-0.4-0.2-0.7-0.4-0.9c-0.3-0.3-0.6-0.5-1.1-0.5c-0.3,0-0.6,0.1-0.9,0.3c-0.3,0.2-0.6,0.6-0.8,1.1
	c-0.2,0.5-0.3,1.1-0.3,2c0.3-0.4,0.6-0.7,0.9-0.9c0.4-0.2,0.8-0.3,1.2-0.3c0.7,0,1.3,0.3,1.8,0.8s0.7,1.2,0.7,2c0,0.5-0.1,1-0.3,1.5
	c-0.2,0.5-0.6,0.8-1,1.1s-0.9,0.4-1.4,0.4c-0.9,0-1.6-0.3-2.1-1c-0.6-0.6-0.8-1.7-0.8-3.2c0-1.7,0.3-2.9,0.9-3.6
	c0.5-0.7,1.3-1,2.2-1c0.7,0,1.2,0.2,1.7,0.6C83.9,81.1,84.1,81.6,84.2,82.3z M79.9,86c0,0.4,0.1,0.7,0.2,1c0.2,0.3,0.4,0.6,0.6,0.8
	c0.3,0.2,0.6,0.3,0.9,0.3c0.4,0,0.8-0.2,1.1-0.5c0.3-0.4,0.5-0.8,0.5-1.5c0-0.6-0.2-1.1-0.5-1.4c-0.3-0.3-0.7-0.5-1.2-0.5
	c-0.5,0-0.9,0.2-1.2,0.5S79.9,85.4,79.9,86z"/>
<path d="M90.9,82.3l-1,0.1c-0.1-0.4-0.2-0.7-0.4-0.9c-0.3-0.3-0.6-0.5-1.1-0.5c-0.3,0-0.6,0.1-0.9,0.3c-0.3,0.2-0.6,0.6-0.8,1.1
	c-0.2,0.5-0.3,1.1-0.3,2c0.3-0.4,0.6-0.7,0.9-0.9c0.4-0.2,0.8-0.3,1.2-0.3c0.7,0,1.3,0.3,1.8,0.8s0.7,1.2,0.7,2c0,0.5-0.1,1-0.3,1.5
	c-0.2,0.5-0.6,0.8-1,1.1s-0.9,0.4-1.4,0.4c-0.9,0-1.6-0.3-2.1-1c-0.6-0.6-0.8-1.7-0.8-3.2c0-1.7,0.3-2.9,0.9-3.6
	c0.5-0.7,1.3-1,2.2-1c0.7,0,1.2,0.2,1.7,0.6C90.5,81.1,90.8,81.6,90.9,82.3z M86.6,86c0,0.4,0.1,0.7,0.2,1c0.2,0.3,0.4,0.6,0.6,0.8
	c0.3,0.2,0.6,0.3,0.9,0.3c0.4,0,0.8-0.2,1.1-0.5c0.3-0.4,0.5-0.8,0.5-1.5c0-0.6-0.2-1.1-0.5-1.4c-0.3-0.3-0.7-0.5-1.2-0.5
	c-0.5,0-0.9,0.2-1.2,0.5S86.6,85.4,86.6,86z"/>
<path d="M96.6,86.7l1.1,0.1c-0.2,0.6-0.5,1.1-1,1.5c-0.5,0.4-1.1,0.5-1.8,0.5c-0.9,0-1.6-0.3-2.2-0.8S92,86.7,92,85.7
	c0-1,0.3-1.9,0.8-2.4s1.2-0.9,2.1-0.9c0.8,0,1.5,0.3,2,0.8s0.8,1.4,0.8,2.4c0,0.1,0,0.2,0,0.3h-4.6c0,0.7,0.2,1.2,0.6,1.6
	S94.5,88,95,88c0.4,0,0.7-0.1,1-0.3C96.3,87.5,96.5,87.2,96.6,86.7z M93.2,85h3.5c0-0.5-0.2-0.9-0.4-1.2c-0.3-0.4-0.8-0.6-1.3-0.6
	c-0.5,0-0.9,0.2-1.2,0.5S93.2,84.5,93.2,85z"/>
<path d="M100,88.8h-1v-8.6h1.1v3.1c0.4-0.6,1-0.8,1.7-0.8c0.4,0,0.7,0.1,1.1,0.2c0.3,0.2,0.6,0.4,0.8,0.7c0.2,0.3,0.4,0.6,0.5,1
	s0.2,0.8,0.2,1.3c0,1.1-0.3,1.9-0.8,2.5s-1.2,0.9-1.9,0.9c-0.7,0-1.3-0.3-1.7-0.9V88.8z M100,85.6c0,0.7,0.1,1.3,0.3,1.6
	c0.3,0.5,0.8,0.8,1.3,0.8c0.5,0,0.9-0.2,1.2-0.6c0.3-0.4,0.5-1,0.5-1.8c0-0.8-0.2-1.4-0.5-1.8c-0.3-0.4-0.7-0.6-1.2-0.6
	c-0.5,0-0.9,0.2-1.2,0.6C100.2,84.3,100,84.8,100,85.6z"/>
<path d="M43.7,102.2l3.3-8.6h1.2l3.5,8.6h-1.3l-1-2.6h-3.6l-0.9,2.6H43.7z M46.2,98.7h2.9l-0.9-2.4c-0.3-0.7-0.5-1.3-0.6-1.8
	c-0.1,0.6-0.3,1.1-0.5,1.6L46.2,98.7z"/>
<path d="M52.3,99.5l1.1-0.1c0.1,0.4,0.2,0.8,0.4,1.1c0.2,0.3,0.5,0.5,0.9,0.7c0.4,0.2,0.8,0.3,1.3,0.3c0.4,0,0.8-0.1,1.1-0.2
	c0.3-0.1,0.6-0.3,0.7-0.5c0.2-0.2,0.2-0.5,0.2-0.7c0-0.3-0.1-0.5-0.2-0.7c-0.2-0.2-0.4-0.4-0.8-0.5c-0.2-0.1-0.7-0.2-1.5-0.4
	s-1.3-0.4-1.7-0.5c-0.4-0.2-0.7-0.5-0.9-0.8c-0.2-0.3-0.3-0.7-0.3-1.1c0-0.4,0.1-0.8,0.4-1.2c0.2-0.4,0.6-0.7,1.1-0.9s1-0.3,1.6-0.3
	c0.6,0,1.2,0.1,1.7,0.3s0.9,0.5,1.1,0.9c0.3,0.4,0.4,0.8,0.4,1.4l-1.1,0.1c-0.1-0.5-0.3-1-0.6-1.2s-0.8-0.4-1.5-0.4
	c-0.7,0-1.2,0.1-1.5,0.4c-0.3,0.3-0.5,0.6-0.5,0.9c0,0.3,0.1,0.6,0.3,0.8c0.2,0.2,0.8,0.4,1.7,0.6c0.9,0.2,1.6,0.4,1.9,0.5
	c0.5,0.2,0.9,0.5,1.1,0.9s0.4,0.8,0.4,1.2c0,0.5-0.1,0.9-0.4,1.3c-0.3,0.4-0.6,0.7-1.1,0.9s-1,0.3-1.7,0.3c-0.8,0-1.4-0.1-2-0.3
	s-0.9-0.6-1.2-1C52.4,100.6,52.3,100.1,52.3,99.5z"/>
<path d="M60.3,99.5l1.1-0.1c0.1,0.4,0.2,0.8,0.4,1.1c0.2,0.3,0.5,0.5,0.9,0.7c0.4,0.2,0.8,0.3,1.3,0.3c0.4,0,0.8-0.1,1.1-0.2
	c0.3-0.1,0.6-0.3,0.7-0.5c0.2-0.2,0.2-0.5,0.2-0.7c0-0.3-0.1-0.5-0.2-0.7c-0.2-0.2-0.4-0.4-0.8-0.5c-0.2-0.1-0.7-0.2-1.5-0.4
	s-1.3-0.4-1.7-0.5c-0.4-0.2-0.7-0.5-0.9-0.8c-0.2-0.3-0.3-0.7-0.3-1.1c0-0.4,0.1-0.8,0.4-1.2c0.2-0.4,0.6-0.7,1.1-0.9s1-0.3,1.6-0.3
	c0.6,0,1.2,0.1,1.7,0.3s0.9,0.5,1.1,0.9c0.3,0.4,0.4,0.8,0.4,1.4l-1.1,0.1c-0.1-0.5-0.3-1-0.6-1.2s-0.8-0.4-1.5-0.4
	c-0.7,0-1.2,0.1-1.5,0.4c-0.3,0.3-0.5,0.6-0.5,0.9c0,0.3,0.1,0.6,0.3,0.8c0.2,0.2,0.8,0.4,1.7,0.6c0.9,0.2,1.6,0.4,1.9,0.5
	c0.5,0.2,0.9,0.5,1.1,0.9s0.4,0.8,0.4,1.2c0,0.5-0.1,0.9-0.4,1.3c-0.3,0.4-0.6,0.7-1.1,0.9s-1,0.3-1.7,0.3c-0.8,0-1.4-0.1-2-0.3
	s-0.9-0.6-1.2-1C60.4,100.6,60.3,100.1,60.3,99.5z"/>
<path d="M68.7,102.2v-8.6h6.2v1h-5.1v2.6h4.7v1h-4.7v2.9h5.3v1H68.7z"/>
<path d="M76.7,102.2v-8.6h3.8c0.8,0,1.3,0.1,1.7,0.2s0.7,0.4,1,0.8c0.2,0.4,0.4,0.8,0.4,1.3c0,0.6-0.2,1.1-0.6,1.5
	c-0.4,0.4-1,0.7-1.8,0.8c0.3,0.1,0.5,0.3,0.7,0.4c0.3,0.3,0.6,0.7,0.9,1.1l1.5,2.3h-1.4l-1.1-1.8c-0.3-0.5-0.6-0.9-0.8-1.2
	c-0.2-0.3-0.4-0.5-0.6-0.6c-0.2-0.1-0.3-0.2-0.5-0.2c-0.1,0-0.3,0-0.6,0h-1.3v3.8H76.7z M77.8,97.5h2.4c0.5,0,0.9-0.1,1.2-0.2
	c0.3-0.1,0.5-0.3,0.7-0.5s0.2-0.5,0.2-0.8c0-0.4-0.1-0.7-0.4-1c-0.3-0.3-0.8-0.4-1.4-0.4h-2.7V97.5z"/>
<path d="M87.3,102.2v-7.6h-2.8v-1h6.8v1h-2.8v7.6H87.3z"/>
<path d="M92.6,102.2v-8.6h1.1v8.6H92.6z"/>
<path d="M95.4,98.1c0-1.4,0.4-2.5,1.1-3.3c0.8-0.8,1.8-1.2,3-1.2c0.8,0,1.5,0.2,2.1,0.6c0.6,0.4,1.1,0.9,1.5,1.6
	c0.3,0.7,0.5,1.4,0.5,2.3c0,0.9-0.2,1.7-0.5,2.3c-0.4,0.7-0.8,1.2-1.5,1.6c-0.6,0.4-1.3,0.5-2.1,0.5c-0.8,0-1.5-0.2-2.2-0.6
	s-1.1-0.9-1.4-1.6S95.4,98.8,95.4,98.1z M96.6,98.1c0,1,0.3,1.9,0.8,2.4s1.3,0.9,2.1,0.9c0.9,0,1.6-0.3,2.1-0.9s0.8-1.5,0.8-2.6
	c0-0.7-0.1-1.3-0.4-1.8c-0.2-0.5-0.6-0.9-1-1.2c-0.5-0.3-1-0.4-1.5-0.4c-0.8,0-1.5,0.3-2.1,0.8S96.6,96.8,96.6,98.1z"/>
<path d="M105.1,102.2v-8.6h1.2l4.5,6.7v-6.7h1.1v8.6h-1.2l-4.5-6.8v6.8H105.1z"/>
<rect x="43.7" y="78.2" fill-rule="evenodd" fill="none" width="68.9" height="27"/>
<rect x="187" y="31" fill="none" stroke="#000000" stroke-width="2.249" width="144.7" height="42"/>
<rect x="25" y="25" fill-rule="evenodd" fill="none" width="312.8" height="133.5"/>
<path d="M237.9,49v-0.8c-0.4,0.6-1,0.9-1.7,0.9c-0.5,0-1-0.1-1.4-0.4s-0.7-0.7-1-1.1c-0.2-0.5-0.3-1.1-0.3-1.7
	c0-0.6,0.1-1.2,0.3-1.7c0.2-0.5,0.5-0.9,0.9-1.2s0.9-0.4,1.4-0.4c0.4,0,0.7,0.1,1,0.2c0.3,0.2,0.5,0.4,0.7,0.6v-3.1h1V49H237.9z
	 M234.5,45.9c0,0.8,0.2,1.4,0.5,1.8c0.3,0.4,0.7,0.6,1.2,0.6c0.5,0,0.9-0.2,1.2-0.6s0.5-1,0.5-1.7c0-0.9-0.2-1.5-0.5-1.9
	s-0.7-0.6-1.2-0.6c-0.5,0-0.9,0.2-1.2,0.6C234.7,44.5,234.5,45.1,234.5,45.9z"/>
<path d="M241.5,49h-1v-8.6h1.1v3.1c0.4-0.6,1-0.8,1.7-0.8c0.4,0,0.7,0.1,1.1,0.2c0.3,0.2,0.6,0.4,0.8,0.7c0.2,0.3,0.4,0.6,0.5,1
	s0.2,0.8,0.2,1.3c0,1.1-0.3,1.9-0.8,2.5s-1.2,0.9-1.9,0.9c-0.7,0-1.3-0.3-1.7-0.9V49z M241.5,45.8c0,0.7,0.1,1.3,0.3,1.6
	c0.3,0.5,0.8,0.8,1.3,0.8c0.5,0,0.9-0.2,1.2-0.6c0.3-0.4,0.5-1,0.5-1.8c0-0.8-0.2-1.4-0.5-1.8c-0.3-0.4-0.7-0.6-1.2-0.6
	c-0.5,0-0.9,0.2-1.2,0.6C241.6,44.5,241.5,45.1,241.5,45.8z"/>
<path d="M246.9,41.5v-1h5.6v0.8c-0.5,0.6-1.1,1.4-1.6,2.3s-1,2-1.2,3c-0.2,0.7-0.3,1.5-0.4,2.4h-1.1c0-0.7,0.1-1.5,0.4-2.4
	c0.3-1,0.6-1.9,1.1-2.8s1-1.6,1.5-2.2H246.9z"/>
<path d="M257.9,49v-0.8c-0.4,0.6-1,0.9-1.7,0.9c-0.5,0-1-0.1-1.4-0.4s-0.7-0.7-1-1.1c-0.2-0.5-0.3-1.1-0.3-1.7
	c0-0.6,0.1-1.2,0.3-1.7c0.2-0.5,0.5-0.9,0.9-1.2s0.9-0.4,1.4-0.4c0.4,0,0.7,0.1,1,0.2c0.3,0.2,0.5,0.4,0.7,0.6v-3.1h1V49H257.9z
	 M254.5,45.9c0,0.8,0.2,1.4,0.5,1.8c0.3,0.4,0.7,0.6,1.2,0.6c0.5,0,0.9-0.2,1.2-0.6s0.5-1,0.5-1.7c0-0.9-0.2-1.5-0.5-1.9
	s-0.7-0.6-1.2-0.6c-0.5,0-0.9,0.2-1.2,0.6C254.7,44.5,254.5,45.1,254.5,45.9z"/>
<path d="M264.5,49v-0.8c-0.4,0.6-1,0.9-1.7,0.9c-0.5,0-1-0.1-1.4-0.4s-0.7-0.7-1-1.1c-0.2-0.5-0.3-1.1-0.3-1.7
	c0-0.6,0.1-1.2,0.3-1.7c0.2-0.5,0.5-0.9,0.9-1.2s0.9-0.4,1.4-0.4c0.4,0,0.7,0.1,1,0.2c0.3,0.2,0.5,0.4,0.7,0.6v-3.1h1V49H264.5z
	 M261.2,45.9c0,0.8,0.2,1.4,0.5,1.8c0.3,0.4,0.7,0.6,1.2,0.6c0.5,0,0.9-0.2,1.2-0.6s0.5-1,0.5-1.7c0-0.9-0.2-1.5-0.5-1.9
	s-0.7-0.6-1.2-0.6c-0.5,0-0.9,0.2-1.2,0.6C261.4,44.5,261.2,45.1,261.2,45.9z"/>
<path d="M272.4,48v1h-5.7c0-0.3,0-0.5,0.1-0.7c0.1-0.4,0.4-0.8,0.7-1.1c0.3-0.4,0.8-0.8,1.4-1.3c0.9-0.8,1.6-1.4,1.9-1.8
	c0.3-0.4,0.5-0.9,0.5-1.3c0-0.4-0.1-0.8-0.4-1.1c-0.3-0.3-0.7-0.4-1.2-0.4c-0.5,0-0.9,0.2-1.2,0.5c-0.3,0.3-0.5,0.7-0.5,1.3
	l-1.1-0.1c0.1-0.8,0.4-1.4,0.8-1.8s1.1-0.6,1.9-0.6c0.8,0,1.5,0.2,2,0.7s0.7,1,0.7,1.7c0,0.3-0.1,0.7-0.2,1c-0.1,0.3-0.4,0.7-0.7,1
	c-0.3,0.4-0.9,0.9-1.6,1.5c-0.6,0.5-1,0.9-1.2,1.1c-0.2,0.2-0.3,0.4-0.4,0.6H272.4z"/>
<path d="M277.5,49h-1.1v-6.7c-0.3,0.2-0.6,0.5-1,0.7c-0.4,0.2-0.8,0.4-1.1,0.5v-1c0.6-0.3,1.1-0.6,1.5-1c0.4-0.4,0.8-0.8,0.9-1.1
	h0.7V49z"/>
<path d="M284.6,46.7l1,0.1c-0.1,0.7-0.4,1.3-0.9,1.7s-1,0.6-1.7,0.6c-0.9,0-1.5-0.3-2.1-0.8s-0.8-1.4-0.8-2.4c0-0.7,0.1-1.3,0.3-1.8
	c0.2-0.5,0.6-0.9,1-1.1c0.5-0.3,0.9-0.4,1.5-0.4c0.7,0,1.2,0.2,1.7,0.5s0.7,0.8,0.8,1.5l-1,0.2c-0.1-0.4-0.3-0.7-0.5-0.9
	c-0.2-0.2-0.5-0.3-0.9-0.3c-0.5,0-1,0.2-1.3,0.6s-0.5,1-0.5,1.8c0,0.8,0.2,1.4,0.5,1.8c0.3,0.4,0.7,0.6,1.3,0.6c0.4,0,0.8-0.1,1-0.4
	C284.3,47.6,284.5,47.2,284.6,46.7z"/>
<path d="M239,57l-0.3-1.6v-1.4h1.2v1.4l-0.3,1.6H239z M240.9,57l-0.3-1.6v-1.4h1.2v1.4l-0.3,1.6H240.9z"/>
<path d="M243.2,62.5v-8.6h1.1v4.9l2.5-2.5h1.4l-2.4,2.3l2.6,3.9H247l-2.1-3.2l-0.7,0.7v2.5H243.2z"/>
<path d="M249.2,62.5v-6.2h0.9v0.9c0.5-0.7,1.1-1,2-1c0.4,0,0.7,0.1,1,0.2c0.3,0.1,0.5,0.3,0.7,0.5s0.3,0.5,0.3,0.8
	c0,0.2,0.1,0.5,0.1,1v3.8h-1.1v-3.8c0-0.4,0-0.8-0.1-1c-0.1-0.2-0.2-0.4-0.4-0.5c-0.2-0.1-0.5-0.2-0.7-0.2c-0.4,0-0.8,0.1-1.2,0.4
	c-0.3,0.3-0.5,0.8-0.5,1.6v3.4H249.2z"/>
<path d="M255.5,59.4c0-1.2,0.3-2,1-2.6c0.5-0.5,1.2-0.7,2-0.7c0.9,0,1.6,0.3,2.1,0.8s0.8,1.3,0.8,2.3c0,0.8-0.1,1.4-0.4,1.9
	c-0.2,0.5-0.6,0.8-1,1.1s-1,0.4-1.5,0.4c-0.9,0-1.6-0.3-2.1-0.8S255.5,60.4,255.5,59.4z M256.5,59.4c0,0.8,0.2,1.4,0.5,1.8
	c0.3,0.4,0.8,0.6,1.3,0.6c0.5,0,1-0.2,1.3-0.6c0.3-0.4,0.5-1,0.5-1.8c0-0.8-0.2-1.4-0.5-1.7c-0.3-0.4-0.8-0.6-1.3-0.6
	c-0.5,0-1,0.2-1.3,0.6C256.7,58,256.5,58.6,256.5,59.4z"/>
<path d="M263.7,62.5l-1.9-6.2h1.1l1,3.6l0.4,1.3c0-0.1,0.1-0.5,0.3-1.3l1-3.6h1.1l0.9,3.6l0.3,1.2l0.4-1.2l1.1-3.6h1l-1.9,6.2h-1.1
	l-1-3.7l-0.2-1.1l-1.3,4.8H263.7z"/>
<path d="M270.7,60.6l1-0.2c0.1,0.4,0.2,0.7,0.5,1c0.3,0.2,0.6,0.3,1.1,0.3c0.5,0,0.8-0.1,1.1-0.3c0.2-0.2,0.4-0.4,0.4-0.7
	c0-0.2-0.1-0.4-0.3-0.6c-0.1-0.1-0.5-0.2-1.1-0.4c-0.8-0.2-1.3-0.4-1.6-0.5c-0.3-0.1-0.5-0.3-0.7-0.6c-0.2-0.3-0.2-0.5-0.2-0.8
	c0-0.3,0.1-0.5,0.2-0.8c0.1-0.2,0.3-0.4,0.5-0.6c0.2-0.1,0.4-0.2,0.7-0.3c0.3-0.1,0.6-0.1,0.9-0.1c0.5,0,0.9,0.1,1.3,0.2
	c0.4,0.1,0.6,0.3,0.8,0.6s0.3,0.6,0.4,1l-1,0.1c0-0.3-0.2-0.6-0.4-0.8c-0.2-0.2-0.5-0.3-1-0.3c-0.5,0-0.8,0.1-1,0.2
	c-0.2,0.2-0.3,0.3-0.3,0.6c0,0.1,0,0.3,0.1,0.4c0.1,0.1,0.2,0.2,0.4,0.3c0.1,0,0.4,0.1,0.9,0.3c0.7,0.2,1.3,0.4,1.6,0.5
	c0.3,0.1,0.5,0.3,0.7,0.6c0.2,0.2,0.3,0.5,0.3,0.9c0,0.4-0.1,0.7-0.3,1c-0.2,0.3-0.5,0.6-0.9,0.7s-0.8,0.3-1.3,0.3
	c-0.8,0-1.4-0.2-1.8-0.5C271.1,61.8,270.9,61.3,270.7,60.6z"/>
<path d="M277.2,57l-0.3-1.6v-1.4h1.2v1.4l-0.3,1.6H277.2z M279.2,57l-0.3-1.6v-1.4h1.2v1.4l-0.3,1.6H279.2z"/>
<rect x="194.5" y="38.5" fill-rule="evenodd" fill="none" width="129.6" height="27"/>
<rect x="193.3" y="110.5" fill="none" stroke="#000000" stroke-width="2.249" width="132.1" height="42"/>
<rect x="25" y="25" fill-rule="evenodd" fill="none" width="312.8" height="133.5"/>
<path d="M237.2,128.5h-1.1v-6.7c-0.3,0.2-0.6,0.5-1,0.7c-0.4,0.2-0.8,0.4-1.1,0.5v-1c0.6-0.3,1.1-0.6,1.5-1c0.4-0.4,0.8-0.8,0.9-1.1
	h0.7V128.5z"/>
<path d="M239.9,126.2l1.1-0.1c0.1,0.6,0.3,1,0.6,1.3c0.3,0.3,0.6,0.4,1.1,0.4c0.5,0,0.9-0.2,1.3-0.5c0.3-0.3,0.5-0.8,0.5-1.3
	c0-0.5-0.2-0.9-0.5-1.2c-0.3-0.3-0.7-0.5-1.2-0.5c-0.2,0-0.4,0-0.7,0.1l0.1-0.9c0.1,0,0.1,0,0.2,0c0.4,0,0.9-0.1,1.2-0.4
	c0.4-0.2,0.5-0.6,0.5-1.1c0-0.4-0.1-0.7-0.4-1c-0.3-0.3-0.6-0.4-1-0.4c-0.4,0-0.8,0.1-1,0.4c-0.3,0.3-0.4,0.6-0.5,1.2l-1.1-0.2
	c0.1-0.7,0.4-1.3,0.9-1.6s1-0.6,1.7-0.6c0.5,0,0.9,0.1,1.3,0.3c0.4,0.2,0.7,0.5,0.9,0.8s0.3,0.7,0.3,1.1c0,0.4-0.1,0.7-0.3,1
	s-0.5,0.5-0.9,0.7c0.5,0.1,0.9,0.4,1.2,0.7c0.3,0.4,0.4,0.8,0.4,1.4c0,0.8-0.3,1.4-0.8,1.9s-1.2,0.8-2.1,0.8c-0.8,0-1.4-0.2-1.9-0.7
	C240.2,127.5,240,126.9,239.9,126.2z"/>
<path d="M247.8,128.5h-1v-8.6h1.1v3.1c0.4-0.6,1-0.8,1.7-0.8c0.4,0,0.7,0.1,1.1,0.2c0.3,0.2,0.6,0.4,0.8,0.7c0.2,0.3,0.4,0.6,0.5,1
	s0.2,0.8,0.2,1.3c0,1.1-0.3,1.9-0.8,2.5s-1.2,0.9-1.9,0.9c-0.7,0-1.3-0.3-1.7-0.9V128.5z M247.8,125.3c0,0.7,0.1,1.3,0.3,1.6
	c0.3,0.5,0.8,0.8,1.3,0.8c0.5,0,0.9-0.2,1.2-0.6c0.3-0.4,0.5-1,0.5-1.8c0-0.8-0.2-1.4-0.5-1.8c-0.3-0.4-0.7-0.6-1.2-0.6
	c-0.5,0-0.9,0.2-1.2,0.6C248,124,247.8,124.6,247.8,125.3z"/>
<path d="M253.3,121v-1h5.6v0.8c-0.5,0.6-1.1,1.4-1.6,2.3s-1,2-1.2,3c-0.2,0.7-0.3,1.5-0.4,2.4h-1.1c0-0.7,0.1-1.5,0.4-2.4
	c0.3-1,0.6-1.9,1.1-2.8s1-1.6,1.5-2.2H253.3z"/>
<path d="M263.3,128.5v-2.1h-3.7v-1l3.9-5.6h0.9v5.6h1.2v1h-1.2v2.1H263.3z M263.3,125.5v-3.9l-2.7,3.9H263.3z"/>
<path d="M270.5,128.5h-1.1v-6.7c-0.3,0.2-0.6,0.5-1,0.7c-0.4,0.2-0.8,0.4-1.1,0.5v-1c0.6-0.3,1.1-0.6,1.5-1c0.4-0.4,0.8-0.8,0.9-1.1
	h0.7V128.5z"/>
<path d="M273.4,126.5l1-0.1c0.1,0.5,0.2,0.8,0.5,1s0.6,0.3,0.9,0.3c0.3,0,0.6-0.1,0.9-0.2c0.2-0.1,0.4-0.3,0.6-0.6
	c0.2-0.2,0.3-0.6,0.4-1s0.2-0.9,0.2-1.3c0,0,0-0.1,0-0.2c-0.2,0.3-0.5,0.6-0.9,0.8s-0.8,0.3-1.2,0.3c-0.7,0-1.3-0.3-1.8-0.8
	s-0.7-1.2-0.7-2c0-0.9,0.3-1.6,0.8-2.1s1.2-0.8,1.9-0.8c0.6,0,1.1,0.2,1.5,0.5s0.8,0.7,1.1,1.3c0.2,0.6,0.4,1.4,0.4,2.4
	c0,1.1-0.1,2-0.4,2.6c-0.2,0.7-0.6,1.1-1.1,1.5s-1,0.5-1.7,0.5c-0.7,0-1.2-0.2-1.6-0.6S273.5,127.2,273.4,126.5z M277.7,122.7
	c0-0.6-0.2-1.1-0.5-1.4c-0.3-0.4-0.7-0.5-1.2-0.5c-0.5,0-0.9,0.2-1.2,0.6s-0.5,0.9-0.5,1.5c0,0.5,0.2,1,0.5,1.3
	c0.3,0.3,0.7,0.5,1.2,0.5c0.5,0,0.9-0.2,1.2-0.5C277.5,123.8,277.7,123.3,277.7,122.7z"/>
<path d="M283.3,128.5v-2.1h-3.7v-1l3.9-5.6h0.9v5.6h1.2v1h-1.2v2.1H283.3z M283.3,125.5v-3.9l-2.7,3.9H283.3z"/>
<path d="M245.3,136.5l-0.3-1.6v-1.4h1.2v1.4l-0.3,1.6H245.3z M247.2,136.5l-0.3-1.6v-1.4h1.2v1.4l-0.3,1.6H247.2z"/>
<path d="M249.6,142v-8.6h3.2c0.7,0,1.2,0.1,1.6,0.3c0.4,0.2,0.7,0.4,0.9,0.8c0.2,0.4,0.3,0.7,0.3,1.1c0,0.4-0.1,0.7-0.3,1
	c-0.2,0.3-0.5,0.6-0.9,0.8c0.5,0.2,0.9,0.4,1.2,0.8c0.3,0.4,0.4,0.8,0.4,1.3c0,0.4-0.1,0.8-0.3,1.1s-0.4,0.6-0.6,0.8
	c-0.2,0.2-0.6,0.3-0.9,0.4c-0.4,0.1-0.8,0.1-1.4,0.1H249.6z M250.7,137h1.9c0.5,0,0.9,0,1.1-0.1c0.3-0.1,0.5-0.2,0.7-0.4
	c0.1-0.2,0.2-0.4,0.2-0.8c0-0.3-0.1-0.5-0.2-0.8c-0.1-0.2-0.3-0.4-0.6-0.4c-0.3-0.1-0.7-0.1-1.3-0.1h-1.7V137z M250.7,141h2.1
	c0.4,0,0.6,0,0.8,0c0.3,0,0.5-0.1,0.7-0.2c0.2-0.1,0.3-0.3,0.4-0.5s0.2-0.5,0.2-0.7c0-0.3-0.1-0.6-0.2-0.8s-0.4-0.4-0.7-0.5
	c-0.3-0.1-0.7-0.1-1.3-0.1h-2V141z"/>
<path d="M257.1,138.9c0-1.2,0.3-2,1-2.6c0.5-0.5,1.2-0.7,2-0.7c0.9,0,1.6,0.3,2.1,0.8s0.8,1.3,0.8,2.3c0,0.8-0.1,1.4-0.4,1.9
	c-0.2,0.5-0.6,0.8-1,1.1s-1,0.4-1.5,0.4c-0.9,0-1.6-0.3-2.1-0.8S257.1,139.9,257.1,138.9z M258.2,138.9c0,0.8,0.2,1.4,0.5,1.8
	c0.3,0.4,0.8,0.6,1.3,0.6c0.5,0,1-0.2,1.3-0.6c0.3-0.4,0.5-1,0.5-1.8c0-0.8-0.2-1.4-0.5-1.7c-0.3-0.4-0.8-0.6-1.3-0.6
	c-0.5,0-1,0.2-1.3,0.6C258.4,137.5,258.2,138.1,258.2,138.9z"/>
<path d="M265.1,142h-1v-8.6h1.1v3.1c0.4-0.6,1-0.8,1.7-0.8c0.4,0,0.7,0.1,1.1,0.2c0.3,0.2,0.6,0.4,0.8,0.7c0.2,0.3,0.4,0.6,0.5,1
	s0.2,0.8,0.2,1.3c0,1.1-0.3,1.9-0.8,2.5s-1.2,0.9-1.9,0.9c-0.7,0-1.3-0.3-1.7-0.9V142z M265.1,138.8c0,0.7,0.1,1.3,0.3,1.6
	c0.3,0.5,0.8,0.8,1.3,0.8c0.5,0,0.9-0.2,1.2-0.6c0.3-0.4,0.5-1,0.5-1.8c0-0.8-0.2-1.4-0.5-1.8c-0.3-0.4-0.7-0.6-1.2-0.6
	c-0.5,0-0.9,0.2-1.2,0.6C265.3,137.5,265.1,138.1,265.1,138.8z"/>
<path d="M270.9,136.5l-0.3-1.6v-1.4h1.2v1.4l-0.3,1.6H270.9z M272.8,136.5l-0.3-1.6v-1.4h1.2v1.4l-0.3,1.6H272.8z"/>
<rect x="200.8" y="118" fill-rule="evenodd" fill="none" width="116.9" height="27"/>
</svg>
