<?xml version="1.0" encoding="utf-8"?>
<!-- Generator: Adobe Illustrator 27.3.1, SVG Export Plug-In . SVG Version: 6.00 Build 0)  -->
<svg version="1.2" baseProfile="tiny" id="Layer_1" xmlns="http://www.w3.org/2000/svg" xmlns:xlink="http://www.w3.org/1999/xlink"
	 x="0px" y="0px" width="164.7px" height="94.2px" viewBox="0 0 164.7 94.2" overflow="visible" xml:space="preserve">
<path d="M32.1,67h3.8v2.2h-3.8V67z M26.7,67h3.8v2.2h-3.8V67z M27.3,61.2V65H25v-3.8H27.3z M27.3,53.7v3.8H25v-3.8H27.3z M27.3,46.2
	V50H25v-3.8H27.3z M27.3,38.7v3.8H25v-3.8H27.3z M27.3,31.2V35H25v-3.8H27.3z M28.5,27.2h-2.4v-1.1h1.1v1.4H25V25h3.5V27.2z
	 M36,27.2h-3.8V25H36V27.2z M43.5,27.2h-3.8V25h3.8V27.2z M51,27.2h-3.8V25H51V27.2z M58.6,27.2h-3.8V25h3.8V27.2z M66.1,27.2h-3.8
	V25h3.8V27.2z M73.6,27.2h-3.8V25h3.8V27.2z M81.1,27.2h-3.8V25h3.8V27.2z M88.6,27.2h-3.8V25h3.8V27.2z M96.1,27.2h-3.8V25h3.8
	V27.2z M103.6,27.2h-3.8V25h3.8V27.2z M111.1,27.2h-3.8V25h3.8V27.2z M118.6,27.2h-3.8V25h3.8V27.2z M126.1,27.2h-3.8V25h3.8V27.2z
	 M133.6,27.2h-3.8V25h3.8V27.2z M137.5,28.7v-2.5h1.1v1.1h-1.2V25h2.3v3.7H137.5z M137.5,36.2v-3.8h2.3v3.8H137.5z M137.5,43.7v-3.8
	h2.3v3.8H137.5z M137.5,51.2v-3.8h2.3v3.8H137.5z M137.5,58.7v-3.8h2.3v3.8H137.5z M137.5,66.2v-3.8h2.3v3.8H137.5z M133.1,67h3.8
	v2.2h-3.8V67z M125.6,67h3.8v2.2h-3.8V67z M118,67h3.8v2.2H118V67z M110.5,67h3.8v2.2h-3.8V67z M103,67h3.8v2.2H103V67z M95.5,67
	h3.8v2.2h-3.8V67z M88,67h3.8v2.2H88V67z M80.5,67h3.8v2.2h-3.8V67z M73,67h3.8v2.2H73V67z M65.5,67h3.8v2.2h-3.8V67z M58,67h3.8
	v2.2H58V67z M50.5,67h3.8v2.2h-3.8V67z M43,67h3.8v2.2H43V67z M35.4,67h3.8v2.2h-3.8V67z M27.9,67h3.8v2.2h-3.8V67z M31.8,69.2h-3.8
	V67h3.8V69.2z M33.3,60.9v3.8H31v-3.8H33.3z M33.3,53.4v3.8H31v-3.8H33.3z M33.3,45.9v3.8H31v-3.8H33.3z M33.3,38.4v3.8H31v-3.8
	H33.3z M33.3,30.9v3.8H31v-3.8H33.3z M34.8,27.2h-2.7v-1.1h1.1v1.1H31V25h3.8V27.2z M42.3,27.2h-3.8V25h3.8V27.2z M49.9,27.2h-3.8
	V25h3.8V27.2z M57.4,27.2h-3.8V25h3.8V27.2z M64.9,27.2h-3.8V25h3.8V27.2z M72.4,27.2h-3.8V25h3.8V27.2z M79.9,27.2h-3.8V25h3.8
	V27.2z M87.4,27.2h-3.8V25h3.8V27.2z M94.9,27.2h-3.8V25h3.8V27.2z M102.4,27.2h-3.8V25h3.8V27.2z M109.9,27.2h-3.8V25h3.8V27.2z
	 M117.4,27.2h-3.8V25h3.8V27.2z M124.9,27.2h-3.8V25h3.8V27.2z M132.5,27.2h-3.8V25h3.8V27.2z M131.5,33.5v-3.8h2.3v3.8H131.5z
	 M131.5,41v-3.8h2.3V41H131.5z M131.5,48.5v-3.8h2.3v3.8H131.5z M131.5,56v-3.8h2.3V56H131.5z M131.5,63.5v-3.8h2.3v3.8H131.5z
	 M129.8,67h2.9v1.1h-1.1v-0.9h2.3v2h-4V67z M122.2,67h3.8v2.2h-3.8V67z M114.7,67h3.8v2.2h-3.8V67z M107.2,67h3.8v2.2h-3.8V67z
	 M99.7,67h3.8v2.2h-3.8V67z M92.2,67H96v2.2h-3.8V67z M84.7,67h3.8v2.2h-3.8V67z M77.2,67h3.8v2.2h-3.8V67z M69.7,67h3.8v2.2h-3.8
	V67z M62.2,67h3.8v2.2h-3.8V67z M54.7,67h3.8v2.2h-3.8V67z M47.2,67h3.8v2.2h-3.8V67z M39.6,67h3.8v2.2h-3.8V67z"/>
<path d="M60.1,44.1h-1.1v-6.7c-0.3,0.2-0.6,0.5-1,0.7s-0.8,0.4-1.1,0.5v-1c0.6-0.3,1.1-0.6,1.5-1s0.8-0.8,0.9-1.1h0.7V44.1z"/>
<path d="M62.8,41.9l1.1-0.1c0.1,0.6,0.3,1,0.6,1.3c0.3,0.3,0.6,0.4,1.1,0.4c0.5,0,0.9-0.2,1.3-0.5s0.5-0.8,0.5-1.3
	c0-0.5-0.2-0.9-0.5-1.2c-0.3-0.3-0.7-0.5-1.2-0.5c-0.2,0-0.4,0-0.7,0.1l0.1-0.9c0.1,0,0.1,0,0.2,0c0.4,0,0.9-0.1,1.2-0.4
	s0.5-0.6,0.5-1.1c0-0.4-0.1-0.7-0.4-1c-0.3-0.3-0.6-0.4-1-0.4c-0.4,0-0.8,0.1-1,0.4c-0.3,0.3-0.4,0.6-0.5,1.2l-1.1-0.2
	c0.1-0.7,0.4-1.3,0.9-1.6s1-0.6,1.7-0.6c0.5,0,0.9,0.1,1.3,0.3s0.7,0.5,0.9,0.8c0.2,0.3,0.3,0.7,0.3,1.1c0,0.4-0.1,0.7-0.3,1
	c-0.2,0.3-0.5,0.5-0.9,0.7c0.5,0.1,0.9,0.4,1.2,0.7c0.3,0.4,0.4,0.8,0.4,1.4c0,0.8-0.3,1.4-0.8,1.9c-0.5,0.5-1.2,0.8-2.1,0.8
	c-0.8,0-1.4-0.2-1.9-0.7C63.2,43.2,62.9,42.6,62.8,41.9z"/>
<path d="M69.7,42.1l1-0.1c0.1,0.5,0.3,0.8,0.5,1c0.2,0.2,0.6,0.3,0.9,0.3c0.3,0,0.6-0.1,0.9-0.2c0.2-0.1,0.4-0.3,0.6-0.6
	c0.2-0.2,0.3-0.6,0.4-1c0.1-0.4,0.2-0.9,0.2-1.3c0,0,0-0.1,0-0.2c-0.2,0.3-0.5,0.6-0.9,0.8c-0.4,0.2-0.8,0.3-1.2,0.3
	c-0.7,0-1.3-0.3-1.8-0.8s-0.7-1.2-0.7-2c0-0.9,0.3-1.6,0.8-2.1s1.2-0.8,1.9-0.8c0.6,0,1.1,0.2,1.5,0.5s0.8,0.7,1.1,1.3
	c0.2,0.6,0.4,1.4,0.4,2.4c0,1.1-0.1,2-0.4,2.6c-0.2,0.7-0.6,1.1-1.1,1.5s-1,0.5-1.7,0.5c-0.7,0-1.2-0.2-1.6-0.6
	C70,43.3,69.7,42.8,69.7,42.1z M74,38.3c0-0.6-0.2-1.1-0.5-1.4s-0.7-0.5-1.2-0.5c-0.5,0-0.9,0.2-1.2,0.6s-0.5,0.9-0.5,1.5
	c0,0.5,0.2,1,0.5,1.3s0.7,0.5,1.2,0.5c0.5,0,0.9-0.2,1.2-0.5S74,39,74,38.3z"/>
<path d="M79.6,44.1v-2.1h-3.7v-1l3.9-5.6h0.9v5.6h1.2v1h-1.2v2.1H79.6z M79.6,41.1v-3.9l-2.7,3.9H79.6z"/>
<path d="M86.8,44.1h-1.1v-6.7c-0.3,0.2-0.6,0.5-1,0.7s-0.8,0.4-1.1,0.5v-1c0.6-0.3,1.1-0.6,1.5-1s0.8-0.8,0.9-1.1h0.7V44.1z"/>
<path d="M90.8,44.1h-1v-8.6h1.1v3.1c0.4-0.6,1-0.8,1.7-0.8c0.4,0,0.7,0.1,1.1,0.2c0.3,0.2,0.6,0.4,0.8,0.7c0.2,0.3,0.4,0.6,0.5,1
	s0.2,0.8,0.2,1.3c0,1.1-0.3,1.9-0.8,2.5c-0.5,0.6-1.2,0.9-1.9,0.9c-0.7,0-1.3-0.3-1.7-0.9V44.1z M90.8,41c0,0.7,0.1,1.3,0.3,1.6
	c0.3,0.5,0.8,0.8,1.3,0.8c0.5,0,0.9-0.2,1.2-0.6c0.3-0.4,0.5-1,0.5-1.8c0-0.8-0.2-1.4-0.5-1.8c-0.3-0.4-0.7-0.6-1.2-0.6
	c-0.5,0-0.9,0.2-1.2,0.6C91,39.6,90.8,40.2,90.8,41z"/>
<path d="M99.6,44.1v-2.1h-3.7v-1l3.9-5.6h0.9v5.6h1.2v1h-1.2v2.1H99.6z M99.6,41.1v-3.9l-2.7,3.9H99.6z"/>
<path d="M104.5,39.5c-0.4-0.2-0.8-0.4-1-0.7c-0.2-0.3-0.3-0.7-0.3-1.1c0-0.6,0.2-1.2,0.7-1.6s1-0.6,1.8-0.6c0.8,0,1.4,0.2,1.8,0.7
	s0.7,1,0.7,1.6c0,0.4-0.1,0.7-0.3,1c-0.2,0.3-0.5,0.5-1,0.7c0.5,0.2,0.9,0.4,1.2,0.8c0.3,0.4,0.4,0.8,0.4,1.4c0,0.7-0.3,1.4-0.8,1.9
	c-0.5,0.5-1.2,0.8-2.1,0.8s-1.5-0.3-2.1-0.8s-0.8-1.1-0.8-1.9c0-0.6,0.1-1,0.4-1.4S104,39.6,104.5,39.5z M104,41.6
	c0,0.3,0.1,0.6,0.2,0.9c0.1,0.3,0.4,0.5,0.6,0.7s0.6,0.2,0.9,0.2c0.5,0,0.9-0.2,1.2-0.5c0.3-0.3,0.5-0.7,0.5-1.2
	c0-0.5-0.2-0.9-0.5-1.3c-0.3-0.3-0.8-0.5-1.3-0.5c-0.5,0-0.9,0.2-1.2,0.5S104,41.2,104,41.6z M104.3,37.7c0,0.4,0.1,0.7,0.4,1
	c0.3,0.3,0.6,0.4,1,0.4c0.4,0,0.7-0.1,1-0.4c0.3-0.3,0.4-0.6,0.4-0.9c0-0.4-0.1-0.7-0.4-1c-0.3-0.3-0.6-0.4-1-0.4
	c-0.4,0-0.7,0.1-1,0.4C104.5,37,104.3,37.3,104.3,37.7z"/>
<path d="M46.7,54.6l1.1,0.3c-0.2,0.9-0.7,1.6-1.3,2.1c-0.6,0.5-1.4,0.7-2.3,0.7c-0.9,0-1.7-0.2-2.3-0.6s-1-0.9-1.3-1.6
	c-0.3-0.7-0.5-1.5-0.5-2.3c0-0.9,0.2-1.7,0.5-2.3s0.8-1.2,1.5-1.5c0.6-0.3,1.3-0.5,2.1-0.5c0.9,0,1.6,0.2,2.2,0.7
	c0.6,0.4,1,1.1,1.2,1.8l-1.1,0.3c-0.2-0.6-0.5-1.1-0.9-1.4s-0.9-0.4-1.4-0.4c-0.7,0-1.2,0.2-1.7,0.5s-0.8,0.7-0.9,1.3
	s-0.3,1.1-0.3,1.6c0,0.7,0.1,1.4,0.3,1.9c0.2,0.5,0.5,1,1,1.2s0.9,0.4,1.5,0.4c0.6,0,1.2-0.2,1.6-0.6S46.5,55.3,46.7,54.6z"/>
<path d="M48.9,53.4c0-1.4,0.4-2.5,1.1-3.3s1.8-1.2,3-1.2c0.8,0,1.5,0.2,2.1,0.6s1.1,0.9,1.5,1.6s0.5,1.4,0.5,2.3
	c0,0.9-0.2,1.7-0.5,2.3s-0.9,1.2-1.5,1.6s-1.3,0.5-2.1,0.5c-0.8,0-1.5-0.2-2.2-0.6c-0.6-0.4-1.1-0.9-1.4-1.6S48.9,54.2,48.9,53.4z
	 M50.1,53.5c0,1,0.3,1.9,0.8,2.4c0.6,0.6,1.3,0.9,2.1,0.9c0.9,0,1.6-0.3,2.1-0.9s0.8-1.5,0.8-2.6c0-0.7-0.1-1.3-0.4-1.8
	c-0.2-0.5-0.6-0.9-1-1.2c-0.5-0.3-1-0.4-1.5-0.4c-0.8,0-1.5,0.3-2.1,0.8C50.4,51.2,50.1,52.2,50.1,53.5z"/>
<path d="M58.6,57.6V49h1.7l2,6.1c0.2,0.6,0.3,1,0.4,1.3c0.1-0.3,0.2-0.8,0.5-1.4l2.1-6h1.5v8.6h-1.1v-7.2l-2.5,7.2h-1l-2.5-7.3v7.3
	H58.6z"/>
<path d="M68.6,57.6V49h3.2c0.6,0,1,0,1.3,0.1c0.4,0.1,0.8,0.2,1.1,0.4c0.3,0.2,0.5,0.5,0.7,0.8s0.3,0.7,0.3,1.2
	c0,0.7-0.2,1.3-0.7,1.9s-1.3,0.8-2.5,0.8h-2.2v3.5H68.6z M69.7,53.1H72c0.7,0,1.3-0.1,1.6-0.4c0.3-0.3,0.5-0.7,0.5-1.2
	c0-0.4-0.1-0.7-0.3-0.9c-0.2-0.3-0.4-0.4-0.7-0.5c-0.2-0.1-0.5-0.1-1.1-0.1h-2.2V53.1z"/>
<path d="M76.6,57.6V49h3.8c0.8,0,1.3,0.1,1.7,0.2s0.7,0.4,1,0.8c0.2,0.4,0.4,0.8,0.4,1.3c0,0.6-0.2,1.1-0.6,1.5s-1,0.7-1.8,0.8
	c0.3,0.1,0.5,0.3,0.7,0.4c0.3,0.3,0.6,0.7,0.9,1.1l1.5,2.3h-1.4l-1.1-1.8c-0.3-0.5-0.6-0.9-0.8-1.2c-0.2-0.3-0.4-0.5-0.6-0.6
	c-0.2-0.1-0.3-0.2-0.5-0.2c-0.1,0-0.3,0-0.6,0h-1.3v3.8H76.6z M77.8,52.8h2.4c0.5,0,0.9-0.1,1.2-0.2c0.3-0.1,0.5-0.3,0.7-0.5
	s0.2-0.5,0.2-0.8c0-0.4-0.1-0.7-0.4-1c-0.3-0.3-0.8-0.4-1.4-0.4h-2.7V52.8z"/>
<path d="M85.3,57.6V49h6.2v1h-5.1v2.6h4.8v1h-4.8v2.9h5.3v1H85.3z"/>
<path d="M92.9,54.9l1.1-0.1c0.1,0.4,0.2,0.8,0.4,1.1c0.2,0.3,0.5,0.5,0.9,0.7s0.8,0.3,1.3,0.3c0.4,0,0.8-0.1,1.1-0.2
	s0.6-0.3,0.7-0.5s0.2-0.5,0.2-0.7c0-0.3-0.1-0.5-0.2-0.7s-0.4-0.4-0.8-0.5c-0.2-0.1-0.7-0.2-1.5-0.4s-1.3-0.4-1.7-0.5
	c-0.4-0.2-0.7-0.5-0.9-0.8c-0.2-0.3-0.3-0.7-0.3-1.1c0-0.4,0.1-0.8,0.4-1.2s0.6-0.7,1.1-0.9s1-0.3,1.6-0.3c0.6,0,1.2,0.1,1.7,0.3
	s0.9,0.5,1.1,0.9c0.3,0.4,0.4,0.8,0.4,1.4l-1.1,0.1c-0.1-0.5-0.3-1-0.6-1.2c-0.3-0.3-0.8-0.4-1.5-0.4c-0.7,0-1.2,0.1-1.5,0.4
	s-0.5,0.6-0.5,0.9c0,0.3,0.1,0.6,0.3,0.8c0.2,0.2,0.8,0.4,1.7,0.6s1.6,0.4,1.9,0.5c0.5,0.2,0.9,0.5,1.1,0.9c0.2,0.4,0.4,0.8,0.4,1.2
	c0,0.5-0.1,0.9-0.4,1.3c-0.3,0.4-0.6,0.7-1.1,0.9c-0.5,0.2-1,0.3-1.7,0.3c-0.8,0-1.4-0.1-2-0.3c-0.5-0.2-0.9-0.6-1.2-1
	C93.1,56,92.9,55.4,92.9,54.9z"/>
<path d="M100.9,54.9l1.1-0.1c0.1,0.4,0.2,0.8,0.4,1.1c0.2,0.3,0.5,0.5,0.9,0.7s0.8,0.3,1.3,0.3c0.4,0,0.8-0.1,1.1-0.2
	s0.6-0.3,0.7-0.5s0.2-0.5,0.2-0.7c0-0.3-0.1-0.5-0.2-0.7s-0.4-0.4-0.8-0.5c-0.2-0.1-0.7-0.2-1.5-0.4s-1.3-0.4-1.7-0.5
	c-0.4-0.2-0.7-0.5-0.9-0.8c-0.2-0.3-0.3-0.7-0.3-1.1c0-0.4,0.1-0.8,0.4-1.2s0.6-0.7,1.1-0.9s1-0.3,1.6-0.3c0.6,0,1.2,0.1,1.7,0.3
	s0.9,0.5,1.1,0.9c0.3,0.4,0.4,0.8,0.4,1.4l-1.1,0.1c-0.1-0.5-0.3-1-0.6-1.2c-0.3-0.3-0.8-0.4-1.5-0.4c-0.7,0-1.2,0.1-1.5,0.4
	s-0.5,0.6-0.5,0.9c0,0.3,0.1,0.6,0.3,0.8c0.2,0.2,0.8,0.4,1.7,0.6s1.6,0.4,1.9,0.5c0.5,0.2,0.9,0.5,1.1,0.9c0.2,0.4,0.4,0.8,0.4,1.2
	c0,0.5-0.1,0.9-0.4,1.3c-0.3,0.4-0.6,0.7-1.1,0.9c-0.5,0.2-1,0.3-1.7,0.3c-0.8,0-1.4-0.1-2-0.3c-0.5-0.2-0.9-0.6-1.2-1
	C101.1,56,100.9,55.4,100.9,54.9z"/>
<path d="M109.4,57.6V49h6.2v1h-5.1v2.6h4.8v1h-4.8v2.9h5.3v1H109.4z"/>
<path d="M117.3,57.6V49h3c0.7,0,1.2,0,1.5,0.1c0.5,0.1,0.9,0.3,1.3,0.6c0.5,0.4,0.8,0.9,1,1.5c0.2,0.6,0.3,1.3,0.3,2
	c0,0.7-0.1,1.2-0.2,1.7c-0.2,0.5-0.3,0.9-0.6,1.3s-0.5,0.6-0.8,0.8s-0.6,0.3-1,0.4c-0.4,0.1-0.9,0.1-1.4,0.1H117.3z M118.5,56.6h1.8
	c0.6,0,1-0.1,1.3-0.2s0.6-0.3,0.8-0.4c0.3-0.3,0.5-0.6,0.6-1.1c0.2-0.5,0.2-1,0.2-1.7c0-0.9-0.1-1.6-0.4-2.1s-0.7-0.8-1.1-1
	c-0.3-0.1-0.8-0.2-1.5-0.2h-1.8V56.6z"/>
</svg>
