<?xml version="1.0" encoding="utf-8"?>
<!-- Generator: Adobe Illustrator 27.0.0, SVG Export Plug-In . SVG Version: 6.00 Build 0)  -->
<svg version="1.2" baseProfile="tiny" id="Layer_1" xmlns="http://www.w3.org/2000/svg" xmlns:xlink="http://www.w3.org/1999/xlink"
	 x="0px" y="0px" width="141.1px" height="94.2px" viewBox="0 0 141.1 94.2" overflow="visible" xml:space="preserve">
<path d="M36.1,67h3.7v2.2h-3.7V67z M34.5,62.5l1.7,3.4l-2,1l-1.7-3.4L34.5,62.5z M31.2,55.8l1.7,3.4l-2,1l-1.7-3.4L31.2,55.8z
	 M27.8,49.1l1.7,3.4l-2,1l-1.7-3.4L27.8,49.1z M28.7,43.4L27,46.8l-2-1l1.7-3.4L28.7,43.4z M32,36.7l-1.7,3.4l-2-1l1.7-3.4L32,36.7z
	 M35.4,30l-1.7,3.4l-2-1l1.7-3.4L35.4,30z M39.8,27.2h-3.7v-1.1l1,0.5l0,0l-2-1l0.3-0.6h4.4V27.2z M47.3,27.2h-3.7V25h3.7V27.2z
	 M54.8,27.2H51V25h3.7V27.2z M62.3,27.2h-3.7V25h3.7V27.2z M69.8,27.2H66V25h3.7V27.2z M77.2,27.2h-3.7V25h3.7V27.2z M84.7,27.2H81
	V25h3.7V27.2z M92.2,27.2h-3.7V25h3.7V27.2z M99.7,27.2H96V25h3.7V27.2z M104.6,29.2l-1.3-2.5l1-0.5v1.1h-0.9V25h1.6l1.6,3.2
	L104.6,29.2z M108,35.9l-1.7-3.4l2-1l1.7,3.4L108,35.9z M111.3,42.6l-1.7-3.4l2-1l1.7,3.4L111.3,42.6z M113,48.3l0.8-1.7l1,0.5
	l-1,0.5l-0.8-1.7l2-1l1.1,2.2l-1.1,2.2L113,48.3z M109.7,55l1.7-3.4l2,1l-1.7,3.4L109.7,55z M106.3,61.7l1.7-3.4l2,1l-1.7,3.4
	L106.3,61.7z M103.5,67h0.9v1.1l-1-0.5l1.3-2.6l2,1l-1.6,3.2h-1.6V67z M96,67h3.7v2.2H96V67z M88.5,67h3.7v2.2h-3.7V67z M81,67h3.7
	v2.2H81V67z M73.5,67h3.7v2.2h-3.7V67z M66,67h3.7v2.2H66V67z M58.5,67h3.7v2.2h-3.7V67z M51,67h3.7v2.2H51V67z M43.5,67h3.7v2.2
	h-3.7V67z"/>
<path d="M49.6,43.1v1h-5.7c0-0.3,0-0.5,0.1-0.7c0.1-0.4,0.4-0.8,0.7-1.1c0.3-0.4,0.8-0.8,1.4-1.3c0.9-0.8,1.6-1.4,1.9-1.8
	s0.5-0.9,0.5-1.3c0-0.4-0.1-0.8-0.4-1.1s-0.7-0.4-1.2-0.4c-0.5,0-0.9,0.2-1.2,0.5s-0.5,0.7-0.5,1.3L44.1,38c0.1-0.8,0.4-1.4,0.8-1.8
	s1.1-0.6,1.9-0.6c0.8,0,1.5,0.2,2,0.7s0.7,1,0.7,1.7c0,0.3-0.1,0.7-0.2,1c-0.1,0.3-0.4,0.7-0.7,1s-0.9,0.9-1.6,1.5
	c-0.6,0.5-1,0.9-1.2,1.1c-0.2,0.2-0.3,0.4-0.4,0.6H49.6z"/>
<path d="M50.8,36.7v-1h5.6v0.8c-0.5,0.6-1.1,1.4-1.6,2.3c-0.5,1-1,2-1.2,3c-0.2,0.7-0.3,1.5-0.4,2.4H52c0-0.7,0.1-1.5,0.4-2.4
	c0.3-1,0.6-1.9,1.1-2.8c0.5-0.9,1-1.6,1.5-2.2H50.8z"/>
<path d="M59,39.5c-0.4-0.2-0.8-0.4-1-0.7c-0.2-0.3-0.3-0.7-0.3-1.1c0-0.6,0.2-1.2,0.7-1.6c0.4-0.4,1-0.6,1.8-0.6
	c0.7,0,1.4,0.2,1.8,0.7c0.5,0.4,0.7,1,0.7,1.6c0,0.4-0.1,0.7-0.3,1c-0.2,0.3-0.5,0.5-1,0.7c0.5,0.2,0.9,0.4,1.2,0.8
	c0.3,0.4,0.4,0.8,0.4,1.4c0,0.7-0.3,1.4-0.8,1.9c-0.5,0.5-1.2,0.8-2,0.8c-0.8,0-1.5-0.3-2-0.8c-0.5-0.5-0.8-1.1-0.8-1.9
	c0-0.6,0.1-1,0.4-1.4C58.1,39.9,58.5,39.6,59,39.5z M58.4,41.6c0,0.3,0.1,0.6,0.2,0.9c0.1,0.3,0.4,0.5,0.6,0.7s0.6,0.2,0.9,0.2
	c0.5,0,0.9-0.2,1.2-0.5s0.5-0.7,0.5-1.2c0-0.5-0.2-0.9-0.5-1.3s-0.8-0.5-1.3-0.5c-0.5,0-0.9,0.2-1.2,0.5S58.4,41.2,58.4,41.6z
	 M58.8,37.7c0,0.4,0.1,0.7,0.4,1c0.3,0.3,0.6,0.4,1,0.4c0.4,0,0.7-0.1,1-0.4c0.3-0.3,0.4-0.6,0.4-0.9c0-0.4-0.1-0.7-0.4-1
	c-0.3-0.3-0.6-0.4-1-0.4c-0.4,0-0.7,0.1-1,0.4C58.9,37,58.8,37.3,58.8,37.7z"/>
<path d="M67.4,44.1v-2.1h-3.7v-1l3.9-5.6h0.9v5.6h1.2v1h-1.2v2.1H67.4z M67.4,41.1v-3.9l-2.7,3.9H67.4z"/>
<path d="M70.7,39.9c0-1,0.1-1.8,0.3-2.5c0.2-0.6,0.5-1.1,0.9-1.4s0.9-0.5,1.6-0.5c0.5,0,0.9,0.1,1.2,0.3s0.6,0.5,0.9,0.8
	c0.2,0.3,0.4,0.8,0.5,1.3c0.1,0.5,0.2,1.2,0.2,2c0,1-0.1,1.8-0.3,2.4c-0.2,0.6-0.5,1.1-0.9,1.4s-0.9,0.5-1.6,0.5
	c-0.8,0-1.5-0.3-1.9-0.9C71,42.7,70.7,41.5,70.7,39.9z M71.8,39.9c0,1.4,0.2,2.3,0.5,2.8s0.7,0.7,1.2,0.7c0.5,0,0.9-0.2,1.2-0.7
	s0.5-1.4,0.5-2.8c0-1.4-0.2-2.4-0.5-2.8s-0.7-0.7-1.2-0.7c-0.5,0-0.9,0.2-1.2,0.6C72,37.5,71.8,38.5,71.8,39.9z"/>
<path d="M77.4,41.9l1.1-0.1c0.1,0.6,0.3,1,0.6,1.3s0.6,0.4,1.1,0.4c0.5,0,0.9-0.2,1.3-0.5s0.5-0.8,0.5-1.3c0-0.5-0.2-0.9-0.5-1.2
	s-0.7-0.5-1.2-0.5c-0.2,0-0.4,0-0.7,0.1l0.1-0.9c0.1,0,0.1,0,0.2,0c0.4,0,0.9-0.1,1.2-0.4s0.5-0.6,0.5-1.1c0-0.4-0.1-0.7-0.4-1
	s-0.6-0.4-1-0.4c-0.4,0-0.8,0.1-1,0.4c-0.3,0.3-0.4,0.6-0.5,1.2l-1.1-0.2c0.1-0.7,0.4-1.3,0.9-1.6c0.5-0.4,1-0.6,1.7-0.6
	c0.5,0,0.9,0.1,1.3,0.3s0.7,0.5,0.9,0.8c0.2,0.3,0.3,0.7,0.3,1.1c0,0.4-0.1,0.7-0.3,1c-0.2,0.3-0.5,0.5-0.9,0.7
	c0.5,0.1,0.9,0.4,1.2,0.7S83,41,83,41.6c0,0.8-0.3,1.4-0.8,1.9c-0.5,0.5-1.2,0.8-2.1,0.8c-0.8,0-1.4-0.2-1.9-0.7
	C77.7,43.2,77.4,42.6,77.4,41.9z"/>
<path d="M84,41.9l1.1-0.1c0.1,0.5,0.3,0.9,0.6,1.2s0.7,0.4,1.1,0.4c0.5,0,0.9-0.2,1.3-0.6s0.5-0.9,0.5-1.5c0-0.6-0.2-1.1-0.5-1.4
	s-0.8-0.5-1.3-0.5c-0.3,0-0.6,0.1-0.9,0.2c-0.3,0.2-0.5,0.4-0.6,0.6l-1-0.1l0.8-4.4h4.3v1h-3.4L85.4,39c0.5-0.4,1.1-0.5,1.6-0.5
	c0.7,0,1.4,0.3,1.9,0.8c0.5,0.5,0.8,1.2,0.8,2c0,0.8-0.2,1.4-0.7,2c-0.5,0.7-1.3,1-2.3,1c-0.8,0-1.4-0.2-1.9-0.7S84.1,42.6,84,41.9z
	"/>
<path d="M90.7,39.9c0-1,0.1-1.8,0.3-2.5c0.2-0.6,0.5-1.1,0.9-1.4s0.9-0.5,1.6-0.5c0.5,0,0.9,0.1,1.2,0.3s0.6,0.5,0.9,0.8
	c0.2,0.3,0.4,0.8,0.5,1.3c0.1,0.5,0.2,1.2,0.2,2c0,1-0.1,1.8-0.3,2.4c-0.2,0.6-0.5,1.1-0.9,1.4s-0.9,0.5-1.6,0.5
	c-0.8,0-1.5-0.3-1.9-0.9C91,42.7,90.7,41.5,90.7,39.9z M91.8,39.9c0,1.4,0.2,2.3,0.5,2.8s0.7,0.7,1.2,0.7c0.5,0,0.9-0.2,1.2-0.7
	s0.5-1.4,0.5-2.8c0-1.4-0.2-2.4-0.5-2.8s-0.7-0.7-1.2-0.7c-0.5,0-0.9,0.2-1.2,0.6C92,37.5,91.8,38.5,91.8,39.9z"/>
<path d="M49.5,57.6V49h6.2v1h-5.1v2.6h4.7v1h-4.7v2.9h5.3v1H49.5z"/>
<path d="M57.4,57.6V49h1.1v7.6h4.2v1H57.4z"/>
<path d="M64.3,57.6V49h1.1v8.6H64.3z"/>
<path d="M67.5,57.6V49h3c0.7,0,1.2,0,1.5,0.1c0.5,0.1,0.9,0.3,1.3,0.6c0.5,0.4,0.8,0.9,1,1.5s0.3,1.3,0.3,2c0,0.7-0.1,1.2-0.2,1.7
	c-0.2,0.5-0.3,0.9-0.6,1.3c-0.2,0.3-0.5,0.6-0.8,0.8c-0.3,0.2-0.6,0.3-1,0.4c-0.4,0.1-0.9,0.1-1.4,0.1H67.5z M68.6,56.6h1.8
	c0.6,0,1-0.1,1.3-0.2s0.6-0.3,0.8-0.4c0.3-0.3,0.5-0.6,0.6-1.1c0.2-0.5,0.2-1,0.2-1.7c0-0.9-0.1-1.6-0.4-2.1c-0.3-0.5-0.7-0.8-1.1-1
	c-0.3-0.1-0.8-0.2-1.5-0.2h-1.8V56.6z"/>
<path d="M76.1,57.6V49h6.2v1h-5.1v2.6H82v1h-4.7v2.9h5.3v1H76.1z"/>
<path d="M84.1,57.6V49h3c0.7,0,1.2,0,1.5,0.1c0.5,0.1,0.9,0.3,1.3,0.6c0.5,0.4,0.8,0.9,1,1.5s0.3,1.3,0.3,2c0,0.7-0.1,1.2-0.2,1.7
	c-0.2,0.5-0.3,0.9-0.6,1.3c-0.2,0.3-0.5,0.6-0.8,0.8c-0.3,0.2-0.6,0.3-1,0.4c-0.4,0.1-0.9,0.1-1.4,0.1H84.1z M85.2,56.6h1.8
	c0.6,0,1-0.1,1.3-0.2s0.6-0.3,0.8-0.4c0.3-0.3,0.5-0.6,0.6-1.1c0.2-0.5,0.2-1,0.2-1.7c0-0.9-0.1-1.6-0.4-2.1c-0.3-0.5-0.7-0.8-1.1-1
	c-0.3-0.1-0.8-0.2-1.5-0.2h-1.8V56.6z"/>
</svg>
