<?xml version="1.0" encoding="utf-8"?>
<!-- Generator: Adobe Illustrator 27.2.0, SVG Export Plug-In . SVG Version: 6.00 Build 0)  -->
<svg version="1.2" baseProfile="tiny" id="Layer_1" xmlns="http://www.w3.org/2000/svg" xmlns:xlink="http://www.w3.org/1999/xlink"
	 x="0px" y="0px" width="171.5px" height="104px" viewBox="0 0 171.5 104" overflow="visible" xml:space="preserve">
<path d="M31,71.9h3.7v2.2H31V71.9z M36,69.6l-2.6,2.7l-1.6-1.6l2.6-2.7L36,69.6z M41.3,64.3l-2.6,2.7l-1.6-1.6l2.6-2.7L41.3,64.3z
	 M46.6,59l-2.6,2.7L42.3,60l2.6-2.7L46.6,59z M51.9,53.7l-2.6,2.7l-1.6-1.6l2.6-2.7L51.9,53.7z M48.3,46.8l2.6,2.7L49.4,51l-2.6-2.7
	L48.3,46.8z M43,41.5l2.6,2.7l-1.6,1.6L41.4,43L43,41.5z M37.7,36.2l2.6,2.7l-1.6,1.6l-2.6-2.7L37.7,36.2z M32.4,30.9l2.6,2.7
	l-1.6,1.6l-2.6-2.7L32.4,30.9z M37.6,32.1h-3.7v-2.2h3.7V32.1z M45,32.1h-3.7v-2.2H45V32.1z M52.5,32.1h-3.7v-2.2h3.7V32.1z
	 M60,32.1h-3.7v-2.2H60V32.1z M67.5,32.1h-3.7v-2.2h3.7V32.1z M75,32.1h-3.7v-2.2H75V32.1z M82.4,32.1h-3.7v-2.2h3.7V32.1z
	 M89.9,32.1h-3.7v-2.2h3.7V32.1z M97.4,32.1h-3.7v-2.2h3.7V32.1z M104.9,32.1h-3.7v-2.2h3.7V32.1z M112.4,32.1h-3.7v-2.2h3.7V32.1z
	 M119.9,32.1h-3.7v-2.2h3.7V32.1z M127.3,32.1h-3.7v-2.2h3.7V32.1z M134.8,32.1h-3.7v-2.2h3.7V32.1z M139.4,32.8V31h1.1v1.1h-2v-2.2
	h3.1v2.9H139.4z M139.4,40.3v-3.8h2.2v3.8H139.4z M139.4,47.8V44h2.2v3.8H139.4z M139.4,55.3v-3.8h2.2v3.8H139.4z M139.4,62.8V59
	h2.2v3.8H139.4z M139.4,70.3v-3.8h2.2v3.8H139.4z M135.7,71.9h3.7v2.2h-3.7V71.9z M128.3,71.9h3.7v2.2h-3.7V71.9z M120.8,71.9h3.7
	v2.2h-3.7V71.9z M113.3,71.9h3.7v2.2h-3.7V71.9z M105.8,71.9h3.7v2.2h-3.7V71.9z M98.3,71.9h3.7v2.2h-3.7V71.9z M90.8,71.9h3.7v2.2
	h-3.7V71.9z M83.4,71.9h3.7v2.2h-3.7V71.9z M75.9,71.9h3.7v2.2h-3.7V71.9z M68.4,71.9h3.7v2.2h-3.7V71.9z M60.9,71.9h3.7v2.2h-3.7
	V71.9z M53.4,71.9h3.7v2.2h-3.7V71.9z M45.9,71.9h3.7v2.2h-3.7V71.9z M38.5,71.9h3.7v2.2h-3.7V71.9z"/>
<rect x="25" y="25" fill-rule="evenodd" fill="none" width="121.5" height="54"/>
<path d="M74,49H73v-6.7c-0.3,0.2-0.6,0.5-1,0.7s-0.8,0.4-1.1,0.5v-1c0.6-0.3,1.1-0.6,1.5-1s0.8-0.8,0.9-1.1H74V49z"/>
<path d="M76.7,46.7l1.1-0.1c0.1,0.6,0.3,1,0.6,1.3c0.3,0.3,0.6,0.4,1.1,0.4c0.5,0,0.9-0.2,1.3-0.5c0.3-0.3,0.5-0.8,0.5-1.3
	c0-0.5-0.2-0.9-0.5-1.2c-0.3-0.3-0.7-0.5-1.2-0.5c-0.2,0-0.4,0-0.7,0.1l0.1-0.9c0.1,0,0.1,0,0.2,0c0.4,0,0.9-0.1,1.2-0.4
	s0.5-0.6,0.5-1.1c0-0.4-0.1-0.7-0.4-1s-0.6-0.4-1-0.4c-0.4,0-0.8,0.1-1,0.4s-0.4,0.6-0.5,1.2l-1.1-0.2c0.1-0.7,0.4-1.3,0.9-1.6
	c0.5-0.4,1-0.6,1.7-0.6c0.5,0,0.9,0.1,1.3,0.3s0.7,0.5,0.9,0.8s0.3,0.7,0.3,1.1c0,0.4-0.1,0.7-0.3,1s-0.5,0.5-0.9,0.7
	c0.5,0.1,0.9,0.4,1.2,0.7c0.3,0.4,0.4,0.8,0.4,1.4c0,0.8-0.3,1.4-0.8,1.9c-0.5,0.5-1.2,0.8-2.1,0.8c-0.8,0-1.4-0.2-1.9-0.7
	C77.1,48,76.8,47.4,76.7,46.7z"/>
<path d="M83.6,47l1-0.1c0.1,0.5,0.2,0.8,0.5,1s0.6,0.3,0.9,0.3c0.3,0,0.6-0.1,0.9-0.2c0.2-0.1,0.4-0.3,0.6-0.6
	c0.2-0.2,0.3-0.6,0.4-1c0.1-0.4,0.2-0.9,0.2-1.3c0,0,0-0.1,0-0.2c-0.2,0.3-0.5,0.6-0.9,0.8s-0.8,0.3-1.2,0.3c-0.7,0-1.3-0.3-1.8-0.8
	c-0.5-0.5-0.7-1.2-0.7-2c0-0.9,0.3-1.6,0.8-2.1c0.5-0.5,1.2-0.8,1.9-0.8c0.6,0,1.1,0.2,1.5,0.5c0.5,0.3,0.8,0.7,1.1,1.3
	c0.2,0.6,0.4,1.4,0.4,2.4c0,1.1-0.1,2-0.4,2.6c-0.2,0.7-0.6,1.1-1.1,1.5c-0.5,0.3-1,0.5-1.7,0.5c-0.7,0-1.2-0.2-1.6-0.6
	S83.6,47.7,83.6,47z M87.9,43.2c0-0.6-0.2-1.1-0.5-1.4c-0.3-0.4-0.7-0.5-1.2-0.5c-0.5,0-0.9,0.2-1.2,0.6c-0.3,0.4-0.5,0.9-0.5,1.5
	c0,0.5,0.2,1,0.5,1.3c0.3,0.3,0.7,0.5,1.2,0.5c0.5,0,0.9-0.2,1.2-0.5C87.7,44.3,87.9,43.8,87.9,43.2z"/>
<path d="M93.4,49v-2.1h-3.7v-1l3.9-5.6h0.9V46h1.2v1h-1.2V49H93.4z M93.4,46v-3.9L90.7,46H93.4z"/>
<path d="M100.7,49h-1.1v-6.7c-0.3,0.2-0.6,0.5-1,0.7s-0.8,0.4-1.1,0.5v-1c0.6-0.3,1.1-0.6,1.5-1s0.8-0.8,0.9-1.1h0.7V49z"/>
<path d="M104.6,49h-1v-8.6h1.1v3.1c0.4-0.6,1-0.8,1.7-0.8c0.4,0,0.7,0.1,1.1,0.2s0.6,0.4,0.8,0.7s0.4,0.6,0.5,1
	c0.1,0.4,0.2,0.8,0.2,1.3c0,1.1-0.3,1.9-0.8,2.5c-0.5,0.6-1.2,0.9-1.9,0.9c-0.7,0-1.3-0.3-1.7-0.9V49z M104.6,45.8
	c0,0.7,0.1,1.3,0.3,1.6c0.3,0.5,0.8,0.8,1.3,0.8c0.5,0,0.9-0.2,1.2-0.6c0.3-0.4,0.5-1,0.5-1.8c0-0.8-0.2-1.4-0.5-1.8
	c-0.3-0.4-0.7-0.6-1.2-0.6c-0.5,0-0.9,0.2-1.2,0.6C104.8,44.5,104.6,45.1,104.6,45.8z"/>
<path d="M113.4,49v-2.1h-3.7v-1l3.9-5.6h0.9V46h1.2v1h-1.2V49H113.4z M113.4,46v-3.9l-2.7,3.9H113.4z"/>
<path d="M118.3,44.3c-0.4-0.2-0.8-0.4-1-0.7S117,43,117,42.6c0-0.6,0.2-1.2,0.7-1.6c0.4-0.4,1-0.6,1.8-0.6c0.7,0,1.4,0.2,1.8,0.7
	s0.7,1,0.7,1.6c0,0.4-0.1,0.7-0.3,1s-0.5,0.5-0.9,0.7c0.5,0.2,0.9,0.4,1.2,0.8c0.3,0.4,0.4,0.8,0.4,1.4c0,0.7-0.3,1.4-0.8,1.9
	c-0.5,0.5-1.2,0.8-2,0.8c-0.8,0-1.5-0.3-2-0.8c-0.5-0.5-0.8-1.1-0.8-1.9c0-0.6,0.1-1,0.4-1.4C117.4,44.7,117.8,44.5,118.3,44.3z
	 M117.8,46.5c0,0.3,0.1,0.6,0.2,0.9s0.4,0.5,0.6,0.7s0.6,0.2,0.9,0.2c0.5,0,0.9-0.2,1.2-0.5c0.3-0.3,0.5-0.7,0.5-1.2
	c0-0.5-0.2-0.9-0.5-1.3c-0.3-0.3-0.8-0.5-1.3-0.5c-0.5,0-0.9,0.2-1.2,0.5C117.9,45.6,117.8,46,117.8,46.5z M118.1,42.6
	c0,0.4,0.1,0.7,0.4,1c0.3,0.3,0.6,0.4,1,0.4c0.4,0,0.7-0.1,1-0.4c0.3-0.3,0.4-0.6,0.4-0.9c0-0.4-0.1-0.7-0.4-1
	c-0.3-0.3-0.6-0.4-1-0.4c-0.4,0-0.7,0.1-1,0.4C118.2,41.9,118.1,42.2,118.1,42.6z"/>
<path d="M60.4,62.5v-8.6h6.2v1h-5.1v2.6h4.7v1h-4.7v2.9h5.3v1H60.4z"/>
<path d="M68.3,62.5v-8.6h1.2l4.5,6.7v-6.7h1.1v8.6h-1.2l-4.5-6.8v6.8H68.3z"/>
<path d="M83.1,59.5l1.1,0.3c-0.2,0.9-0.7,1.6-1.3,2.1s-1.4,0.7-2.3,0.7c-0.9,0-1.7-0.2-2.3-0.6s-1-0.9-1.3-1.6
	c-0.3-0.7-0.5-1.5-0.5-2.3c0-0.9,0.2-1.7,0.5-2.3c0.3-0.7,0.8-1.2,1.5-1.5s1.3-0.5,2.1-0.5c0.9,0,1.6,0.2,2.2,0.7
	c0.6,0.4,1,1.1,1.2,1.8L83,56.5c-0.2-0.6-0.5-1.1-0.9-1.4s-0.9-0.4-1.4-0.4c-0.7,0-1.2,0.2-1.7,0.5s-0.8,0.7-0.9,1.3
	s-0.3,1.1-0.3,1.6c0,0.7,0.1,1.4,0.3,1.9s0.5,1,1,1.2c0.4,0.3,0.9,0.4,1.5,0.4c0.6,0,1.2-0.2,1.6-0.6C82.6,60.8,82.9,60.2,83.1,59.5
	z"/>
<path d="M85.6,62.5v-8.6h3.8c0.8,0,1.3,0.1,1.7,0.2s0.7,0.4,1,0.8s0.4,0.8,0.4,1.3c0,0.6-0.2,1.1-0.6,1.5s-1,0.7-1.8,0.8
	c0.3,0.1,0.5,0.3,0.7,0.4c0.3,0.3,0.6,0.7,0.9,1.1l1.5,2.3h-1.4l-1.1-1.8c-0.3-0.5-0.6-0.9-0.8-1.2s-0.4-0.5-0.6-0.6
	c-0.2-0.1-0.3-0.2-0.5-0.2c-0.1,0-0.3,0-0.6,0h-1.3v3.8H85.6z M86.8,57.7h2.4c0.5,0,0.9-0.1,1.2-0.2c0.3-0.1,0.5-0.3,0.7-0.5
	c0.2-0.2,0.2-0.5,0.2-0.8c0-0.4-0.1-0.7-0.4-1c-0.3-0.3-0.8-0.4-1.4-0.4h-2.7V57.7z"/>
<path d="M96.5,62.5v-3.6l-3.3-5h1.4l1.7,2.6c0.3,0.5,0.6,1,0.9,1.5c0.3-0.4,0.6-1,0.9-1.5l1.7-2.5h1.3l-3.4,5v3.6H96.5z"/>
<path d="M102,62.5v-8.6h3.2c0.6,0,1,0,1.3,0.1c0.4,0.1,0.8,0.2,1.1,0.4c0.3,0.2,0.5,0.5,0.7,0.8s0.3,0.7,0.3,1.2
	c0,0.7-0.2,1.3-0.7,1.9c-0.5,0.5-1.3,0.8-2.5,0.8h-2.2v3.5H102z M103.2,58h2.2c0.7,0,1.3-0.1,1.6-0.4c0.3-0.3,0.5-0.7,0.5-1.2
	c0-0.4-0.1-0.7-0.3-0.9s-0.4-0.4-0.7-0.5c-0.2-0.1-0.5-0.1-1.1-0.1h-2.2V58z"/>
<path d="M112.2,62.5v-7.6h-2.8v-1h6.8v1h-2.8v7.6H112.2z"/>
<path d="M117.3,62.5v-8.6h6.2v1h-5.1v2.6h4.7v1h-4.7v2.9h5.3v1H117.3z"/>
<path d="M125.3,62.5v-8.6h3c0.7,0,1.2,0,1.5,0.1c0.5,0.1,0.9,0.3,1.3,0.6c0.5,0.4,0.8,0.9,1,1.5s0.3,1.3,0.3,2
	c0,0.7-0.1,1.2-0.2,1.7c-0.2,0.5-0.3,0.9-0.6,1.3c-0.2,0.3-0.5,0.6-0.8,0.8c-0.3,0.2-0.6,0.3-1,0.4s-0.9,0.1-1.4,0.1H125.3z
	 M126.4,61.5h1.8c0.6,0,1-0.1,1.3-0.2c0.3-0.1,0.6-0.3,0.8-0.4c0.3-0.3,0.5-0.6,0.6-1.1s0.2-1,0.2-1.7c0-0.9-0.1-1.6-0.4-2.1
	c-0.3-0.5-0.7-0.8-1.1-1c-0.3-0.1-0.8-0.2-1.5-0.2h-1.8V61.5z"/>
<rect x="59.4" y="38.5" fill-rule="evenodd" fill="none" width="73.3" height="27"/>
</svg>
